<?xml version="1.0" encoding="UTF-8" standalone="no"?>
<svg
   version="1.2"
   width="25.218647mm"
   height="12.868701mm"
   viewBox="0 0 14.350799 7.3230009"
   id="svg128"
   xmlns:xlink="http://www.w3.org/1999/xlink"
   xmlns="http://www.w3.org/2000/svg"
   xmlns:svg="http://www.w3.org/2000/svg">
  <defs
     id="defs132" />
  <style
     type="text/css"
     id="style2"><![CDATA[
tspan { white-space: pre; }
]]></style>
  <g
     transform="translate(0,6.779)"
     id="g6">
    <rect
       x="9.7311001"
       y="-0.1"
       width="2.066"
       height="0.2"
       ry="0.1"
       fill="currentColor"
       id="rect4" />
  </g>
  <g
     transform="translate(0,6.779)"
     id="g10">
    <rect
       x="5.4556999"
       y="-0.1"
       width="2.066"
       height="0.2"
       ry="0.1"
       fill="currentColor"
       id="rect8" />
  </g>
  <g
     transform="translate(0,5.779)"
     id="g14">
    <line
       stroke-linejoin="round"
       stroke-linecap="round"
       stroke-width="0.1"
       stroke="currentColor"
       x1="0.050000001"
       y1="0"
       x2="14.3008"
       y2="0"
       id="line12" />
  </g>
  <g
     transform="translate(0,4.779)"
     id="g18">
    <line
       stroke-linejoin="round"
       stroke-linecap="round"
       stroke-width="0.1"
       stroke="currentColor"
       x1="0.050000001"
       y1="0"
       x2="14.3008"
       y2="0"
       id="line16" />
  </g>
  <g
     transform="translate(0,3.779)"
     id="g22">
    <line
       stroke-linejoin="round"
       stroke-linecap="round"
       stroke-width="0.1"
       stroke="currentColor"
       x1="0.050000001"
       y1="0"
       x2="14.3008"
       y2="0"
       id="line20" />
  </g>
  <g
     transform="translate(0,2.779)"
     id="g26">
    <line
       stroke-linejoin="round"
       stroke-linecap="round"
       stroke-width="0.1"
       stroke="currentColor"
       x1="0.050000001"
       y1="0"
       x2="14.3008"
       y2="0"
       id="line24" />
  </g>
  <g
     transform="translate(0,1.779)"
     id="g30">
    <line
       stroke-linejoin="round"
       stroke-linecap="round"
       stroke-width="0.1"
       stroke="currentColor"
       x1="0.050000001"
       y1="0"
       x2="14.3008"
       y2="0"
       id="line28" />
  </g>
  <a
     style="color:inherit"
     xlink:href="textedit:///Users/philippeperret/Programmes/ScoreSuite/ScoreImage/Manuel/images/scores/arpege-par-arp-untrimed.ly:24:14:15"
     id="a48"
     transform="translate(-22.7622,-12.3811)">
    <g
       transform="translate(27.2622,16.1601)"
       id="g34">
      <path
         transform="scale(0.004,-0.004)"
         d="m -1,75 c 0,42 91,65 91,131 0,17 -5,33 -17,47 l -31,25 c -4,3 -6,8 -6,12 0,8 7,16 16,16 3,0 7,-1 10,-4 L 190,195 c 8,-6 11,-13 11,-20 0,-42 -91,-65 -91,-131 0,-17 5,-33 17,-47 l 31,-25 c 4,-3 6,-8 6,-12 0,-8 -7,-16 -16,-16 -3,0 -7,1 -10,4 L 10,55 C 2,61 -1,68 -1,75 Z"
         fill="currentColor"
         id="path32" />
    </g>
    <g
       transform="translate(27.2622,17.1601)"
       id="g38">
      <path
         transform="scale(0.004,-0.004)"
         d="m -1,75 c 0,42 91,65 91,131 0,17 -5,33 -17,47 l -31,25 c -4,3 -6,8 -6,12 0,8 7,16 16,16 3,0 7,-1 10,-4 L 190,195 c 8,-6 11,-13 11,-20 0,-42 -91,-65 -91,-131 0,-17 5,-33 17,-47 l 31,-25 c 4,-3 6,-8 6,-12 0,-8 -7,-16 -16,-16 -3,0 -7,1 -10,4 L 10,55 C 2,61 -1,68 -1,75 Z"
         fill="currentColor"
         id="path36" />
    </g>
    <g
       transform="translate(27.2622,18.1601)"
       id="g42">
      <path
         transform="scale(0.004,-0.004)"
         d="m -1,75 c 0,42 91,65 91,131 0,17 -5,33 -17,47 l -31,25 c -4,3 -6,8 -6,12 0,8 7,16 16,16 3,0 7,-1 10,-4 L 190,195 c 8,-6 11,-13 11,-20 0,-42 -91,-65 -91,-131 0,-17 5,-33 17,-47 l 31,-25 c 4,-3 6,-8 6,-12 0,-8 -7,-16 -16,-16 -3,0 -7,1 -10,4 L 10,55 C 2,61 -1,68 -1,75 Z"
         fill="currentColor"
         id="path40" />
    </g>
    <g
       transform="translate(27.2622,19.1601)"
       id="g46">
      <path
         transform="scale(0.004,-0.004)"
         d="m -1,75 c 0,42 91,65 91,131 0,17 -5,33 -17,47 l -31,25 c -4,3 -6,8 -6,12 0,8 7,16 16,16 3,0 7,-1 10,-4 L 190,195 c 8,-6 11,-13 11,-20 0,-42 -91,-65 -91,-131 0,-17 5,-33 17,-47 l 31,-25 c 4,-3 6,-8 6,-12 0,-8 -7,-16 -16,-16 -3,0 -7,1 -10,4 L 10,55 C 2,61 -1,68 -1,75 Z"
         fill="currentColor"
         id="path44" />
    </g>
  </a>
  <a
     style="color:inherit"
     xlink:href="textedit:///Users/philippeperret/Programmes/ScoreSuite/ScoreImage/Manuel/images/scores/arpege-par-arp-untrimed.ly:24:5:6"
     id="a54"
     transform="translate(-22.7622,-12.3811)">
    <g
       transform="translate(28.5622,19.1601)"
       id="g52">
      <path
         transform="scale(0.004,-0.004)"
         d="m 314,65 c 0,23 -19,41 -42,41 C 233,106 68,-4 41,-37 34,-45 31,-55 31,-65 c 0,-23 19,-41 42,-41 39,0 203,110 230,143 7,8 11,18 11,28 z m -52,71 c 41,0 82,-14 82,-71 0,-26 -16,-112 -74,-151 -25,-17 -87,-50 -187,-50 -41,0 -83,14 -83,71 0,26 16,112 74,151 25,17 88,50 188,50 z"
         fill="currentColor"
         id="path50" />
    </g>
  </a>
  <a
     style="color:inherit"
     xlink:href="textedit:///Users/philippeperret/Programmes/ScoreSuite/ScoreImage/Manuel/images/scores/arpege-par-arp-untrimed.ly:24:7:8"
     id="a60"
     transform="translate(-22.7622,-12.3811)">
    <g
       transform="translate(28.5622,18.1601)"
       id="g58">
      <path
         transform="scale(0.004,-0.004)"
         d="m 314,65 c 0,23 -19,41 -42,41 C 233,106 68,-4 41,-37 34,-45 31,-55 31,-65 c 0,-23 19,-41 42,-41 39,0 203,110 230,143 7,8 11,18 11,28 z m -52,71 c 41,0 82,-14 82,-71 0,-26 -16,-112 -74,-151 -25,-17 -87,-50 -187,-50 -41,0 -83,14 -83,71 0,26 16,112 74,151 25,17 88,50 188,50 z"
         fill="currentColor"
         id="path56" />
    </g>
  </a>
  <a
     style="color:inherit"
     xlink:href="textedit:///Users/philippeperret/Programmes/ScoreSuite/ScoreImage/Manuel/images/scores/arpege-par-arp-untrimed.ly:24:9:10"
     id="a66"
     transform="translate(-22.7622,-12.3811)">
    <g
       transform="translate(28.5622,17.1601)"
       id="g64">
      <path
         transform="scale(0.004,-0.004)"
         d="m 314,65 c 0,23 -19,41 -42,41 C 233,106 68,-4 41,-37 34,-45 31,-55 31,-65 c 0,-23 19,-41 42,-41 39,0 203,110 230,143 7,8 11,18 11,28 z m -52,71 c 41,0 82,-14 82,-71 0,-26 -16,-112 -74,-151 -25,-17 -87,-50 -187,-50 -41,0 -83,14 -83,71 0,26 16,112 74,151 25,17 88,50 188,50 z"
         fill="currentColor"
         id="path62" />
    </g>
  </a>
  <a
     style="color:inherit"
     xlink:href="textedit:///Users/philippeperret/Programmes/ScoreSuite/ScoreImage/Manuel/images/scores/arpege-par-arp-untrimed.ly:24:11:12"
     id="a72"
     transform="translate(-22.7622,-12.3811)">
    <g
       transform="translate(28.5622,15.6601)"
       id="g70">
      <path
         transform="scale(0.004,-0.004)"
         d="m 314,65 c 0,23 -19,41 -42,41 C 233,106 68,-4 41,-37 34,-45 31,-55 31,-65 c 0,-23 19,-41 42,-41 39,0 203,110 230,143 7,8 11,18 11,28 z m -52,71 c 41,0 82,-14 82,-71 0,-26 -16,-112 -74,-151 -25,-17 -87,-50 -187,-50 -41,0 -83,14 -83,71 0,26 16,112 74,151 25,17 88,50 188,50 z"
         fill="currentColor"
         id="path68" />
    </g>
  </a>
  <g
     transform="translate(0.8,4.779)"
     id="g76">
    <path
       transform="scale(0.004,-0.004)"
       d="m 266,-635 h -6 c -108,0 -195,88 -195,197 0,58 53,103 112,103 54,0 95,-47 95,-103 0,-52 -43,-95 -95,-95 -11,0 -21,2 -31,6 26,-39 68,-65 117,-65 h 4 z m 195,432 c 68,24 113,90 113,164 0,90 -66,179 -173,190 19,-89 48,-242 60,-354 z M 74,28 c 0,-145 141,-247 264,-247 1,0 47,0 82,6 -7,64 -29,203 -63,364 -79,-8 -124,-61 -124,-119 0,-44 25,-91 81,-123 5,-5 7,-10 7,-15 0,-11 -10,-22 -22,-22 -15,0 -126,62 -126,187 0,88 58,174 160,197 -14,58 -29,117 -46,175 C 180,310 74,188 74,28 Z m 176,525 c -29,96 -52,170 -52,346 0,115 55,224 149,292 6,5 14,5 20,0 68,-80 133,-245 133,-358 0,-143 -86,-255 -180,-364 21,-68 39,-138 56,-207 2,0 7,1 13,1 155,0 256,-128 256,-261 0,-113 -74,-212 -180,-246 3,-35 5,-70 5,-105 0,-19 -1,-39 -2,-58 -7,-119 -88,-225 -202,-228 l 1,43 c 93,2 153,92 159,191 1,18 2,37 2,55 0,31 -1,61 -4,92 -5,-1 -44,-8 -89,-8 C 142,-262 2,-82 2,112 2,289 133,418 250,553 Z m 178,363 c 0,34 1,66 -20,129 -99,-48 -162,-149 -162,-259 0,-52 12,-115 36,-194 80,97 146,198 146,324 z"
       fill="currentColor"
       id="path74" />
  </g>
  <g
     transform="translate(7.1124,3.779)"
     id="g80">
    <rect
       x="-0.064999998"
       y="-3.6666999"
       width="0.13"
       height="6.4077001"
       ry="0.039999999"
       fill="currentColor"
       id="rect78" />
  </g>
  <a
     style="color:inherit"
     xlink:href="textedit:///Users/philippeperret/Programmes/ScoreSuite/ScoreImage/Manuel/images/scores/arpege-par-arp-untrimed.ly:24:34:35"
     id="a98"
     transform="translate(-22.7622,-12.3811)">
    <g
       transform="translate(31.5376,16.1601)"
       id="g84">
      <path
         transform="scale(0.004,-0.004)"
         d="m -1,75 c 0,42 91,65 91,131 0,17 -5,33 -17,47 l -31,25 c -4,3 -6,8 -6,12 0,8 7,16 16,16 3,0 7,-1 10,-4 L 190,195 c 8,-6 11,-13 11,-20 0,-42 -91,-65 -91,-131 0,-17 5,-33 17,-47 l 31,-25 c 4,-3 6,-8 6,-12 0,-8 -7,-16 -16,-16 -3,0 -7,1 -10,4 L 10,55 C 2,61 -1,68 -1,75 Z"
         fill="currentColor"
         id="path82" />
    </g>
    <g
       transform="translate(31.5376,17.1601)"
       id="g88">
      <path
         transform="scale(0.004,-0.004)"
         d="m -1,75 c 0,42 91,65 91,131 0,17 -5,33 -17,47 l -31,25 c -4,3 -6,8 -6,12 0,8 7,16 16,16 3,0 7,-1 10,-4 L 190,195 c 8,-6 11,-13 11,-20 0,-42 -91,-65 -91,-131 0,-17 5,-33 17,-47 l 31,-25 c 4,-3 6,-8 6,-12 0,-8 -7,-16 -16,-16 -3,0 -7,1 -10,4 L 10,55 C 2,61 -1,68 -1,75 Z"
         fill="currentColor"
         id="path86" />
    </g>
    <g
       transform="translate(31.5376,18.1601)"
       id="g92">
      <path
         transform="scale(0.004,-0.004)"
         d="m -1,75 c 0,42 91,65 91,131 0,17 -5,33 -17,47 l -31,25 c -4,3 -6,8 -6,12 0,8 7,16 16,16 3,0 7,-1 10,-4 L 190,195 c 8,-6 11,-13 11,-20 0,-42 -91,-65 -91,-131 0,-17 5,-33 17,-47 l 31,-25 c 4,-3 6,-8 6,-12 0,-8 -7,-16 -16,-16 -3,0 -7,1 -10,4 L 10,55 C 2,61 -1,68 -1,75 Z"
         fill="currentColor"
         id="path90" />
    </g>
    <g
       transform="translate(31.5376,19.1601)"
       id="g96">
      <path
         transform="scale(0.004,-0.004)"
         d="m -1,75 c 0,42 91,65 91,131 0,17 -5,33 -17,47 l -31,25 c -4,3 -6,8 -6,12 0,8 7,16 16,16 3,0 7,-1 10,-4 L 190,195 c 8,-6 11,-13 11,-20 0,-42 -91,-65 -91,-131 0,-17 5,-33 17,-47 l 31,-25 c 4,-3 6,-8 6,-12 0,-8 -7,-16 -16,-16 -3,0 -7,1 -10,4 L 10,55 C 2,61 -1,68 -1,75 Z"
         fill="currentColor"
         id="path94" />
    </g>
  </a>
  <a
     style="color:inherit"
     xlink:href="textedit:///Users/philippeperret/Programmes/ScoreSuite/ScoreImage/Manuel/images/scores/arpege-par-arp-untrimed.ly:24:25:26"
     id="a104"
     transform="translate(-22.7622,-12.3811)">
    <g
       transform="translate(32.8376,19.1601)"
       id="g102">
      <path
         transform="scale(0.004,-0.004)"
         d="m 314,65 c 0,23 -19,41 -42,41 C 233,106 68,-4 41,-37 34,-45 31,-55 31,-65 c 0,-23 19,-41 42,-41 39,0 203,110 230,143 7,8 11,18 11,28 z m -52,71 c 41,0 82,-14 82,-71 0,-26 -16,-112 -74,-151 -25,-17 -87,-50 -187,-50 -41,0 -83,14 -83,71 0,26 16,112 74,151 25,17 88,50 188,50 z"
         fill="currentColor"
         id="path100" />
    </g>
  </a>
  <a
     style="color:inherit"
     xlink:href="textedit:///Users/philippeperret/Programmes/ScoreSuite/ScoreImage/Manuel/images/scores/arpege-par-arp-untrimed.ly:24:27:28"
     id="a110"
     transform="translate(-22.7622,-12.3811)">
    <g
       transform="translate(32.8376,18.1601)"
       id="g108">
      <path
         transform="scale(0.004,-0.004)"
         d="m 314,65 c 0,23 -19,41 -42,41 C 233,106 68,-4 41,-37 34,-45 31,-55 31,-65 c 0,-23 19,-41 42,-41 39,0 203,110 230,143 7,8 11,18 11,28 z m -52,71 c 41,0 82,-14 82,-71 0,-26 -16,-112 -74,-151 -25,-17 -87,-50 -187,-50 -41,0 -83,14 -83,71 0,26 16,112 74,151 25,17 88,50 188,50 z"
         fill="currentColor"
         id="path106" />
    </g>
  </a>
  <a
     style="color:inherit"
     xlink:href="textedit:///Users/philippeperret/Programmes/ScoreSuite/ScoreImage/Manuel/images/scores/arpege-par-arp-untrimed.ly:24:29:30"
     id="a116"
     transform="translate(-22.7622,-12.3811)">
    <g
       transform="translate(32.8376,17.1601)"
       id="g114">
      <path
         transform="scale(0.004,-0.004)"
         d="m 314,65 c 0,23 -19,41 -42,41 C 233,106 68,-4 41,-37 34,-45 31,-55 31,-65 c 0,-23 19,-41 42,-41 39,0 203,110 230,143 7,8 11,18 11,28 z m -52,71 c 41,0 82,-14 82,-71 0,-26 -16,-112 -74,-151 -25,-17 -87,-50 -187,-50 -41,0 -83,14 -83,71 0,26 16,112 74,151 25,17 88,50 188,50 z"
         fill="currentColor"
         id="path112" />
    </g>
  </a>
  <a
     style="color:inherit"
     xlink:href="textedit:///Users/philippeperret/Programmes/ScoreSuite/ScoreImage/Manuel/images/scores/arpege-par-arp-untrimed.ly:24:31:32"
     id="a122"
     transform="translate(-22.7622,-12.3811)">
    <g
       transform="translate(32.8376,15.6601)"
       id="g120">
      <path
         transform="scale(0.004,-0.004)"
         d="m 314,65 c 0,23 -19,41 -42,41 C 233,106 68,-4 41,-37 34,-45 31,-55 31,-65 c 0,-23 19,-41 42,-41 39,0 203,110 230,143 7,8 11,18 11,28 z m -52,71 c 41,0 82,-14 82,-71 0,-26 -16,-112 -74,-151 -25,-17 -87,-50 -187,-50 -41,0 -83,14 -83,71 0,26 16,112 74,151 25,17 88,50 188,50 z"
         fill="currentColor"
         id="path118" />
    </g>
  </a>
  <g
     transform="translate(11.3877,3.779)"
     id="g126">
    <rect
       x="-0.064999998"
       y="-3.6666999"
       width="0.13"
       height="6.4077001"
       ry="0.039999999"
       fill="currentColor"
       id="rect124" />
  </g>
</svg>
