<?xml version="1.0" encoding="UTF-8" standalone="no"?>
<svg
   version="1.2"
   width="111.63419mm"
   height="32.714764mm"
   viewBox="0 0 25.410402 7.4465999"
   id="svg120"
   xmlns="http://www.w3.org/2000/svg"
   xmlns:svg="http://www.w3.org/2000/svg">
  <defs
     id="defs124" />
  <style
     type="text/css"
     id="style2"><![CDATA[
tspan { white-space: pre; }
]]></style>
  <g
     transform="translate(0,0.78)"
     id="g6">
    <rect
       x="21.378201"
       y="-0.080300003"
       width="1.9586999"
       height="0.16060001"
       ry="0.080300003"
       fill="currentColor"
       id="rect4" />
  </g>
  <g
     transform="translate(0,5.78)"
     id="g10">
    <line
       stroke-linejoin="round"
       stroke-linecap="round"
       stroke-width="0.0606"
       stroke="currentColor"
       x1="0.030300001"
       y1="0"
       x2="25.3801"
       y2="0"
       id="line8" />
  </g>
  <g
     transform="translate(0,4.78)"
     id="g14">
    <line
       stroke-linejoin="round"
       stroke-linecap="round"
       stroke-width="0.0606"
       stroke="currentColor"
       x1="0.030300001"
       y1="0"
       x2="25.3801"
       y2="0"
       id="line12" />
  </g>
  <g
     transform="translate(0,3.78)"
     id="g18">
    <line
       stroke-linejoin="round"
       stroke-linecap="round"
       stroke-width="0.0606"
       stroke="currentColor"
       x1="0.030300001"
       y1="0"
       x2="25.3801"
       y2="0"
       id="line16" />
  </g>
  <g
     transform="translate(0,2.78)"
     id="g22">
    <line
       stroke-linejoin="round"
       stroke-linecap="round"
       stroke-width="0.0606"
       stroke="currentColor"
       x1="0.030300001"
       y1="0"
       x2="25.3801"
       y2="0"
       id="line20" />
  </g>
  <g
     transform="translate(0,1.78)"
     id="g26">
    <line
       stroke-linejoin="round"
       stroke-linecap="round"
       stroke-width="0.0606"
       stroke="currentColor"
       x1="0.030300001"
       y1="0"
       x2="25.3801"
       y2="0"
       id="line24" />
  </g>
  <g
     transform="translate(13.6872,4.28)"
     id="g30">
    <path
       transform="scale(0.004,-0.004)"
       d="m 222,135 c 64,0 104,-35 104,-86 0,-89 -114,-184 -221,-184 -64,0 -105,35 -105,86 0,89 115,184 222,184 z"
       fill="currentColor"
       id="path28" />
  </g>
  <g
     transform="translate(0.8,4.78)"
     id="g34">
    <path
       transform="scale(0.004,-0.004)"
       d="m 264,-594 c 47,0 165,26 165,246 0,32 -2,64 -5,96 -5,-1 -44,-8 -89,-8 -193,0 -333,178 -333,372 0,178 133,306 251,440 -27,93 -49,170 -49,345 0,116 55,226 150,295 5,4 11,4 16,0 67,-81 132,-246 132,-359 0,-144 -87,-256 -183,-365 20,-69 39,-138 55,-208 2,0 7,1 15,1 154,0 254,-127 254,-259 0,-112 -73,-212 -180,-245 3,-36 5,-72 5,-108 0,-19 0,-37 -1,-56 -7,-120 -89,-226 -206,-226 -108,0 -195,87 -195,195 0,58 53,104 112,104 54,0 95,-48 95,-104 0,-52 -43,-95 -95,-95 -12,0 -24,4 -35,9 26,-41 70,-70 121,-70 z m 195,389 c 71,24 117,92 117,166 0,92 -69,184 -179,193 1,-5 45,-212 62,-359 z M 71,31 c 0,-146 142,-251 267,-251 1,0 46,0 82,6 -7,63 -28,201 -64,367 -79,-9 -125,-62 -125,-121 0,-44 26,-92 82,-124 4,-4 7,-9 7,-14 0,-11 -9,-21 -20,-21 -14,0 -125,62 -125,186 0,88 57,173 158,196 -14,60 -30,119 -46,178 C 179,312 71,191 71,31 Z M 411,1050 C 312,1000 250,899 250,788 c 0,-59 11,-123 33,-200 82,97 149,198 149,325 0,35 0,69 -21,137 z"
       fill="currentColor"
       id="path32" />
  </g>
  <g
     transform="translate(4.4037,3.78)"
     id="g38">
    <path
       transform="scale(0.004,-0.004)"
       d="m 25,44 -1,-69 c 0,-4 -1,-7 -1,-11 0,-22 2,-44 4,-66 46,38 96,80 96,139 0,34 -14,69 -44,69 C 48,106 26,77 25,44 Z m -50,419 c 8,4 16,7 25,7 9,0 17,-3 25,-7 L 19,114 c 26,19 56,30 88,30 53,0 93,-46 93,-100 0,-82 -90,-118 -153,-169 -14,-11 -22,-32 -40,-32 -12,0 -21,9 -21,21 z"
       fill="currentColor"
       id="path36" />
  </g>
  <g
     transform="translate(5.3075,2.28)"
     id="g42">
    <path
       transform="scale(0.004,-0.004)"
       d="m 25,44 -1,-69 c 0,-4 -1,-7 -1,-11 0,-22 2,-44 4,-66 46,38 96,80 96,139 0,34 -14,69 -44,69 C 48,106 26,77 25,44 Z m -50,419 c 8,4 16,7 25,7 9,0 17,-3 25,-7 L 19,114 c 26,19 56,30 88,30 53,0 93,-46 93,-100 0,-82 -90,-118 -153,-169 -14,-11 -22,-32 -40,-32 -12,0 -21,9 -21,21 z"
       fill="currentColor"
       id="path40" />
  </g>
  <g
     transform="translate(6.2112,4.28)"
     id="g46">
    <path
       transform="scale(0.004,-0.004)"
       d="m 25,44 -1,-69 c 0,-4 -1,-7 -1,-11 0,-22 2,-44 4,-66 46,38 96,80 96,139 0,34 -14,69 -44,69 C 48,106 26,77 25,44 Z m -50,419 c 8,4 16,7 25,7 9,0 17,-3 25,-7 L 19,114 c 26,19 56,30 88,30 53,0 93,-46 93,-100 0,-82 -90,-118 -153,-169 -14,-11 -22,-32 -40,-32 -12,0 -21,9 -21,21 z"
       fill="currentColor"
       id="path44" />
  </g>
  <g
     transform="translate(7.115,2.78)"
     id="g50">
    <path
       transform="scale(0.004,-0.004)"
       d="m 25,44 -1,-69 c 0,-4 -1,-7 -1,-11 0,-22 2,-44 4,-66 46,38 96,80 96,139 0,34 -14,69 -44,69 C 48,106 26,77 25,44 Z m -50,419 c 8,4 16,7 25,7 9,0 17,-3 25,-7 L 19,114 c 26,19 56,30 88,30 53,0 93,-46 93,-100 0,-82 -90,-118 -153,-169 -14,-11 -22,-32 -40,-32 -12,0 -21,9 -21,21 z"
       fill="currentColor"
       id="path48" />
  </g>
  <g
     transform="translate(9.065,3.78)"
     id="g58">
    <g
       id="g56">
      <path
         transform="scale(0.004,-0.004)"
         d="m 0,250 109,250 c 5,12 29,-13 55,-13 14,0 26,7 39,13 7,4 15,-4 15,-15 V 109 c 0,-45 26,-88 68,-88 7,0 11,-5 11,-10 C 297,6 293,0 286,0 245,0 205,13 164,13 123,13 82,0 41,0 34,0 30,6 30,11 c 0,5 4,10 11,10 42,0 68,43 68,88 v 258 c 0,11 -8,17 -15,17 -4,0 -7,-2 -9,-6 L 24,239 c -2,-6 -6,-8 -11,-8 -7,0 -14,5 -14,13 0,2 0,4 1,6 z"
         fill="currentColor"
         id="path52" />
      <path
         transform="matrix(0.004,0,0,-0.004,1.1882,0)"
         d="M 227,0 C 140,0 138,65 83,65 53,65 24,44 21,10 20,3 16,0 11,0 6,0 0,3 0,10 c 0,154 232,171 232,345 0,60 -19,124 -71,124 -24,0 -46,-15 -46,-37 0,-27 35,-41 35,-68 0,-38 -31,-69 -69,-69 -38,0 -68,31 -68,69 0,74 70,126 148,126 93,0 180,-58 180,-145 0,-156 -160,-160 -254,-229 12,3 25,5 38,5 81,0 111,-58 171,-58 46,0 36,36 52,36 5,0 11,-4 11,-10 C 359,78 318,0 227,0 Z"
         fill="currentColor"
         id="path54" />
    </g>
  </g>
  <g
     transform="translate(9.6591,5.78)"
     id="g62">
    <path
       transform="scale(0.004,-0.004)"
       d="m 256,283 c 26,31 45,65 45,105 0,55 -55,91 -114,91 -48,0 -76,-37 -76,-74 0,-22 10,-45 33,-58 z m 28,-17 C 307,253 364,213 364,142 364,70 299,0 179,0 87,0 0,53 0,138 c 0,51 37,90 73,126 -38,28 -57,66 -57,104 0,67 60,132 171,132 78,0 154,-41 154,-112 0,-47 -25,-87 -57,-122 z M 101,246 C 69,215 40,182 40,138 40,69 106,21 179,21 c 55,0 88,43 88,85 0,25 -11,51 -37,66 z"
       fill="currentColor"
       id="path60" />
  </g>
  <g
     transform="translate(13.7266,3.78)"
     id="g66">
    <rect
       x="-0.0394"
       y="0.69669998"
       width="0.078699999"
       height="2.503"
       ry="0.016000001"
       fill="currentColor"
       id="rect64" />
  </g>
  <g
     transform="translate(13.6872,6.9898)"
     id="g70">
    <polygon
       stroke-linejoin="round"
       stroke-linecap="round"
       stroke-width="0.032"
       fill="currentColor"
       stroke="currentColor"
       points="0.016,0.224 0.016,-0.224 5.5744,-1.6434 5.5744,-1.1954 "
       id="polygon68" />
  </g>
  <g
     transform="translate(19.1988,3.78)"
     id="g74">
    <path
       stroke-width="0.0485"
       stroke-linejoin="round"
       stroke-linecap="round"
       stroke="currentColor"
       fill="currentColor"
       d="m 1.5058,-1.6329 c 0.187,0.2418 0.4524,0.2418 0.6394,0 v 0 c -0.187,0.1692 -0.4524,0.1692 -0.6394,0 z"
       id="path72" />
  </g>
  <g
     transform="translate(16.443,3.28)"
     id="g78">
    <path
       transform="scale(0.004,-0.004)"
       d="m 222,135 c 64,0 104,-35 104,-86 0,-89 -114,-184 -221,-184 -64,0 -105,35 -105,86 0,89 115,184 222,184 z"
       fill="currentColor"
       id="path76" />
  </g>
  <g
     transform="translate(16.4824,3.78)"
     id="g82">
    <rect
       x="-0.0394"
       y="-0.30329999"
       width="0.078699999"
       height="2.8032999"
       ry="0.016000001"
       fill="currentColor"
       id="rect80" />
  </g>
  <g
     transform="translate(16.443,3.78)"
     id="g86">
    <path
       stroke-width="0.0485"
       stroke-linejoin="round"
       stroke-linecap="round"
       stroke="currentColor"
       fill="currentColor"
       d="m 0.8529,0.225 c 0.79,0.7555 3.2581,0.7555 4.0481,0 v 0 c -0.79,0.6828 -3.2581,0.6828 -4.0481,0 z"
       id="path84" />
  </g>
  <g
     transform="translate(19.1988,1.78)"
     id="g90">
    <path
       transform="scale(0.004,-0.004)"
       d="m 222,135 c 64,0 104,-35 104,-86 0,-89 -114,-184 -221,-184 -64,0 -105,35 -105,86 0,89 115,184 222,184 z"
       fill="currentColor"
       id="path88" />
  </g>
  <g
     transform="translate(19.2382,3.78)"
     id="g94">
    <rect
       x="-0.0394"
       y="-1.8033"
       width="0.078699999"
       height="3.6036"
       ry="0.016000001"
       fill="currentColor"
       id="rect92" />
  </g>
  <g
     transform="translate(13.6872,3.78)"
     id="g98">
    <path
       stroke-width="0.0485"
       stroke-linejoin="round"
       stroke-linecap="round"
       stroke="currentColor"
       fill="currentColor"
       d="m 0.8529,1.225 c 1.0464,0.862 5.7575,0.862 6.8039,0 v 0 c -1.0464,0.7893 -5.7575,0.7893 -6.8039,0 z"
       id="path96" />
  </g>
  <g
     transform="translate(21.7046,4.28)"
     id="g102">
    <path
       transform="scale(0.004,-0.004)"
       d="m 222,135 c 64,0 104,-35 104,-86 0,-89 -114,-184 -221,-184 -64,0 -105,35 -105,86 0,89 115,184 222,184 z"
       fill="currentColor"
       id="path100" />
  </g>
  <g
     transform="translate(21.7046,3.28)"
     id="g106">
    <path
       transform="scale(0.004,-0.004)"
       d="m 222,135 c 64,0 104,-35 104,-86 0,-89 -114,-184 -221,-184 -64,0 -105,35 -105,86 0,89 115,184 222,184 z"
       fill="currentColor"
       id="path104" />
  </g>
  <g
     transform="translate(21.7046,1.78)"
     id="g110">
    <path
       transform="scale(0.004,-0.004)"
       d="m 222,135 c 64,0 104,-35 104,-86 0,-89 -114,-184 -221,-184 -64,0 -105,35 -105,86 0,89 115,184 222,184 z"
       fill="currentColor"
       id="path108" />
  </g>
  <g
     transform="translate(21.7046,0.78)"
     id="g114">
    <path
       transform="scale(0.004,-0.004)"
       d="m 222,135 c 64,0 104,-35 104,-86 0,-89 -114,-184 -221,-184 -64,0 -105,35 -105,86 0,89 115,184 222,184 z"
       fill="currentColor"
       id="path112" />
  </g>
  <g
     transform="translate(21.744,3.78)"
     id="g118">
    <rect
       x="-0.0394"
       y="-2.8032999"
       width="0.078699999"
       height="6.4699001"
       ry="0.016000001"
       fill="currentColor"
       id="rect116" />
  </g>
</svg>
