<?xml version="1.0" encoding="UTF-8" standalone="no"?>
<!DOCTYPE svg PUBLIC "-//W3C//DTD SVG 1.1//EN" "http://www.w3.org/Graphics/SVG/1.1/DTD/svg11.dtd">
<svg width="100%" height="100%" viewBox="0 0 317 115" version="1.1" xmlns="http://www.w3.org/2000/svg" xmlns:xlink="http://www.w3.org/1999/xlink" xml:space="preserve" xmlns:serif="http://www.serif.com/" style="fill-rule:evenodd;clip-rule:evenodd;stroke-linecap:round;stroke-linejoin:round;">
    <g id="g6" transform="matrix(1,0,0,1,0,31.1333)">
        <rect id="rect4" x="266.229" y="-1" width="24.392" height="2"/>
    </g>
    <g id="g10" transform="matrix(1,0,0,1,0,93.3998)">
        <path id="line8" d="M0.377,0L316.066,0" style="fill:none;fill-rule:nonzero;stroke:black;stroke-width:0.75px;"/>
    </g>
    <g id="g14" transform="matrix(1,0,0,1,0,80.9465)">
        <path id="line12" d="M0.377,0L316.066,0" style="fill:none;fill-rule:nonzero;stroke:black;stroke-width:0.75px;"/>
    </g>
    <g id="g18" transform="matrix(1,0,0,1,0,68.4932)">
        <path id="line16" d="M0.377,0L316.066,0" style="fill:none;fill-rule:nonzero;stroke:black;stroke-width:0.75px;"/>
    </g>
    <g id="g22" transform="matrix(1,0,0,1,0,56.0399)">
        <path id="line20" d="M0.377,0L316.066,0" style="fill:none;fill-rule:nonzero;stroke:black;stroke-width:0.75px;"/>
    </g>
    <g id="g26" transform="matrix(1,0,0,1,0,43.5866)">
        <path id="line24" d="M0.377,0L316.066,0" style="fill:none;fill-rule:nonzero;stroke:black;stroke-width:0.75px;"/>
    </g>
    <g id="path28" transform="matrix(0.004,0,0,-0.004,170.451,74.7198)">
        <g id="g30">
            <path id="path281" serif:id="path28" d="M2764.63,1681.2C3561.64,1681.2 4059.78,1245.33 4059.78,610.212C4059.78,-498.132 2640.1,-1681.2 1307.6,-1681.2C510.585,-1681.2 0,-1245.33 0,-610.212C0,498.132 1432.13,1681.2 2764.63,1681.2Z" style="fill-rule:nonzero;"/>
        </g>
    </g>
    <g id="path32" transform="matrix(0.004,0,0,-0.004,9.96264,80.9465)">
        <g id="g34">
            <path id="path321" serif:id="path32" d="M3287.67,-7397.26C3872.98,-7397.26 5342.47,-7073.48 5342.47,-4333.75C5342.47,-3935.24 5317.56,-3536.74 5280.2,-3138.23C5217.93,-3150.68 4732.25,-3237.86 4171.86,-3237.86C1768.37,-3237.86 24.907,-1021.17 24.907,1394.77C24.907,3611.46 1681.2,5205.48 3150.68,6874.22C2814.45,8032.38 2540.47,8991.28 2540.47,11170.6C2540.47,12615.2 3225.41,13985.1 4408.47,14844.3C4470.73,14894.1 4545.45,14894.1 4607.72,14844.3C5442.09,13835.6 6251.56,11780.8 6251.56,10373.6C6251.56,8580.32 5168.12,7185.55 3972.6,5828.15C4221.67,4968.87 4458.28,4109.59 4657.53,3237.86C4682.44,3237.86 4744.71,3250.31 4844.33,3250.31C6762.14,3250.31 8007.47,1668.74 8007.47,24.907C8007.47,-1369.86 7098.38,-2615.19 5765.88,-3026.15C5803.24,-3474.47 5828.15,-3922.79 5828.15,-4371.11C5828.15,-4607.72 5828.15,-4831.88 5815.69,-5068.49C5728.52,-6562.89 4707.35,-7882.94 3250.31,-7882.94C1905.36,-7882.94 821.918,-6799.5 821.918,-5454.55C821.918,-4732.25 1481.94,-4159.4 2216.69,-4159.4C2889.17,-4159.4 3399.75,-4757.16 3399.75,-5454.55C3399.75,-6102.12 2864.26,-6637.61 2216.69,-6637.61C2067.25,-6637.61 1917.81,-6587.8 1780.82,-6525.53C2104.61,-7036.11 2652.55,-7397.26 3287.67,-7397.26ZM5716.07,-2552.93C6600.25,-2254.05 7173.1,-1407.22 7173.1,-485.679C7173.1,660.025 6313.82,1805.73 4943.96,1917.81C4956.41,1855.54 5504.36,-722.291 5716.07,-2552.93ZM884.184,386.052C884.184,-1432.13 2652.55,-2739.73 4209.22,-2739.73C4221.67,-2739.73 4782.07,-2739.73 5230.39,-2665.01C5143.21,-1880.45 4881.69,-161.893 4433.38,1905.36C3449.56,1793.28 2876.71,1133.25 2876.71,398.506C2876.71,-149.44 3200.5,-747.198 3897.88,-1145.7C3947.7,-1195.52 3985.06,-1257.78 3985.06,-1320.05C3985.06,-1457.04 3872.98,-1581.57 3735.99,-1581.57C3561.64,-1581.57 2179.33,-809.465 2179.33,734.745C2179.33,1830.63 2889.17,2889.17 4146.95,3175.59C3972.6,3922.79 3773.35,4657.53 3574.1,5392.28C2229.14,3885.43 884.184,2378.58 884.184,386.052ZM5118.31,13076C3885.43,12453.3 3113.33,11195.5 3113.33,9813.2C3113.33,9078.46 3250.31,8281.44 3524.28,7322.54C4545.45,8530.51 5379.83,9788.29 5379.83,11369.9C5379.83,11805.7 5379.83,12229.1 5118.31,13076Z" style="fill-rule:nonzero;"/>
        </g>
    </g>
    <g id="path36" transform="matrix(0.004,0,0,-0.004,54.8406,68.4932)">
        <g id="g38">
            <path id="path361" serif:id="path36" d="M311.333,547.945L298.879,-311.333C298.879,-361.146 286.426,-398.506 286.426,-448.319C286.426,-722.291 311.333,-996.264 336.239,-1270.24C909.091,-797.011 1531.76,-273.973 1531.76,460.772C1531.76,884.184 1357.41,1320.05 983.811,1320.05C597.758,1320.05 323.786,958.904 311.333,547.945ZM-311.333,5765.88C-211.706,5815.69 -112.08,5853.05 0,5853.05C112.08,5853.05 211.706,5815.69 311.333,5765.88L236.613,1419.68C560.399,1656.29 933.998,1793.28 1332.5,1793.28C1992.53,1793.28 2490.66,1220.42 2490.66,547.945C2490.66,-473.225 1369.86,-921.544 585.305,-1556.66C410.959,-1693.65 311.333,-1955.17 87.173,-1955.17C-62.267,-1955.17 -174.346,-1843.09 -174.346,-1693.65L-311.333,5765.88Z" style="fill-rule:nonzero;"/>
        </g>
    </g>
    <g id="path40" transform="matrix(0.004,0,0,-0.004,66.0959,49.8132)">
        <g id="g42">
            <path id="path401" serif:id="path40" d="M311.333,547.945L298.879,-311.333C298.879,-361.146 286.426,-398.506 286.426,-448.319C286.426,-722.291 311.333,-996.264 336.239,-1270.24C909.091,-797.011 1531.76,-273.973 1531.76,460.772C1531.76,884.184 1357.41,1320.05 983.811,1320.05C597.758,1320.05 323.786,958.904 311.333,547.945ZM-311.333,5765.88C-211.706,5815.69 -112.08,5853.05 0,5853.05C112.08,5853.05 211.706,5815.69 311.333,5765.88L236.613,1419.68C560.399,1656.29 933.998,1793.28 1332.5,1793.28C1992.53,1793.28 2490.66,1220.42 2490.66,547.945C2490.66,-473.225 1369.86,-921.544 585.305,-1556.66C410.959,-1693.65 311.333,-1955.17 87.173,-1955.17C-62.267,-1955.17 -174.346,-1843.09 -174.346,-1693.65L-311.333,5765.88Z" style="fill-rule:nonzero;"/>
        </g>
    </g>
    <g id="path44" transform="matrix(0.004,0,0,-0.004,77.3499,74.7198)">
        <g id="g46">
            <path id="path441" serif:id="path44" d="M311.333,547.945L298.879,-311.333C298.879,-361.146 286.426,-398.506 286.426,-448.319C286.426,-722.291 311.333,-996.264 336.239,-1270.24C909.091,-797.011 1531.76,-273.973 1531.76,460.772C1531.76,884.184 1357.41,1320.05 983.811,1320.05C597.758,1320.05 323.786,958.904 311.333,547.945ZM-311.333,5765.88C-211.706,5815.69 -112.08,5853.05 0,5853.05C112.08,5853.05 211.706,5815.69 311.333,5765.88L236.613,1419.68C560.399,1656.29 933.998,1793.28 1332.5,1793.28C1992.53,1793.28 2490.66,1220.42 2490.66,547.945C2490.66,-473.225 1369.86,-921.544 585.305,-1556.66C410.959,-1693.65 311.333,-1955.17 87.173,-1955.17C-62.267,-1955.17 -174.346,-1843.09 -174.346,-1693.65L-311.333,5765.88Z" style="fill-rule:nonzero;"/>
        </g>
    </g>
    <g id="path48" transform="matrix(0.004,0,0,-0.004,88.6052,56.0399)">
        <g id="g50">
            <path id="path481" serif:id="path48" d="M311.333,547.945L298.879,-311.333C298.879,-361.146 286.426,-398.506 286.426,-448.319C286.426,-722.291 311.333,-996.264 336.239,-1270.24C909.091,-797.011 1531.76,-273.973 1531.76,460.772C1531.76,884.184 1357.41,1320.05 983.811,1320.05C597.758,1320.05 323.786,958.904 311.333,547.945ZM-311.333,5765.88C-211.706,5815.69 -112.08,5853.05 0,5853.05C112.08,5853.05 211.706,5815.69 311.333,5765.88L236.613,1419.68C560.399,1656.29 933.998,1793.28 1332.5,1793.28C1992.53,1793.28 2490.66,1220.42 2490.66,547.945C2490.66,-473.225 1369.86,-921.544 585.305,-1556.66C410.959,-1693.65 311.333,-1955.17 87.173,-1955.17C-62.267,-1955.17 -174.346,-1843.09 -174.346,-1693.65L-311.333,5765.88Z" style="fill-rule:nonzero;"/>
        </g>
    </g>
    <g id="g58" transform="matrix(1,0,0,1,112.889,68.4932)">
        <g id="g56">
            <g id="path52" transform="matrix(0.004,0,0,-0.004,0,0)">
                <path d="M0,3113.33L1357.41,6226.65C1419.68,6376.09 1718.56,6064.76 2042.34,6064.76C2216.69,6064.76 2366.13,6151.93 2528.02,6226.65C2615.19,6276.46 2714.82,6176.84 2714.82,6039.85L2714.82,1357.41C2714.82,797.011 3038.61,261.519 3561.64,261.519C3648.82,261.519 3698.63,199.253 3698.63,136.986C3698.63,74.72 3648.82,0 3561.64,0C3051.06,0 2552.93,161.893 2042.34,161.893C1531.76,161.893 1021.17,0 510.585,0C423.412,0 373.599,74.72 373.599,136.986C373.599,199.253 423.412,261.519 510.585,261.519C1033.62,261.519 1357.41,797.011 1357.41,1357.41L1357.41,4570.36C1357.41,4707.35 1257.78,4782.07 1170.61,4782.07C1120.8,4782.07 1083.44,4757.16 1058.53,4707.35L298.879,2976.34C273.973,2901.62 224.159,2876.71 161.893,2876.71C74.72,2876.71 -12.453,2938.98 -12.453,3038.61C-12.453,3063.51 -12.453,3088.42 0,3113.33Z" style="fill-rule:nonzero;"/>
            </g>
            <g id="path54" transform="matrix(0.004,0,0,-0.004,14.797,0)">
                <path d="M2826.9,0C1743.46,0 1718.56,809.465 1033.62,809.465C660.025,809.465 298.879,547.945 261.519,124.533C249.066,37.36 199.253,0 136.986,0C74.72,0 0,37.36 0,124.533C0,2042.34 2889.17,2254.05 2889.17,4420.92C2889.17,5168.12 2652.55,5965.13 2004.98,5965.13C1706.1,5965.13 1432.13,5778.33 1432.13,5504.36C1432.13,5168.12 1868,4993.77 1868,4657.53C1868,4184.31 1481.94,3798.26 1008.72,3798.26C535.492,3798.26 161.893,4184.31 161.893,4657.53C161.893,5579.08 1033.62,6226.65 2004.98,6226.65C3163.14,6226.65 4246.57,5504.36 4246.57,4420.92C4246.57,2478.21 2254.05,2428.39 1083.44,1569.12C1232.88,1606.48 1394.77,1631.38 1556.66,1631.38C2565.38,1631.38 2938.98,909.091 3686.18,909.091C4259.03,909.091 4134.5,1357.41 4333.75,1357.41C4396.02,1357.41 4470.73,1307.6 4470.73,1232.88C4470.73,971.357 3960.15,0 2826.9,0Z" style="fill-rule:nonzero;"/>
            </g>
        </g>
    </g>
    <g id="path60" transform="matrix(0.004,0,0,-0.004,120.288,93.3998)">
        <g id="g62">
            <path id="path601" serif:id="path60" d="M3188.05,3524.28C3511.83,3910.34 3748.44,4333.75 3748.44,4831.88C3748.44,5516.81 3063.51,5965.13 2328.77,5965.13C1731.01,5965.13 1382.32,5504.36 1382.32,5043.59C1382.32,4769.61 1506.85,4483.19 1793.28,4321.3L3188.05,3524.28ZM3536.74,3312.58C3823.16,3150.68 4533,2652.55 4533,1768.37C4533,871.731 3723.54,0 2229.14,0C1083.44,0 0,660.025 0,1718.56C0,2353.67 460.772,2839.35 909.091,3287.67C435.866,3636.36 199.253,4109.59 199.253,4582.82C199.253,5417.19 946.451,6226.65 2328.77,6226.65C3300.12,6226.65 4246.57,5716.07 4246.57,4831.88C4246.57,4246.57 3935.24,3748.44 3536.74,3312.58ZM1257.78,3063.51C859.278,2677.46 498.132,2266.5 498.132,1718.56C498.132,859.278 1320.05,261.519 2229.14,261.519C2914.07,261.519 3325.03,797.011 3325.03,1320.05C3325.03,1631.38 3188.05,1955.17 2864.26,2141.97L1257.78,3063.51Z" style="fill-rule:nonzero;"/>
        </g>
    </g>
    <g id="g66" transform="matrix(1,0,0,1,186.222,68.4932)">
        <rect id="rect64" x="-0.491" y="-37.492" width="0.98" height="41.268"/>
    </g>
    <g id="g70" transform="matrix(1,0,0,1,185.731,31.1333)">
        <path id="polygon68" d="M0.199,2.79L0.199,-2.79L69.42,-21.469L69.42,-15.89L0.199,2.79Z" style="fill-rule:nonzero;stroke:black;stroke-width:0.4px;"/>
    </g>
    <g id="path72" transform="matrix(0.004,0,0,-0.004,192.401,74.7198)">
        <g id="g74">
            <path id="path721" serif:id="path72" d="M0,0C0,398.506 311.333,709.838 709.838,709.838C1108.34,709.838 1419.68,398.506 1419.68,0C1419.68,-398.506 1108.34,-709.838 709.838,-709.838C311.333,-709.838 0,-398.506 0,0Z" style="fill-rule:nonzero;"/>
        </g>
    </g>
    <g id="g78" transform="matrix(1,0,0,1,170.941,68.4932)">
        <rect id="rect76" x="-0.491" y="8.676" width="0.98" height="36.985"/>
    </g>
    <g id="g82" transform="matrix(1,0,0,1,239.088,68.4932)">
        <path id="path80" d="M18.752,-20.346C21.599,-16.752 25.868,-16.752 28.715,-20.346C25.868,-17.658 21.599,-17.658 18.752,-20.346Z" style="fill-rule:nonzero;stroke:black;stroke-width:0.6px;"/>
    </g>
    <g id="path84" transform="matrix(0.004,0,0,-0.004,204.77,62.2665)">
        <g id="g86">
            <path id="path841" serif:id="path84" d="M2764.63,1681.2C3561.64,1681.2 4059.78,1245.33 4059.78,610.212C4059.78,-498.132 2640.1,-1681.2 1307.6,-1681.2C510.585,-1681.2 0,-1245.33 0,-610.212C0,498.132 1432.13,1681.2 2764.63,1681.2Z" style="fill-rule:nonzero;"/>
        </g>
    </g>
    <g id="path88" transform="matrix(0.004,0,0,-0.004,204.77,62.2665)">
        <g id="g90">
            <path id="path881" serif:id="path88" d="M2764.63,1681.2C3561.64,1681.2 4059.78,1245.33 4059.78,610.212C4059.78,-498.132 2640.1,-1681.2 1307.6,-1681.2C510.585,-1681.2 0,-1245.33 0,-610.212C0,498.132 1432.13,1681.2 2764.63,1681.2Z" style="fill-rule:nonzero;"/>
        </g>
    </g>
    <g id="g94" transform="matrix(1,0,0,1,220.54,68.4932)">
        <rect id="rect92" x="-0.491" y="-46.7" width="0.98" height="38.024"/>
    </g>
    <g id="g98" transform="matrix(1,0,0,1,205.26,68.4932)">
        <rect id="rect96" x="-0.491" y="-3.777" width="0.98" height="41.137"/>
    </g>
    <g id="g102" transform="matrix(1,0,0,1,204.77,68.4932)">
        <path id="path100" d="M10.621,2.802C20.692,12.328 52.963,12.328 63.034,2.802C52.963,11.422 20.692,11.422 10.621,2.802Z" style="fill-rule:nonzero;stroke:black;stroke-width:0.6px;"/>
    </g>
    <g id="path104" transform="matrix(0.004,0,0,-0.004,239.088,43.5866)">
        <g id="g106">
            <path id="path1041" serif:id="path104" d="M2764.63,1681.2C3561.64,1681.2 4059.78,1245.33 4059.78,610.212C4059.78,-498.132 2640.1,-1681.2 1307.6,-1681.2C510.585,-1681.2 0,-1245.33 0,-610.212C0,498.132 1432.13,1681.2 2764.63,1681.2Z" style="fill-rule:nonzero;"/>
        </g>
    </g>
    <g id="path108" transform="matrix(0.004,0,0,-0.004,239.088,43.5866)">
        <g id="g110">
            <path id="path1081" serif:id="path108" d="M2764.63,1681.2C3561.64,1681.2 4059.78,1245.33 4059.78,610.212C4059.78,-498.132 2640.1,-1681.2 1307.6,-1681.2C510.585,-1681.2 0,-1245.33 0,-610.212C0,498.132 1432.13,1681.2 2764.63,1681.2Z" style="fill-rule:nonzero;"/>
        </g>
    </g>
    <g id="g114" transform="matrix(1,0,0,1,254.859,68.4932)">
        <rect id="rect112" x="-0.491" y="-55.908" width="0.98" height="28.552"/>
    </g>
    <g id="g118">
    </g>
    <g id="g122">
    </g>
    <g id="g126" transform="matrix(1,0,0,1,170.451,68.4932)">
        <path id="path124" d="M10.621,15.255C24.352,26.212 91.752,26.212 105.483,15.255C91.752,25.306 24.352,25.306 10.621,15.255Z" style="fill-rule:nonzero;stroke:black;stroke-width:0.6px;"/>
    </g>
    <g id="path128" transform="matrix(0.004,0,0,-0.004,270.294,74.7198)">
        <g id="g130">
            <path id="path1281" serif:id="path128" d="M2764.63,1681.2C3561.64,1681.2 4059.78,1245.33 4059.78,610.212C4059.78,-498.132 2640.1,-1681.2 1307.6,-1681.2C510.585,-1681.2 0,-1245.33 0,-610.212C0,498.132 1432.13,1681.2 2764.63,1681.2Z" style="fill-rule:nonzero;"/>
        </g>
    </g>
    <g id="path132" transform="matrix(0.004,0,0,-0.004,270.294,62.2665)">
        <g id="g134">
            <path id="path1321" serif:id="path132" d="M2764.63,1681.2C3561.64,1681.2 4059.78,1245.33 4059.78,610.212C4059.78,-498.132 2640.1,-1681.2 1307.6,-1681.2C510.585,-1681.2 0,-1245.33 0,-610.212C0,498.132 1432.13,1681.2 2764.63,1681.2Z" style="fill-rule:nonzero;"/>
        </g>
    </g>
    <g id="path136" transform="matrix(0.004,0,0,-0.004,270.294,43.5866)">
        <g id="g138">
            <path id="path1361" serif:id="path136" d="M2764.63,1681.2C3561.64,1681.2 4059.78,1245.33 4059.78,610.212C4059.78,-498.132 2640.1,-1681.2 1307.6,-1681.2C510.585,-1681.2 0,-1245.33 0,-610.212C0,498.132 1432.13,1681.2 2764.63,1681.2Z" style="fill-rule:nonzero;"/>
        </g>
    </g>
    <g id="path140" transform="matrix(0.004,0,0,-0.004,270.294,31.1333)">
        <g id="g142">
            <path id="path1401" serif:id="path140" d="M2764.63,1681.2C3561.64,1681.2 4059.78,1245.33 4059.78,610.212C4059.78,-498.132 2640.1,-1681.2 1307.6,-1681.2C510.585,-1681.2 0,-1245.33 0,-610.212C0,498.132 1432.13,1681.2 2764.63,1681.2Z" style="fill-rule:nonzero;"/>
        </g>
    </g>
    <g id="g146" transform="matrix(1,0,0,1,286.065,68.4932)">
        <rect id="rect144" x="-0.491" y="-68.493" width="0.98" height="72.27"/>
    </g>
</svg>
