<?xml version="1.0" encoding="UTF-8" standalone="no"?>
<svg
   version="1.2"
   width="71.745773mm"
   height="26.159147mm"
   viewBox="0 0 40.827297 14.885998"
   id="svg222"
   xmlns:xlink="http://www.w3.org/1999/xlink"
   xmlns="http://www.w3.org/2000/svg"
   xmlns:svg="http://www.w3.org/2000/svg">
  <defs
     id="defs226" />
  <style
     type="text/css"
     id="style2"><![CDATA[
tspan { white-space: pre; }
]]></style>
  <g
     transform="translate(1.212,6.779)"
     id="g6">
    <rect
       x="18.245001"
       y="-0.1"
       width="1.9563"
       height="0.2"
       ry="0.1"
       fill="currentColor"
       id="rect4" />
  </g>
  <g
     transform="translate(1.212,6.779)"
     id="g10">
    <rect
       x="13.2366"
       y="-0.1"
       width="1.9563"
       height="0.2"
       ry="0.1"
       fill="currentColor"
       id="rect8" />
  </g>
  <g
     transform="translate(1.212,5.779)"
     id="g14">
    <line
       stroke-linejoin="round"
       stroke-linecap="round"
       stroke-width="0.1"
       stroke="currentColor"
       x1="0.050000001"
       y1="0"
       x2="39.5653"
       y2="0"
       id="line12" />
  </g>
  <g
     transform="translate(1.212,4.779)"
     id="g18">
    <line
       stroke-linejoin="round"
       stroke-linecap="round"
       stroke-width="0.1"
       stroke="currentColor"
       x1="0.050000001"
       y1="0"
       x2="39.5653"
       y2="0"
       id="line16" />
  </g>
  <g
     transform="translate(1.212,3.779)"
     id="g22">
    <line
       stroke-linejoin="round"
       stroke-linecap="round"
       stroke-width="0.1"
       stroke="currentColor"
       x1="0.050000001"
       y1="0"
       x2="39.5653"
       y2="0"
       id="line20" />
  </g>
  <g
     transform="translate(1.212,2.779)"
     id="g26">
    <line
       stroke-linejoin="round"
       stroke-linecap="round"
       stroke-width="0.1"
       stroke="currentColor"
       x1="0.050000001"
       y1="0"
       x2="39.5653"
       y2="0"
       id="line24" />
  </g>
  <g
     transform="translate(1.212,1.779)"
     id="g30">
    <line
       stroke-linejoin="round"
       stroke-linecap="round"
       stroke-width="0.1"
       stroke="currentColor"
       x1="0.050000001"
       y1="0"
       x2="39.5653"
       y2="0"
       id="line28" />
  </g>
  <g
     transform="translate(40.6373)"
     id="g34">
    <rect
       x="0"
       y="5.829"
       width="0.19"
       height="4.9499998"
       ry="0.0000"
       fill="currentColor"
       id="rect32" />
  </g>
  <g
     transform="translate(1.212,14.779)"
     id="g38">
    <line
       stroke-linejoin="round"
       stroke-linecap="round"
       stroke-width="0.1"
       stroke="currentColor"
       x1="0.050000001"
       y1="0"
       x2="39.5653"
       y2="0"
       id="line36" />
  </g>
  <g
     transform="translate(1.212,13.779)"
     id="g42">
    <line
       stroke-linejoin="round"
       stroke-linecap="round"
       stroke-width="0.1"
       stroke="currentColor"
       x1="0.050000001"
       y1="0"
       x2="39.5653"
       y2="0"
       id="line40" />
  </g>
  <g
     transform="translate(1.212,12.779)"
     id="g46">
    <line
       stroke-linejoin="round"
       stroke-linecap="round"
       stroke-width="0.1"
       stroke="currentColor"
       x1="0.050000001"
       y1="0"
       x2="39.5653"
       y2="0"
       id="line44" />
  </g>
  <g
     transform="translate(1.212,11.779)"
     id="g50">
    <line
       stroke-linejoin="round"
       stroke-linecap="round"
       stroke-width="0.1"
       stroke="currentColor"
       x1="0.050000001"
       y1="0"
       x2="39.5653"
       y2="0"
       id="line48" />
  </g>
  <g
     transform="translate(1.212,10.779)"
     id="g54">
    <line
       stroke-linejoin="round"
       stroke-linecap="round"
       stroke-width="0.1"
       stroke="currentColor"
       x1="0.050000001"
       y1="0"
       x2="39.5653"
       y2="0"
       id="line52" />
  </g>
  <g
     transform="translate(40.6373,12.779)"
     id="g58">
    <rect
       x="0"
       y="-2.05"
       width="0.19"
       height="4.0500002"
       ry="0.0000"
       fill="currentColor"
       id="rect56" />
  </g>
  <g
     transform="translate(40.6373,3.779)"
     id="g62">
    <rect
       x="0"
       y="-2"
       width="0.19"
       height="4.0500002"
       ry="0.0000"
       fill="currentColor"
       id="rect60" />
  </g>
  <g
     transform="translate(27.3931)"
     id="g66">
    <rect
       x="0"
       y="5.829"
       width="0.19"
       height="4.9499998"
       ry="0.0000"
       fill="currentColor"
       id="rect64" />
  </g>
  <g
     transform="translate(27.3931,12.779)"
     id="g70">
    <rect
       x="0"
       y="-2.05"
       width="0.19"
       height="4.0500002"
       ry="0.0000"
       fill="currentColor"
       id="rect68" />
  </g>
  <g
     transform="translate(27.3931,3.779)"
     id="g74">
    <rect
       x="0"
       y="-2"
       width="0.19"
       height="4.0500002"
       ry="0.0000"
       fill="currentColor"
       id="rect72" />
  </g>
  <a
     style="color:inherit"
     xlink:href="textedit:///Users/philippeperret/Programmes/ScoreSuite/ScoreImage/Manuel/images/scores/change-staff-with-trait-untrimed.ly:32:103:104"
     id="a80"
     transform="translate(-21.5502,-12.3811)">
    <g
       transform="translate(46.3417,24.6601)"
       id="g78">
      <path
         transform="scale(0.004,-0.004)"
         d="m 218,136 c 66,0 108,-36 108,-89 0,-89 -113,-183 -218,-183 -66,0 -108,36 -108,89 0,89 113,183 218,183 z"
         fill="currentColor"
         id="path76" />
    </g>
  </a>
  <g
     transform="translate(1.212)"
     id="g84">
    <line
       stroke-linejoin="round"
       stroke-linecap="round"
       stroke-width="0.1"
       stroke="currentColor"
       x1="20.006201"
       y1="8.0584002"
       x2="21.1943"
       y2="9.9996004"
       id="line82" />
  </g>
  <a
     style="color:inherit"
     xlink:href="textedit:///Users/philippeperret/Programmes/ScoreSuite/ScoreImage/Manuel/images/scores/change-staff-with-trait-untrimed.ly:25:6:7"
     id="a90"
     transform="translate(-21.5502,-12.3811)">
    <g
       transform="translate(28.5622,15.1601)"
       id="g88">
      <path
         transform="scale(0.004,-0.004)"
         d="M 365,-156 H 10 c -6,0 -10,4 -10,10 V -10 C 0,-4 4,0 10,0 h 355 c 6,0 10,-4 10,-10 v -136 c 0,-6 -4,-10 -10,-10 z"
         fill="currentColor"
         id="path86" />
    </g>
  </a>
  <g
     transform="translate(2.012,4.779)"
     id="g94">
    <path
       transform="scale(0.004,-0.004)"
       d="m 266,-635 h -6 c -108,0 -195,88 -195,197 0,58 53,103 112,103 54,0 95,-47 95,-103 0,-52 -43,-95 -95,-95 -11,0 -21,2 -31,6 26,-39 68,-65 117,-65 h 4 z m 195,432 c 68,24 113,90 113,164 0,90 -66,179 -173,190 19,-89 48,-242 60,-354 z M 74,28 c 0,-145 141,-247 264,-247 1,0 47,0 82,6 -7,64 -29,203 -63,364 -79,-8 -124,-61 -124,-119 0,-44 25,-91 81,-123 5,-5 7,-10 7,-15 0,-11 -10,-22 -22,-22 -15,0 -126,62 -126,187 0,88 58,174 160,197 -14,58 -29,117 -46,175 C 180,310 74,188 74,28 Z m 176,525 c -29,96 -52,170 -52,346 0,115 55,224 149,292 6,5 14,5 20,0 68,-80 133,-245 133,-358 0,-143 -86,-255 -180,-364 21,-68 39,-138 56,-207 2,0 7,1 13,1 155,0 256,-128 256,-261 0,-113 -74,-212 -180,-246 3,-35 5,-70 5,-105 0,-19 -1,-39 -2,-58 -7,-119 -88,-225 -202,-228 l 1,43 c 93,2 153,92 159,191 1,18 2,37 2,55 0,31 -1,61 -4,92 -5,-1 -44,-8 -89,-8 C 142,-262 2,-82 2,112 2,289 133,418 250,553 Z m 178,363 c 0,34 1,66 -20,129 -99,-48 -162,-149 -162,-259 0,-52 12,-115 36,-194 80,97 146,198 146,324 z"
       fill="currentColor"
       id="path92" />
  </g>
  <a
     style="color:inherit"
     xlink:href="textedit:///Users/philippeperret/Programmes/ScoreSuite/ScoreImage/Manuel/images/scores/change-staff-with-trait-untrimed.ly:32:6:7"
     id="a100"
     transform="translate(-21.5502,-12.3811)">
    <g
       transform="translate(28.5622,25.6601)"
       id="g98">
      <path
         transform="scale(0.004,-0.004)"
         d="m 218,136 c 66,0 108,-36 108,-89 0,-89 -113,-183 -218,-183 -66,0 -108,36 -108,89 0,89 113,183 218,183 z"
         fill="currentColor"
         id="path96" />
    </g>
  </a>
  <g
     transform="translate(2.012,11.779)"
     id="g104">
    <path
       transform="scale(0.004,-0.004)"
       d="m 557,-125 c 0,28 23,51 51,51 28,0 51,-23 51,-51 0,-28 -23,-51 -51,-51 -28,0 -51,23 -51,51 z m 0,250 c 0,28 23,51 51,51 28,0 51,-23 51,-51 0,-28 -23,-51 -51,-51 -28,0 -51,23 -51,51 z M 232,263 c 172,0 293,-88 293,-251 0,-263 -263,-414 -516,-521 -3,-3 -6,-4 -9,-4 -7,0 -13,6 -13,13 0,3 1,6 4,9 202,118 412,265 412,493 0,120 -63,235 -171,235 -74,0 -129,-54 -154,-126 11,5 22,8 34,8 C 167,119 212,74 212,19 212,-39 168,-87 112,-87 52,-87 0,-40 0,19 0,152 102,263 232,263 Z"
       fill="currentColor"
       id="path102" />
  </g>
  <g
     transform="translate(8.2512,12.779)"
     id="g108">
    <rect
       x="-0.064999998"
       y="-5.5247002"
       width="0.13"
       height="5.8386002"
       ry="0.039999999"
       fill="currentColor"
       id="rect106" />
  </g>
  <g
     transform="translate(8.1862,7.279)"
     id="g112">
    <polygon
       stroke-linejoin="round"
       stroke-linecap="round"
       stroke-width="0.08"
       fill="currentColor"
       stroke="currentColor"
       points="0.04,0.2 0.04,-0.2 7.8526,-3.2 7.8526,-2.8 "
       id="polygon110" />
  </g>
  <a
     style="color:inherit"
     xlink:href="textedit:///Users/philippeperret/Programmes/ScoreSuite/ScoreImage/Manuel/images/scores/change-staff-with-trait-untrimed.ly:32:9:10"
     id="a118"
     transform="translate(-21.5502,-12.3811)">
    <g
       transform="translate(31.3164,24.6601)"
       id="g116">
      <path
         transform="scale(0.004,-0.004)"
         d="m 218,136 c 66,0 108,-36 108,-89 0,-89 -113,-183 -218,-183 -66,0 -108,36 -108,89 0,89 113,183 218,183 z"
         fill="currentColor"
         id="path114" />
    </g>
  </a>
  <g
     transform="translate(11.0054,12.779)"
     id="g122">
    <rect
       x="-0.064999998"
       y="-6.5716"
       width="0.13"
       height="5.8855"
       ry="0.039999999"
       fill="currentColor"
       id="rect120" />
  </g>
  <g
     transform="translate(1.212)"
     id="g126">
    <line
       stroke-linejoin="round"
       stroke-linecap="round"
       stroke-width="0.1"
       stroke="currentColor"
       x1="12.6324"
       y1="9.9378996"
       x2="13.5429"
       y2="8.1201"
       id="line124" />
  </g>
  <a
     style="color:inherit"
     xlink:href="textedit:///Users/philippeperret/Programmes/ScoreSuite/ScoreImage/Manuel/images/scores/change-staff-with-trait-untrimed.ly:32:11:12"
     id="a132"
     transform="translate(-21.5502,-12.3811)">
    <g
       transform="translate(34.0706,23.6601)"
       id="g130">
      <path
         transform="scale(0.004,-0.004)"
         d="m 218,136 c 66,0 108,-36 108,-89 0,-89 -113,-183 -218,-183 -66,0 -108,36 -108,89 0,89 113,183 218,183 z"
         fill="currentColor"
         id="path128" />
    </g>
  </a>
  <g
     transform="translate(13.7596,12.779)"
     id="g136">
    <rect
       x="-0.064999998"
       y="-7.6185002"
       width="0.13"
       height="5.9324002"
       ry="0.039999999"
       fill="currentColor"
       id="rect134" />
  </g>
  <a
     style="color:inherit"
     xlink:href="textedit:///Users/philippeperret/Programmes/ScoreSuite/ScoreImage/Manuel/images/scores/change-staff-with-trait-untrimed.ly:32:54:55"
     id="a142"
     transform="translate(-21.5502,-12.3811)">
    <g
       transform="translate(36.3248,19.1601)"
       id="g140">
      <path
         transform="scale(0.004,-0.004)"
         d="m 218,136 c 66,0 108,-36 108,-89 0,-89 -113,-183 -218,-183 -66,0 -108,36 -108,89 0,89 113,183 218,183 z"
         fill="currentColor"
         id="path138" />
    </g>
  </a>
  <g
     transform="translate(16.0139,3.779)"
     id="g146">
    <rect
       x="-0.064999998"
       y="0.52469999"
       width="0.13"
       height="2.2892001"
       ry="0.039999999"
       fill="currentColor"
       id="rect144" />
  </g>
  <a
     style="color:inherit"
     xlink:href="textedit:///Users/philippeperret/Programmes/ScoreSuite/ScoreImage/Manuel/images/scores/change-staff-with-trait-untrimed.ly:32:56:57"
     id="a152"
     transform="translate(-21.5502,-12.3811)">
    <g
       transform="translate(39.0791,18.1601)"
       id="g150">
      <path
         transform="scale(0.004,-0.004)"
         d="m 218,136 c 66,0 108,-36 108,-89 0,-89 -113,-183 -218,-183 -66,0 -108,36 -108,89 0,89 113,183 218,183 z"
         fill="currentColor"
         id="path148" />
    </g>
  </a>
  <g
     transform="translate(18.7681,3.779)"
     id="g156">
    <rect
       x="-0.064999998"
       y="-0.7809"
       width="0.13"
       height="2.5948"
       ry="0.039999999"
       fill="currentColor"
       id="rect154" />
  </g>
  <a
     style="color:inherit"
     xlink:href="textedit:///Users/philippeperret/Programmes/ScoreSuite/ScoreImage/Manuel/images/scores/change-staff-with-trait-untrimed.ly:32:58:59"
     id="a162"
     transform="translate(-21.5502,-12.3811)">
    <g
       transform="translate(41.3333,19.1601)"
       id="g160">
      <path
         transform="scale(0.004,-0.004)"
         d="m 218,136 c 66,0 108,-36 108,-89 0,-89 -113,-183 -218,-183 -66,0 -108,36 -108,89 0,89 113,183 218,183 z"
         fill="currentColor"
         id="path158" />
    </g>
  </a>
  <g
     transform="translate(21.0223,3.779)"
     id="g166">
    <rect
       x="-0.064999998"
       y="0.22840001"
       width="0.13"
       height="2.5855"
       ry="0.039999999"
       fill="currentColor"
       id="rect164" />
  </g>
  <a
     style="color:inherit"
     xlink:href="textedit:///Users/philippeperret/Programmes/ScoreSuite/ScoreImage/Manuel/images/scores/change-staff-with-trait-untrimed.ly:32:101:102"
     id="a172"
     transform="translate(-21.5502,-12.3811)">
    <g
       transform="translate(44.0875,23.6601)"
       id="g170">
      <path
         transform="scale(0.004,-0.004)"
         d="m 218,136 c 66,0 108,-36 108,-89 0,-89 -113,-183 -218,-183 -66,0 -108,36 -108,89 0,89 113,183 218,183 z"
         fill="currentColor"
         id="path168" />
    </g>
  </a>
  <g
     transform="translate(23.7765,12.779)"
     id="g176">
    <rect
       x="-0.064999998"
       y="-7.5384002"
       width="0.13"
       height="5.8523002"
       ry="0.039999999"
       fill="currentColor"
       id="rect174" />
  </g>
  <g
     transform="translate(18.7031,2.969)"
     id="g180">
    <polygon
       stroke-linejoin="round"
       stroke-linecap="round"
       stroke-width="0.08"
       fill="currentColor"
       stroke="currentColor"
       points="0.04,0.2 0.04,-0.2 7.3526,3.11 7.3526,3.51 "
       id="polygon178" />
  </g>
  <g
     transform="translate(26.0307,12.779)"
     id="g184">
    <rect
       x="-0.064999998"
       y="-6.5290999"
       width="0.13"
       height="5.8429999"
       ry="0.039999999"
       fill="currentColor"
       id="rect182" />
  </g>
  <a
     style="color:inherit"
     xlink:href="textedit:///Users/philippeperret/Programmes/ScoreSuite/ScoreImage/Manuel/images/scores/change-staff-with-trait-untrimed.ly:25:9:10"
     id="a190"
     transform="translate(-21.5502,-12.3811)">
    <g
       transform="translate(50.0333,15.1601)"
       id="g188">
      <path
         transform="scale(0.004,-0.004)"
         d="M 365,-156 H 10 c -6,0 -10,4 -10,10 V -10 C 0,-4 4,0 10,0 h 355 c 6,0 10,-4 10,-10 v -136 c 0,-6 -4,-10 -10,-10 z"
         fill="currentColor"
         id="path186" />
    </g>
  </a>
  <a
     style="color:inherit"
     xlink:href="textedit:///Users/philippeperret/Programmes/ScoreSuite/ScoreImage/Manuel/images/scores/change-staff-with-trait-untrimed.ly:32:105:106"
     id="a196"
     transform="translate(-21.5502,-12.3811)">
    <g
       transform="translate(50.0333,25.6601)"
       id="g194">
      <path
         transform="scale(0.004,-0.004)"
         d="m 218,136 c 66,0 108,-36 108,-89 0,-89 -113,-183 -218,-183 -66,0 -108,36 -108,89 0,89 113,183 218,183 z"
         fill="currentColor"
         id="path192" />
    </g>
  </a>
  <g
     transform="translate(1.152,8.279)"
     id="g200">
    <rect
       x="0"
       y="-6.5500002"
       width="0.16"
       height="13.1"
       ry="0.050000001"
       fill="currentColor"
       id="rect198" />
  </g>
  <g
     transform="translate(29.7223,12.779)"
     id="g204">
    <rect
       x="-0.064999998"
       y="-3"
       width="0.13"
       height="3.3139"
       ry="0.039999999"
       fill="currentColor"
       id="rect202" />
  </g>
  <g
     transform="translate(0.852,8.279)"
     id="g208">
    <path
       transform="scale(0.004,-0.004)"
       d="m -81,-366 c 0,255 -132,363 -132,366 0,18 132,96 132,366 0,261 -108,489 -108,780 0,189 45,366 177,501 15,15 39,-9 24,-24 -99,-99 -129,-225 -129,-360 0,-255 102,-480 102,-765 0,-186 -45,-363 -174,-498 129,-135 174,-312 174,-498 0,-285 -102,-510 -102,-765 0,-135 30,-261 129,-360 15,-15 -9,-39 -24,-24 -132,135 -177,312 -177,501 0,291 108,519 108,780 z"
       fill="currentColor"
       id="path206" />
  </g>
  <a
     style="color:inherit"
     xlink:href="textedit:///Users/philippeperret/Programmes/ScoreSuite/ScoreImage/Manuel/images/scores/change-staff-with-trait-untrimed.ly:32:108:109"
     id="a214"
     transform="translate(-21.5502,-12.3811)">
    <g
       transform="translate(53.7375,25.1601)"
       id="g212">
      <path
         transform="scale(0.004,-0.004)"
         d="m -6,78 c 0,59 124,83 124,182 0,24 -8,49 -25,69 l -35,42 c -3,3 -4,7 -4,10 0,9 9,15 17,15 4,0 8,-1 11,-5 L 233,211 c 7,-9 10,-17 10,-25 0,-59 -124,-83 -124,-182 0,-24 7,-49 24,-69 l 84,-99 c 3,-3 4,-7 4,-10 0,-9 -8,-16 -16,-16 -8,0 -45,44 -109,44 -16,0 -53,0 -53,-67 0,-35 11,-74 28,-94 7,-8 -5,-19 -12,-11 -45,54 -92,148 -92,202 0,41 27,42 40,42 33,0 78,-13 119,-31 L 4,53 C -3,62 -6,70 -6,78 Z"
         fill="currentColor"
         id="path210" />
    </g>
  </a>
  <a
     style="color:inherit"
     xlink:href="textedit:///Users/philippeperret/Programmes/ScoreSuite/ScoreImage/Manuel/images/scores/change-staff-with-trait-untrimed.ly:32:110:111"
     id="a220"
     transform="translate(-21.5502,-12.3811)">
    <g
       transform="translate(57.0875,25.1601)"
       id="g218">
      <path
         transform="scale(0.004,-0.004)"
         d="M 365,0 H 10 C 4,0 0,4 0,10 v 136 c 0,6 4,10 10,10 h 355 c 6,0 10,-4 10,-10 V 10 C 375,4 371,0 365,0 Z"
         fill="currentColor"
         id="path216" />
    </g>
  </a>
</svg>
