<?xml version="1.0" encoding="UTF-8" standalone="no"?>
<svg
   version="1.2"
   width="35.489532mm"
   height="12.861671mm"
   viewBox="0 0 20.195499 7.3190007"
   id="svg84"
   xmlns="http://www.w3.org/2000/svg"
   xmlns:svg="http://www.w3.org/2000/svg">
  <defs
     id="defs88" />
  <style
     type="text/css"
     id="style2"><![CDATA[
tspan { white-space: pre; }
]]></style>
  <g
     transform="translate(0,5.779)"
     id="g6">
    <line
       stroke-linejoin="round"
       stroke-linecap="round"
       stroke-width="0.1"
       stroke="currentColor"
       x1="0.050000001"
       y1="0"
       x2="20.1455"
       y2="0"
       id="line4" />
  </g>
  <g
     transform="translate(0,4.779)"
     id="g10">
    <line
       stroke-linejoin="round"
       stroke-linecap="round"
       stroke-width="0.1"
       stroke="currentColor"
       x1="0.050000001"
       y1="0"
       x2="20.1455"
       y2="0"
       id="line8" />
  </g>
  <g
     transform="translate(0,3.779)"
     id="g14">
    <line
       stroke-linejoin="round"
       stroke-linecap="round"
       stroke-width="0.1"
       stroke="currentColor"
       x1="0.050000001"
       y1="0"
       x2="20.1455"
       y2="0"
       id="line12" />
  </g>
  <g
     transform="translate(0,2.779)"
     id="g18">
    <line
       stroke-linejoin="round"
       stroke-linecap="round"
       stroke-width="0.1"
       stroke="currentColor"
       x1="0.050000001"
       y1="0"
       x2="20.1455"
       y2="0"
       id="line16" />
  </g>
  <g
     transform="translate(0,1.779)"
     id="g22">
    <line
       stroke-linejoin="round"
       stroke-linecap="round"
       stroke-width="0.1"
       stroke="currentColor"
       x1="0.050000001"
       y1="0"
       x2="20.1455"
       y2="0"
       id="line20" />
  </g>
  <g
     transform="translate(16.5305,3.779)"
     id="g26">
    <rect
       x="-0.064999998"
       y="-1.5"
       width="0.13"
       height="3.3139"
       ry="0.039999999"
       fill="currentColor"
       id="rect24" />
  </g>
  <g
     transform="translate(7.7528,0.969)"
     id="g30">
    <polygon
       stroke-linejoin="round"
       stroke-linecap="round"
       stroke-width="0.08"
       fill="currentColor"
       stroke="currentColor"
       points="0.04,0.2 0.04,-0.2 6.2984,0.61 6.2984,1.01 "
       id="polygon28" />
  </g>
  <g
     transform="translate(11.457,2.2524)"
     id="g34">
    <polygon
       stroke-linejoin="round"
       stroke-linecap="round"
       stroke-width="0.08"
       fill="currentColor"
       stroke="currentColor"
       points="0.04,0.2 0.04,-0.2 2.5942,0.1366 2.5942,0.5366 "
       id="polygon32" />
  </g>
  <g
     transform="translate(4.64,3.779)"
     id="g38">
    <path
       transform="scale(0.0028,-0.0028)"
       d="M 208,139 C 277,139 325,99 325,40 325,-51 218,-139 116,-139 47,-139 0,-99 0,-40 0,51 106,139 208,139 Z"
       fill="currentColor"
       id="path36" />
  </g>
  <g
     transform="translate(0.8,4.779)"
     id="g42">
    <path
       transform="scale(0.004,-0.004)"
       d="m 266,-635 h -6 c -108,0 -195,88 -195,197 0,58 53,103 112,103 54,0 95,-47 95,-103 0,-52 -43,-95 -95,-95 -11,0 -21,2 -31,6 26,-39 68,-65 117,-65 h 4 z m 195,432 c 68,24 113,90 113,164 0,90 -66,179 -173,190 19,-89 48,-242 60,-354 z M 74,28 c 0,-145 141,-247 264,-247 1,0 47,0 82,6 -7,64 -29,203 -63,364 -79,-8 -124,-61 -124,-119 0,-44 25,-91 81,-123 5,-5 7,-10 7,-15 0,-11 -10,-22 -22,-22 -15,0 -126,62 -126,187 0,88 58,174 160,197 -14,58 -29,117 -46,175 C 180,310 74,188 74,28 Z m 176,525 c -29,96 -52,170 -52,346 0,115 55,224 149,292 6,5 14,5 20,0 68,-80 133,-245 133,-358 0,-143 -86,-255 -180,-364 21,-68 39,-138 56,-207 2,0 7,1 13,1 155,0 256,-128 256,-261 0,-113 -74,-212 -180,-246 3,-35 5,-70 5,-105 0,-19 -1,-39 -2,-58 -7,-119 -88,-225 -202,-228 l 1,43 c 93,2 153,92 159,191 1,18 2,37 2,55 0,31 -1,61 -4,92 -5,-1 -44,-8 -89,-8 C 142,-262 2,-82 2,112 2,289 133,418 250,553 Z m 178,363 c 0,34 1,66 -20,129 -99,-48 -162,-149 -162,-259 0,-52 12,-115 36,-194 80,97 146,198 146,324 z"
       fill="currentColor"
       id="path40" />
  </g>
  <g
     transform="translate(5.4929,3.779)"
     id="g46">
    <rect
       x="-0.064999998"
       y="-2.7"
       width="0.13"
       height="2.5855999"
       ry="0.039999999"
       fill="currentColor"
       id="rect44" />
  </g>
  <g
     transform="translate(5.5579,1.119)"
     id="g50">
    <path
       transform="scale(0.0028,-0.0028)"
       d="m 0,-212 v -213 213 c 0,-114 85,-201 146,-295 4,13 6,26 6,40 0,94 -87,188 -152,255 z m 115,-636 c 0,11 43,74 43,169 0,95 -90,188 -158,254 v -75 H -21 V 0 H 0 c 0,-177 201,-290 201,-467 0,-33 -9,-66 -23,-96 18,-36 29,-74 29,-116 0,-63 -15,-125 -41,-182 -5,-10 -14,-13 -23,-13 -14,0 -28,10 -28,26 z"
       fill="currentColor"
       id="path48" />
  </g>
  <g
     transform="translate(4.64,3.779)"
     id="g54">
    <path
       stroke-width="0.08"
       stroke-linejoin="round"
       stroke-linecap="round"
       stroke="currentColor"
       fill="currentColor"
       d="m 0.3696,0.894 c 0.4025,0.7301 1.3486,1.0242 2.0941,0.651 v 0 C 1.7539,1.8036 0.8077,1.5095 0.3696,0.894 Z"
       id="path52" />
  </g>
  <g
     transform="translate(6.5786,4.279)"
     id="g58">
    <path
       transform="scale(0.004,-0.004)"
       d="m 218,136 c 66,0 108,-36 108,-89 0,-89 -113,-183 -218,-183 -66,0 -108,36 -108,89 0,89 113,183 218,183 z"
       fill="currentColor"
       id="path56" />
  </g>
  <g
     transform="translate(7.8178,3.779)"
     id="g62">
    <rect
       x="-0.064999998"
       y="-2.8017001"
       width="0.13"
       height="3.1156001"
       ry="0.039999999"
       fill="currentColor"
       id="rect60" />
  </g>
  <g
     transform="translate(10.2828,4.779)"
     id="g66">
    <path
       transform="scale(0.004,-0.004)"
       d="m 218,136 c 66,0 108,-36 108,-89 0,-89 -113,-183 -218,-183 -66,0 -108,36 -108,89 0,89 113,183 218,183 z"
       fill="currentColor"
       id="path64" />
  </g>
  <g
     transform="translate(11.522,3.779)"
     id="g70">
    <rect
       x="-0.064999998"
       y="-2.3283"
       width="0.13"
       height="3.1422"
       ry="0.039999999"
       fill="currentColor"
       id="rect68" />
  </g>
  <g
     transform="translate(12.787,5.279)"
     id="g74">
    <path
       transform="scale(0.004,-0.004)"
       d="m 218,136 c 66,0 108,-36 108,-89 0,-89 -113,-183 -218,-183 -66,0 -108,36 -108,89 0,89 113,183 218,183 z"
       fill="currentColor"
       id="path72" />
  </g>
  <g
     transform="translate(14.0262,3.779)"
     id="g78">
    <rect
       x="-0.064999998"
       y="-2.0083001"
       width="0.13"
       height="3.3222001"
       ry="0.039999999"
       fill="currentColor"
       id="rect76" />
  </g>
  <g
     transform="translate(15.2912,5.779)"
     id="g82">
    <path
       transform="scale(0.004,-0.004)"
       d="m 218,136 c 66,0 108,-36 108,-89 0,-89 -113,-183 -218,-183 -66,0 -108,36 -108,89 0,89 113,183 218,183 z"
       fill="currentColor"
       id="path80" />
  </g>
</svg>
