<?xml version="1.0" encoding="UTF-8" standalone="no"?>
<svg
   version="1.2"
   width="50.131012mm"
   height="60.308746mm"
   viewBox="0 0 28.527307 34.319004"
   id="svg300"
   xmlns:xlink="http://www.w3.org/1999/xlink"
   xmlns="http://www.w3.org/2000/svg"
   xmlns:svg="http://www.w3.org/2000/svg">
  <defs
     id="defs304" />
  <style
     type="text/css"
     id="style2"><![CDATA[
tspan { white-space: pre; }
]]></style>
  <g
     transform="translate(6.9043078,5.779)"
     id="g6">
    <line
       stroke-linejoin="round"
       stroke-linecap="round"
       stroke-width="0.1"
       stroke="currentColor"
       x1="0.050000001"
       y1="0"
       x2="21.573"
       y2="0"
       id="line4" />
  </g>
  <g
     transform="translate(6.9043078,4.779)"
     id="g10">
    <line
       stroke-linejoin="round"
       stroke-linecap="round"
       stroke-width="0.1"
       stroke="currentColor"
       x1="0.050000001"
       y1="0"
       x2="21.573"
       y2="0"
       id="line8" />
  </g>
  <g
     transform="translate(6.9043078,3.779)"
     id="g14">
    <line
       stroke-linejoin="round"
       stroke-linecap="round"
       stroke-width="0.1"
       stroke="currentColor"
       x1="0.050000001"
       y1="0"
       x2="21.573"
       y2="0"
       id="line12" />
  </g>
  <g
     transform="translate(6.9043078,2.779)"
     id="g18">
    <line
       stroke-linejoin="round"
       stroke-linecap="round"
       stroke-width="0.1"
       stroke="currentColor"
       x1="0.050000001"
       y1="0"
       x2="21.573"
       y2="0"
       id="line16" />
  </g>
  <g
     transform="translate(6.9043078,1.779)"
     id="g22">
    <line
       stroke-linejoin="round"
       stroke-linecap="round"
       stroke-width="0.1"
       stroke="currentColor"
       x1="0.050000001"
       y1="0"
       x2="21.573"
       y2="0"
       id="line20" />
  </g>
  <g
     transform="translate(28.337308,30.779)"
     id="g26">
    <rect
       x="0"
       y="-2"
       width="0.19"
       height="4"
       ry="0.0000"
       fill="currentColor"
       id="rect24" />
  </g>
  <g
     transform="translate(28.337308,21.779)"
     id="g30">
    <rect
       x="0"
       y="-2"
       width="0.19"
       height="4"
       ry="0.0000"
       fill="currentColor"
       id="rect28" />
  </g>
  <g
     transform="translate(6.9043078,14.779)"
     id="g34">
    <line
       stroke-linejoin="round"
       stroke-linecap="round"
       stroke-width="0.1"
       stroke="currentColor"
       x1="0.050000001"
       y1="0"
       x2="21.573"
       y2="0"
       id="line32" />
  </g>
  <g
     transform="translate(6.9043078,13.779)"
     id="g38">
    <line
       stroke-linejoin="round"
       stroke-linecap="round"
       stroke-width="0.1"
       stroke="currentColor"
       x1="0.050000001"
       y1="0"
       x2="21.573"
       y2="0"
       id="line36" />
  </g>
  <g
     transform="translate(6.9043078,12.779)"
     id="g42">
    <line
       stroke-linejoin="round"
       stroke-linecap="round"
       stroke-width="0.1"
       stroke="currentColor"
       x1="0.050000001"
       y1="0"
       x2="21.573"
       y2="0"
       id="line40" />
  </g>
  <g
     transform="translate(6.9043078,11.779)"
     id="g46">
    <line
       stroke-linejoin="round"
       stroke-linecap="round"
       stroke-width="0.1"
       stroke="currentColor"
       x1="0.050000001"
       y1="0"
       x2="21.573"
       y2="0"
       id="line44" />
  </g>
  <g
     transform="translate(6.9043078,10.779)"
     id="g50">
    <line
       stroke-linejoin="round"
       stroke-linecap="round"
       stroke-width="0.1"
       stroke="currentColor"
       x1="0.050000001"
       y1="0"
       x2="21.573"
       y2="0"
       id="line48" />
  </g>
  <g
     transform="translate(28.337308,12.779)"
     id="g54">
    <rect
       x="0"
       y="-2"
       width="0.19"
       height="4"
       ry="0.0000"
       fill="currentColor"
       id="rect52" />
  </g>
  <g
     transform="translate(28.337308,3.779)"
     id="g58">
    <rect
       x="0"
       y="-2"
       width="0.19"
       height="4"
       ry="0.0000"
       fill="currentColor"
       id="rect56" />
  </g>
  <g
     transform="translate(6.9043078,23.779)"
     id="g62">
    <line
       stroke-linejoin="round"
       stroke-linecap="round"
       stroke-width="0.1"
       stroke="currentColor"
       x1="0.050000001"
       y1="0"
       x2="21.573"
       y2="0"
       id="line60" />
  </g>
  <g
     transform="translate(6.9043078,22.779)"
     id="g66">
    <line
       stroke-linejoin="round"
       stroke-linecap="round"
       stroke-width="0.1"
       stroke="currentColor"
       x1="0.050000001"
       y1="0"
       x2="21.573"
       y2="0"
       id="line64" />
  </g>
  <g
     transform="translate(6.9043078,21.779)"
     id="g70">
    <line
       stroke-linejoin="round"
       stroke-linecap="round"
       stroke-width="0.1"
       stroke="currentColor"
       x1="0.050000001"
       y1="0"
       x2="21.573"
       y2="0"
       id="line68" />
  </g>
  <g
     transform="translate(6.9043078,20.779)"
     id="g74">
    <line
       stroke-linejoin="round"
       stroke-linecap="round"
       stroke-width="0.1"
       stroke="currentColor"
       x1="0.050000001"
       y1="0"
       x2="21.573"
       y2="0"
       id="line72" />
  </g>
  <g
     transform="translate(6.9043078,19.779)"
     id="g78">
    <line
       stroke-linejoin="round"
       stroke-linecap="round"
       stroke-width="0.1"
       stroke="currentColor"
       x1="0.050000001"
       y1="0"
       x2="21.573"
       y2="0"
       id="line76" />
  </g>
  <g
     transform="translate(6.9043078,32.779)"
     id="g82">
    <line
       stroke-linejoin="round"
       stroke-linecap="round"
       stroke-width="0.1"
       stroke="currentColor"
       x1="0.050000001"
       y1="0"
       x2="21.573"
       y2="0"
       id="line80" />
  </g>
  <g
     transform="translate(6.9043078,31.779)"
     id="g86">
    <line
       stroke-linejoin="round"
       stroke-linecap="round"
       stroke-width="0.1"
       stroke="currentColor"
       x1="0.050000001"
       y1="0"
       x2="21.573"
       y2="0"
       id="line84" />
  </g>
  <g
     transform="translate(6.9043078,30.779)"
     id="g90">
    <line
       stroke-linejoin="round"
       stroke-linecap="round"
       stroke-width="0.1"
       stroke="currentColor"
       x1="0.050000001"
       y1="0"
       x2="21.573"
       y2="0"
       id="line88" />
  </g>
  <g
     transform="translate(6.9043078,29.779)"
     id="g94">
    <line
       stroke-linejoin="round"
       stroke-linecap="round"
       stroke-width="0.1"
       stroke="currentColor"
       x1="0.050000001"
       y1="0"
       x2="21.573"
       y2="0"
       id="line92" />
  </g>
  <g
     transform="translate(6.9043078,28.779)"
     id="g98">
    <line
       stroke-linejoin="round"
       stroke-linecap="round"
       stroke-width="0.1"
       stroke="currentColor"
       x1="0.050000001"
       y1="0"
       x2="21.573"
       y2="0"
       id="line96" />
  </g>
  <g
     transform="translate(0.70580781,22.5073)"
     id="g104">
    <text
       font-family="serif"
       font-size="2.2px"
       text-anchor="start"
       fill="currentColor"
       id="text102"><tspan
         id="tspan100">Cor A.</tspan></text>
  </g>
  <g
     transform="translate(0.26190781,31.5262)"
     id="g110">
    <text
       font-family="serif"
       font-size="2.2px"
       text-anchor="start"
       fill="currentColor"
       id="text108"><tspan
         id="tspan106">Sax Eb</tspan></text>
  </g>
  <g
     transform="translate(6.8443078,17.279)"
     id="g114">
    <rect
       x="0"
       y="-15.55"
       width="0.16"
       height="31.1"
       ry="0.050000001"
       fill="currentColor"
       id="rect112" />
  </g>
  <a
     style="color:inherit"
     xlink:href="textedit:///Users/philippeperret/Programmes/ScoreSuite/ScoreImage/tests/checksums_tests/simples/instrus_transpositeurs/main/score-untrimed.ly:22:23:24"
     id="a120"
     transform="translate(-15.857892,-12.3811)">
    <g
       transform="translate(32.0372,14.6601)"
       id="g118">
      <path
         transform="scale(0.004,-0.004)"
         d="m 213,112 c -45,0 -69,-34 -69,-88 0,-102 89,-136 134,-136 45,0 69,34 69,88 0,102 -89,136 -134,136 z m 32,24 C 389,136 491,71 491,0 491,-71 389,-136 245,-136 101,-136 0,-71 0,0 0,71 101,136 245,136 Z"
         fill="currentColor"
         id="path116" />
    </g>
  </a>
  <g
     transform="translate(7.7043078,4.779)"
     id="g124">
    <path
       transform="scale(0.004,-0.004)"
       d="m 266,-635 h -6 c -108,0 -195,88 -195,197 0,58 53,103 112,103 54,0 95,-47 95,-103 0,-52 -43,-95 -95,-95 -11,0 -21,2 -31,6 26,-39 68,-65 117,-65 h 4 z m 195,432 c 68,24 113,90 113,164 0,90 -66,179 -173,190 19,-89 48,-242 60,-354 z M 74,28 c 0,-145 141,-247 264,-247 1,0 47,0 82,6 -7,64 -29,203 -63,364 -79,-8 -124,-61 -124,-119 0,-44 25,-91 81,-123 5,-5 7,-10 7,-15 0,-11 -10,-22 -22,-22 -15,0 -126,62 -126,187 0,88 58,174 160,197 -14,58 -29,117 -46,175 C 180,310 74,188 74,28 Z m 176,525 c -29,96 -52,170 -52,346 0,115 55,224 149,292 6,5 14,5 20,0 68,-80 133,-245 133,-358 0,-143 -86,-255 -180,-364 21,-68 39,-138 56,-207 2,0 7,1 13,1 155,0 256,-128 256,-261 0,-113 -74,-212 -180,-246 3,-35 5,-70 5,-105 0,-19 -1,-39 -2,-58 -7,-119 -88,-225 -202,-228 l 1,43 c 93,2 153,92 159,191 1,18 2,37 2,55 0,31 -1,61 -4,92 -5,-1 -44,-8 -89,-8 C 142,-262 2,-82 2,112 2,289 133,418 250,553 Z m 178,363 c 0,34 1,66 -20,129 -99,-48 -162,-149 -162,-259 0,-52 12,-115 36,-194 80,97 146,198 146,324 z"
       fill="currentColor"
       id="path122" />
  </g>
  <a
     style="color:inherit"
     xlink:href="textedit:///Users/philippeperret/Programmes/ScoreSuite/ScoreImage/tests/checksums_tests/simples/instrus_transpositeurs/main/score-untrimed.ly:29:54:55"
     id="a130"
     transform="translate(-15.857892,-12.3811)">
    <g
       transform="translate(32.0372,27.6601)"
       id="g128">
      <path
         transform="scale(0.004,-0.004)"
         d="m 218,136 c 66,0 108,-36 108,-89 0,-89 -113,-183 -218,-183 -66,0 -108,36 -108,89 0,89 113,183 218,183 z"
         fill="currentColor"
         id="path126" />
    </g>
  </a>
  <g
     transform="translate(7.7043078,13.779)"
     id="g134">
    <path
       transform="scale(0.004,-0.004)"
       d="m 266,-635 h -6 c -108,0 -195,88 -195,197 0,58 53,103 112,103 54,0 95,-47 95,-103 0,-52 -43,-95 -95,-95 -11,0 -21,2 -31,6 26,-39 68,-65 117,-65 h 4 z m 195,432 c 68,24 113,90 113,164 0,90 -66,179 -173,190 19,-89 48,-242 60,-354 z M 74,28 c 0,-145 141,-247 264,-247 1,0 47,0 82,6 -7,64 -29,203 -63,364 -79,-8 -124,-61 -124,-119 0,-44 25,-91 81,-123 5,-5 7,-10 7,-15 0,-11 -10,-22 -22,-22 -15,0 -126,62 -126,187 0,88 58,174 160,197 -14,58 -29,117 -46,175 C 180,310 74,188 74,28 Z m 176,525 c -29,96 -52,170 -52,346 0,115 55,224 149,292 6,5 14,5 20,0 68,-80 133,-245 133,-358 0,-143 -86,-255 -180,-364 21,-68 39,-138 56,-207 2,0 7,1 13,1 155,0 256,-128 256,-261 0,-113 -74,-212 -180,-246 3,-35 5,-70 5,-105 0,-19 -1,-39 -2,-58 -7,-119 -88,-225 -202,-228 l 1,43 c 93,2 153,92 159,191 1,18 2,37 2,55 0,31 -1,61 -4,92 -5,-1 -44,-8 -89,-8 C 142,-262 2,-82 2,112 2,289 133,418 250,553 Z m 178,363 c 0,34 1,66 -20,129 -99,-48 -162,-149 -162,-259 0,-52 12,-115 36,-194 80,97 146,198 146,324 z"
       fill="currentColor"
       id="path132" />
  </g>
  <a
     style="color:inherit"
     xlink:href="textedit:///Users/philippeperret/Programmes/ScoreSuite/ScoreImage/tests/checksums_tests/simples/instrus_transpositeurs/main/score-untrimed.ly:29:8:9"
     id="a144"
     transform="translate(-15.857892,-12.3811)">
    <g
       transform="translate(27.0622,23.1601)"
       id="g138">
      <path
         transform="scale(0.004,-0.004)"
         d="m 0,119 c 0,8 5,15 13,18 l 46,17 v 158 c 0,10 8,19 18,19 10,0 19,-9 19,-19 V 167 l 83,31 v 158 c 0,10 9,19 19,19 10,0 18,-9 18,-19 V 211 l 32,12 c 2,1 5,1 7,1 11,0 20,-9 20,-20 v -60 c 0,-8 -5,-16 -13,-19 L 216,109 V -51 l 32,11 c 2,1 5,1 7,1 11,0 20,-9 20,-20 v -60 c 0,-8 -5,-15 -13,-18 l -46,-17 v -158 c 0,-10 -8,-19 -18,-19 -10,0 -19,9 -19,19 v 145 l -83,-31 v -158 c 0,-10 -9,-19 -19,-19 -10,0 -18,9 -18,19 v 145 l -32,-12 c -2,-1 -5,-1 -7,-1 -11,0 -20,9 -20,20 v 60 c 0,8 5,16 13,19 l 46,16 V 51 L 27,40 C 25,39 22,39 20,39 9,39 0,48 0,59 Z M 179,95 96,65 V -95 l 83,30 z"
         fill="currentColor"
         id="path136" />
    </g>
    <g
       transform="translate(28.1622,24.6601)"
       id="g142">
      <path
         transform="scale(0.004,-0.004)"
         d="m 0,119 c 0,8 5,15 13,18 l 46,17 v 158 c 0,10 8,19 18,19 10,0 19,-9 19,-19 V 167 l 83,31 v 158 c 0,10 9,19 19,19 10,0 18,-9 18,-19 V 211 l 32,12 c 2,1 5,1 7,1 11,0 20,-9 20,-20 v -60 c 0,-8 -5,-16 -13,-19 L 216,109 V -51 l 32,11 c 2,1 5,1 7,1 11,0 20,-9 20,-20 v -60 c 0,-8 -5,-15 -13,-18 l -46,-17 v -158 c 0,-10 -8,-19 -18,-19 -10,0 -19,9 -19,19 v 145 l -83,-31 v -158 c 0,-10 -9,-19 -19,-19 -10,0 -18,9 -18,19 v 145 l -32,-12 c -2,-1 -5,-1 -7,-1 -11,0 -20,9 -20,20 v 60 c 0,8 5,16 13,19 l 46,16 V 51 L 27,40 C 25,39 22,39 20,39 9,39 0,48 0,59 Z M 179,95 96,65 V -95 l 83,30 z"
         fill="currentColor"
         id="path140" />
    </g>
  </a>
  <a
     style="color:inherit"
     xlink:href="textedit:///Users/philippeperret/Programmes/ScoreSuite/ScoreImage/tests/checksums_tests/simples/instrus_transpositeurs/main/score-untrimed.ly:36:54:55"
     id="a150"
     transform="translate(-15.857892,-12.3811)">
    <g
       transform="translate(32.0372,35.1601)"
       id="g148">
      <path
         transform="scale(0.004,-0.004)"
         d="m 218,136 c 66,0 108,-36 108,-89 0,-89 -113,-183 -218,-183 -66,0 -108,36 -108,89 0,89 113,183 218,183 z"
         fill="currentColor"
         id="path146" />
    </g>
  </a>
  <g
     transform="translate(7.7043078,22.779)"
     id="g154">
    <path
       transform="scale(0.004,-0.004)"
       d="m 266,-635 h -6 c -108,0 -195,88 -195,197 0,58 53,103 112,103 54,0 95,-47 95,-103 0,-52 -43,-95 -95,-95 -11,0 -21,2 -31,6 26,-39 68,-65 117,-65 h 4 z m 195,432 c 68,24 113,90 113,164 0,90 -66,179 -173,190 19,-89 48,-242 60,-354 z M 74,28 c 0,-145 141,-247 264,-247 1,0 47,0 82,6 -7,64 -29,203 -63,364 -79,-8 -124,-61 -124,-119 0,-44 25,-91 81,-123 5,-5 7,-10 7,-15 0,-11 -10,-22 -22,-22 -15,0 -126,62 -126,187 0,88 58,174 160,197 -14,58 -29,117 -46,175 C 180,310 74,188 74,28 Z m 176,525 c -29,96 -52,170 -52,346 0,115 55,224 149,292 6,5 14,5 20,0 68,-80 133,-245 133,-358 0,-143 -86,-255 -180,-364 21,-68 39,-138 56,-207 2,0 7,1 13,1 155,0 256,-128 256,-261 0,-113 -74,-212 -180,-246 3,-35 5,-70 5,-105 0,-19 -1,-39 -2,-58 -7,-119 -88,-225 -202,-228 l 1,43 c 93,2 153,92 159,191 1,18 2,37 2,55 0,31 -1,61 -4,92 -5,-1 -44,-8 -89,-8 C 142,-262 2,-82 2,112 2,289 133,418 250,553 Z m 178,363 c 0,34 1,66 -20,129 -99,-48 -162,-149 -162,-259 0,-52 12,-115 36,-194 80,97 146,198 146,324 z"
       fill="currentColor"
       id="path152" />
  </g>
  <a
     style="color:inherit"
     xlink:href="textedit:///Users/philippeperret/Programmes/ScoreSuite/ScoreImage/tests/checksums_tests/simples/instrus_transpositeurs/main/score-untrimed.ly:36:8:9"
     id="a160"
     transform="translate(-15.857892,-12.3811)">
    <g
       transform="translate(27.0622,32.1601)"
       id="g158">
      <path
         transform="scale(0.004,-0.004)"
         d="m 0,119 c 0,8 5,15 13,18 l 46,17 v 158 c 0,10 8,19 18,19 10,0 19,-9 19,-19 V 167 l 83,31 v 158 c 0,10 9,19 19,19 10,0 18,-9 18,-19 V 211 l 32,12 c 2,1 5,1 7,1 11,0 20,-9 20,-20 v -60 c 0,-8 -5,-16 -13,-19 L 216,109 V -51 l 32,11 c 2,1 5,1 7,1 11,0 20,-9 20,-20 v -60 c 0,-8 -5,-15 -13,-18 l -46,-17 v -158 c 0,-10 -8,-19 -18,-19 -10,0 -19,9 -19,19 v 145 l -83,-31 v -158 c 0,-10 -9,-19 -19,-19 -10,0 -18,9 -18,19 v 145 l -32,-12 c -2,-1 -5,-1 -7,-1 -11,0 -20,9 -20,20 v 60 c 0,8 5,16 13,19 l 46,16 V 51 L 27,40 C 25,39 22,39 20,39 9,39 0,48 0,59 Z M 179,95 96,65 V -95 l 83,30 z"
         fill="currentColor"
         id="path156" />
    </g>
  </a>
  <a
     style="color:inherit"
     xlink:href="textedit:///Users/philippeperret/Programmes/ScoreSuite/ScoreImage/tests/checksums_tests/simples/instrus_transpositeurs/main/score-untrimed.ly:43:54:55"
     id="a166"
     transform="translate(-15.857892,-12.3811)">
    <g
       transform="translate(32.0372,41.6601)"
       id="g164">
      <path
         transform="scale(0.004,-0.004)"
         d="m 218,136 c 66,0 108,-36 108,-89 0,-89 -113,-183 -218,-183 -66,0 -108,36 -108,89 0,89 113,183 218,183 z"
         fill="currentColor"
         id="path162" />
    </g>
  </a>
  <g
     transform="translate(7.7043078,31.779)"
     id="g170">
    <path
       transform="scale(0.004,-0.004)"
       d="m 266,-635 h -6 c -108,0 -195,88 -195,197 0,58 53,103 112,103 54,0 95,-47 95,-103 0,-52 -43,-95 -95,-95 -11,0 -21,2 -31,6 26,-39 68,-65 117,-65 h 4 z m 195,432 c 68,24 113,90 113,164 0,90 -66,179 -173,190 19,-89 48,-242 60,-354 z M 74,28 c 0,-145 141,-247 264,-247 1,0 47,0 82,6 -7,64 -29,203 -63,364 -79,-8 -124,-61 -124,-119 0,-44 25,-91 81,-123 5,-5 7,-10 7,-15 0,-11 -10,-22 -22,-22 -15,0 -126,62 -126,187 0,88 58,174 160,197 -14,58 -29,117 -46,175 C 180,310 74,188 74,28 Z m 176,525 c -29,96 -52,170 -52,346 0,115 55,224 149,292 6,5 14,5 20,0 68,-80 133,-245 133,-358 0,-143 -86,-255 -180,-364 21,-68 39,-138 56,-207 2,0 7,1 13,1 155,0 256,-128 256,-261 0,-113 -74,-212 -180,-246 3,-35 5,-70 5,-105 0,-19 -1,-39 -2,-58 -7,-119 -88,-225 -202,-228 l 1,43 c 93,2 153,92 159,191 1,18 2,37 2,55 0,31 -1,61 -4,92 -5,-1 -44,-8 -89,-8 C 142,-262 2,-82 2,112 2,289 133,418 250,553 Z m 178,363 c 0,34 1,66 -20,129 -99,-48 -162,-149 -162,-259 0,-52 12,-115 36,-194 80,97 146,198 146,324 z"
       fill="currentColor"
       id="path168" />
  </g>
  <a
     style="color:inherit"
     xlink:href="textedit:///Users/philippeperret/Programmes/ScoreSuite/ScoreImage/tests/checksums_tests/simples/instrus_transpositeurs/main/score-untrimed.ly:43:8:9"
     id="a184"
     transform="translate(-15.857892,-12.3811)">
    <g
       transform="translate(27.0622,41.1601)"
       id="g174">
      <path
         transform="scale(0.004,-0.004)"
         d="m 0,119 c 0,8 5,15 13,18 l 46,17 v 158 c 0,10 8,19 18,19 10,0 19,-9 19,-19 V 167 l 83,31 v 158 c 0,10 9,19 19,19 10,0 18,-9 18,-19 V 211 l 32,12 c 2,1 5,1 7,1 11,0 20,-9 20,-20 v -60 c 0,-8 -5,-16 -13,-19 L 216,109 V -51 l 32,11 c 2,1 5,1 7,1 11,0 20,-9 20,-20 v -60 c 0,-8 -5,-15 -13,-18 l -46,-17 v -158 c 0,-10 -8,-19 -18,-19 -10,0 -19,9 -19,19 v 145 l -83,-31 v -158 c 0,-10 -9,-19 -19,-19 -10,0 -18,9 -18,19 v 145 l -32,-12 c -2,-1 -5,-1 -7,-1 -11,0 -20,9 -20,20 v 60 c 0,8 5,16 13,19 l 46,16 V 51 L 27,40 C 25,39 22,39 20,39 9,39 0,48 0,59 Z M 179,95 96,65 V -95 l 83,30 z"
         fill="currentColor"
         id="path172" />
    </g>
    <g
       transform="translate(28.1622,42.6601)"
       id="g178">
      <path
         transform="scale(0.004,-0.004)"
         d="m 0,119 c 0,8 5,15 13,18 l 46,17 v 158 c 0,10 8,19 18,19 10,0 19,-9 19,-19 V 167 l 83,31 v 158 c 0,10 9,19 19,19 10,0 18,-9 18,-19 V 211 l 32,12 c 2,1 5,1 7,1 11,0 20,-9 20,-20 v -60 c 0,-8 -5,-16 -13,-19 L 216,109 V -51 l 32,11 c 2,1 5,1 7,1 11,0 20,-9 20,-20 v -60 c 0,-8 -5,-15 -13,-18 l -46,-17 v -158 c 0,-10 -8,-19 -18,-19 -10,0 -19,9 -19,19 v 145 l -83,-31 v -158 c 0,-10 -9,-19 -19,-19 -10,0 -18,9 -18,19 v 145 l -32,-12 c -2,-1 -5,-1 -7,-1 -11,0 -20,9 -20,20 v 60 c 0,8 5,16 13,19 l 46,16 V 51 L 27,40 C 25,39 22,39 20,39 9,39 0,48 0,59 Z M 179,95 96,65 V -95 l 83,30 z"
         fill="currentColor"
         id="path176" />
    </g>
    <g
       transform="translate(29.2622,40.6601)"
       id="g182">
      <path
         transform="scale(0.004,-0.004)"
         d="m 0,119 c 0,8 5,15 13,18 l 46,17 v 158 c 0,10 8,19 18,19 10,0 19,-9 19,-19 V 167 l 83,31 v 158 c 0,10 9,19 19,19 10,0 18,-9 18,-19 V 211 l 32,12 c 2,1 5,1 7,1 11,0 20,-9 20,-20 v -60 c 0,-8 -5,-16 -13,-19 L 216,109 V -51 l 32,11 c 2,1 5,1 7,1 11,0 20,-9 20,-20 v -60 c 0,-8 -5,-15 -13,-18 l -46,-17 v -158 c 0,-10 -8,-19 -18,-19 -10,0 -19,9 -19,19 v 145 l -83,-31 v -158 c 0,-10 -9,-19 -19,-19 -10,0 -18,9 -18,19 v 145 l -32,-12 c -2,-1 -5,-1 -7,-1 -11,0 -20,9 -20,20 v 60 c 0,8 5,16 13,19 l 46,16 V 51 L 27,40 C 25,39 22,39 20,39 9,39 0,48 0,59 Z M 179,95 96,65 V -95 l 83,30 z"
         fill="currentColor"
         id="path180" />
    </g>
  </a>
  <g
     transform="translate(17.418508,12.779)"
     id="g188">
    <rect
       x="-0.064999998"
       y="-1"
       width="0.13"
       height="3.3139"
       ry="0.039999999"
       fill="currentColor"
       id="rect186" />
  </g>
  <g
     transform="translate(17.418508,21.779)"
     id="g192">
    <rect
       x="-0.064999998"
       y="-2.5"
       width="0.13"
       height="3.3139"
       ry="0.039999999"
       fill="currentColor"
       id="rect190" />
  </g>
  <g
     transform="translate(16.244308,30.779)"
     id="g196">
    <rect
       x="-0.064999998"
       y="-1.3139"
       width="0.13"
       height="3.3139"
       ry="0.039999999"
       fill="currentColor"
       id="rect194" />
  </g>
  <a
     style="color:inherit"
     xlink:href="textedit:///Users/philippeperret/Programmes/ScoreSuite/ScoreImage/tests/checksums_tests/simples/instrus_transpositeurs/main/score-untrimed.ly:29:57:58"
     id="a202"
     transform="translate(-15.857892,-12.3811)">
    <g
       transform="translate(35.0694,27.1601)"
       id="g200">
      <path
         transform="scale(0.004,-0.004)"
         d="m 218,136 c 66,0 108,-36 108,-89 0,-89 -113,-183 -218,-183 -66,0 -108,36 -108,89 0,89 113,183 218,183 z"
         fill="currentColor"
         id="path198" />
    </g>
  </a>
  <a
     style="color:inherit"
     xlink:href="textedit:///Users/philippeperret/Programmes/ScoreSuite/ScoreImage/tests/checksums_tests/simples/instrus_transpositeurs/main/score-untrimed.ly:36:57:58"
     id="a208"
     transform="translate(-15.857892,-12.3811)">
    <g
       transform="translate(35.0694,34.1601)"
       id="g206">
      <path
         transform="scale(0.004,-0.004)"
         d="m 218,136 c 66,0 108,-36 108,-89 0,-89 -113,-183 -218,-183 -66,0 -108,36 -108,89 0,89 113,183 218,183 z"
         fill="currentColor"
         id="path204" />
    </g>
  </a>
  <a
     style="color:inherit"
     xlink:href="textedit:///Users/philippeperret/Programmes/ScoreSuite/ScoreImage/tests/checksums_tests/simples/instrus_transpositeurs/main/score-untrimed.ly:43:58:59"
     id="a214"
     transform="translate(-15.857892,-12.3811)">
    <g
       transform="translate(35.0694,42.1601)"
       id="g212">
      <path
         transform="scale(0.004,-0.004)"
         d="m 218,136 c 66,0 108,-36 108,-89 0,-89 -113,-183 -218,-183 -66,0 -108,36 -108,89 0,89 113,183 218,183 z"
         fill="currentColor"
         id="path210" />
    </g>
  </a>
  <g
     transform="translate(20.450708,12.779)"
     id="g218">
    <rect
       x="-0.064999998"
       y="-1.5"
       width="0.13"
       height="3.3139"
       ry="0.039999999"
       fill="currentColor"
       id="rect216" />
  </g>
  <g
     transform="translate(19.276508,21.779)"
     id="g222">
    <rect
       x="-0.064999998"
       y="0.18610001"
       width="0.13"
       height="3.1472001"
       ry="0.039999999"
       fill="currentColor"
       id="rect220" />
  </g>
  <g
     transform="translate(19.276508,30.779)"
     id="g226">
    <rect
       x="-0.064999998"
       y="-0.81389999"
       width="0.13"
       height="3.3139"
       ry="0.039999999"
       fill="currentColor"
       id="rect224" />
  </g>
  <a
     style="color:inherit"
     xlink:href="textedit:///Users/philippeperret/Programmes/ScoreSuite/ScoreImage/tests/checksums_tests/simples/instrus_transpositeurs/main/score-untrimed.ly:29:59:60"
     id="a232"
     transform="translate(-15.857892,-12.3811)">
    <g
       transform="translate(38.155,26.6601)"
       id="g230">
      <path
         transform="scale(0.004,-0.004)"
         d="m 218,136 c 66,0 108,-36 108,-89 0,-89 -113,-183 -218,-183 -66,0 -108,36 -108,89 0,89 113,183 218,183 z"
         fill="currentColor"
         id="path228" />
    </g>
  </a>
  <a
     style="color:inherit"
     xlink:href="textedit:///Users/philippeperret/Programmes/ScoreSuite/ScoreImage/tests/checksums_tests/simples/instrus_transpositeurs/main/score-untrimed.ly:36:59:60"
     id="a238"
     transform="translate(-15.857892,-12.3811)">
    <g
       transform="translate(38.155,33.1601)"
       id="g236">
      <path
         transform="scale(0.004,-0.004)"
         d="m 218,136 c 66,0 108,-36 108,-89 0,-89 -113,-183 -218,-183 -66,0 -108,36 -108,89 0,89 113,183 218,183 z"
         fill="currentColor"
         id="path234" />
    </g>
  </a>
  <a
     style="color:inherit"
     xlink:href="textedit:///Users/philippeperret/Programmes/ScoreSuite/ScoreImage/tests/checksums_tests/simples/instrus_transpositeurs/main/score-untrimed.ly:43:60:61"
     id="a244"
     transform="translate(-15.857892,-12.3811)">
    <g
       transform="translate(38.155,42.6601)"
       id="g242">
      <path
         transform="scale(0.004,-0.004)"
         d="m 218,136 c 66,0 108,-36 108,-89 0,-89 -113,-183 -218,-183 -66,0 -108,36 -108,89 0,89 113,183 218,183 z"
         fill="currentColor"
         id="path240" />
    </g>
  </a>
  <g
     transform="translate(23.536308,12.779)"
     id="g248">
    <rect
       x="-0.064999998"
       y="-2"
       width="0.13"
       height="3.3139"
       ry="0.039999999"
       fill="currentColor"
       id="rect246" />
  </g>
  <g
     transform="translate(22.362108,21.779)"
     id="g252">
    <rect
       x="-0.064999998"
       y="-0.81389999"
       width="0.13"
       height="3.3139"
       ry="0.039999999"
       fill="currentColor"
       id="rect250" />
  </g>
  <g
     transform="translate(22.362108,30.779)"
     id="g256">
    <rect
       x="-0.064999998"
       y="-0.31389999"
       width="0.13"
       height="3.3139"
       ry="0.039999999"
       fill="currentColor"
       id="rect254" />
  </g>
  <a
     style="color:inherit"
     xlink:href="textedit:///Users/philippeperret/Programmes/ScoreSuite/ScoreImage/tests/checksums_tests/simples/instrus_transpositeurs/main/score-untrimed.ly:29:61:62"
     id="a262"
     transform="translate(-15.857892,-12.3811)">
    <g
       transform="translate(41.2406,26.1601)"
       id="g260">
      <path
         transform="scale(0.004,-0.004)"
         d="m 218,136 c 66,0 108,-36 108,-89 0,-89 -113,-183 -218,-183 -66,0 -108,36 -108,89 0,89 113,183 218,183 z"
         fill="currentColor"
         id="path258" />
    </g>
  </a>
  <a
     style="color:inherit"
     xlink:href="textedit:///Users/philippeperret/Programmes/ScoreSuite/ScoreImage/tests/checksums_tests/simples/instrus_transpositeurs/main/score-untrimed.ly:36:61:62"
     id="a268"
     transform="translate(-15.857892,-12.3811)">
    <g
       transform="translate(41.2406,31.6601)"
       id="g266">
      <path
         transform="scale(0.004,-0.004)"
         d="m 218,136 c 66,0 108,-36 108,-89 0,-89 -113,-183 -218,-183 -66,0 -108,36 -108,89 0,89 113,183 218,183 z"
         fill="currentColor"
         id="path264" />
    </g>
  </a>
  <a
     style="color:inherit"
     xlink:href="textedit:///Users/philippeperret/Programmes/ScoreSuite/ScoreImage/tests/checksums_tests/simples/instrus_transpositeurs/main/score-untrimed.ly:43:62:63"
     id="a274"
     transform="translate(-15.857892,-12.3811)">
    <g
       transform="translate(41.2406,43.1601)"
       id="g272">
      <path
         transform="scale(0.004,-0.004)"
         d="m 218,136 c 66,0 108,-36 108,-89 0,-89 -113,-183 -218,-183 -66,0 -108,36 -108,89 0,89 113,183 218,183 z"
         fill="currentColor"
         id="path270" />
    </g>
  </a>
  <g
     transform="translate(26.621908,12.779)"
     id="g278">
    <rect
       x="-0.064999998"
       y="-2.5"
       width="0.13"
       height="3.3139"
       ry="0.039999999"
       fill="currentColor"
       id="rect276" />
  </g>
  <g
     transform="translate(25.447708,21.779)"
     id="g282">
    <rect
       x="-0.064999998"
       y="-2.3139"
       width="0.13"
       height="3.3139"
       ry="0.039999999"
       fill="currentColor"
       id="rect280" />
  </g>
  <g
     transform="translate(25.447708,30.779)"
     id="g286">
    <rect
       x="-0.064999998"
       y="0.18610001"
       width="0.13"
       height="3.1472001"
       ry="0.039999999"
       fill="currentColor"
       id="rect284" />
  </g>
  <g
     transform="translate(-0.07949219,13.3075)"
     id="g292">
    <text
       font-family="serif"
       font-size="2.2px"
       text-anchor="start"
       fill="currentColor"
       id="text290"><tspan
         id="tspan288">Cl.(Bb)</tspan></text>
  </g>
  <g
     transform="translate(4.1543078,4.5278)"
     id="g298">
    <text
       font-family="serif"
       font-size="2.2px"
       text-anchor="start"
       fill="currentColor"
       id="text296"><tspan
         id="tspan294">Fl.</tspan></text>
  </g>
</svg>
