<?xml version="1.0" encoding="UTF-8" standalone="no"?>
<svg
   version="1.2"
   width="64.315758mm"
   height="44.609665mm"
   viewBox="0 0 36.599209 25.385361"
   id="svg382"
   xmlns:xlink="http://www.w3.org/1999/xlink"
   xmlns="http://www.w3.org/2000/svg"
   xmlns:svg="http://www.w3.org/2000/svg">
  <defs
     id="defs386" />
  <style
     type="text/css"
     id="style2"><![CDATA[
tspan { white-space: pre; }
]]></style>
  <g
     transform="translate(5.5193125,6.779)"
     id="g6">
    <rect
       x="18.6157"
       y="-0.1"
       width="1.9563"
       height="0.2"
       ry="0.1"
       fill="currentColor"
       id="rect4" />
  </g>
  <g
     transform="translate(5.5193125,6.779)"
     id="g10">
    <rect
       x="5.4738998"
       y="-0.1"
       width="1.9563"
       height="0.2"
       ry="0.1"
       fill="currentColor"
       id="rect8" />
  </g>
  <g
     transform="translate(5.5193125,5.779)"
     id="g14">
    <line
       stroke-linejoin="round"
       stroke-linecap="round"
       stroke-width="0.1"
       stroke="currentColor"
       x1="0.050000001"
       y1="0"
       x2="31.0299"
       y2="0"
       id="line12" />
  </g>
  <g
     transform="translate(5.5193125,4.779)"
     id="g18">
    <line
       stroke-linejoin="round"
       stroke-linecap="round"
       stroke-width="0.1"
       stroke="currentColor"
       x1="0.050000001"
       y1="0"
       x2="31.0299"
       y2="0"
       id="line16" />
  </g>
  <g
     transform="translate(5.5193125,3.779)"
     id="g22">
    <line
       stroke-linejoin="round"
       stroke-linecap="round"
       stroke-width="0.1"
       stroke="currentColor"
       x1="0.050000001"
       y1="0"
       x2="31.0299"
       y2="0"
       id="line20" />
  </g>
  <g
     transform="translate(5.5193125,2.779)"
     id="g26">
    <line
       stroke-linejoin="round"
       stroke-linecap="round"
       stroke-width="0.1"
       stroke="currentColor"
       x1="0.050000001"
       y1="0"
       x2="31.0299"
       y2="0"
       id="line24" />
  </g>
  <g
     transform="translate(5.5193125,1.779)"
     id="g30">
    <line
       stroke-linejoin="round"
       stroke-linecap="round"
       stroke-width="0.1"
       stroke="currentColor"
       x1="0.050000001"
       y1="0"
       x2="31.0299"
       y2="0"
       id="line28" />
  </g>
  <g
     transform="translate(36.409212,21.779)"
     id="g34">
    <rect
       x="0"
       y="-2"
       width="0.19"
       height="4"
       ry="0.0000"
       fill="currentColor"
       id="rect32" />
  </g>
  <g
     transform="translate(36.409212,12.779)"
     id="g38">
    <rect
       x="0"
       y="-2"
       width="0.19"
       height="4"
       ry="0.0000"
       fill="currentColor"
       id="rect36" />
  </g>
  <g
     transform="translate(5.5193125,14.779)"
     id="g42">
    <line
       stroke-linejoin="round"
       stroke-linecap="round"
       stroke-width="0.1"
       stroke="currentColor"
       x1="0.050000001"
       y1="0"
       x2="31.0299"
       y2="0"
       id="line40" />
  </g>
  <g
     transform="translate(5.5193125,13.779)"
     id="g46">
    <line
       stroke-linejoin="round"
       stroke-linecap="round"
       stroke-width="0.1"
       stroke="currentColor"
       x1="0.050000001"
       y1="0"
       x2="31.0299"
       y2="0"
       id="line44" />
  </g>
  <g
     transform="translate(5.5193125,12.779)"
     id="g50">
    <line
       stroke-linejoin="round"
       stroke-linecap="round"
       stroke-width="0.1"
       stroke="currentColor"
       x1="0.050000001"
       y1="0"
       x2="31.0299"
       y2="0"
       id="line48" />
  </g>
  <g
     transform="translate(5.5193125,11.779)"
     id="g54">
    <line
       stroke-linejoin="round"
       stroke-linecap="round"
       stroke-width="0.1"
       stroke="currentColor"
       x1="0.050000001"
       y1="0"
       x2="31.0299"
       y2="0"
       id="line52" />
  </g>
  <g
     transform="translate(5.5193125,10.779)"
     id="g58">
    <line
       stroke-linejoin="round"
       stroke-linecap="round"
       stroke-width="0.1"
       stroke="currentColor"
       x1="0.050000001"
       y1="0"
       x2="31.0299"
       y2="0"
       id="line56" />
  </g>
  <g
     transform="translate(36.409212,3.779)"
     id="g62">
    <rect
       x="0"
       y="-2"
       width="0.19"
       height="4"
       ry="0.0000"
       fill="currentColor"
       id="rect60" />
  </g>
  <g
     transform="translate(23.267412,21.779)"
     id="g66">
    <rect
       x="0"
       y="-2"
       width="0.19"
       height="4"
       ry="0.0000"
       fill="currentColor"
       id="rect64" />
  </g>
  <g
     transform="translate(5.5193125,23.779)"
     id="g70">
    <line
       stroke-linejoin="round"
       stroke-linecap="round"
       stroke-width="0.1"
       stroke="currentColor"
       x1="0.050000001"
       y1="0"
       x2="31.0299"
       y2="0"
       id="line68" />
  </g>
  <g
     transform="translate(5.5193125,22.779)"
     id="g74">
    <line
       stroke-linejoin="round"
       stroke-linecap="round"
       stroke-width="0.1"
       stroke="currentColor"
       x1="0.050000001"
       y1="0"
       x2="31.0299"
       y2="0"
       id="line72" />
  </g>
  <g
     transform="translate(5.5193125,21.779)"
     id="g78">
    <line
       stroke-linejoin="round"
       stroke-linecap="round"
       stroke-width="0.1"
       stroke="currentColor"
       x1="0.050000001"
       y1="0"
       x2="31.0299"
       y2="0"
       id="line76" />
  </g>
  <g
     transform="translate(5.5193125,20.779)"
     id="g82">
    <line
       stroke-linejoin="round"
       stroke-linecap="round"
       stroke-width="0.1"
       stroke="currentColor"
       x1="0.050000001"
       y1="0"
       x2="31.0299"
       y2="0"
       id="line80" />
  </g>
  <g
     transform="translate(5.5193125,19.779)"
     id="g86">
    <line
       stroke-linejoin="round"
       stroke-linecap="round"
       stroke-width="0.1"
       stroke="currentColor"
       x1="0.050000001"
       y1="0"
       x2="31.0299"
       y2="0"
       id="line84" />
  </g>
  <g
     transform="translate(23.267412,12.779)"
     id="g90">
    <rect
       x="0"
       y="-2"
       width="0.19"
       height="4"
       ry="0.0000"
       fill="currentColor"
       id="rect88" />
  </g>
  <g
     transform="translate(23.267412,3.779)"
     id="g94">
    <rect
       x="0"
       y="-2"
       width="0.19"
       height="4"
       ry="0.0000"
       fill="currentColor"
       id="rect92" />
  </g>
  <g
     transform="translate(4.2093125,1.504)"
     id="g98">
    <path
       transform="scale(0.004,-0.004)"
       d="m 0,-56 v 87 c 0,14 11,25 25,25 h 50 c 159,0 271,136 362,270 12,17 38,-1 26,-18 C 364,164 248,-56 75,-56 Z"
       fill="currentColor"
       id="path96" />
  </g>
  <g
     transform="translate(4.2093125,24.054)"
     id="g102">
    <path
       transform="scale(0.004,-0.004)"
       d="m 0,56 h 75 c 173,0 289,-220 388,-364 12,-17 -14,-35 -26,-18 C 346,-192 234,-56 75,-56 H 25 C 11,-56 0,-45 0,-31 Z"
       fill="currentColor"
       id="path100" />
  </g>
  <g
     transform="translate(4.2093125,12.779)"
     id="g106">
    <rect
       x="0"
       y="-11.095"
       width="0.44999999"
       height="22.190001"
       ry="0.0000"
       fill="currentColor"
       id="rect104" />
  </g>
  <g
     transform="translate(5.4593125,12.779)"
     id="g110">
    <rect
       x="0"
       y="-11.05"
       width="0.16"
       height="22.1"
       ry="0.050000001"
       fill="currentColor"
       id="rect108" />
  </g>
  <a
     style="color:inherit"
     xlink:href="textedit:///Users/philippeperret/Programmes/ScoreSuite/ScoreImage/tests/checksums_tests/staff_groups/main_group_crochet_unlinked/main/score-untrimed.ly:23:25:26"
     id="a116"
     transform="translate(-17.242888,-12.3811)">
    <g
       transform="translate(28.5622,19.1601)"
       id="g114">
      <path
         transform="scale(0.004,-0.004)"
         d="m 218,136 c 66,0 108,-36 108,-89 0,-89 -113,-183 -218,-183 -66,0 -108,36 -108,89 0,89 113,183 218,183 z"
         fill="currentColor"
         id="path112" />
    </g>
  </a>
  <g
     transform="translate(6.3193125,4.779)"
     id="g120">
    <path
       transform="scale(0.004,-0.004)"
       d="m 266,-635 h -6 c -108,0 -195,88 -195,197 0,58 53,103 112,103 54,0 95,-47 95,-103 0,-52 -43,-95 -95,-95 -11,0 -21,2 -31,6 26,-39 68,-65 117,-65 h 4 z m 195,432 c 68,24 113,90 113,164 0,90 -66,179 -173,190 19,-89 48,-242 60,-354 z M 74,28 c 0,-145 141,-247 264,-247 1,0 47,0 82,6 -7,64 -29,203 -63,364 -79,-8 -124,-61 -124,-119 0,-44 25,-91 81,-123 5,-5 7,-10 7,-15 0,-11 -10,-22 -22,-22 -15,0 -126,62 -126,187 0,88 58,174 160,197 -14,58 -29,117 -46,175 C 180,310 74,188 74,28 Z m 176,525 c -29,96 -52,170 -52,346 0,115 55,224 149,292 6,5 14,5 20,0 68,-80 133,-245 133,-358 0,-143 -86,-255 -180,-364 21,-68 39,-138 56,-207 2,0 7,1 13,1 155,0 256,-128 256,-261 0,-113 -74,-212 -180,-246 3,-35 5,-70 5,-105 0,-19 -1,-39 -2,-58 -7,-119 -88,-225 -202,-228 l 1,43 c 93,2 153,92 159,191 1,18 2,37 2,55 0,31 -1,61 -4,92 -5,-1 -44,-8 -89,-8 C 142,-262 2,-82 2,112 2,289 133,418 250,553 Z m 178,363 c 0,34 1,66 -20,129 -99,-48 -162,-149 -162,-259 0,-52 12,-115 36,-194 80,97 146,198 146,324 z"
       fill="currentColor"
       id="path118" />
  </g>
  <a
     style="color:inherit"
     xlink:href="textedit:///Users/philippeperret/Programmes/ScoreSuite/ScoreImage/tests/checksums_tests/staff_groups/main_group_crochet_unlinked/main/score-untrimed.ly:30:25:26"
     id="a126"
     transform="translate(-17.242888,-12.3811)">
    <g
       transform="translate(28.5622,25.1601)"
       id="g124">
      <path
         transform="scale(0.004,-0.004)"
         d="m 218,136 c 66,0 108,-36 108,-89 0,-89 -113,-183 -218,-183 -66,0 -108,36 -108,89 0,89 113,183 218,183 z"
         fill="currentColor"
         id="path122" />
    </g>
  </a>
  <g
     transform="translate(6.3193125,12.779)"
     id="g130">
    <path
       transform="scale(0.004,-0.004)"
       d="m 318,0 c 0,-44 12,-73 45,-73 29,0 57,31 88,31 123,0 229,-89 229,-208 0,-169 -93,-250 -265,-250 -83,0 -152,61 -152,142 0,42 34,77 76,77 42,0 76,-35 76,-77 0,-39 -49,-37 -49,-76 0,-23 24,-38 49,-38 116,0 140,90 140,222 0,106 -12,180 -104,180 -72,0 -119,-71 -119,-149 0,-9 -7,-14 -14,-14 -7,0 -13,5 -13,14 0,76 -31,147 -84,200 v -471 c 0,-6 -4,-10 -10,-10 h -21 c -6,0 -10,4 -10,10 v 980 c 0,6 4,10 10,10 h 21 c 6,0 10,-4 10,-10 V 19 c 53,53 84,124 84,200 0,9 6,14 13,14 7,0 14,-5 14,-14 0,-78 47,-149 119,-149 92,0 104,74 104,180 0,132 -24,222 -140,222 -25,0 -49,-15 -49,-38 0,-39 49,-37 49,-76 0,-42 -34,-77 -76,-77 -42,0 -76,35 -76,77 0,81 69,142 152,142 172,0 265,-81 265,-250 C 680,131 574,42 451,42 420,42 392,73 363,73 330,73 318,44 318,0 Z M 129,-500 H 10 c -6,0 -10,4 -10,10 v 980 c 0,6 4,10 10,10 h 119 c 6,0 10,-4 10,-10 v -980 c 0,-6 -4,-10 -10,-10 z"
       fill="currentColor"
       id="path128" />
  </g>
  <a
     style="color:inherit"
     xlink:href="textedit:///Users/philippeperret/Programmes/ScoreSuite/ScoreImage/tests/checksums_tests/staff_groups/main_group_crochet_unlinked/main/score-untrimed.ly:37:25:26"
     id="a136"
     transform="translate(-17.242888,-12.3811)">
    <g
       transform="translate(28.5622,34.6601)"
       id="g134">
      <path
         transform="scale(0.004,-0.004)"
         d="m 218,136 c 66,0 108,-36 108,-89 0,-89 -113,-183 -218,-183 -66,0 -108,36 -108,89 0,89 113,183 218,183 z"
         fill="currentColor"
         id="path132" />
    </g>
  </a>
  <g
     transform="translate(6.3193125,20.779)"
     id="g140">
    <path
       transform="scale(0.004,-0.004)"
       d="m 557,-125 c 0,28 23,51 51,51 28,0 51,-23 51,-51 0,-28 -23,-51 -51,-51 -28,0 -51,23 -51,51 z m 0,250 c 0,28 23,51 51,51 28,0 51,-23 51,-51 0,-28 -23,-51 -51,-51 -28,0 -51,23 -51,51 z M 232,263 c 172,0 293,-88 293,-251 0,-263 -263,-414 -516,-521 -3,-3 -6,-4 -9,-4 -7,0 -13,6 -13,13 0,3 1,6 4,9 202,118 412,265 412,493 0,120 -63,235 -171,235 -74,0 -129,-54 -154,-126 11,5 22,8 34,8 C 167,119 212,74 212,19 212,-39 168,-87 112,-87 52,-87 0,-40 0,19 0,152 102,263 232,263 Z"
       fill="currentColor"
       id="path138" />
  </g>
  <g
     transform="translate(12.558512,3.779)"
     id="g144">
    <rect
       x="-0.064999998"
       y="-0.5"
       width="0.13"
       height="3.3139"
       ry="0.039999999"
       fill="currentColor"
       id="rect142" />
  </g>
  <g
     transform="translate(11.384312,12.779)"
     id="g148">
    <rect
       x="-0.064999998"
       y="0.18610001"
       width="0.13"
       height="3.1472001"
       ry="0.039999999"
       fill="currentColor"
       id="rect146" />
  </g>
  <g
     transform="translate(12.558512,21.779)"
     id="g152">
    <rect
       x="-0.064999998"
       y="-3"
       width="0.13"
       height="3.3139"
       ry="0.039999999"
       fill="currentColor"
       id="rect150" />
  </g>
  <a
     style="color:inherit"
     xlink:href="textedit:///Users/philippeperret/Programmes/ScoreSuite/ScoreImage/tests/checksums_tests/staff_groups/main_group_crochet_unlinked/main/score-untrimed.ly:23:28:29"
     id="a158"
     transform="translate(-17.242888,-12.3811)">
    <g
       transform="translate(31.5705,18.6601)"
       id="g156">
      <path
         transform="scale(0.004,-0.004)"
         d="m 218,136 c 66,0 108,-36 108,-89 0,-89 -113,-183 -218,-183 -66,0 -108,36 -108,89 0,89 113,183 218,183 z"
         fill="currentColor"
         id="path154" />
    </g>
  </a>
  <a
     style="color:inherit"
     xlink:href="textedit:///Users/philippeperret/Programmes/ScoreSuite/ScoreImage/tests/checksums_tests/staff_groups/main_group_crochet_unlinked/main/score-untrimed.ly:30:28:29"
     id="a164"
     transform="translate(-17.242888,-12.3811)">
    <g
       transform="translate(31.5705,24.6601)"
       id="g162">
      <path
         transform="scale(0.004,-0.004)"
         d="m 218,136 c 66,0 108,-36 108,-89 0,-89 -113,-183 -218,-183 -66,0 -108,36 -108,89 0,89 113,183 218,183 z"
         fill="currentColor"
         id="path160" />
    </g>
  </a>
  <a
     style="color:inherit"
     xlink:href="textedit:///Users/philippeperret/Programmes/ScoreSuite/ScoreImage/tests/checksums_tests/staff_groups/main_group_crochet_unlinked/main/score-untrimed.ly:37:29:30"
     id="a170"
     transform="translate(-17.242888,-12.3811)">
    <g
       transform="translate(31.5705,34.1601)"
       id="g168">
      <path
         transform="scale(0.004,-0.004)"
         d="m 218,136 c 66,0 108,-36 108,-89 0,-89 -113,-183 -218,-183 -66,0 -108,36 -108,89 0,89 113,183 218,183 z"
         fill="currentColor"
         id="path166" />
    </g>
  </a>
  <g
     transform="translate(15.566912,3.779)"
     id="g174">
    <rect
       x="-0.064999998"
       y="-1"
       width="0.13"
       height="3.3139"
       ry="0.039999999"
       fill="currentColor"
       id="rect172" />
  </g>
  <g
     transform="translate(14.392612,12.779)"
     id="g178">
    <rect
       x="-0.064999998"
       y="-0.31389999"
       width="0.13"
       height="3.3139"
       ry="0.039999999"
       fill="currentColor"
       id="rect176" />
  </g>
  <g
     transform="translate(14.392612,21.779)"
     id="g182">
    <rect
       x="-0.064999998"
       y="0.18610001"
       width="0.13"
       height="3.1472001"
       ry="0.039999999"
       fill="currentColor"
       id="rect180" />
  </g>
  <a
     style="color:inherit"
     xlink:href="textedit:///Users/philippeperret/Programmes/ScoreSuite/ScoreImage/tests/checksums_tests/staff_groups/main_group_crochet_unlinked/main/score-untrimed.ly:23:30:31"
     id="a188"
     transform="translate(-17.242888,-12.3811)">
    <g
       transform="translate(34.5728,18.1601)"
       id="g186">
      <path
         transform="scale(0.004,-0.004)"
         d="m 218,136 c 66,0 108,-36 108,-89 0,-89 -113,-183 -218,-183 -66,0 -108,36 -108,89 0,89 113,183 218,183 z"
         fill="currentColor"
         id="path184" />
    </g>
  </a>
  <a
     style="color:inherit"
     xlink:href="textedit:///Users/philippeperret/Programmes/ScoreSuite/ScoreImage/tests/checksums_tests/staff_groups/main_group_crochet_unlinked/main/score-untrimed.ly:30:30:31"
     id="a194"
     transform="translate(-17.242888,-12.3811)">
    <g
       transform="translate(34.5728,24.1601)"
       id="g192">
      <path
         transform="scale(0.004,-0.004)"
         d="m 218,136 c 66,0 108,-36 108,-89 0,-89 -113,-183 -218,-183 -66,0 -108,36 -108,89 0,89 113,183 218,183 z"
         fill="currentColor"
         id="path190" />
    </g>
  </a>
  <a
     style="color:inherit"
     xlink:href="textedit:///Users/philippeperret/Programmes/ScoreSuite/ScoreImage/tests/checksums_tests/staff_groups/main_group_crochet_unlinked/main/score-untrimed.ly:37:31:32"
     id="a200"
     transform="translate(-17.242888,-12.3811)">
    <g
       transform="translate(34.5728,33.6601)"
       id="g198">
      <path
         transform="scale(0.004,-0.004)"
         d="m 218,136 c 66,0 108,-36 108,-89 0,-89 -113,-183 -218,-183 -66,0 -108,36 -108,89 0,89 113,183 218,183 z"
         fill="currentColor"
         id="path196" />
    </g>
  </a>
  <g
     transform="translate(18.569112,3.779)"
     id="g204">
    <rect
       x="-0.064999998"
       y="-1.5"
       width="0.13"
       height="3.3139"
       ry="0.039999999"
       fill="currentColor"
       id="rect202" />
  </g>
  <g
     transform="translate(17.394912,12.779)"
     id="g208">
    <rect
       x="-0.064999998"
       y="-0.81389999"
       width="0.13"
       height="3.3139"
       ry="0.039999999"
       fill="currentColor"
       id="rect206" />
  </g>
  <g
     transform="translate(17.394912,21.779)"
     id="g212">
    <rect
       x="-0.064999998"
       y="-0.31389999"
       width="0.13"
       height="3.3139"
       ry="0.039999999"
       fill="currentColor"
       id="rect210" />
  </g>
  <a
     style="color:inherit"
     xlink:href="textedit:///Users/philippeperret/Programmes/ScoreSuite/ScoreImage/tests/checksums_tests/staff_groups/main_group_crochet_unlinked/main/score-untrimed.ly:23:32:33"
     id="a218"
     transform="translate(-17.242888,-12.3811)">
    <g
       transform="translate(37.5751,17.6601)"
       id="g216">
      <path
         transform="scale(0.004,-0.004)"
         d="m 218,136 c 66,0 108,-36 108,-89 0,-89 -113,-183 -218,-183 -66,0 -108,36 -108,89 0,89 113,183 218,183 z"
         fill="currentColor"
         id="path214" />
    </g>
  </a>
  <a
     style="color:inherit"
     xlink:href="textedit:///Users/philippeperret/Programmes/ScoreSuite/ScoreImage/tests/checksums_tests/staff_groups/main_group_crochet_unlinked/main/score-untrimed.ly:30:32:33"
     id="a224"
     transform="translate(-17.242888,-12.3811)">
    <g
       transform="translate(37.5751,23.6601)"
       id="g222">
      <path
         transform="scale(0.004,-0.004)"
         d="m 218,136 c 66,0 108,-36 108,-89 0,-89 -113,-183 -218,-183 -66,0 -108,36 -108,89 0,89 113,183 218,183 z"
         fill="currentColor"
         id="path220" />
    </g>
  </a>
  <a
     style="color:inherit"
     xlink:href="textedit:///Users/philippeperret/Programmes/ScoreSuite/ScoreImage/tests/checksums_tests/staff_groups/main_group_crochet_unlinked/main/score-untrimed.ly:37:33:34"
     id="a230"
     transform="translate(-17.242888,-12.3811)">
    <g
       transform="translate(37.5751,33.1601)"
       id="g228">
      <path
         transform="scale(0.004,-0.004)"
         d="m 218,136 c 66,0 108,-36 108,-89 0,-89 -113,-183 -218,-183 -66,0 -108,36 -108,89 0,89 113,183 218,183 z"
         fill="currentColor"
         id="path226" />
    </g>
  </a>
  <g
     transform="translate(21.571412,3.779)"
     id="g234">
    <rect
       x="-0.064999998"
       y="-2"
       width="0.13"
       height="3.3139"
       ry="0.039999999"
       fill="currentColor"
       id="rect232" />
  </g>
  <g
     transform="translate(20.397212,12.779)"
     id="g238">
    <rect
       x="-0.064999998"
       y="-1.3139"
       width="0.13"
       height="3.3139"
       ry="0.039999999"
       fill="currentColor"
       id="rect236" />
  </g>
  <g
     transform="translate(20.397212,21.779)"
     id="g242">
    <rect
       x="-0.064999998"
       y="-0.81389999"
       width="0.13"
       height="3.3139"
       ry="0.039999999"
       fill="currentColor"
       id="rect240" />
  </g>
  <a
     style="color:inherit"
     xlink:href="textedit:///Users/philippeperret/Programmes/ScoreSuite/ScoreImage/tests/checksums_tests/staff_groups/main_group_crochet_unlinked/main/score-untrimed.ly:23:51:52"
     id="a248"
     transform="translate(-17.242888,-12.3811)">
    <g
       transform="translate(41.704,19.1601)"
       id="g246">
      <path
         transform="scale(0.004,-0.004)"
         d="m 218,136 c 66,0 108,-36 108,-89 0,-89 -113,-183 -218,-183 -66,0 -108,36 -108,89 0,89 113,183 218,183 z"
         fill="currentColor"
         id="path244" />
    </g>
  </a>
  <a
     style="color:inherit"
     xlink:href="textedit:///Users/philippeperret/Programmes/ScoreSuite/ScoreImage/tests/checksums_tests/staff_groups/main_group_crochet_unlinked/main/score-untrimed.ly:30:51:52"
     id="a254"
     transform="translate(-17.242888,-12.3811)">
    <g
       transform="translate(41.704,25.1601)"
       id="g252">
      <path
         transform="scale(0.004,-0.004)"
         d="m 218,136 c 66,0 108,-36 108,-89 0,-89 -113,-183 -218,-183 -66,0 -108,36 -108,89 0,89 113,183 218,183 z"
         fill="currentColor"
         id="path250" />
    </g>
  </a>
  <g
     transform="translate(0.8023125,22.5262)"
     id="g260">
    <text
       font-family="serif"
       font-size="2.2px"
       text-anchor="start"
       fill="currentColor"
       id="text258"><tspan
         id="tspan256">Cb.</tspan></text>
  </g>
  <a
     style="color:inherit"
     xlink:href="textedit:///Users/philippeperret/Programmes/ScoreSuite/ScoreImage/tests/checksums_tests/staff_groups/main_group_crochet_unlinked/main/score-untrimed.ly:37:52:53"
     id="a266"
     transform="translate(-17.242888,-12.3811)">
    <g
       transform="translate(41.704,34.6601)"
       id="g264">
      <path
         transform="scale(0.004,-0.004)"
         d="m 218,136 c 66,0 108,-36 108,-89 0,-89 -113,-183 -218,-183 -66,0 -108,36 -108,89 0,89 113,183 218,183 z"
         fill="currentColor"
         id="path262" />
    </g>
  </a>
  <g
     transform="translate(25.700312,3.779)"
     id="g270">
    <rect
       x="-0.064999998"
       y="-0.5"
       width="0.13"
       height="3.3139"
       ry="0.039999999"
       fill="currentColor"
       id="rect268" />
  </g>
  <g
     transform="translate(24.526112,12.779)"
     id="g274">
    <rect
       x="-0.064999998"
       y="0.18610001"
       width="0.13"
       height="3.1472001"
       ry="0.039999999"
       fill="currentColor"
       id="rect272" />
  </g>
  <g
     transform="translate(25.700312,21.779)"
     id="g278">
    <rect
       x="-0.064999998"
       y="-3"
       width="0.13"
       height="3.3139"
       ry="0.039999999"
       fill="currentColor"
       id="rect276" />
  </g>
  <a
     style="color:inherit"
     xlink:href="textedit:///Users/philippeperret/Programmes/ScoreSuite/ScoreImage/tests/checksums_tests/staff_groups/main_group_crochet_unlinked/main/score-untrimed.ly:23:54:55"
     id="a284"
     transform="translate(-17.242888,-12.3811)">
    <g
       transform="translate(44.7123,18.6601)"
       id="g282">
      <path
         transform="scale(0.004,-0.004)"
         d="m 218,136 c 66,0 108,-36 108,-89 0,-89 -113,-183 -218,-183 -66,0 -108,36 -108,89 0,89 113,183 218,183 z"
         fill="currentColor"
         id="path280" />
    </g>
  </a>
  <a
     style="color:inherit"
     xlink:href="textedit:///Users/philippeperret/Programmes/ScoreSuite/ScoreImage/tests/checksums_tests/staff_groups/main_group_crochet_unlinked/main/score-untrimed.ly:30:54:55"
     id="a290"
     transform="translate(-17.242888,-12.3811)">
    <g
       transform="translate(44.7123,24.6601)"
       id="g288">
      <path
         transform="scale(0.004,-0.004)"
         d="m 218,136 c 66,0 108,-36 108,-89 0,-89 -113,-183 -218,-183 -66,0 -108,36 -108,89 0,89 113,183 218,183 z"
         fill="currentColor"
         id="path286" />
    </g>
  </a>
  <a
     style="color:inherit"
     xlink:href="textedit:///Users/philippeperret/Programmes/ScoreSuite/ScoreImage/tests/checksums_tests/staff_groups/main_group_crochet_unlinked/main/score-untrimed.ly:37:56:57"
     id="a296"
     transform="translate(-17.242888,-12.3811)">
    <g
       transform="translate(44.7123,34.1601)"
       id="g294">
      <path
         transform="scale(0.004,-0.004)"
         d="m 218,136 c 66,0 108,-36 108,-89 0,-89 -113,-183 -218,-183 -66,0 -108,36 -108,89 0,89 113,183 218,183 z"
         fill="currentColor"
         id="path292" />
    </g>
  </a>
  <g
     transform="translate(28.708612,3.779)"
     id="g300">
    <rect
       x="-0.064999998"
       y="-1"
       width="0.13"
       height="3.3139"
       ry="0.039999999"
       fill="currentColor"
       id="rect298" />
  </g>
  <g
     transform="translate(27.534412,12.779)"
     id="g304">
    <rect
       x="-0.064999998"
       y="-0.31389999"
       width="0.13"
       height="3.3139"
       ry="0.039999999"
       fill="currentColor"
       id="rect302" />
  </g>
  <g
     transform="translate(27.534412,21.779)"
     id="g308">
    <rect
       x="-0.064999998"
       y="0.18610001"
       width="0.13"
       height="3.1472001"
       ry="0.039999999"
       fill="currentColor"
       id="rect306" />
  </g>
  <a
     style="color:inherit"
     xlink:href="textedit:///Users/philippeperret/Programmes/ScoreSuite/ScoreImage/tests/checksums_tests/staff_groups/main_group_crochet_unlinked/main/score-untrimed.ly:23:56:57"
     id="a314"
     transform="translate(-17.242888,-12.3811)">
    <g
       transform="translate(47.7146,18.1601)"
       id="g312">
      <path
         transform="scale(0.004,-0.004)"
         d="m 218,136 c 66,0 108,-36 108,-89 0,-89 -113,-183 -218,-183 -66,0 -108,36 -108,89 0,89 113,183 218,183 z"
         fill="currentColor"
         id="path310" />
    </g>
  </a>
  <a
     style="color:inherit"
     xlink:href="textedit:///Users/philippeperret/Programmes/ScoreSuite/ScoreImage/tests/checksums_tests/staff_groups/main_group_crochet_unlinked/main/score-untrimed.ly:30:56:57"
     id="a320"
     transform="translate(-17.242888,-12.3811)">
    <g
       transform="translate(47.7146,24.1601)"
       id="g318">
      <path
         transform="scale(0.004,-0.004)"
         d="m 218,136 c 66,0 108,-36 108,-89 0,-89 -113,-183 -218,-183 -66,0 -108,36 -108,89 0,89 113,183 218,183 z"
         fill="currentColor"
         id="path316" />
    </g>
  </a>
  <a
     style="color:inherit"
     xlink:href="textedit:///Users/philippeperret/Programmes/ScoreSuite/ScoreImage/tests/checksums_tests/staff_groups/main_group_crochet_unlinked/main/score-untrimed.ly:37:58:59"
     id="a326"
     transform="translate(-17.242888,-12.3811)">
    <g
       transform="translate(47.7146,33.6601)"
       id="g324">
      <path
         transform="scale(0.004,-0.004)"
         d="m 218,136 c 66,0 108,-36 108,-89 0,-89 -113,-183 -218,-183 -66,0 -108,36 -108,89 0,89 113,183 218,183 z"
         fill="currentColor"
         id="path322" />
    </g>
  </a>
  <g
     transform="translate(31.710912,3.779)"
     id="g330">
    <rect
       x="-0.064999998"
       y="-1.5"
       width="0.13"
       height="3.3139"
       ry="0.039999999"
       fill="currentColor"
       id="rect328" />
  </g>
  <g
     transform="translate(30.536712,12.779)"
     id="g334">
    <rect
       x="-0.064999998"
       y="-0.81389999"
       width="0.13"
       height="3.3139"
       ry="0.039999999"
       fill="currentColor"
       id="rect332" />
  </g>
  <g
     transform="translate(30.536712,21.779)"
     id="g338">
    <rect
       x="-0.064999998"
       y="-0.31389999"
       width="0.13"
       height="3.3139"
       ry="0.039999999"
       fill="currentColor"
       id="rect336" />
  </g>
  <a
     style="color:inherit"
     xlink:href="textedit:///Users/philippeperret/Programmes/ScoreSuite/ScoreImage/tests/checksums_tests/staff_groups/main_group_crochet_unlinked/main/score-untrimed.ly:23:58:59"
     id="a344"
     transform="translate(-17.242888,-12.3811)">
    <g
       transform="translate(50.7168,17.6601)"
       id="g342">
      <path
         transform="scale(0.004,-0.004)"
         d="m 218,136 c 66,0 108,-36 108,-89 0,-89 -113,-183 -218,-183 -66,0 -108,36 -108,89 0,89 113,183 218,183 z"
         fill="currentColor"
         id="path340" />
    </g>
  </a>
  <a
     style="color:inherit"
     xlink:href="textedit:///Users/philippeperret/Programmes/ScoreSuite/ScoreImage/tests/checksums_tests/staff_groups/main_group_crochet_unlinked/main/score-untrimed.ly:30:58:59"
     id="a350"
     transform="translate(-17.242888,-12.3811)">
    <g
       transform="translate(50.7168,23.6601)"
       id="g348">
      <path
         transform="scale(0.004,-0.004)"
         d="m 218,136 c 66,0 108,-36 108,-89 0,-89 -113,-183 -218,-183 -66,0 -108,36 -108,89 0,89 113,183 218,183 z"
         fill="currentColor"
         id="path346" />
    </g>
  </a>
  <a
     style="color:inherit"
     xlink:href="textedit:///Users/philippeperret/Programmes/ScoreSuite/ScoreImage/tests/checksums_tests/staff_groups/main_group_crochet_unlinked/main/score-untrimed.ly:37:60:61"
     id="a356"
     transform="translate(-17.242888,-12.3811)">
    <g
       transform="translate(50.7168,33.1601)"
       id="g354">
      <path
         transform="scale(0.004,-0.004)"
         d="m 218,136 c 66,0 108,-36 108,-89 0,-89 -113,-183 -218,-183 -66,0 -108,36 -108,89 0,89 113,183 218,183 z"
         fill="currentColor"
         id="path352" />
    </g>
  </a>
  <g
     transform="translate(34.713112,3.779)"
     id="g360">
    <rect
       x="-0.064999998"
       y="-2"
       width="0.13"
       height="3.3139"
       ry="0.039999999"
       fill="currentColor"
       id="rect358" />
  </g>
  <g
     transform="translate(33.538912,12.779)"
     id="g364">
    <rect
       x="-0.064999998"
       y="-1.3139"
       width="0.13"
       height="3.3139"
       ry="0.039999999"
       fill="currentColor"
       id="rect362" />
  </g>
  <g
     transform="translate(33.538912,21.779)"
     id="g368">
    <rect
       x="-0.064999998"
       y="-0.81389999"
       width="0.13"
       height="3.3139"
       ry="0.039999999"
       fill="currentColor"
       id="rect366" />
  </g>
  <g
     transform="translate(-0.0171875,13.5278)"
     id="g374">
    <text
       font-family="serif"
       font-size="2.2px"
       text-anchor="start"
       fill="currentColor"
       id="text372"><tspan
         id="tspan370">Alto</tspan></text>
  </g>
  <g
     transform="translate(1.1437125,4.5262)"
     id="g380">
    <text
       font-family="serif"
       font-size="2.2px"
       text-anchor="start"
       fill="currentColor"
       id="text378"><tspan
         id="tspan376">Vl.</tspan></text>
  </g>
</svg>
