<?xml version="1.0" encoding="UTF-8" standalone="no"?>
<svg
   version="1.2"
   width="62.119137mm"
   height="44.129822mm"
   viewBox="0 0 35.349211 25.112303"
   id="svg370"
   xmlns:xlink="http://www.w3.org/1999/xlink"
   xmlns="http://www.w3.org/2000/svg"
   xmlns:svg="http://www.w3.org/2000/svg">
  <defs
     id="defs374" />
  <style
     type="text/css"
     id="style2"><![CDATA[
tspan { white-space: pre; }
]]></style>
  <g
     transform="translate(4.2693125,6.779)"
     id="g6">
    <rect
       x="18.6157"
       y="-0.1"
       width="1.9563"
       height="0.2"
       ry="0.1"
       fill="currentColor"
       id="rect4" />
  </g>
  <g
     transform="translate(4.2693125,6.779)"
     id="g10">
    <rect
       x="5.4738998"
       y="-0.1"
       width="1.9563"
       height="0.2"
       ry="0.1"
       fill="currentColor"
       id="rect8" />
  </g>
  <g
     transform="translate(4.2693125,5.779)"
     id="g14">
    <line
       stroke-linejoin="round"
       stroke-linecap="round"
       stroke-width="0.1"
       stroke="currentColor"
       x1="0.050000001"
       y1="0"
       x2="31.0299"
       y2="0"
       id="line12" />
  </g>
  <g
     transform="translate(4.2693125,4.779)"
     id="g18">
    <line
       stroke-linejoin="round"
       stroke-linecap="round"
       stroke-width="0.1"
       stroke="currentColor"
       x1="0.050000001"
       y1="0"
       x2="31.0299"
       y2="0"
       id="line16" />
  </g>
  <g
     transform="translate(4.2693125,3.779)"
     id="g22">
    <line
       stroke-linejoin="round"
       stroke-linecap="round"
       stroke-width="0.1"
       stroke="currentColor"
       x1="0.050000001"
       y1="0"
       x2="31.0299"
       y2="0"
       id="line20" />
  </g>
  <g
     transform="translate(4.2693125,2.779)"
     id="g26">
    <line
       stroke-linejoin="round"
       stroke-linecap="round"
       stroke-width="0.1"
       stroke="currentColor"
       x1="0.050000001"
       y1="0"
       x2="31.0299"
       y2="0"
       id="line24" />
  </g>
  <g
     transform="translate(4.2693125,1.779)"
     id="g30">
    <line
       stroke-linejoin="round"
       stroke-linecap="round"
       stroke-width="0.1"
       stroke="currentColor"
       x1="0.050000001"
       y1="0"
       x2="31.0299"
       y2="0"
       id="line28" />
  </g>
  <g
     transform="translate(35.159212,21.779)"
     id="g34">
    <rect
       x="0"
       y="-2"
       width="0.19"
       height="4"
       ry="0.0000"
       fill="currentColor"
       id="rect32" />
  </g>
  <g
     transform="translate(35.159212,12.779)"
     id="g38">
    <rect
       x="0"
       y="-2"
       width="0.19"
       height="4"
       ry="0.0000"
       fill="currentColor"
       id="rect36" />
  </g>
  <g
     transform="translate(4.2693125,14.779)"
     id="g42">
    <line
       stroke-linejoin="round"
       stroke-linecap="round"
       stroke-width="0.1"
       stroke="currentColor"
       x1="0.050000001"
       y1="0"
       x2="31.0299"
       y2="0"
       id="line40" />
  </g>
  <g
     transform="translate(4.2693125,13.779)"
     id="g46">
    <line
       stroke-linejoin="round"
       stroke-linecap="round"
       stroke-width="0.1"
       stroke="currentColor"
       x1="0.050000001"
       y1="0"
       x2="31.0299"
       y2="0"
       id="line44" />
  </g>
  <g
     transform="translate(4.2693125,12.779)"
     id="g50">
    <line
       stroke-linejoin="round"
       stroke-linecap="round"
       stroke-width="0.1"
       stroke="currentColor"
       x1="0.050000001"
       y1="0"
       x2="31.0299"
       y2="0"
       id="line48" />
  </g>
  <g
     transform="translate(4.2693125,11.779)"
     id="g54">
    <line
       stroke-linejoin="round"
       stroke-linecap="round"
       stroke-width="0.1"
       stroke="currentColor"
       x1="0.050000001"
       y1="0"
       x2="31.0299"
       y2="0"
       id="line52" />
  </g>
  <g
     transform="translate(4.2693125,10.779)"
     id="g58">
    <line
       stroke-linejoin="round"
       stroke-linecap="round"
       stroke-width="0.1"
       stroke="currentColor"
       x1="0.050000001"
       y1="0"
       x2="31.0299"
       y2="0"
       id="line56" />
  </g>
  <g
     transform="translate(35.159212,3.779)"
     id="g62">
    <rect
       x="0"
       y="-2"
       width="0.19"
       height="4"
       ry="0.0000"
       fill="currentColor"
       id="rect60" />
  </g>
  <g
     transform="translate(22.017412,21.779)"
     id="g66">
    <rect
       x="0"
       y="-2"
       width="0.19"
       height="4"
       ry="0.0000"
       fill="currentColor"
       id="rect64" />
  </g>
  <g
     transform="translate(4.2693125,23.779)"
     id="g70">
    <line
       stroke-linejoin="round"
       stroke-linecap="round"
       stroke-width="0.1"
       stroke="currentColor"
       x1="0.050000001"
       y1="0"
       x2="31.0299"
       y2="0"
       id="line68" />
  </g>
  <g
     transform="translate(4.2693125,22.779)"
     id="g74">
    <line
       stroke-linejoin="round"
       stroke-linecap="round"
       stroke-width="0.1"
       stroke="currentColor"
       x1="0.050000001"
       y1="0"
       x2="31.0299"
       y2="0"
       id="line72" />
  </g>
  <g
     transform="translate(4.2693125,21.779)"
     id="g78">
    <line
       stroke-linejoin="round"
       stroke-linecap="round"
       stroke-width="0.1"
       stroke="currentColor"
       x1="0.050000001"
       y1="0"
       x2="31.0299"
       y2="0"
       id="line76" />
  </g>
  <g
     transform="translate(4.2693125,20.779)"
     id="g82">
    <line
       stroke-linejoin="round"
       stroke-linecap="round"
       stroke-width="0.1"
       stroke="currentColor"
       x1="0.050000001"
       y1="0"
       x2="31.0299"
       y2="0"
       id="line80" />
  </g>
  <g
     transform="translate(4.2693125,19.779)"
     id="g86">
    <line
       stroke-linejoin="round"
       stroke-linecap="round"
       stroke-width="0.1"
       stroke="currentColor"
       x1="0.050000001"
       y1="0"
       x2="31.0299"
       y2="0"
       id="line84" />
  </g>
  <g
     transform="translate(22.017412,12.779)"
     id="g90">
    <rect
       x="0"
       y="-2"
       width="0.19"
       height="4"
       ry="0.0000"
       fill="currentColor"
       id="rect88" />
  </g>
  <g
     transform="translate(22.017412,3.779)"
     id="g94">
    <rect
       x="0"
       y="-2"
       width="0.19"
       height="4"
       ry="0.0000"
       fill="currentColor"
       id="rect92" />
  </g>
  <g
     transform="translate(4.2093125,12.779)"
     id="g98">
    <rect
       x="0"
       y="-11.05"
       width="0.16"
       height="22.1"
       ry="0.050000001"
       fill="currentColor"
       id="rect96" />
  </g>
  <a
     style="color:inherit"
     xlink:href="textedit:///Users/philippeperret/Programmes/ScoreSuite/ScoreImage/tests/checksums_tests/staff_groups/main_group/main/score-untrimed.ly:22:23:24"
     id="a104"
     transform="translate(-18.492888,-12.3811)">
    <g
       transform="translate(28.5622,19.1601)"
       id="g102">
      <path
         transform="scale(0.004,-0.004)"
         d="m 218,136 c 66,0 108,-36 108,-89 0,-89 -113,-183 -218,-183 -66,0 -108,36 -108,89 0,89 113,183 218,183 z"
         fill="currentColor"
         id="path100" />
    </g>
  </a>
  <g
     transform="translate(5.0693125,4.779)"
     id="g108">
    <path
       transform="scale(0.004,-0.004)"
       d="m 266,-635 h -6 c -108,0 -195,88 -195,197 0,58 53,103 112,103 54,0 95,-47 95,-103 0,-52 -43,-95 -95,-95 -11,0 -21,2 -31,6 26,-39 68,-65 117,-65 h 4 z m 195,432 c 68,24 113,90 113,164 0,90 -66,179 -173,190 19,-89 48,-242 60,-354 z M 74,28 c 0,-145 141,-247 264,-247 1,0 47,0 82,6 -7,64 -29,203 -63,364 -79,-8 -124,-61 -124,-119 0,-44 25,-91 81,-123 5,-5 7,-10 7,-15 0,-11 -10,-22 -22,-22 -15,0 -126,62 -126,187 0,88 58,174 160,197 -14,58 -29,117 -46,175 C 180,310 74,188 74,28 Z m 176,525 c -29,96 -52,170 -52,346 0,115 55,224 149,292 6,5 14,5 20,0 68,-80 133,-245 133,-358 0,-143 -86,-255 -180,-364 21,-68 39,-138 56,-207 2,0 7,1 13,1 155,0 256,-128 256,-261 0,-113 -74,-212 -180,-246 3,-35 5,-70 5,-105 0,-19 -1,-39 -2,-58 -7,-119 -88,-225 -202,-228 l 1,43 c 93,2 153,92 159,191 1,18 2,37 2,55 0,31 -1,61 -4,92 -5,-1 -44,-8 -89,-8 C 142,-262 2,-82 2,112 2,289 133,418 250,553 Z m 178,363 c 0,34 1,66 -20,129 -99,-48 -162,-149 -162,-259 0,-52 12,-115 36,-194 80,97 146,198 146,324 z"
       fill="currentColor"
       id="path106" />
  </g>
  <a
     style="color:inherit"
     xlink:href="textedit:///Users/philippeperret/Programmes/ScoreSuite/ScoreImage/tests/checksums_tests/staff_groups/main_group/main/score-untrimed.ly:29:23:24"
     id="a114"
     transform="translate(-18.492888,-12.3811)">
    <g
       transform="translate(28.5622,25.1601)"
       id="g112">
      <path
         transform="scale(0.004,-0.004)"
         d="m 218,136 c 66,0 108,-36 108,-89 0,-89 -113,-183 -218,-183 -66,0 -108,36 -108,89 0,89 113,183 218,183 z"
         fill="currentColor"
         id="path110" />
    </g>
  </a>
  <g
     transform="translate(5.0693125,12.779)"
     id="g118">
    <path
       transform="scale(0.004,-0.004)"
       d="m 318,0 c 0,-44 12,-73 45,-73 29,0 57,31 88,31 123,0 229,-89 229,-208 0,-169 -93,-250 -265,-250 -83,0 -152,61 -152,142 0,42 34,77 76,77 42,0 76,-35 76,-77 0,-39 -49,-37 -49,-76 0,-23 24,-38 49,-38 116,0 140,90 140,222 0,106 -12,180 -104,180 -72,0 -119,-71 -119,-149 0,-9 -7,-14 -14,-14 -7,0 -13,5 -13,14 0,76 -31,147 -84,200 v -471 c 0,-6 -4,-10 -10,-10 h -21 c -6,0 -10,4 -10,10 v 980 c 0,6 4,10 10,10 h 21 c 6,0 10,-4 10,-10 V 19 c 53,53 84,124 84,200 0,9 6,14 13,14 7,0 14,-5 14,-14 0,-78 47,-149 119,-149 92,0 104,74 104,180 0,132 -24,222 -140,222 -25,0 -49,-15 -49,-38 0,-39 49,-37 49,-76 0,-42 -34,-77 -76,-77 -42,0 -76,35 -76,77 0,81 69,142 152,142 172,0 265,-81 265,-250 C 680,131 574,42 451,42 420,42 392,73 363,73 330,73 318,44 318,0 Z M 129,-500 H 10 c -6,0 -10,4 -10,10 v 980 c 0,6 4,10 10,10 h 119 c 6,0 10,-4 10,-10 v -980 c 0,-6 -4,-10 -10,-10 z"
       fill="currentColor"
       id="path116" />
  </g>
  <a
     style="color:inherit"
     xlink:href="textedit:///Users/philippeperret/Programmes/ScoreSuite/ScoreImage/tests/checksums_tests/staff_groups/main_group/main/score-untrimed.ly:36:23:24"
     id="a124"
     transform="translate(-18.492888,-12.3811)">
    <g
       transform="translate(28.5622,34.6601)"
       id="g122">
      <path
         transform="scale(0.004,-0.004)"
         d="m 218,136 c 66,0 108,-36 108,-89 0,-89 -113,-183 -218,-183 -66,0 -108,36 -108,89 0,89 113,183 218,183 z"
         fill="currentColor"
         id="path120" />
    </g>
  </a>
  <g
     transform="translate(5.0693125,20.779)"
     id="g128">
    <path
       transform="scale(0.004,-0.004)"
       d="m 557,-125 c 0,28 23,51 51,51 28,0 51,-23 51,-51 0,-28 -23,-51 -51,-51 -28,0 -51,23 -51,51 z m 0,250 c 0,28 23,51 51,51 28,0 51,-23 51,-51 0,-28 -23,-51 -51,-51 -28,0 -51,23 -51,51 z M 232,263 c 172,0 293,-88 293,-251 0,-263 -263,-414 -516,-521 -3,-3 -6,-4 -9,-4 -7,0 -13,6 -13,13 0,3 1,6 4,9 202,118 412,265 412,493 0,120 -63,235 -171,235 -74,0 -129,-54 -154,-126 11,5 22,8 34,8 C 167,119 212,74 212,19 212,-39 168,-87 112,-87 52,-87 0,-40 0,19 0,152 102,263 232,263 Z"
       fill="currentColor"
       id="path126" />
  </g>
  <g
     transform="translate(11.308512,3.779)"
     id="g132">
    <rect
       x="-0.064999998"
       y="-0.5"
       width="0.13"
       height="3.3139"
       ry="0.039999999"
       fill="currentColor"
       id="rect130" />
  </g>
  <g
     transform="translate(10.134312,12.779)"
     id="g136">
    <rect
       x="-0.064999998"
       y="0.18610001"
       width="0.13"
       height="3.1472001"
       ry="0.039999999"
       fill="currentColor"
       id="rect134" />
  </g>
  <g
     transform="translate(11.308512,21.779)"
     id="g140">
    <rect
       x="-0.064999998"
       y="-3"
       width="0.13"
       height="3.3139"
       ry="0.039999999"
       fill="currentColor"
       id="rect138" />
  </g>
  <a
     style="color:inherit"
     xlink:href="textedit:///Users/philippeperret/Programmes/ScoreSuite/ScoreImage/tests/checksums_tests/staff_groups/main_group/main/score-untrimed.ly:22:26:27"
     id="a146"
     transform="translate(-18.492888,-12.3811)">
    <g
       transform="translate(31.5705,18.6601)"
       id="g144">
      <path
         transform="scale(0.004,-0.004)"
         d="m 218,136 c 66,0 108,-36 108,-89 0,-89 -113,-183 -218,-183 -66,0 -108,36 -108,89 0,89 113,183 218,183 z"
         fill="currentColor"
         id="path142" />
    </g>
  </a>
  <a
     style="color:inherit"
     xlink:href="textedit:///Users/philippeperret/Programmes/ScoreSuite/ScoreImage/tests/checksums_tests/staff_groups/main_group/main/score-untrimed.ly:29:26:27"
     id="a152"
     transform="translate(-18.492888,-12.3811)">
    <g
       transform="translate(31.5705,24.6601)"
       id="g150">
      <path
         transform="scale(0.004,-0.004)"
         d="m 218,136 c 66,0 108,-36 108,-89 0,-89 -113,-183 -218,-183 -66,0 -108,36 -108,89 0,89 113,183 218,183 z"
         fill="currentColor"
         id="path148" />
    </g>
  </a>
  <a
     style="color:inherit"
     xlink:href="textedit:///Users/philippeperret/Programmes/ScoreSuite/ScoreImage/tests/checksums_tests/staff_groups/main_group/main/score-untrimed.ly:36:27:28"
     id="a158"
     transform="translate(-18.492888,-12.3811)">
    <g
       transform="translate(31.5705,34.1601)"
       id="g156">
      <path
         transform="scale(0.004,-0.004)"
         d="m 218,136 c 66,0 108,-36 108,-89 0,-89 -113,-183 -218,-183 -66,0 -108,36 -108,89 0,89 113,183 218,183 z"
         fill="currentColor"
         id="path154" />
    </g>
  </a>
  <g
     transform="translate(14.316912,3.779)"
     id="g162">
    <rect
       x="-0.064999998"
       y="-1"
       width="0.13"
       height="3.3139"
       ry="0.039999999"
       fill="currentColor"
       id="rect160" />
  </g>
  <g
     transform="translate(13.142612,12.779)"
     id="g166">
    <rect
       x="-0.064999998"
       y="-0.31389999"
       width="0.13"
       height="3.3139"
       ry="0.039999999"
       fill="currentColor"
       id="rect164" />
  </g>
  <g
     transform="translate(13.142612,21.779)"
     id="g170">
    <rect
       x="-0.064999998"
       y="0.18610001"
       width="0.13"
       height="3.1472001"
       ry="0.039999999"
       fill="currentColor"
       id="rect168" />
  </g>
  <a
     style="color:inherit"
     xlink:href="textedit:///Users/philippeperret/Programmes/ScoreSuite/ScoreImage/tests/checksums_tests/staff_groups/main_group/main/score-untrimed.ly:22:28:29"
     id="a176"
     transform="translate(-18.492888,-12.3811)">
    <g
       transform="translate(34.5728,18.1601)"
       id="g174">
      <path
         transform="scale(0.004,-0.004)"
         d="m 218,136 c 66,0 108,-36 108,-89 0,-89 -113,-183 -218,-183 -66,0 -108,36 -108,89 0,89 113,183 218,183 z"
         fill="currentColor"
         id="path172" />
    </g>
  </a>
  <a
     style="color:inherit"
     xlink:href="textedit:///Users/philippeperret/Programmes/ScoreSuite/ScoreImage/tests/checksums_tests/staff_groups/main_group/main/score-untrimed.ly:29:28:29"
     id="a182"
     transform="translate(-18.492888,-12.3811)">
    <g
       transform="translate(34.5728,24.1601)"
       id="g180">
      <path
         transform="scale(0.004,-0.004)"
         d="m 218,136 c 66,0 108,-36 108,-89 0,-89 -113,-183 -218,-183 -66,0 -108,36 -108,89 0,89 113,183 218,183 z"
         fill="currentColor"
         id="path178" />
    </g>
  </a>
  <a
     style="color:inherit"
     xlink:href="textedit:///Users/philippeperret/Programmes/ScoreSuite/ScoreImage/tests/checksums_tests/staff_groups/main_group/main/score-untrimed.ly:36:29:30"
     id="a188"
     transform="translate(-18.492888,-12.3811)">
    <g
       transform="translate(34.5728,33.6601)"
       id="g186">
      <path
         transform="scale(0.004,-0.004)"
         d="m 218,136 c 66,0 108,-36 108,-89 0,-89 -113,-183 -218,-183 -66,0 -108,36 -108,89 0,89 113,183 218,183 z"
         fill="currentColor"
         id="path184" />
    </g>
  </a>
  <g
     transform="translate(17.319112,3.779)"
     id="g192">
    <rect
       x="-0.064999998"
       y="-1.5"
       width="0.13"
       height="3.3139"
       ry="0.039999999"
       fill="currentColor"
       id="rect190" />
  </g>
  <g
     transform="translate(16.144912,12.779)"
     id="g196">
    <rect
       x="-0.064999998"
       y="-0.81389999"
       width="0.13"
       height="3.3139"
       ry="0.039999999"
       fill="currentColor"
       id="rect194" />
  </g>
  <g
     transform="translate(16.144912,21.779)"
     id="g200">
    <rect
       x="-0.064999998"
       y="-0.31389999"
       width="0.13"
       height="3.3139"
       ry="0.039999999"
       fill="currentColor"
       id="rect198" />
  </g>
  <a
     style="color:inherit"
     xlink:href="textedit:///Users/philippeperret/Programmes/ScoreSuite/ScoreImage/tests/checksums_tests/staff_groups/main_group/main/score-untrimed.ly:22:30:31"
     id="a206"
     transform="translate(-18.492888,-12.3811)">
    <g
       transform="translate(37.5751,17.6601)"
       id="g204">
      <path
         transform="scale(0.004,-0.004)"
         d="m 218,136 c 66,0 108,-36 108,-89 0,-89 -113,-183 -218,-183 -66,0 -108,36 -108,89 0,89 113,183 218,183 z"
         fill="currentColor"
         id="path202" />
    </g>
  </a>
  <a
     style="color:inherit"
     xlink:href="textedit:///Users/philippeperret/Programmes/ScoreSuite/ScoreImage/tests/checksums_tests/staff_groups/main_group/main/score-untrimed.ly:29:30:31"
     id="a212"
     transform="translate(-18.492888,-12.3811)">
    <g
       transform="translate(37.5751,23.6601)"
       id="g210">
      <path
         transform="scale(0.004,-0.004)"
         d="m 218,136 c 66,0 108,-36 108,-89 0,-89 -113,-183 -218,-183 -66,0 -108,36 -108,89 0,89 113,183 218,183 z"
         fill="currentColor"
         id="path208" />
    </g>
  </a>
  <a
     style="color:inherit"
     xlink:href="textedit:///Users/philippeperret/Programmes/ScoreSuite/ScoreImage/tests/checksums_tests/staff_groups/main_group/main/score-untrimed.ly:36:31:32"
     id="a218"
     transform="translate(-18.492888,-12.3811)">
    <g
       transform="translate(37.5751,33.1601)"
       id="g216">
      <path
         transform="scale(0.004,-0.004)"
         d="m 218,136 c 66,0 108,-36 108,-89 0,-89 -113,-183 -218,-183 -66,0 -108,36 -108,89 0,89 113,183 218,183 z"
         fill="currentColor"
         id="path214" />
    </g>
  </a>
  <g
     transform="translate(20.321412,3.779)"
     id="g222">
    <rect
       x="-0.064999998"
       y="-2"
       width="0.13"
       height="3.3139"
       ry="0.039999999"
       fill="currentColor"
       id="rect220" />
  </g>
  <g
     transform="translate(19.147212,12.779)"
     id="g226">
    <rect
       x="-0.064999998"
       y="-1.3139"
       width="0.13"
       height="3.3139"
       ry="0.039999999"
       fill="currentColor"
       id="rect224" />
  </g>
  <g
     transform="translate(19.147212,21.779)"
     id="g230">
    <rect
       x="-0.064999998"
       y="-0.81389999"
       width="0.13"
       height="3.3139"
       ry="0.039999999"
       fill="currentColor"
       id="rect228" />
  </g>
  <a
     style="color:inherit"
     xlink:href="textedit:///Users/philippeperret/Programmes/ScoreSuite/ScoreImage/tests/checksums_tests/staff_groups/main_group/main/score-untrimed.ly:22:49:50"
     id="a236"
     transform="translate(-18.492888,-12.3811)">
    <g
       transform="translate(41.704,19.1601)"
       id="g234">
      <path
         transform="scale(0.004,-0.004)"
         d="m 218,136 c 66,0 108,-36 108,-89 0,-89 -113,-183 -218,-183 -66,0 -108,36 -108,89 0,89 113,183 218,183 z"
         fill="currentColor"
         id="path232" />
    </g>
  </a>
  <a
     style="color:inherit"
     xlink:href="textedit:///Users/philippeperret/Programmes/ScoreSuite/ScoreImage/tests/checksums_tests/staff_groups/main_group/main/score-untrimed.ly:29:49:50"
     id="a242"
     transform="translate(-18.492888,-12.3811)">
    <g
       transform="translate(41.704,25.1601)"
       id="g240">
      <path
         transform="scale(0.004,-0.004)"
         d="m 218,136 c 66,0 108,-36 108,-89 0,-89 -113,-183 -218,-183 -66,0 -108,36 -108,89 0,89 113,183 218,183 z"
         fill="currentColor"
         id="path238" />
    </g>
  </a>
  <g
     transform="translate(0.8023125,22.5262)"
     id="g248">
    <text
       font-family="serif"
       font-size="2.2px"
       text-anchor="start"
       fill="currentColor"
       id="text246"><tspan
         id="tspan244">Cb.</tspan></text>
  </g>
  <a
     style="color:inherit"
     xlink:href="textedit:///Users/philippeperret/Programmes/ScoreSuite/ScoreImage/tests/checksums_tests/staff_groups/main_group/main/score-untrimed.ly:36:50:51"
     id="a254"
     transform="translate(-18.492888,-12.3811)">
    <g
       transform="translate(41.704,34.6601)"
       id="g252">
      <path
         transform="scale(0.004,-0.004)"
         d="m 218,136 c 66,0 108,-36 108,-89 0,-89 -113,-183 -218,-183 -66,0 -108,36 -108,89 0,89 113,183 218,183 z"
         fill="currentColor"
         id="path250" />
    </g>
  </a>
  <g
     transform="translate(24.450312,3.779)"
     id="g258">
    <rect
       x="-0.064999998"
       y="-0.5"
       width="0.13"
       height="3.3139"
       ry="0.039999999"
       fill="currentColor"
       id="rect256" />
  </g>
  <g
     transform="translate(23.276112,12.779)"
     id="g262">
    <rect
       x="-0.064999998"
       y="0.18610001"
       width="0.13"
       height="3.1472001"
       ry="0.039999999"
       fill="currentColor"
       id="rect260" />
  </g>
  <g
     transform="translate(24.450312,21.779)"
     id="g266">
    <rect
       x="-0.064999998"
       y="-3"
       width="0.13"
       height="3.3139"
       ry="0.039999999"
       fill="currentColor"
       id="rect264" />
  </g>
  <a
     style="color:inherit"
     xlink:href="textedit:///Users/philippeperret/Programmes/ScoreSuite/ScoreImage/tests/checksums_tests/staff_groups/main_group/main/score-untrimed.ly:22:52:53"
     id="a272"
     transform="translate(-18.492888,-12.3811)">
    <g
       transform="translate(44.7123,18.6601)"
       id="g270">
      <path
         transform="scale(0.004,-0.004)"
         d="m 218,136 c 66,0 108,-36 108,-89 0,-89 -113,-183 -218,-183 -66,0 -108,36 -108,89 0,89 113,183 218,183 z"
         fill="currentColor"
         id="path268" />
    </g>
  </a>
  <a
     style="color:inherit"
     xlink:href="textedit:///Users/philippeperret/Programmes/ScoreSuite/ScoreImage/tests/checksums_tests/staff_groups/main_group/main/score-untrimed.ly:29:52:53"
     id="a278"
     transform="translate(-18.492888,-12.3811)">
    <g
       transform="translate(44.7123,24.6601)"
       id="g276">
      <path
         transform="scale(0.004,-0.004)"
         d="m 218,136 c 66,0 108,-36 108,-89 0,-89 -113,-183 -218,-183 -66,0 -108,36 -108,89 0,89 113,183 218,183 z"
         fill="currentColor"
         id="path274" />
    </g>
  </a>
  <a
     style="color:inherit"
     xlink:href="textedit:///Users/philippeperret/Programmes/ScoreSuite/ScoreImage/tests/checksums_tests/staff_groups/main_group/main/score-untrimed.ly:36:54:55"
     id="a284"
     transform="translate(-18.492888,-12.3811)">
    <g
       transform="translate(44.7123,34.1601)"
       id="g282">
      <path
         transform="scale(0.004,-0.004)"
         d="m 218,136 c 66,0 108,-36 108,-89 0,-89 -113,-183 -218,-183 -66,0 -108,36 -108,89 0,89 113,183 218,183 z"
         fill="currentColor"
         id="path280" />
    </g>
  </a>
  <g
     transform="translate(27.458612,3.779)"
     id="g288">
    <rect
       x="-0.064999998"
       y="-1"
       width="0.13"
       height="3.3139"
       ry="0.039999999"
       fill="currentColor"
       id="rect286" />
  </g>
  <g
     transform="translate(26.284412,12.779)"
     id="g292">
    <rect
       x="-0.064999998"
       y="-0.31389999"
       width="0.13"
       height="3.3139"
       ry="0.039999999"
       fill="currentColor"
       id="rect290" />
  </g>
  <g
     transform="translate(26.284412,21.779)"
     id="g296">
    <rect
       x="-0.064999998"
       y="0.18610001"
       width="0.13"
       height="3.1472001"
       ry="0.039999999"
       fill="currentColor"
       id="rect294" />
  </g>
  <a
     style="color:inherit"
     xlink:href="textedit:///Users/philippeperret/Programmes/ScoreSuite/ScoreImage/tests/checksums_tests/staff_groups/main_group/main/score-untrimed.ly:22:54:55"
     id="a302"
     transform="translate(-18.492888,-12.3811)">
    <g
       transform="translate(47.7146,18.1601)"
       id="g300">
      <path
         transform="scale(0.004,-0.004)"
         d="m 218,136 c 66,0 108,-36 108,-89 0,-89 -113,-183 -218,-183 -66,0 -108,36 -108,89 0,89 113,183 218,183 z"
         fill="currentColor"
         id="path298" />
    </g>
  </a>
  <a
     style="color:inherit"
     xlink:href="textedit:///Users/philippeperret/Programmes/ScoreSuite/ScoreImage/tests/checksums_tests/staff_groups/main_group/main/score-untrimed.ly:29:54:55"
     id="a308"
     transform="translate(-18.492888,-12.3811)">
    <g
       transform="translate(47.7146,24.1601)"
       id="g306">
      <path
         transform="scale(0.004,-0.004)"
         d="m 218,136 c 66,0 108,-36 108,-89 0,-89 -113,-183 -218,-183 -66,0 -108,36 -108,89 0,89 113,183 218,183 z"
         fill="currentColor"
         id="path304" />
    </g>
  </a>
  <a
     style="color:inherit"
     xlink:href="textedit:///Users/philippeperret/Programmes/ScoreSuite/ScoreImage/tests/checksums_tests/staff_groups/main_group/main/score-untrimed.ly:36:56:57"
     id="a314"
     transform="translate(-18.492888,-12.3811)">
    <g
       transform="translate(47.7146,33.6601)"
       id="g312">
      <path
         transform="scale(0.004,-0.004)"
         d="m 218,136 c 66,0 108,-36 108,-89 0,-89 -113,-183 -218,-183 -66,0 -108,36 -108,89 0,89 113,183 218,183 z"
         fill="currentColor"
         id="path310" />
    </g>
  </a>
  <g
     transform="translate(30.460912,3.779)"
     id="g318">
    <rect
       x="-0.064999998"
       y="-1.5"
       width="0.13"
       height="3.3139"
       ry="0.039999999"
       fill="currentColor"
       id="rect316" />
  </g>
  <g
     transform="translate(29.286712,12.779)"
     id="g322">
    <rect
       x="-0.064999998"
       y="-0.81389999"
       width="0.13"
       height="3.3139"
       ry="0.039999999"
       fill="currentColor"
       id="rect320" />
  </g>
  <g
     transform="translate(29.286712,21.779)"
     id="g326">
    <rect
       x="-0.064999998"
       y="-0.31389999"
       width="0.13"
       height="3.3139"
       ry="0.039999999"
       fill="currentColor"
       id="rect324" />
  </g>
  <a
     style="color:inherit"
     xlink:href="textedit:///Users/philippeperret/Programmes/ScoreSuite/ScoreImage/tests/checksums_tests/staff_groups/main_group/main/score-untrimed.ly:22:56:57"
     id="a332"
     transform="translate(-18.492888,-12.3811)">
    <g
       transform="translate(50.7168,17.6601)"
       id="g330">
      <path
         transform="scale(0.004,-0.004)"
         d="m 218,136 c 66,0 108,-36 108,-89 0,-89 -113,-183 -218,-183 -66,0 -108,36 -108,89 0,89 113,183 218,183 z"
         fill="currentColor"
         id="path328" />
    </g>
  </a>
  <a
     style="color:inherit"
     xlink:href="textedit:///Users/philippeperret/Programmes/ScoreSuite/ScoreImage/tests/checksums_tests/staff_groups/main_group/main/score-untrimed.ly:29:56:57"
     id="a338"
     transform="translate(-18.492888,-12.3811)">
    <g
       transform="translate(50.7168,23.6601)"
       id="g336">
      <path
         transform="scale(0.004,-0.004)"
         d="m 218,136 c 66,0 108,-36 108,-89 0,-89 -113,-183 -218,-183 -66,0 -108,36 -108,89 0,89 113,183 218,183 z"
         fill="currentColor"
         id="path334" />
    </g>
  </a>
  <a
     style="color:inherit"
     xlink:href="textedit:///Users/philippeperret/Programmes/ScoreSuite/ScoreImage/tests/checksums_tests/staff_groups/main_group/main/score-untrimed.ly:36:58:59"
     id="a344"
     transform="translate(-18.492888,-12.3811)">
    <g
       transform="translate(50.7168,33.1601)"
       id="g342">
      <path
         transform="scale(0.004,-0.004)"
         d="m 218,136 c 66,0 108,-36 108,-89 0,-89 -113,-183 -218,-183 -66,0 -108,36 -108,89 0,89 113,183 218,183 z"
         fill="currentColor"
         id="path340" />
    </g>
  </a>
  <g
     transform="translate(33.463112,3.779)"
     id="g348">
    <rect
       x="-0.064999998"
       y="-2"
       width="0.13"
       height="3.3139"
       ry="0.039999999"
       fill="currentColor"
       id="rect346" />
  </g>
  <g
     transform="translate(32.288912,12.779)"
     id="g352">
    <rect
       x="-0.064999998"
       y="-1.3139"
       width="0.13"
       height="3.3139"
       ry="0.039999999"
       fill="currentColor"
       id="rect350" />
  </g>
  <g
     transform="translate(32.288912,21.779)"
     id="g356">
    <rect
       x="-0.064999998"
       y="-0.81389999"
       width="0.13"
       height="3.3139"
       ry="0.039999999"
       fill="currentColor"
       id="rect354" />
  </g>
  <g
     transform="translate(-0.0171875,13.5278)"
     id="g362">
    <text
       font-family="serif"
       font-size="2.2px"
       text-anchor="start"
       fill="currentColor"
       id="text360"><tspan
         id="tspan358">Alto</tspan></text>
  </g>
  <g
     transform="translate(1.1437125,4.5262)"
     id="g368">
    <text
       font-family="serif"
       font-size="2.2px"
       text-anchor="start"
       fill="currentColor"
       id="text366"><tspan
         id="tspan364">Vl.</tspan></text>
  </g>
</svg>
