<?xml version="1.0" encoding="UTF-8" standalone="no"?>
<svg
   version="1.2"
   width="15.468274mm"
   height="17.039825mm"
   viewBox="0 0 8.8023001 9.6966008"
   id="svg44"
   xmlns="http://www.w3.org/2000/svg"
   xmlns:svg="http://www.w3.org/2000/svg">
  <defs
     id="defs48" />
  <style
     type="text/css"
     id="style2"><![CDATA[
tspan { white-space: pre; }
]]></style>
  <g
     transform="translate(0,8.1566)"
     id="g6">
    <line
       stroke-linejoin="round"
       stroke-linecap="round"
       stroke-width="0.1"
       stroke="currentColor"
       x1="0.050000001"
       y1="0"
       x2="8.7523003"
       y2="0"
       id="line4" />
  </g>
  <g
     transform="translate(0,7.1566)"
     id="g10">
    <line
       stroke-linejoin="round"
       stroke-linecap="round"
       stroke-width="0.1"
       stroke="currentColor"
       x1="0.050000001"
       y1="0"
       x2="8.7523003"
       y2="0"
       id="line8" />
  </g>
  <g
     transform="translate(0,6.1566)"
     id="g14">
    <line
       stroke-linejoin="round"
       stroke-linecap="round"
       stroke-width="0.1"
       stroke="currentColor"
       x1="0.050000001"
       y1="0"
       x2="8.7523003"
       y2="0"
       id="line12" />
  </g>
  <g
     transform="translate(0,5.1566)"
     id="g18">
    <line
       stroke-linejoin="round"
       stroke-linecap="round"
       stroke-width="0.1"
       stroke="currentColor"
       x1="0.050000001"
       y1="0"
       x2="8.7523003"
       y2="0"
       id="line16" />
  </g>
  <g
     transform="translate(0,4.1566)"
     id="g22">
    <line
       stroke-linejoin="round"
       stroke-linecap="round"
       stroke-width="0.1"
       stroke="currentColor"
       x1="0.050000001"
       y1="0"
       x2="8.7523003"
       y2="0"
       id="line20" />
  </g>
  <g
     transform="translate(5.8,5.6566)"
     id="g26">
    <path
       transform="scale(0.004,-0.004)"
       d="m 218,136 c 66,0 108,-36 108,-89 0,-89 -113,-183 -218,-183 -66,0 -108,36 -108,89 0,89 113,183 218,183 z"
       fill="currentColor"
       id="path24" />
  </g>
  <g
     transform="translate(6.3,1.05)"
     id="g30">
    <path
       transform="scale(0.0028,-0.0028)"
       d="m 0,114 c 0,12 7,22 18,26 l 37,15 v 151 c 0,12 10,22 22,22 12,0 22,-10 22,-22 V 172 l 77,29 v 152 c 0,12 10,22 22,22 12,0 22,-10 22,-22 V 219 l 16,6 c 3,1 8,2 11,2 15,0 28,-12 28,-28 v -50 c 0,-12 -7,-23 -18,-27 L 220,108 V -44 l 16,7 c 3,1 8,2 11,2 15,0 28,-13 28,-29 v -50 c 0,-12 -7,-22 -18,-26 l -37,-15 v -151 c 0,-12 -10,-22 -22,-22 -12,0 -22,10 -22,22 v 134 l -77,-29 v -152 c 0,-12 -10,-22 -22,-22 -12,0 -22,10 -22,22 v 134 l -16,-6 c -3,-1 -8,-2 -11,-2 -15,0 -28,12 -28,28 v 50 c 0,12 7,23 18,27 l 37,14 V 44 L 39,37 C 36,36 31,35 28,35 13,35 0,48 0,64 Z M 176,91 99,61 V -91 l 77,30 z"
       fill="currentColor"
       id="path28" />
  </g>
  <g
     transform="translate(6.4521,3.2386)"
     id="g34">
    <path
       transform="scale(0.004,-0.004)"
       d="m 20,-147 c 0,-11 -9,-20 -20,-20 -11,0 -20,9 -20,20 v 81 l -33,-50 c -4,-6 -10,-9 -17,-9 -6,0 -11,2 -15,7 L -184,1 c -37,-56 -36,-56 -47,-56 -11,0 -20,9 -20,20 0,6 0,6 96,151 4,6 10,9 17,9 6,0 11,-2 15,-7 l 98,-119 5,7 v 141 c 0,11 9,20 20,20 11,0 20,-9 20,-20 V 66 l 33,50 c 4,6 10,9 17,9 6,0 11,-2 15,-7 l 99,-119 8,12 33,-22 -70,-105 c -4,-6 -10,-9 -17,-9 -6,0 -11,2 -15,7 L 25,1 20,-6 Z M 215,46 c 4,6 9,9 16,9 11,0 20,-9 20,-20 0,-4 -1,-8 -3,-11 l -23,-35 -33,22 z"
       fill="currentColor"
       id="path32" />
  </g>
  <g
     transform="translate(0.8,7.1566)"
     id="g38">
    <path
       transform="scale(0.004,-0.004)"
       d="m 266,-635 h -6 c -108,0 -195,88 -195,197 0,58 53,103 112,103 54,0 95,-47 95,-103 0,-52 -43,-95 -95,-95 -11,0 -21,2 -31,6 26,-39 68,-65 117,-65 h 4 z m 195,432 c 68,24 113,90 113,164 0,90 -66,179 -173,190 19,-89 48,-242 60,-354 z M 74,28 c 0,-145 141,-247 264,-247 1,0 47,0 82,6 -7,64 -29,203 -63,364 -79,-8 -124,-61 -124,-119 0,-44 25,-91 81,-123 5,-5 7,-10 7,-15 0,-11 -10,-22 -22,-22 -15,0 -126,62 -126,187 0,88 58,174 160,197 -14,58 -29,117 -46,175 C 180,310 74,188 74,28 Z m 176,525 c -29,96 -52,170 -52,346 0,115 55,224 149,292 6,5 14,5 20,0 68,-80 133,-245 133,-358 0,-143 -86,-255 -180,-364 21,-68 39,-138 56,-207 2,0 7,1 13,1 155,0 256,-128 256,-261 0,-113 -74,-212 -180,-246 3,-35 5,-70 5,-105 0,-19 -1,-39 -2,-58 -7,-119 -88,-225 -202,-228 l 1,43 c 93,2 153,92 159,191 1,18 2,37 2,55 0,31 -1,61 -4,92 -5,-1 -44,-8 -89,-8 C 142,-262 2,-82 2,112 2,289 133,418 250,553 Z m 178,363 c 0,34 1,66 -20,129 -99,-48 -162,-149 -162,-259 0,-52 12,-115 36,-194 80,97 146,198 146,324 z"
       fill="currentColor"
       id="path36" />
  </g>
  <g
     transform="translate(5.865,6.1566)"
     id="g42">
    <rect
       x="-0.064999998"
       y="-0.31389999"
       width="0.13"
       height="3.3139"
       ry="0.039999999"
       fill="currentColor"
       id="rect40" />
  </g>
</svg>
