<?xml version="1.0" encoding="UTF-8" standalone="no"?>
<svg
   version="1.2"
   width="44.317165mm"
   height="60.308746mm"
   viewBox="0 0 25.218908 34.319004"
   id="svg278"
   xmlns:xlink="http://www.w3.org/1999/xlink"
   xmlns="http://www.w3.org/2000/svg"
   xmlns:svg="http://www.w3.org/2000/svg">
  <defs
     id="defs282" />
  <style
     type="text/css"
     id="style2"><![CDATA[
tspan { white-space: pre; }
]]></style>
  <g
     transform="translate(6.9043078,5.779)"
     id="g6">
    <line
       stroke-linejoin="round"
       stroke-linecap="round"
       stroke-width="0.1"
       stroke="currentColor"
       x1="0.050000001"
       y1="0"
       x2="18.264601"
       y2="0"
       id="line4" />
  </g>
  <g
     transform="translate(6.9043078,4.779)"
     id="g10">
    <line
       stroke-linejoin="round"
       stroke-linecap="round"
       stroke-width="0.1"
       stroke="currentColor"
       x1="0.050000001"
       y1="0"
       x2="18.264601"
       y2="0"
       id="line8" />
  </g>
  <g
     transform="translate(6.9043078,3.779)"
     id="g14">
    <line
       stroke-linejoin="round"
       stroke-linecap="round"
       stroke-width="0.1"
       stroke="currentColor"
       x1="0.050000001"
       y1="0"
       x2="18.264601"
       y2="0"
       id="line12" />
  </g>
  <g
     transform="translate(6.9043078,2.779)"
     id="g18">
    <line
       stroke-linejoin="round"
       stroke-linecap="round"
       stroke-width="0.1"
       stroke="currentColor"
       x1="0.050000001"
       y1="0"
       x2="18.264601"
       y2="0"
       id="line16" />
  </g>
  <g
     transform="translate(6.9043078,1.779)"
     id="g22">
    <line
       stroke-linejoin="round"
       stroke-linecap="round"
       stroke-width="0.1"
       stroke="currentColor"
       x1="0.050000001"
       y1="0"
       x2="18.264601"
       y2="0"
       id="line20" />
  </g>
  <g
     transform="translate(25.028908,30.779)"
     id="g26">
    <rect
       x="0"
       y="-2"
       width="0.19"
       height="4"
       ry="0.0000"
       fill="currentColor"
       id="rect24" />
  </g>
  <g
     transform="translate(25.028908,21.779)"
     id="g30">
    <rect
       x="0"
       y="-2"
       width="0.19"
       height="4"
       ry="0.0000"
       fill="currentColor"
       id="rect28" />
  </g>
  <g
     transform="translate(6.9043078,15.779)"
     id="g34">
    <rect
       x="5.4738998"
       y="-0.1"
       width="1.9563"
       height="0.2"
       ry="0.1"
       fill="currentColor"
       id="rect32" />
  </g>
  <g
     transform="translate(6.9043078,14.779)"
     id="g38">
    <line
       stroke-linejoin="round"
       stroke-linecap="round"
       stroke-width="0.1"
       stroke="currentColor"
       x1="0.050000001"
       y1="0"
       x2="18.264601"
       y2="0"
       id="line36" />
  </g>
  <g
     transform="translate(6.9043078,13.779)"
     id="g42">
    <line
       stroke-linejoin="round"
       stroke-linecap="round"
       stroke-width="0.1"
       stroke="currentColor"
       x1="0.050000001"
       y1="0"
       x2="18.264601"
       y2="0"
       id="line40" />
  </g>
  <g
     transform="translate(6.9043078,12.779)"
     id="g46">
    <line
       stroke-linejoin="round"
       stroke-linecap="round"
       stroke-width="0.1"
       stroke="currentColor"
       x1="0.050000001"
       y1="0"
       x2="18.264601"
       y2="0"
       id="line44" />
  </g>
  <g
     transform="translate(6.9043078,11.779)"
     id="g50">
    <line
       stroke-linejoin="round"
       stroke-linecap="round"
       stroke-width="0.1"
       stroke="currentColor"
       x1="0.050000001"
       y1="0"
       x2="18.264601"
       y2="0"
       id="line48" />
  </g>
  <g
     transform="translate(6.9043078,10.779)"
     id="g54">
    <line
       stroke-linejoin="round"
       stroke-linecap="round"
       stroke-width="0.1"
       stroke="currentColor"
       x1="0.050000001"
       y1="0"
       x2="18.264601"
       y2="0"
       id="line52" />
  </g>
  <g
     transform="translate(25.028908,12.779)"
     id="g58">
    <rect
       x="0"
       y="-2"
       width="0.19"
       height="4"
       ry="0.0000"
       fill="currentColor"
       id="rect56" />
  </g>
  <g
     transform="translate(25.028908,3.779)"
     id="g62">
    <rect
       x="0"
       y="-2"
       width="0.19"
       height="4"
       ry="0.0000"
       fill="currentColor"
       id="rect60" />
  </g>
  <g
     transform="translate(6.9043078,24.779)"
     id="g66">
    <rect
       x="5.4738998"
       y="-0.1"
       width="1.9563"
       height="0.2"
       ry="0.1"
       fill="currentColor"
       id="rect64" />
  </g>
  <g
     transform="translate(6.9043078,23.779)"
     id="g70">
    <line
       stroke-linejoin="round"
       stroke-linecap="round"
       stroke-width="0.1"
       stroke="currentColor"
       x1="0.050000001"
       y1="0"
       x2="18.264601"
       y2="0"
       id="line68" />
  </g>
  <g
     transform="translate(6.9043078,22.779)"
     id="g74">
    <line
       stroke-linejoin="round"
       stroke-linecap="round"
       stroke-width="0.1"
       stroke="currentColor"
       x1="0.050000001"
       y1="0"
       x2="18.264601"
       y2="0"
       id="line72" />
  </g>
  <g
     transform="translate(6.9043078,21.779)"
     id="g78">
    <line
       stroke-linejoin="round"
       stroke-linecap="round"
       stroke-width="0.1"
       stroke="currentColor"
       x1="0.050000001"
       y1="0"
       x2="18.264601"
       y2="0"
       id="line76" />
  </g>
  <g
     transform="translate(6.9043078,20.779)"
     id="g82">
    <line
       stroke-linejoin="round"
       stroke-linecap="round"
       stroke-width="0.1"
       stroke="currentColor"
       x1="0.050000001"
       y1="0"
       x2="18.264601"
       y2="0"
       id="line80" />
  </g>
  <g
     transform="translate(6.9043078,19.779)"
     id="g86">
    <line
       stroke-linejoin="round"
       stroke-linecap="round"
       stroke-width="0.1"
       stroke="currentColor"
       x1="0.050000001"
       y1="0"
       x2="18.264601"
       y2="0"
       id="line84" />
  </g>
  <g
     transform="translate(6.9043078,32.779)"
     id="g90">
    <line
       stroke-linejoin="round"
       stroke-linecap="round"
       stroke-width="0.1"
       stroke="currentColor"
       x1="0.050000001"
       y1="0"
       x2="18.264601"
       y2="0"
       id="line88" />
  </g>
  <g
     transform="translate(6.9043078,31.779)"
     id="g94">
    <line
       stroke-linejoin="round"
       stroke-linecap="round"
       stroke-width="0.1"
       stroke="currentColor"
       x1="0.050000001"
       y1="0"
       x2="18.264601"
       y2="0"
       id="line92" />
  </g>
  <g
     transform="translate(6.9043078,30.779)"
     id="g98">
    <line
       stroke-linejoin="round"
       stroke-linecap="round"
       stroke-width="0.1"
       stroke="currentColor"
       x1="0.050000001"
       y1="0"
       x2="18.264601"
       y2="0"
       id="line96" />
  </g>
  <g
     transform="translate(6.9043078,29.779)"
     id="g102">
    <line
       stroke-linejoin="round"
       stroke-linecap="round"
       stroke-width="0.1"
       stroke="currentColor"
       x1="0.050000001"
       y1="0"
       x2="18.264601"
       y2="0"
       id="line100" />
  </g>
  <g
     transform="translate(6.9043078,28.779)"
     id="g106">
    <line
       stroke-linejoin="round"
       stroke-linecap="round"
       stroke-width="0.1"
       stroke="currentColor"
       x1="0.050000001"
       y1="0"
       x2="18.264601"
       y2="0"
       id="line104" />
  </g>
  <g
     transform="translate(0.70580781,22.5073)"
     id="g112">
    <text
       font-family="serif"
       font-size="2.2px"
       text-anchor="start"
       fill="currentColor"
       id="text110"><tspan
         id="tspan108">Cor A.</tspan></text>
  </g>
  <g
     transform="translate(0.26190781,31.5262)"
     id="g118">
    <text
       font-family="serif"
       font-size="2.2px"
       text-anchor="start"
       fill="currentColor"
       id="text116"><tspan
         id="tspan114">Sax Eb</tspan></text>
  </g>
  <g
     transform="translate(6.8443078,17.279)"
     id="g122">
    <rect
       x="0"
       y="-15.55"
       width="0.16"
       height="31.1"
       ry="0.050000001"
       fill="currentColor"
       id="rect120" />
  </g>
  <a
     style="color:inherit"
     xlink:href="textedit:///Users/philippeperret/Programmes/ScoreSuite/ScoreImage/tests/checksums_tests/simples/instrus_transpositeurs/main/score-no-transpo-untrimed.ly:22:23:24"
     id="a128"
     transform="translate(-15.857892,-12.3811)">
    <g
       transform="translate(28.5622,14.6601)"
       id="g126">
      <path
         transform="scale(0.004,-0.004)"
         d="m 213,112 c -45,0 -69,-34 -69,-88 0,-102 89,-136 134,-136 45,0 69,34 69,88 0,102 -89,136 -134,136 z m 32,24 C 389,136 491,71 491,0 491,-71 389,-136 245,-136 101,-136 0,-71 0,0 0,71 101,136 245,136 Z"
         fill="currentColor"
         id="path124" />
    </g>
  </a>
  <g
     transform="translate(7.7043078,4.779)"
     id="g132">
    <path
       transform="scale(0.004,-0.004)"
       d="m 266,-635 h -6 c -108,0 -195,88 -195,197 0,58 53,103 112,103 54,0 95,-47 95,-103 0,-52 -43,-95 -95,-95 -11,0 -21,2 -31,6 26,-39 68,-65 117,-65 h 4 z m 195,432 c 68,24 113,90 113,164 0,90 -66,179 -173,190 19,-89 48,-242 60,-354 z M 74,28 c 0,-145 141,-247 264,-247 1,0 47,0 82,6 -7,64 -29,203 -63,364 -79,-8 -124,-61 -124,-119 0,-44 25,-91 81,-123 5,-5 7,-10 7,-15 0,-11 -10,-22 -22,-22 -15,0 -126,62 -126,187 0,88 58,174 160,197 -14,58 -29,117 -46,175 C 180,310 74,188 74,28 Z m 176,525 c -29,96 -52,170 -52,346 0,115 55,224 149,292 6,5 14,5 20,0 68,-80 133,-245 133,-358 0,-143 -86,-255 -180,-364 21,-68 39,-138 56,-207 2,0 7,1 13,1 155,0 256,-128 256,-261 0,-113 -74,-212 -180,-246 3,-35 5,-70 5,-105 0,-19 -1,-39 -2,-58 -7,-119 -88,-225 -202,-228 l 1,43 c 93,2 153,92 159,191 1,18 2,37 2,55 0,31 -1,61 -4,92 -5,-1 -44,-8 -89,-8 C 142,-262 2,-82 2,112 2,289 133,418 250,553 Z m 178,363 c 0,34 1,66 -20,129 -99,-48 -162,-149 -162,-259 0,-52 12,-115 36,-194 80,97 146,198 146,324 z"
       fill="currentColor"
       id="path130" />
  </g>
  <a
     style="color:inherit"
     xlink:href="textedit:///Users/philippeperret/Programmes/ScoreSuite/ScoreImage/tests/checksums_tests/simples/instrus_transpositeurs/main/score-no-transpo-untrimed.ly:29:23:24"
     id="a138"
     transform="translate(-15.857892,-12.3811)">
    <g
       transform="translate(28.5622,28.1601)"
       id="g136">
      <path
         transform="scale(0.004,-0.004)"
         d="m 218,136 c 66,0 108,-36 108,-89 0,-89 -113,-183 -218,-183 -66,0 -108,36 -108,89 0,89 113,183 218,183 z"
         fill="currentColor"
         id="path134" />
    </g>
  </a>
  <g
     transform="translate(7.7043078,13.779)"
     id="g142">
    <path
       transform="scale(0.004,-0.004)"
       d="m 266,-635 h -6 c -108,0 -195,88 -195,197 0,58 53,103 112,103 54,0 95,-47 95,-103 0,-52 -43,-95 -95,-95 -11,0 -21,2 -31,6 26,-39 68,-65 117,-65 h 4 z m 195,432 c 68,24 113,90 113,164 0,90 -66,179 -173,190 19,-89 48,-242 60,-354 z M 74,28 c 0,-145 141,-247 264,-247 1,0 47,0 82,6 -7,64 -29,203 -63,364 -79,-8 -124,-61 -124,-119 0,-44 25,-91 81,-123 5,-5 7,-10 7,-15 0,-11 -10,-22 -22,-22 -15,0 -126,62 -126,187 0,88 58,174 160,197 -14,58 -29,117 -46,175 C 180,310 74,188 74,28 Z m 176,525 c -29,96 -52,170 -52,346 0,115 55,224 149,292 6,5 14,5 20,0 68,-80 133,-245 133,-358 0,-143 -86,-255 -180,-364 21,-68 39,-138 56,-207 2,0 7,1 13,1 155,0 256,-128 256,-261 0,-113 -74,-212 -180,-246 3,-35 5,-70 5,-105 0,-19 -1,-39 -2,-58 -7,-119 -88,-225 -202,-228 l 1,43 c 93,2 153,92 159,191 1,18 2,37 2,55 0,31 -1,61 -4,92 -5,-1 -44,-8 -89,-8 C 142,-262 2,-82 2,112 2,289 133,418 250,553 Z m 178,363 c 0,34 1,66 -20,129 -99,-48 -162,-149 -162,-259 0,-52 12,-115 36,-194 80,97 146,198 146,324 z"
       fill="currentColor"
       id="path140" />
  </g>
  <a
     style="color:inherit"
     xlink:href="textedit:///Users/philippeperret/Programmes/ScoreSuite/ScoreImage/tests/checksums_tests/simples/instrus_transpositeurs/main/score-no-transpo-untrimed.ly:36:23:24"
     id="a148"
     transform="translate(-15.857892,-12.3811)">
    <g
       transform="translate(28.5622,37.1601)"
       id="g146">
      <path
         transform="scale(0.004,-0.004)"
         d="m 218,136 c 66,0 108,-36 108,-89 0,-89 -113,-183 -218,-183 -66,0 -108,36 -108,89 0,89 113,183 218,183 z"
         fill="currentColor"
         id="path144" />
    </g>
  </a>
  <g
     transform="translate(7.7043078,22.779)"
     id="g152">
    <path
       transform="scale(0.004,-0.004)"
       d="m 266,-635 h -6 c -108,0 -195,88 -195,197 0,58 53,103 112,103 54,0 95,-47 95,-103 0,-52 -43,-95 -95,-95 -11,0 -21,2 -31,6 26,-39 68,-65 117,-65 h 4 z m 195,432 c 68,24 113,90 113,164 0,90 -66,179 -173,190 19,-89 48,-242 60,-354 z M 74,28 c 0,-145 141,-247 264,-247 1,0 47,0 82,6 -7,64 -29,203 -63,364 -79,-8 -124,-61 -124,-119 0,-44 25,-91 81,-123 5,-5 7,-10 7,-15 0,-11 -10,-22 -22,-22 -15,0 -126,62 -126,187 0,88 58,174 160,197 -14,58 -29,117 -46,175 C 180,310 74,188 74,28 Z m 176,525 c -29,96 -52,170 -52,346 0,115 55,224 149,292 6,5 14,5 20,0 68,-80 133,-245 133,-358 0,-143 -86,-255 -180,-364 21,-68 39,-138 56,-207 2,0 7,1 13,1 155,0 256,-128 256,-261 0,-113 -74,-212 -180,-246 3,-35 5,-70 5,-105 0,-19 -1,-39 -2,-58 -7,-119 -88,-225 -202,-228 l 1,43 c 93,2 153,92 159,191 1,18 2,37 2,55 0,31 -1,61 -4,92 -5,-1 -44,-8 -89,-8 C 142,-262 2,-82 2,112 2,289 133,418 250,553 Z m 178,363 c 0,34 1,66 -20,129 -99,-48 -162,-149 -162,-259 0,-52 12,-115 36,-194 80,97 146,198 146,324 z"
       fill="currentColor"
       id="path150" />
  </g>
  <a
     style="color:inherit"
     xlink:href="textedit:///Users/philippeperret/Programmes/ScoreSuite/ScoreImage/tests/checksums_tests/simples/instrus_transpositeurs/main/score-no-transpo-untrimed.ly:43:23:24"
     id="a158"
     transform="translate(-15.857892,-12.3811)">
    <g
       transform="translate(28.5622,44.1601)"
       id="g156">
      <path
         transform="scale(0.004,-0.004)"
         d="m 218,136 c 66,0 108,-36 108,-89 0,-89 -113,-183 -218,-183 -66,0 -108,36 -108,89 0,89 113,183 218,183 z"
         fill="currentColor"
         id="path154" />
    </g>
  </a>
  <g
     transform="translate(7.7043078,31.779)"
     id="g162">
    <path
       transform="scale(0.004,-0.004)"
       d="m 266,-635 h -6 c -108,0 -195,88 -195,197 0,58 53,103 112,103 54,0 95,-47 95,-103 0,-52 -43,-95 -95,-95 -11,0 -21,2 -31,6 26,-39 68,-65 117,-65 h 4 z m 195,432 c 68,24 113,90 113,164 0,90 -66,179 -173,190 19,-89 48,-242 60,-354 z M 74,28 c 0,-145 141,-247 264,-247 1,0 47,0 82,6 -7,64 -29,203 -63,364 -79,-8 -124,-61 -124,-119 0,-44 25,-91 81,-123 5,-5 7,-10 7,-15 0,-11 -10,-22 -22,-22 -15,0 -126,62 -126,187 0,88 58,174 160,197 -14,58 -29,117 -46,175 C 180,310 74,188 74,28 Z m 176,525 c -29,96 -52,170 -52,346 0,115 55,224 149,292 6,5 14,5 20,0 68,-80 133,-245 133,-358 0,-143 -86,-255 -180,-364 21,-68 39,-138 56,-207 2,0 7,1 13,1 155,0 256,-128 256,-261 0,-113 -74,-212 -180,-246 3,-35 5,-70 5,-105 0,-19 -1,-39 -2,-58 -7,-119 -88,-225 -202,-228 l 1,43 c 93,2 153,92 159,191 1,18 2,37 2,55 0,31 -1,61 -4,92 -5,-1 -44,-8 -89,-8 C 142,-262 2,-82 2,112 2,289 133,418 250,553 Z m 178,363 c 0,34 1,66 -20,129 -99,-48 -162,-149 -162,-259 0,-52 12,-115 36,-194 80,97 146,198 146,324 z"
       fill="currentColor"
       id="path160" />
  </g>
  <g
     transform="translate(13.943508,12.779)"
     id="g166">
    <rect
       x="-0.064999998"
       y="-0.5"
       width="0.13"
       height="3.3139"
       ry="0.039999999"
       fill="currentColor"
       id="rect164" />
  </g>
  <g
     transform="translate(13.943508,21.779)"
     id="g170">
    <rect
       x="-0.064999998"
       y="-0.5"
       width="0.13"
       height="3.3139"
       ry="0.039999999"
       fill="currentColor"
       id="rect168" />
  </g>
  <g
     transform="translate(13.943508,30.779)"
     id="g174">
    <rect
       x="-0.064999998"
       y="-2.5"
       width="0.13"
       height="3.3139"
       ry="0.039999999"
       fill="currentColor"
       id="rect172" />
  </g>
  <a
     style="color:inherit"
     xlink:href="textedit:///Users/philippeperret/Programmes/ScoreSuite/ScoreImage/tests/checksums_tests/simples/instrus_transpositeurs/main/score-no-transpo-untrimed.ly:29:26:27"
     id="a180"
     transform="translate(-15.857892,-12.3811)">
    <g
       transform="translate(31.6478,27.6601)"
       id="g178">
      <path
         transform="scale(0.004,-0.004)"
         d="m 218,136 c 66,0 108,-36 108,-89 0,-89 -113,-183 -218,-183 -66,0 -108,36 -108,89 0,89 113,183 218,183 z"
         fill="currentColor"
         id="path176" />
    </g>
  </a>
  <a
     style="color:inherit"
     xlink:href="textedit:///Users/philippeperret/Programmes/ScoreSuite/ScoreImage/tests/checksums_tests/simples/instrus_transpositeurs/main/score-no-transpo-untrimed.ly:36:26:27"
     id="a186"
     transform="translate(-15.857892,-12.3811)">
    <g
       transform="translate(31.6478,36.1601)"
       id="g184">
      <path
         transform="scale(0.004,-0.004)"
         d="m 218,136 c 66,0 108,-36 108,-89 0,-89 -113,-183 -218,-183 -66,0 -108,36 -108,89 0,89 113,183 218,183 z"
         fill="currentColor"
         id="path182" />
    </g>
  </a>
  <a
     style="color:inherit"
     xlink:href="textedit:///Users/philippeperret/Programmes/ScoreSuite/ScoreImage/tests/checksums_tests/simples/instrus_transpositeurs/main/score-no-transpo-untrimed.ly:43:27:28"
     id="a192"
     transform="translate(-15.857892,-12.3811)">
    <g
       transform="translate(31.6478,44.6601)"
       id="g190">
      <path
         transform="scale(0.004,-0.004)"
         d="m 218,136 c 66,0 108,-36 108,-89 0,-89 -113,-183 -218,-183 -66,0 -108,36 -108,89 0,89 113,183 218,183 z"
         fill="currentColor"
         id="path188" />
    </g>
  </a>
  <g
     transform="translate(17.029108,12.779)"
     id="g196">
    <rect
       x="-0.064999998"
       y="-1"
       width="0.13"
       height="3.3139"
       ry="0.039999999"
       fill="currentColor"
       id="rect194" />
  </g>
  <g
     transform="translate(17.029108,21.779)"
     id="g200">
    <rect
       x="-0.064999998"
       y="-1.5"
       width="0.13"
       height="3.3139"
       ry="0.039999999"
       fill="currentColor"
       id="rect198" />
  </g>
  <g
     transform="translate(17.029108,30.779)"
     id="g204">
    <rect
       x="-0.064999998"
       y="-2"
       width="0.13"
       height="3.3139"
       ry="0.039999999"
       fill="currentColor"
       id="rect202" />
  </g>
  <a
     style="color:inherit"
     xlink:href="textedit:///Users/philippeperret/Programmes/ScoreSuite/ScoreImage/tests/checksums_tests/simples/instrus_transpositeurs/main/score-no-transpo-untrimed.ly:29:28:29"
     id="a210"
     transform="translate(-15.857892,-12.3811)">
    <g
       transform="translate(34.7334,27.1601)"
       id="g208">
      <path
         transform="scale(0.004,-0.004)"
         d="m 218,136 c 66,0 108,-36 108,-89 0,-89 -113,-183 -218,-183 -66,0 -108,36 -108,89 0,89 113,183 218,183 z"
         fill="currentColor"
         id="path206" />
    </g>
  </a>
  <a
     style="color:inherit"
     xlink:href="textedit:///Users/philippeperret/Programmes/ScoreSuite/ScoreImage/tests/checksums_tests/simples/instrus_transpositeurs/main/score-no-transpo-untrimed.ly:36:28:29"
     id="a216"
     transform="translate(-15.857892,-12.3811)">
    <g
       transform="translate(34.7334,35.1601)"
       id="g214">
      <path
         transform="scale(0.004,-0.004)"
         d="m 218,136 c 66,0 108,-36 108,-89 0,-89 -113,-183 -218,-183 -66,0 -108,36 -108,89 0,89 113,183 218,183 z"
         fill="currentColor"
         id="path212" />
    </g>
  </a>
  <a
     style="color:inherit"
     xlink:href="textedit:///Users/philippeperret/Programmes/ScoreSuite/ScoreImage/tests/checksums_tests/simples/instrus_transpositeurs/main/score-no-transpo-untrimed.ly:43:29:30"
     id="a222"
     transform="translate(-15.857892,-12.3811)">
    <g
       transform="translate(34.7334,45.1601)"
       id="g220">
      <path
         transform="scale(0.004,-0.004)"
         d="m 218,136 c 66,0 108,-36 108,-89 0,-89 -113,-183 -218,-183 -66,0 -108,36 -108,89 0,89 113,183 218,183 z"
         fill="currentColor"
         id="path218" />
    </g>
  </a>
  <g
     transform="translate(20.114708,12.779)"
     id="g226">
    <rect
       x="-0.064999998"
       y="-1.5"
       width="0.13"
       height="3.3139"
       ry="0.039999999"
       fill="currentColor"
       id="rect224" />
  </g>
  <g
     transform="translate(20.114708,21.779)"
     id="g230">
    <rect
       x="-0.064999998"
       y="-2.5"
       width="0.13"
       height="3.3139"
       ry="0.039999999"
       fill="currentColor"
       id="rect228" />
  </g>
  <g
     transform="translate(20.114708,30.779)"
     id="g234">
    <rect
       x="-0.064999998"
       y="-1.5"
       width="0.13"
       height="3.3139"
       ry="0.039999999"
       fill="currentColor"
       id="rect232" />
  </g>
  <a
     style="color:inherit"
     xlink:href="textedit:///Users/philippeperret/Programmes/ScoreSuite/ScoreImage/tests/checksums_tests/simples/instrus_transpositeurs/main/score-no-transpo-untrimed.ly:29:30:31"
     id="a240"
     transform="translate(-15.857892,-12.3811)">
    <g
       transform="translate(37.7893,26.6601)"
       id="g238">
      <path
         transform="scale(0.004,-0.004)"
         d="m 218,136 c 66,0 108,-36 108,-89 0,-89 -113,-183 -218,-183 -66,0 -108,36 -108,89 0,89 113,183 218,183 z"
         fill="currentColor"
         id="path236" />
    </g>
  </a>
  <a
     style="color:inherit"
     xlink:href="textedit:///Users/philippeperret/Programmes/ScoreSuite/ScoreImage/tests/checksums_tests/simples/instrus_transpositeurs/main/score-no-transpo-untrimed.ly:36:30:31"
     id="a246"
     transform="translate(-15.857892,-12.3811)">
    <g
       transform="translate(37.7893,33.6601)"
       id="g244">
      <path
         transform="scale(0.004,-0.004)"
         d="m 218,136 c 66,0 108,-36 108,-89 0,-89 -113,-183 -218,-183 -66,0 -108,36 -108,89 0,89 113,183 218,183 z"
         fill="currentColor"
         id="path242" />
    </g>
  </a>
  <a
     style="color:inherit"
     xlink:href="textedit:///Users/philippeperret/Programmes/ScoreSuite/ScoreImage/tests/checksums_tests/simples/instrus_transpositeurs/main/score-no-transpo-untrimed.ly:43:31:32"
     id="a252"
     transform="translate(-15.857892,-12.3811)">
    <g
       transform="translate(37.7893,45.6601)"
       id="g250">
      <path
         transform="scale(0.004,-0.004)"
         d="m 218,136 c 66,0 108,-36 108,-89 0,-89 -113,-183 -218,-183 -66,0 -108,36 -108,89 0,89 113,183 218,183 z"
         fill="currentColor"
         id="path248" />
    </g>
  </a>
  <g
     transform="translate(23.170708,12.779)"
     id="g256">
    <rect
       x="-0.064999998"
       y="-2"
       width="0.13"
       height="3.3139"
       ry="0.039999999"
       fill="currentColor"
       id="rect254" />
  </g>
  <g
     transform="translate(21.996408,21.779)"
     id="g260">
    <rect
       x="-0.064999998"
       y="-0.31389999"
       width="0.13"
       height="3.3139"
       ry="0.039999999"
       fill="currentColor"
       id="rect258" />
  </g>
  <g
     transform="translate(23.170708,30.779)"
     id="g264">
    <rect
       x="-0.064999998"
       y="-1"
       width="0.13"
       height="3.3139"
       ry="0.039999999"
       fill="currentColor"
       id="rect262" />
  </g>
  <g
     transform="translate(-0.07949219,13.3075)"
     id="g270">
    <text
       font-family="serif"
       font-size="2.2px"
       text-anchor="start"
       fill="currentColor"
       id="text268"><tspan
         id="tspan266">Cl.(Bb)</tspan></text>
  </g>
  <g
     transform="translate(4.1543078,4.5278)"
     id="g276">
    <text
       font-family="serif"
       font-size="2.2px"
       text-anchor="start"
       fill="currentColor"
       id="text274"><tspan
         id="tspan272">Fl.</tspan></text>
  </g>
</svg>
