<?xml version="1.0" encoding="UTF-8" standalone="no"?>
<svg
   version="1.2"
   width="154.30457mm"
   height="26.951418mm"
   viewBox="0 0 87.807798 15.336844"
   id="svg514"
   xmlns:xlink="http://www.w3.org/1999/xlink"
   xmlns="http://www.w3.org/2000/svg"
   xmlns:svg="http://www.w3.org/2000/svg">
  <defs
     id="defs518" />
  <style
     type="text/css"
     id="style2"><![CDATA[
tspan { white-space: pre; }
]]></style>
  <g
     transform="translate(1.5708023,7.2298465)"
     id="g6">
    <rect
       x="62.261799"
       y="-0.1"
       width="1.9563"
       height="0.2"
       ry="0.1"
       fill="currentColor"
       id="rect4" />
  </g>
  <g
     transform="translate(1.5708023,8.2298465)"
     id="g10">
    <rect
       x="62.261799"
       y="-0.1"
       width="1.9563"
       height="0.2"
       ry="0.1"
       fill="currentColor"
       id="rect8" />
  </g>
  <g
     transform="translate(1.5708023,7.2298465)"
     id="g14">
    <rect
       x="58.788799"
       y="-0.1"
       width="1.9563"
       height="0.2"
       ry="0.1"
       fill="currentColor"
       id="rect12" />
  </g>
  <g
     transform="translate(1.5708023,8.2298465)"
     id="g18">
    <rect
       x="58.788799"
       y="-0.1"
       width="1.9563"
       height="0.2"
       ry="0.1"
       fill="currentColor"
       id="rect16" />
  </g>
  <g
     transform="translate(1.5708023,7.2298465)"
     id="g22">
    <rect
       x="56.434601"
       y="-0.1"
       width="1.9563"
       height="0.2"
       ry="0.1"
       fill="currentColor"
       id="rect20" />
  </g>
  <g
     transform="translate(1.5708023,7.2298465)"
     id="g26">
    <rect
       x="54.080399"
       y="-0.1"
       width="1.9563"
       height="0.2"
       ry="0.1"
       fill="currentColor"
       id="rect24" />
  </g>
  <g
     transform="translate(1.5708023,7.2298465)"
     id="g30">
    <rect
       x="49.522999"
       y="-0.1"
       width="1.8053"
       height="0.2"
       ry="0.1"
       fill="currentColor"
       id="rect28" />
  </g>
  <g
     transform="translate(1.5708023,6.2298465)"
     id="g34">
    <line
       stroke-linejoin="round"
       stroke-linecap="round"
       stroke-width="0.1"
       stroke="currentColor"
       x1="0.050000001"
       y1="0"
       x2="86.186996"
       y2="0"
       id="line32" />
  </g>
  <g
     transform="translate(1.5708023,5.2298465)"
     id="g38">
    <line
       stroke-linejoin="round"
       stroke-linecap="round"
       stroke-width="0.1"
       stroke="currentColor"
       x1="0.050000001"
       y1="0"
       x2="86.186996"
       y2="0"
       id="line36" />
  </g>
  <g
     transform="translate(1.5708023,4.2298465)"
     id="g42">
    <line
       stroke-linejoin="round"
       stroke-linecap="round"
       stroke-width="0.1"
       stroke="currentColor"
       x1="0.050000001"
       y1="0"
       x2="86.186996"
       y2="0"
       id="line40" />
  </g>
  <g
     transform="translate(1.5708023,3.2298465)"
     id="g46">
    <line
       stroke-linejoin="round"
       stroke-linecap="round"
       stroke-width="0.1"
       stroke="currentColor"
       x1="0.050000001"
       y1="0"
       x2="86.186996"
       y2="0"
       id="line44" />
  </g>
  <g
     transform="translate(1.5708023,2.2298465)"
     id="g50">
    <line
       stroke-linejoin="round"
       stroke-linecap="round"
       stroke-width="0.1"
       stroke="currentColor"
       x1="0.050000001"
       y1="0"
       x2="86.186996"
       y2="0"
       id="line48" />
  </g>
  <g
     transform="translate(87.617802,-5.3492037e-5)"
     id="g54">
    <rect
       x="0"
       y="6.2799001"
       width="0.19"
       height="4.9499998"
       ry="0.0000"
       fill="currentColor"
       id="rect52" />
  </g>
  <g
     transform="translate(1.5708023,15.229847)"
     id="g58">
    <line
       stroke-linejoin="round"
       stroke-linecap="round"
       stroke-width="0.1"
       stroke="currentColor"
       x1="0.050000001"
       y1="0"
       x2="86.186996"
       y2="0"
       id="line56" />
  </g>
  <g
     transform="translate(1.5708023,14.229847)"
     id="g62">
    <line
       stroke-linejoin="round"
       stroke-linecap="round"
       stroke-width="0.1"
       stroke="currentColor"
       x1="0.050000001"
       y1="0"
       x2="86.186996"
       y2="0"
       id="line60" />
  </g>
  <g
     transform="translate(1.5708023,13.229847)"
     id="g66">
    <line
       stroke-linejoin="round"
       stroke-linecap="round"
       stroke-width="0.1"
       stroke="currentColor"
       x1="0.050000001"
       y1="0"
       x2="86.186996"
       y2="0"
       id="line64" />
  </g>
  <g
     transform="translate(1.5708023,12.229847)"
     id="g70">
    <line
       stroke-linejoin="round"
       stroke-linecap="round"
       stroke-width="0.1"
       stroke="currentColor"
       x1="0.050000001"
       y1="0"
       x2="86.186996"
       y2="0"
       id="line68" />
  </g>
  <g
     transform="translate(1.5708023,11.229847)"
     id="g74">
    <line
       stroke-linejoin="round"
       stroke-linecap="round"
       stroke-width="0.1"
       stroke="currentColor"
       x1="0.050000001"
       y1="0"
       x2="86.186996"
       y2="0"
       id="line72" />
  </g>
  <g
     transform="translate(87.617802,13.229847)"
     id="g78">
    <rect
       x="0"
       y="-2.05"
       width="0.19"
       height="4.0500002"
       ry="0.0000"
       fill="currentColor"
       id="rect76" />
  </g>
  <g
     transform="translate(87.617802,4.2298465)"
     id="g82">
    <rect
       x="0"
       y="-2"
       width="0.19"
       height="4.0500002"
       ry="0.0000"
       fill="currentColor"
       id="rect80" />
  </g>
  <g
     transform="translate(67.778202,-5.3492037e-5)"
     id="g86">
    <rect
       x="0"
       y="6.2799001"
       width="0.19"
       height="4.9499998"
       ry="0.0000"
       fill="currentColor"
       id="rect84" />
  </g>
  <g
     transform="translate(67.778202,13.229847)"
     id="g90">
    <rect
       x="0"
       y="-2.05"
       width="0.19"
       height="4.0500002"
       ry="0.0000"
       fill="currentColor"
       id="rect88" />
  </g>
  <g
     transform="translate(67.778202,4.2298465)"
     id="g94">
    <rect
       x="0"
       y="-2"
       width="0.19"
       height="4.0500002"
       ry="0.0000"
       fill="currentColor"
       id="rect92" />
  </g>
  <g
     transform="translate(47.964802,-5.3492037e-5)"
     id="g98">
    <rect
       x="0"
       y="6.2799001"
       width="0.19"
       height="4.9499998"
       ry="0.0000"
       fill="currentColor"
       id="rect96" />
  </g>
  <g
     transform="translate(47.964802,13.229847)"
     id="g102">
    <rect
       x="0"
       y="-2.05"
       width="0.19"
       height="4.0500002"
       ry="0.0000"
       fill="currentColor"
       id="rect100" />
  </g>
  <g
     transform="translate(47.964802,4.2298465)"
     id="g106">
    <rect
       x="0"
       y="-2"
       width="0.19"
       height="4.0500002"
       ry="0.0000"
       fill="currentColor"
       id="rect104" />
  </g>
  <g
     transform="translate(28.214902,-5.3492037e-5)"
     id="g110">
    <rect
       x="0"
       y="6.2799001"
       width="0.19"
       height="4.9499998"
       ry="0.0000"
       fill="currentColor"
       id="rect108" />
  </g>
  <g
     transform="translate(28.214902,13.229847)"
     id="g114">
    <rect
       x="0"
       y="-2.05"
       width="0.19"
       height="4.0500002"
       ry="0.0000"
       fill="currentColor"
       id="rect112" />
  </g>
  <g
     transform="translate(28.214902,4.2298465)"
     id="g118">
    <rect
       x="0"
       y="-2"
       width="0.19"
       height="4.0500002"
       ry="0.0000"
       fill="currentColor"
       id="rect116" />
  </g>
  <g
     transform="translate(6.5708023,4.2298465)"
     id="g122">
    <path
       transform="scale(0.004,-0.004)"
       d="m 250,262 c 116,0 176,-106 176,-163 0,-40 -30,-72 -67,-72 -31,0 -75,25 -75,75 0,38 27,77 72,77 4,0 9,0 14,-1 -28,37 -72,59 -120,59 C 144,237 137,164 137,51 V 0 -51 c 0,-113 7,-187 113,-187 80,0 139,70 158,151 2,7 7,10 12,10 6,0 13,-4 13,-12 0,-22 -50,-174 -183,-174 C 191,-263 0,-244 0,0 0,62 18,262 250,262 Z"
       fill="currentColor"
       id="path120" />
  </g>
  <a
     style="color:inherit"
     xlink:href="textedit:///Users/philippeperret/Programmes/ScoreSuite/ScoreImage/Manuel/images/scores/partition-12a15-untrimed.ly:34:22:23"
     id="a128"
     transform="translate(-21.191398,-12.381153)">
    <g
       transform="translate(32.2122,27.111)"
       id="g126">
      <path
         transform="scale(0.004,-0.004)"
         d="m 213,112 c -45,0 -69,-34 -69,-88 0,-102 89,-136 134,-136 45,0 69,34 69,88 0,102 -89,136 -134,136 z m 32,24 C 389,136 491,71 491,0 491,-71 389,-136 245,-136 101,-136 0,-71 0,0 0,71 101,136 245,136 Z"
         fill="currentColor"
         id="path124" />
    </g>
  </a>
  <a
     style="color:inherit"
     xlink:href="textedit:///Users/philippeperret/Programmes/ScoreSuite/ScoreImage/Manuel/images/scores/partition-12a15-untrimed.ly:34:25:26"
     id="a134"
     transform="translate(-21.191398,-12.381153)">
    <g
       transform="translate(32.2122,26.111)"
       id="g132">
      <path
         transform="scale(0.004,-0.004)"
         d="m 213,112 c -45,0 -69,-34 -69,-88 0,-102 89,-136 134,-136 45,0 69,34 69,88 0,102 -89,136 -134,136 z m 32,24 C 389,136 491,71 491,0 491,-71 389,-136 245,-136 101,-136 0,-71 0,0 0,71 101,136 245,136 Z"
         fill="currentColor"
         id="path130" />
    </g>
  </a>
  <a
     style="color:inherit"
     xlink:href="textedit:///Users/philippeperret/Programmes/ScoreSuite/ScoreImage/Manuel/images/scores/partition-12a15-untrimed.ly:34:29:30"
     id="a140"
     transform="translate(-21.191398,-12.381153)">
    <g
       transform="translate(32.2122,25.111)"
       id="g138">
      <path
         transform="scale(0.004,-0.004)"
         d="m 213,112 c -45,0 -69,-34 -69,-88 0,-102 89,-136 134,-136 45,0 69,34 69,88 0,102 -89,136 -134,136 z m 32,24 C 389,136 491,71 491,0 491,-71 389,-136 245,-136 101,-136 0,-71 0,0 0,71 101,136 245,136 Z"
         fill="currentColor"
         id="path136" />
    </g>
  </a>
  <g
     transform="translate(2.3708023,12.229847)"
     id="g144">
    <path
       transform="scale(0.004,-0.004)"
       d="m 557,-125 c 0,28 23,51 51,51 28,0 51,-23 51,-51 0,-28 -23,-51 -51,-51 -28,0 -51,23 -51,51 z m 0,250 c 0,28 23,51 51,51 28,0 51,-23 51,-51 0,-28 -23,-51 -51,-51 -28,0 -51,23 -51,51 z M 232,263 c 172,0 293,-88 293,-251 0,-263 -263,-414 -516,-521 -3,-3 -6,-4 -9,-4 -7,0 -13,6 -13,13 0,3 1,6 4,9 202,118 412,265 412,493 0,120 -63,235 -171,235 -74,0 -129,-54 -154,-126 11,5 22,8 34,8 C 167,119 212,74 212,19 212,-39 168,-87 112,-87 52,-87 0,-40 0,19 0,152 102,263 232,263 Z"
       fill="currentColor"
       id="path142" />
  </g>
  <g
     transform="translate(6.5708023,13.229847)"
     id="g148">
    <path
       transform="scale(0.004,-0.004)"
       d="m 250,262 c 116,0 176,-106 176,-163 0,-40 -30,-72 -67,-72 -31,0 -75,25 -75,75 0,38 27,77 72,77 4,0 9,0 14,-1 -28,37 -72,59 -120,59 C 144,237 137,164 137,51 V 0 -51 c 0,-113 7,-187 113,-187 80,0 139,70 158,151 2,7 7,10 12,10 6,0 13,-4 13,-12 0,-22 -50,-174 -183,-174 C 191,-263 0,-244 0,0 0,62 18,262 250,262 Z"
       fill="currentColor"
       id="path146" />
  </g>
  <g
     transform="translate(-0.20459766,1.1798465)"
     id="g154">
    <text
       font-family="serif"
       font-size="1.7459px"
       text-anchor="start"
       fill="currentColor"
       id="text152"><tspan
         id="tspan150">12</tspan></text>
  </g>
  <g
     transform="translate(11.085802,4.2298465)"
     id="g158">
    <rect
       x="-0.064999998"
       y="0.68610001"
       width="0.13"
       height="2.3074999"
       ry="0.039999999"
       fill="currentColor"
       id="rect156" />
  </g>
  <g
     transform="translate(9.5708023,13.729847)"
     id="g162">
    <path
       transform="scale(0.004,-0.004)"
       d="m 0,119 c 0,8 5,15 13,18 l 46,17 v 158 c 0,10 8,19 18,19 10,0 19,-9 19,-19 V 167 l 83,31 v 158 c 0,10 9,19 19,19 10,0 18,-9 18,-19 V 211 l 32,12 c 2,1 5,1 7,1 11,0 20,-9 20,-20 v -60 c 0,-8 -5,-16 -13,-19 L 216,109 V -51 l 32,11 c 2,1 5,1 7,1 11,0 20,-9 20,-20 v -60 c 0,-8 -5,-15 -13,-18 l -46,-17 v -158 c 0,-10 -8,-19 -18,-19 -10,0 -19,9 -19,19 v 145 l -83,-31 v -158 c 0,-10 -9,-19 -19,-19 -10,0 -18,9 -18,19 v 145 l -32,-12 c -2,-1 -5,-1 -7,-1 -11,0 -20,9 -20,20 v 60 c 0,8 5,16 13,19 l 46,16 V 51 L 27,40 C 25,39 22,39 20,39 9,39 0,48 0,59 Z M 179,95 96,65 V -95 l 83,30 z"
       fill="currentColor"
       id="path160" />
  </g>
  <g
     transform="translate(71.192402,3.2298465)"
     id="g166">
    <polygon
       stroke-linejoin="round"
       stroke-linecap="round"
       stroke-width="0.08"
       fill="currentColor"
       stroke="currentColor"
       points="0.04,0.2 0.04,-0.2 8.1526,-1.01 8.1526,-0.61 "
       id="polygon164" />
  </g>
  <a
     style="color:inherit"
     xlink:href="textedit:///Users/philippeperret/Programmes/ScoreSuite/ScoreImage/Manuel/images/scores/partition-12a15-untrimed.ly:28:25:26"
     id="a172"
     transform="translate(-21.191398,-12.381153)">
    <g
       transform="translate(34.5664,16.611)"
       id="g170">
      <path
         transform="scale(0.004,-0.004)"
         d="m 218,136 c 66,0 108,-36 108,-89 0,-89 -113,-183 -218,-183 -66,0 -108,36 -108,89 0,89 113,183 218,183 z"
         fill="currentColor"
         id="path168" />
    </g>
  </a>
  <g
     transform="translate(13.440002,4.2298465)"
     id="g176">
    <rect
       x="-0.064999998"
       y="0.18610001"
       width="0.13"
       height="2.5747001"
       ry="0.039999999"
       fill="currentColor"
       id="rect174" />
  </g>
  <g
     transform="translate(52.443002,4.0398465)"
     id="g180">
    <polygon
       stroke-linejoin="round"
       stroke-linecap="round"
       stroke-width="0.08"
       fill="currentColor"
       stroke="currentColor"
       points="0.04,0.2 0.04,-0.2 7.1526,-0.01 7.1526,0.39 "
       id="polygon178" />
  </g>
  <a
     style="color:inherit"
     xlink:href="textedit:///Users/philippeperret/Programmes/ScoreSuite/ScoreImage/Manuel/images/scores/partition-12a15-untrimed.ly:28:27:28"
     id="a186"
     transform="translate(-21.191398,-12.381153)">
    <g
       transform="translate(37.9206,16.111)"
       id="g184">
      <path
         transform="scale(0.004,-0.004)"
         d="m 218,136 c 66,0 108,-36 108,-89 0,-89 -113,-183 -218,-183 -66,0 -108,36 -108,89 0,89 113,183 218,183 z"
         fill="currentColor"
         id="path182" />
    </g>
  </a>
  <g
     transform="translate(16.794202,4.2298465)"
     id="g190">
    <rect
       x="-0.064999998"
       y="-0.31389999"
       width="0.13"
       height="2.7430999"
       ry="0.039999999"
       fill="currentColor"
       id="rect188" />
  </g>
  <g
     transform="translate(15.279202,3.7298465)"
     id="g194">
    <path
       transform="scale(0.004,-0.004)"
       d="m 0,119 c 0,8 5,15 13,18 l 46,17 v 158 c 0,10 8,19 18,19 10,0 19,-9 19,-19 V 167 l 83,31 v 158 c 0,10 9,19 19,19 10,0 18,-9 18,-19 V 211 l 32,12 c 2,1 5,1 7,1 11,0 20,-9 20,-20 v -60 c 0,-8 -5,-16 -13,-19 L 216,109 V -51 l 32,11 c 2,1 5,1 7,1 11,0 20,-9 20,-20 v -60 c 0,-8 -5,-15 -13,-18 l -46,-17 v -158 c 0,-10 -8,-19 -18,-19 -10,0 -19,9 -19,19 v 145 l -83,-31 v -158 c 0,-10 -9,-19 -19,-19 -10,0 -18,9 -18,19 v 145 l -32,-12 c -2,-1 -5,-1 -7,-1 -11,0 -20,9 -20,20 v 60 c 0,8 5,16 13,19 l 46,16 V 51 L 27,40 C 25,39 22,39 20,39 9,39 0,48 0,59 Z M 179,95 96,65 V -95 l 83,30 z"
       fill="currentColor"
       id="path192" />
  </g>
  <g
     transform="translate(30.454902,7.4198465)"
     id="g198">
    <polygon
       stroke-linejoin="round"
       stroke-linecap="round"
       stroke-width="0.08"
       fill="currentColor"
       stroke="currentColor"
       points="0.04,0.2 0.04,-0.2 8.1526,-0.58 8.1526,-0.18 "
       id="polygon196" />
  </g>
  <a
     style="color:inherit"
     xlink:href="textedit:///Users/philippeperret/Programmes/ScoreSuite/ScoreImage/Manuel/images/scores/partition-12a15-untrimed.ly:28:31:32"
     id="a204"
     transform="translate(-21.191398,-12.381153)">
    <g
       transform="translate(40.2748,15.611)"
       id="g202">
      <path
         transform="scale(0.004,-0.004)"
         d="m 218,136 c 66,0 108,-36 108,-89 0,-89 -113,-183 -218,-183 -66,0 -108,36 -108,89 0,89 113,183 218,183 z"
         fill="currentColor"
         id="path200" />
    </g>
  </a>
  <g
     transform="translate(19.148402,4.2298465)"
     id="g208">
    <rect
       x="-0.064999998"
       y="-0.81389999"
       width="0.13"
       height="3.0102999"
       ry="0.039999999"
       fill="currentColor"
       id="rect206" />
  </g>
  <g
     transform="translate(11.020802,7.2298465)"
     id="g212">
    <polygon
       stroke-linejoin="round"
       stroke-linecap="round"
       stroke-width="0.08"
       fill="currentColor"
       stroke="currentColor"
       points="0.04,0.2 0.04,-0.2 8.1526,-1.01 8.1526,-0.61 "
       id="polygon210" />
  </g>
  <a
     style="color:inherit"
     xlink:href="textedit:///Users/philippeperret/Programmes/ScoreSuite/ScoreImage/Manuel/images/scores/partition-12a15-untrimed.ly:28:33:34"
     id="a218"
     transform="translate(-21.191398,-12.381153)">
    <g
       transform="translate(42.629,16.111)"
       id="g216">
      <path
         transform="scale(0.004,-0.004)"
         d="m 218,136 c 66,0 108,-36 108,-89 0,-89 -113,-183 -218,-183 -66,0 -108,36 -108,89 0,89 113,183 218,183 z"
         fill="currentColor"
         id="path214" />
    </g>
  </a>
  <g
     transform="translate(21.502602,4.2298465)"
     id="g222">
    <rect
       x="-0.064999998"
       y="-0.31389999"
       width="0.13"
       height="3.3139"
       ry="0.039999999"
       fill="currentColor"
       id="rect220" />
  </g>
  <a
     style="color:inherit"
     xlink:href="textedit:///Users/philippeperret/Programmes/ScoreSuite/ScoreImage/Manuel/images/scores/partition-12a15-untrimed.ly:28:38:39"
     id="a228"
     transform="translate(-21.191398,-12.381153)">
    <g
       transform="translate(46.1021,16.111)"
       id="g226">
      <path
         transform="scale(0.004,-0.004)"
         d="m 218,136 c 66,0 108,-36 108,-89 0,-89 -113,-183 -218,-183 -66,0 -108,36 -108,89 0,89 113,183 218,183 z"
         fill="currentColor"
         id="path224" />
    </g>
  </a>
  <g
     transform="translate(24.975702,4.2298465)"
     id="g232">
    <rect
       x="-0.064999998"
       y="-0.31389999"
       width="0.13"
       height="3.3139"
       ry="0.039999999"
       fill="currentColor"
       id="rect230" />
  </g>
  <a
     style="color:inherit"
     xlink:href="textedit:///Users/philippeperret/Programmes/ScoreSuite/ScoreImage/Manuel/images/scores/partition-12a15-untrimed.ly:28:59:60"
     id="a238"
     transform="translate(-21.191398,-12.381153)">
    <g
       transform="translate(51.6463,16.611)"
       id="g236">
      <path
         transform="scale(0.004,-0.004)"
         d="m 218,136 c 66,0 108,-36 108,-89 0,-89 -113,-183 -218,-183 -66,0 -108,36 -108,89 0,89 113,183 218,183 z"
         fill="currentColor"
         id="path234" />
    </g>
  </a>
  <g
     transform="translate(2.3708023,5.2298465)"
     id="g242">
    <path
       transform="scale(0.004,-0.004)"
       d="m 266,-635 h -6 c -108,0 -195,88 -195,197 0,58 53,103 112,103 54,0 95,-47 95,-103 0,-52 -43,-95 -95,-95 -11,0 -21,2 -31,6 26,-39 68,-65 117,-65 h 4 z m 195,432 c 68,24 113,90 113,164 0,90 -66,179 -173,190 19,-89 48,-242 60,-354 z M 74,28 c 0,-145 141,-247 264,-247 1,0 47,0 82,6 -7,64 -29,203 -63,364 -79,-8 -124,-61 -124,-119 0,-44 25,-91 81,-123 5,-5 7,-10 7,-15 0,-11 -10,-22 -22,-22 -15,0 -126,62 -126,187 0,88 58,174 160,197 -14,58 -29,117 -46,175 C 180,310 74,188 74,28 Z m 176,525 c -29,96 -52,170 -52,346 0,115 55,224 149,292 6,5 14,5 20,0 68,-80 133,-245 133,-358 0,-143 -86,-255 -180,-364 21,-68 39,-138 56,-207 2,0 7,1 13,1 155,0 256,-128 256,-261 0,-113 -74,-212 -180,-246 3,-35 5,-70 5,-105 0,-19 -1,-39 -2,-58 -7,-119 -88,-225 -202,-228 l 1,43 c 93,2 153,92 159,191 1,18 2,37 2,55 0,31 -1,61 -4,92 -5,-1 -44,-8 -89,-8 C 142,-262 2,-82 2,112 2,289 133,418 250,553 Z m 178,363 c 0,34 1,66 -20,129 -99,-48 -162,-149 -162,-259 0,-52 12,-115 36,-194 80,97 146,198 146,324 z"
       fill="currentColor"
       id="path240" />
  </g>
  <a
     style="color:inherit"
     xlink:href="textedit:///Users/philippeperret/Programmes/ScoreSuite/ScoreImage/Manuel/images/scores/partition-12a15-untrimed.ly:34:51:52"
     id="a248"
     transform="translate(-21.191398,-12.381153)">
    <g
       transform="translate(51.6463,26.611)"
       id="g246">
      <path
         transform="scale(0.004,-0.004)"
         d="m 213,112 c -45,0 -69,-34 -69,-88 0,-102 89,-136 134,-136 45,0 69,34 69,88 0,102 -89,136 -134,136 z m 32,24 C 389,136 491,71 491,0 491,-71 389,-136 245,-136 101,-136 0,-71 0,0 0,71 101,136 245,136 Z"
         fill="currentColor"
         id="path244" />
    </g>
  </a>
  <a
     style="color:inherit"
     xlink:href="textedit:///Users/philippeperret/Programmes/ScoreSuite/ScoreImage/Manuel/images/scores/partition-12a15-untrimed.ly:34:54:55"
     id="a254"
     transform="translate(-21.191398,-12.381153)">
    <g
       transform="translate(51.6463,25.611)"
       id="g252">
      <path
         transform="scale(0.004,-0.004)"
         d="m 213,112 c -45,0 -69,-34 -69,-88 0,-102 89,-136 134,-136 45,0 69,34 69,88 0,102 -89,136 -134,136 z m 32,24 C 389,136 491,71 491,0 491,-71 389,-136 245,-136 101,-136 0,-71 0,0 0,71 101,136 245,136 Z"
         fill="currentColor"
         id="path250" />
    </g>
  </a>
  <a
     style="color:inherit"
     xlink:href="textedit:///Users/philippeperret/Programmes/ScoreSuite/ScoreImage/Manuel/images/scores/partition-12a15-untrimed.ly:34:56:57"
     id="a260"
     transform="translate(-21.191398,-12.381153)">
    <g
       transform="translate(51.6463,24.611)"
       id="g258">
      <path
         transform="scale(0.004,-0.004)"
         d="m 213,112 c -45,0 -69,-34 -69,-88 0,-102 89,-136 134,-136 45,0 69,34 69,88 0,102 -89,136 -134,136 z m 32,24 C 389,136 491,71 491,0 491,-71 389,-136 245,-136 101,-136 0,-71 0,0 0,71 101,136 245,136 Z"
         fill="currentColor"
         id="path256" />
    </g>
  </a>
  <g
     transform="translate(30.519902,4.2298465)"
     id="g264">
    <rect
       x="-0.064999998"
       y="0.18610001"
       width="0.13"
       height="3.0009"
       ry="0.039999999"
       fill="currentColor"
       id="rect262" />
  </g>
  <g
     transform="translate(29.004902,12.229847)"
     id="g268">
    <path
       transform="scale(0.004,-0.004)"
       d="m 0,119 c 0,8 5,15 13,18 l 46,17 v 158 c 0,10 8,19 18,19 10,0 19,-9 19,-19 V 167 l 83,31 v 158 c 0,10 9,19 19,19 10,0 18,-9 18,-19 V 211 l 32,12 c 2,1 5,1 7,1 11,0 20,-9 20,-20 v -60 c 0,-8 -5,-16 -13,-19 L 216,109 V -51 l 32,11 c 2,1 5,1 7,1 11,0 20,-9 20,-20 v -60 c 0,-8 -5,-15 -13,-18 l -46,-17 v -158 c 0,-10 -8,-19 -18,-19 -10,0 -19,9 -19,19 v 145 l -83,-31 v -158 c 0,-10 -9,-19 -19,-19 -10,0 -18,9 -18,19 v 145 l -32,-12 c -2,-1 -5,-1 -7,-1 -11,0 -20,9 -20,20 v 60 c 0,8 5,16 13,19 l 46,16 V 51 L 27,40 C 25,39 22,39 20,39 9,39 0,48 0,59 Z M 179,95 96,65 V -95 l 83,30 z"
       fill="currentColor"
       id="path266" />
  </g>
  <a
     style="color:inherit"
     xlink:href="textedit:///Users/philippeperret/Programmes/ScoreSuite/ScoreImage/Manuel/images/scores/partition-12a15-untrimed.ly:28:21:22"
     id="a274"
     transform="translate(-21.191398,-12.381153)">
    <g
       transform="translate(32.2122,17.111)"
       id="g272">
      <path
         transform="scale(0.004,-0.004)"
         d="m 218,136 c 66,0 108,-36 108,-89 0,-89 -113,-183 -218,-183 -66,0 -108,36 -108,89 0,89 113,183 218,183 z"
         fill="currentColor"
         id="path270" />
    </g>
  </a>
  <a
     style="color:inherit"
     xlink:href="textedit:///Users/philippeperret/Programmes/ScoreSuite/ScoreImage/Manuel/images/scores/partition-12a15-untrimed.ly:28:63:64"
     id="a280"
     transform="translate(-21.191398,-12.381153)">
    <g
       transform="translate(55.0005,16.111)"
       id="g278">
      <path
         transform="scale(0.004,-0.004)"
         d="m 218,136 c 66,0 108,-36 108,-89 0,-89 -113,-183 -218,-183 -66,0 -108,36 -108,89 0,89 113,183 218,183 z"
         fill="currentColor"
         id="path276" />
    </g>
  </a>
  <g
     transform="translate(33.874102,4.2298465)"
     id="g284">
    <rect
       x="-0.064999998"
       y="-0.31389999"
       width="0.13"
       height="3.3453"
       ry="0.039999999"
       fill="currentColor"
       id="rect282" />
  </g>
  <g
     transform="translate(32.359102,3.7298465)"
     id="g288">
    <path
       transform="scale(0.004,-0.004)"
       d="m 0,119 c 0,8 5,15 13,18 l 46,17 v 158 c 0,10 8,19 18,19 10,0 19,-9 19,-19 V 167 l 83,31 v 158 c 0,10 9,19 19,19 10,0 18,-9 18,-19 V 211 l 32,12 c 2,1 5,1 7,1 11,0 20,-9 20,-20 v -60 c 0,-8 -5,-16 -13,-19 L 216,109 V -51 l 32,11 c 2,1 5,1 7,1 11,0 20,-9 20,-20 v -60 c 0,-8 -5,-15 -13,-18 l -46,-17 v -158 c 0,-10 -8,-19 -18,-19 -10,0 -19,9 -19,19 v 145 l -83,-31 v -158 c 0,-10 -9,-19 -19,-19 -10,0 -18,9 -18,19 v 145 l -32,-12 c -2,-1 -5,-1 -7,-1 -11,0 -20,9 -20,20 v 60 c 0,8 5,16 13,19 l 46,16 V 51 L 27,40 C 25,39 22,39 20,39 9,39 0,48 0,59 Z M 179,95 96,65 V -95 l 83,30 z"
       fill="currentColor"
       id="path286" />
  </g>
  <a
     style="color:inherit"
     xlink:href="textedit:///Users/philippeperret/Programmes/ScoreSuite/ScoreImage/Manuel/images/scores/partition-12a15-untrimed.ly:28:67:68"
     id="a294"
     transform="translate(-21.191398,-12.381153)">
    <g
       transform="translate(57.3547,15.611)"
       id="g292">
      <path
         transform="scale(0.004,-0.004)"
         d="m 218,136 c 66,0 108,-36 108,-89 0,-89 -113,-183 -218,-183 -66,0 -108,36 -108,89 0,89 113,183 218,183 z"
         fill="currentColor"
         id="path290" />
    </g>
  </a>
  <g
     transform="translate(36.228302,4.2298465)"
     id="g298">
    <rect
       x="-0.064999998"
       y="-0.81389999"
       width="0.13"
       height="3.7361"
       ry="0.039999999"
       fill="currentColor"
       id="rect296" />
  </g>
  <a
     style="color:inherit"
     xlink:href="textedit:///Users/philippeperret/Programmes/ScoreSuite/ScoreImage/Manuel/images/scores/partition-12a15-untrimed.ly:28:69:70"
     id="a304"
     transform="translate(-21.191398,-12.381153)">
    <g
       transform="translate(59.7089,16.111)"
       id="g302">
      <path
         transform="scale(0.004,-0.004)"
         d="m 218,136 c 66,0 108,-36 108,-89 0,-89 -113,-183 -218,-183 -66,0 -108,36 -108,89 0,89 113,183 218,183 z"
         fill="currentColor"
         id="path300" />
    </g>
  </a>
  <g
     transform="translate(38.582502,4.2298465)"
     id="g308">
    <rect
       x="-0.064999998"
       y="-0.31389999"
       width="0.13"
       height="3.1269"
       ry="0.039999999"
       fill="currentColor"
       id="rect306" />
  </g>
  <a
     style="color:inherit"
     xlink:href="textedit:///Users/philippeperret/Programmes/ScoreSuite/ScoreImage/Manuel/images/scores/partition-12a15-untrimed.ly:28:73:74"
     id="a314"
     transform="translate(-21.191398,-12.381153)">
    <g
       transform="translate(62.0631,16.611)"
       id="g312">
      <path
         transform="scale(0.004,-0.004)"
         d="m 218,136 c 66,0 108,-36 108,-89 0,-89 -113,-183 -218,-183 -66,0 -108,36 -108,89 0,89 113,183 218,183 z"
         fill="currentColor"
         id="path310" />
    </g>
  </a>
  <g
     transform="translate(40.936702,4.2298465)"
     id="g318">
    <rect
       x="-0.064999998"
       y="0.18610001"
       width="0.13"
       height="3.1472001"
       ry="0.039999999"
       fill="currentColor"
       id="rect316" />
  </g>
  <a
     style="color:inherit"
     xlink:href="textedit:///Users/philippeperret/Programmes/ScoreSuite/ScoreImage/Manuel/images/scores/partition-12a15-untrimed.ly:28:76:77"
     id="a324"
     transform="translate(-21.191398,-12.381153)">
    <g
       transform="translate(65.5179,17.111)"
       id="g322">
      <path
         transform="scale(0.004,-0.004)"
         d="m 218,136 c 66,0 108,-36 108,-89 0,-89 -113,-183 -218,-183 -66,0 -108,36 -108,89 0,89 113,183 218,183 z"
         fill="currentColor"
         id="path320" />
    </g>
  </a>
  <g
     transform="translate(45.565702,4.2298465)"
     id="g328">
    <rect
       x="-0.064999998"
       y="-3"
       width="0.13"
       height="3.3139"
       ry="0.039999999"
       fill="currentColor"
       id="rect326" />
  </g>
  <a
     style="color:inherit"
     xlink:href="textedit:///Users/philippeperret/Programmes/ScoreSuite/ScoreImage/Manuel/images/scores/partition-12a15-untrimed.ly:28:95:96"
     id="a334"
     transform="translate(-21.191398,-12.381153)">
    <g
       transform="translate(72.4602,19.611)"
       id="g332">
      <path
         transform="scale(0.004,-0.004)"
         d="m 218,136 c 66,0 108,-36 108,-89 0,-89 -113,-183 -218,-183 -66,0 -108,36 -108,89 0,89 113,183 218,183 z"
         fill="currentColor"
         id="path330" />
    </g>
  </a>
  <a
     style="color:inherit"
     xlink:href="textedit:///Users/philippeperret/Programmes/ScoreSuite/ScoreImage/Manuel/images/scores/partition-12a15-untrimed.ly:34:80:81"
     id="a340"
     transform="translate(-21.191398,-12.381153)">
    <g
       transform="translate(72.4602,26.111)"
       id="g338">
      <path
         transform="scale(0.004,-0.004)"
         d="m 213,112 c -45,0 -69,-34 -69,-88 0,-102 89,-136 134,-136 45,0 69,34 69,88 0,102 -89,136 -134,136 z m 32,24 C 389,136 491,71 491,0 491,-71 389,-136 245,-136 101,-136 0,-71 0,0 0,71 101,136 245,136 Z"
         fill="currentColor"
         id="path336" />
    </g>
  </a>
  <a
     style="color:inherit"
     xlink:href="textedit:///Users/philippeperret/Programmes/ScoreSuite/ScoreImage/Manuel/images/scores/partition-12a15-untrimed.ly:34:85:86"
     id="a346"
     transform="translate(-21.191398,-12.381153)">
    <g
       transform="translate(72.4602,25.111)"
       id="g344">
      <path
         transform="scale(0.004,-0.004)"
         d="m 213,112 c -45,0 -69,-34 -69,-88 0,-102 89,-136 134,-136 45,0 69,34 69,88 0,102 -89,136 -134,136 z m 32,24 C 389,136 491,71 491,0 491,-71 389,-136 245,-136 101,-136 0,-71 0,0 0,71 101,136 245,136 Z"
         fill="currentColor"
         id="path342" />
    </g>
  </a>
  <a
     style="color:inherit"
     xlink:href="textedit:///Users/philippeperret/Programmes/ScoreSuite/ScoreImage/Manuel/images/scores/partition-12a15-untrimed.ly:34:87:88"
     id="a352"
     transform="translate(-21.191398,-12.381153)">
    <g
       transform="translate(72.4602,24.111)"
       id="g350">
      <path
         transform="scale(0.004,-0.004)"
         d="m 213,112 c -45,0 -69,-34 -69,-88 0,-102 89,-136 134,-136 45,0 69,34 69,88 0,102 -89,136 -134,136 z m 32,24 C 389,136 491,71 491,0 491,-71 389,-136 245,-136 101,-136 0,-71 0,0 0,71 101,136 245,136 Z"
         fill="currentColor"
         id="path348" />
    </g>
  </a>
  <g
     transform="translate(52.508002,4.2298465)"
     id="g356">
    <rect
       x="-0.064999998"
       y="-0.1883"
       width="0.13"
       height="3.0021999"
       ry="0.039999999"
       fill="currentColor"
       id="rect354" />
  </g>
  <g
     transform="translate(49.818802,7.2298465)"
     id="g360">
    <path
       transform="scale(0.004,-0.004)"
       d="m 0,119 c 0,8 5,15 13,18 l 46,17 v 158 c 0,10 8,19 18,19 10,0 19,-9 19,-19 V 167 l 83,31 v 158 c 0,10 9,19 19,19 10,0 18,-9 18,-19 V 211 l 32,12 c 2,1 5,1 7,1 11,0 20,-9 20,-20 v -60 c 0,-8 -5,-16 -13,-19 L 216,109 V -51 l 32,11 c 2,1 5,1 7,1 11,0 20,-9 20,-20 v -60 c 0,-8 -5,-15 -13,-18 l -46,-17 v -158 c 0,-10 -8,-19 -18,-19 -10,0 -19,9 -19,19 v 145 l -83,-31 v -158 c 0,-10 -9,-19 -19,-19 -10,0 -18,9 -18,19 v 145 l -32,-12 c -2,-1 -5,-1 -7,-1 -11,0 -20,9 -20,20 v 60 c 0,8 5,16 13,19 l 46,16 V 51 L 27,40 C 25,39 22,39 20,39 9,39 0,48 0,59 Z M 179,95 96,65 V -95 l 83,30 z"
       fill="currentColor"
       id="path358" />
  </g>
  <g
     transform="translate(48.754802,13.729847)"
     id="g364">
    <path
       transform="scale(0.004,-0.004)"
       d="m 0,119 c 0,8 5,15 13,18 l 46,17 v 158 c 0,10 8,19 18,19 10,0 19,-9 19,-19 V 167 l 83,31 v 158 c 0,10 9,19 19,19 10,0 18,-9 18,-19 V 211 l 32,12 c 2,1 5,1 7,1 11,0 20,-9 20,-20 v -60 c 0,-8 -5,-16 -13,-19 L 216,109 V -51 l 32,11 c 2,1 5,1 7,1 11,0 20,-9 20,-20 v -60 c 0,-8 -5,-15 -13,-18 l -46,-17 v -158 c 0,-10 -8,-19 -18,-19 -10,0 -19,9 -19,19 v 145 l -83,-31 v -158 c 0,-10 -9,-19 -19,-19 -10,0 -18,9 -18,19 v 145 l -32,-12 c -2,-1 -5,-1 -7,-1 -11,0 -20,9 -20,20 v 60 c 0,8 5,16 13,19 l 46,16 V 51 L 27,40 C 25,39 22,39 20,39 9,39 0,48 0,59 Z M 179,95 96,65 V -95 l 83,30 z"
       fill="currentColor"
       id="path362" />
  </g>
  <g
     transform="translate(49.818802,11.729847)"
     id="g368">
    <path
       transform="scale(0.004,-0.004)"
       d="m 0,119 c 0,8 5,15 13,18 l 46,17 v 158 c 0,10 8,19 18,19 10,0 19,-9 19,-19 V 167 l 83,31 v 158 c 0,10 9,19 19,19 10,0 18,-9 18,-19 V 211 l 32,12 c 2,1 5,1 7,1 11,0 20,-9 20,-20 v -60 c 0,-8 -5,-16 -13,-19 L 216,109 V -51 l 32,11 c 2,1 5,1 7,1 11,0 20,-9 20,-20 v -60 c 0,-8 -5,-15 -13,-18 l -46,-17 v -158 c 0,-10 -8,-19 -18,-19 -10,0 -19,9 -19,19 v 145 l -83,-31 v -158 c 0,-10 -9,-19 -19,-19 -10,0 -18,9 -18,19 v 145 l -32,-12 c -2,-1 -5,-1 -7,-1 -11,0 -20,9 -20,20 v 60 c 0,8 5,16 13,19 l 46,16 V 51 L 27,40 C 25,39 22,39 20,39 9,39 0,48 0,59 Z M 179,95 96,65 V -95 l 83,30 z"
       fill="currentColor"
       id="path366" />
  </g>
  <a
     style="color:inherit"
     xlink:href="textedit:///Users/philippeperret/Programmes/ScoreSuite/ScoreImage/Manuel/images/scores/partition-12a15-untrimed.ly:28:100:101"
     id="a374"
     transform="translate(-21.191398,-12.381153)">
    <g
       transform="translate(74.8144,19.111)"
       id="g372">
      <path
         transform="scale(0.004,-0.004)"
         d="m 218,136 c 66,0 108,-36 108,-89 0,-89 -113,-183 -218,-183 -66,0 -108,36 -108,89 0,89 113,183 218,183 z"
         fill="currentColor"
         id="path370" />
    </g>
  </a>
  <g
     transform="translate(54.862202,4.2298465)"
     id="g378">
    <rect
       x="-0.064999998"
       y="-0.1261"
       width="0.13"
       height="2.4400001"
       ry="0.039999999"
       fill="currentColor"
       id="rect376" />
  </g>
  <a
     style="color:inherit"
     xlink:href="textedit:///Users/philippeperret/Programmes/ScoreSuite/ScoreImage/Manuel/images/scores/partition-12a15-untrimed.ly:28:102:103"
     id="a384"
     transform="translate(-21.191398,-12.381153)">
    <g
       transform="translate(77.1686,19.611)"
       id="g382">
      <path
         transform="scale(0.004,-0.004)"
         d="m 218,136 c 66,0 108,-36 108,-89 0,-89 -113,-183 -218,-183 -66,0 -108,36 -108,89 0,89 113,183 218,183 z"
         fill="currentColor"
         id="path380" />
    </g>
  </a>
  <g
     transform="translate(57.216502,4.2298465)"
     id="g388">
    <rect
       x="-0.064999998"
       y="-0.063900001"
       width="0.13"
       height="2.8778"
       ry="0.039999999"
       fill="currentColor"
       id="rect386" />
  </g>
  <a
     style="color:inherit"
     xlink:href="textedit:///Users/philippeperret/Programmes/ScoreSuite/ScoreImage/Manuel/images/scores/partition-12a15-untrimed.ly:28:106:107"
     id="a394"
     transform="translate(-21.191398,-12.381153)">
    <g
       transform="translate(79.5229,20.111)"
       id="g392">
      <path
         transform="scale(0.004,-0.004)"
         d="m 218,136 c 66,0 108,-36 108,-89 0,-89 -113,-183 -218,-183 -66,0 -108,36 -108,89 0,89 113,183 218,183 z"
         fill="currentColor"
         id="path390" />
    </g>
  </a>
  <g
     transform="translate(59.570702,4.2298465)"
     id="g398">
    <rect
       x="-0.064999998"
       y="-0.0017"
       width="0.13"
       height="3.3155999"
       ry="0.039999999"
       fill="currentColor"
       id="rect396" />
  </g>
  <a
     style="color:inherit"
     xlink:href="textedit:///Users/philippeperret/Programmes/ScoreSuite/ScoreImage/Manuel/images/scores/partition-12a15-untrimed.ly:28:108:109"
     id="a404"
     transform="translate(-21.191398,-12.381153)">
    <g
       transform="translate(81.8771,20.611)"
       id="g402">
      <path
         transform="scale(0.004,-0.004)"
         d="m 218,136 c 66,0 108,-36 108,-89 0,-89 -113,-183 -218,-183 -66,0 -108,36 -108,89 0,89 113,183 218,183 z"
         fill="currentColor"
         id="path400" />
    </g>
  </a>
  <g
     transform="translate(61.924902,4.2298465)"
     id="g408">
    <rect
       x="-0.064999998"
       y="0"
       width="0.13"
       height="3.8139"
       ry="0.039999999"
       fill="currentColor"
       id="rect406" />
  </g>
  <a
     style="color:inherit"
     xlink:href="textedit:///Users/philippeperret/Programmes/ScoreSuite/ScoreImage/Manuel/images/scores/partition-12a15-untrimed.ly:28:111:112"
     id="a414"
     transform="translate(-21.191398,-12.381153)">
    <g
       transform="translate(85.3501,21.111)"
       id="g412">
      <path
         transform="scale(0.004,-0.004)"
         d="m 218,136 c 66,0 108,-36 108,-89 0,-89 -113,-183 -218,-183 -66,0 -108,36 -108,89 0,89 113,183 218,183 z"
         fill="currentColor"
         id="path410" />
    </g>
  </a>
  <g
     transform="translate(65.397902,4.2298465)"
     id="g418">
    <rect
       x="-0.064999998"
       y="0"
       width="0.13"
       height="4.3139"
       ry="0.039999999"
       fill="currentColor"
       id="rect416" />
  </g>
  <a
     style="color:inherit"
     xlink:href="textedit:///Users/philippeperret/Programmes/ScoreSuite/ScoreImage/Manuel/images/scores/partition-12a15-untrimed.ly:28:130:131"
     id="a424"
     transform="translate(-21.191398,-12.381153)">
    <g
       transform="translate(91.2096,19.111)"
       id="g422">
      <path
         transform="scale(0.004,-0.004)"
         d="m 218,136 c 66,0 108,-36 108,-89 0,-89 -113,-183 -218,-183 -66,0 -108,36 -108,89 0,89 113,183 218,183 z"
         fill="currentColor"
         id="path420" />
    </g>
  </a>
  <a
     style="color:inherit"
     xlink:href="textedit:///Users/philippeperret/Programmes/ScoreSuite/ScoreImage/Manuel/images/scores/partition-12a15-untrimed.ly:34:111:112"
     id="a430"
     transform="translate(-21.191398,-12.381153)">
    <g
       transform="translate(91.2096,25.611)"
       id="g428">
      <path
         transform="scale(0.004,-0.004)"
         d="m 213,112 c -45,0 -69,-34 -69,-88 0,-102 89,-136 134,-136 45,0 69,34 69,88 0,102 -89,136 -134,136 z m 32,24 C 389,136 491,71 491,0 491,-71 389,-136 245,-136 101,-136 0,-71 0,0 0,71 101,136 245,136 Z"
         fill="currentColor"
         id="path426" />
    </g>
  </a>
  <a
     style="color:inherit"
     xlink:href="textedit:///Users/philippeperret/Programmes/ScoreSuite/ScoreImage/Manuel/images/scores/partition-12a15-untrimed.ly:34:114:115"
     id="a436"
     transform="translate(-21.191398,-12.381153)">
    <g
       transform="translate(91.2096,24.611)"
       id="g434">
      <path
         transform="scale(0.004,-0.004)"
         d="m 213,112 c -45,0 -69,-34 -69,-88 0,-102 89,-136 134,-136 45,0 69,34 69,88 0,102 -89,136 -134,136 z m 32,24 C 389,136 491,71 491,0 491,-71 389,-136 245,-136 101,-136 0,-71 0,0 0,71 101,136 245,136 Z"
         fill="currentColor"
         id="path432" />
    </g>
  </a>
  <a
     style="color:inherit"
     xlink:href="textedit:///Users/philippeperret/Programmes/ScoreSuite/ScoreImage/Manuel/images/scores/partition-12a15-untrimed.ly:34:118:119"
     id="a442"
     transform="translate(-21.191398,-12.381153)">
    <g
       transform="translate(91.2096,23.611)"
       id="g440">
      <path
         transform="scale(0.004,-0.004)"
         d="m 213,112 c -45,0 -69,-34 -69,-88 0,-102 89,-136 134,-136 45,0 69,34 69,88 0,102 -89,136 -134,136 z m 32,24 C 389,136 491,71 491,0 491,-71 389,-136 245,-136 101,-136 0,-71 0,0 0,71 101,136 245,136 Z"
         fill="currentColor"
         id="path438" />
    </g>
  </a>
  <g
     transform="translate(1.5108023,8.7298465)"
     id="g446">
    <rect
       x="0"
       y="-6.5500002"
       width="0.16"
       height="13.1"
       ry="0.050000001"
       fill="currentColor"
       id="rect444" />
  </g>
  <g
     transform="translate(71.257402,4.2298465)"
     id="g450">
    <rect
       x="-0.064999998"
       y="-1.0064"
       width="0.13"
       height="3.3203001"
       ry="0.039999999"
       fill="currentColor"
       id="rect448" />
  </g>
  <g
     transform="translate(68.568202,12.229847)"
     id="g454">
    <path
       transform="scale(0.004,-0.004)"
       d="m 0,119 c 0,8 5,15 13,18 l 46,17 v 158 c 0,10 8,19 18,19 10,0 19,-9 19,-19 V 167 l 83,31 v 158 c 0,10 9,19 19,19 10,0 18,-9 18,-19 V 211 l 32,12 c 2,1 5,1 7,1 11,0 20,-9 20,-20 v -60 c 0,-8 -5,-16 -13,-19 L 216,109 V -51 l 32,11 c 2,1 5,1 7,1 11,0 20,-9 20,-20 v -60 c 0,-8 -5,-15 -13,-18 l -46,-17 v -158 c 0,-10 -8,-19 -18,-19 -10,0 -19,9 -19,19 v 145 l -83,-31 v -158 c 0,-10 -9,-19 -19,-19 -10,0 -18,9 -18,19 v 145 l -32,-12 c -2,-1 -5,-1 -7,-1 -11,0 -20,9 -20,20 v 60 c 0,8 5,16 13,19 l 46,16 V 51 L 27,40 C 25,39 22,39 20,39 9,39 0,48 0,59 Z M 179,95 96,65 V -95 l 83,30 z"
       fill="currentColor"
       id="path452" />
  </g>
  <g
     transform="translate(1.2108023,8.7298465)"
     id="g458">
    <path
       transform="scale(0.004,-0.004)"
       d="m -81,-366 c 0,255 -132,363 -132,366 0,18 132,96 132,366 0,261 -108,489 -108,780 0,189 45,366 177,501 15,15 39,-9 24,-24 -99,-99 -129,-225 -129,-360 0,-255 102,-480 102,-765 0,-186 -45,-363 -174,-498 129,-135 174,-312 174,-498 0,-285 -102,-510 -102,-765 0,-135 30,-261 129,-360 15,-15 -9,-39 -24,-24 -132,135 -177,312 -177,501 0,291 108,519 108,780 z"
       fill="currentColor"
       id="path456" />
  </g>
  <g
     transform="translate(85.147302,4.2298465)"
     id="g462">
    <rect
       x="-0.064999998"
       y="-2"
       width="0.13"
       height="3.3139"
       ry="0.039999999"
       fill="currentColor"
       id="rect460" />
  </g>
  <a
     style="color:inherit"
     xlink:href="textedit:///Users/philippeperret/Programmes/ScoreSuite/ScoreImage/Manuel/images/scores/partition-12a15-untrimed.ly:28:133:134"
     id="a468"
     transform="translate(-21.191398,-12.381153)">
    <g
       transform="translate(93.5638,18.611)"
       id="g466">
      <path
         transform="scale(0.004,-0.004)"
         d="m 218,136 c 66,0 108,-36 108,-89 0,-89 -113,-183 -218,-183 -66,0 -108,36 -108,89 0,89 113,183 218,183 z"
         fill="currentColor"
         id="path464" />
    </g>
  </a>
  <g
     transform="translate(73.611602,4.2298465)"
     id="g472">
    <rect
       x="-0.064999998"
       y="-1.2392"
       width="0.13"
       height="3.0531001"
       ry="0.039999999"
       fill="currentColor"
       id="rect470" />
  </g>
  <a
     style="color:inherit"
     xlink:href="textedit:///Users/philippeperret/Programmes/ScoreSuite/ScoreImage/Manuel/images/scores/partition-12a15-untrimed.ly:28:146:147"
     id="a478"
     transform="translate(-21.191398,-12.381153)">
    <g
       transform="translate(105.0995,18.111)"
       id="g476">
      <path
         transform="scale(0.004,-0.004)"
         d="m 218,136 c 66,0 108,-36 108,-89 0,-89 -113,-183 -218,-183 -66,0 -108,36 -108,89 0,89 113,183 218,183 z"
         fill="currentColor"
         id="path474" />
    </g>
  </a>
  <a
     style="color:inherit"
     xlink:href="textedit:///Users/philippeperret/Programmes/ScoreSuite/ScoreImage/Manuel/images/scores/partition-12a15-untrimed.ly:28:135:136"
     id="a484"
     transform="translate(-21.191398,-12.381153)">
    <g
       transform="translate(96.918,18.111)"
       id="g482">
      <path
         transform="scale(0.004,-0.004)"
         d="m 218,136 c 66,0 108,-36 108,-89 0,-89 -113,-183 -218,-183 -66,0 -108,36 -108,89 0,89 113,183 218,183 z"
         fill="currentColor"
         id="path480" />
    </g>
  </a>
  <g
     transform="translate(76.965802,4.2298465)"
     id="g488">
    <rect
       x="-0.064999998"
       y="-1.5707999"
       width="0.13"
       height="2.8847001"
       ry="0.039999999"
       fill="currentColor"
       id="rect486" />
  </g>
  <g
     transform="translate(74.276602,5.7298465)"
     id="g492">
    <path
       transform="scale(0.004,-0.004)"
       d="m 0,119 c 0,8 5,15 13,18 l 46,17 v 158 c 0,10 8,19 18,19 10,0 19,-9 19,-19 V 167 l 83,31 v 158 c 0,10 9,19 19,19 10,0 18,-9 18,-19 V 211 l 32,12 c 2,1 5,1 7,1 11,0 20,-9 20,-20 v -60 c 0,-8 -5,-16 -13,-19 L 216,109 V -51 l 32,11 c 2,1 5,1 7,1 11,0 20,-9 20,-20 v -60 c 0,-8 -5,-15 -13,-18 l -46,-17 v -158 c 0,-10 -8,-19 -18,-19 -10,0 -19,9 -19,19 v 145 l -83,-31 v -158 c 0,-10 -9,-19 -19,-19 -10,0 -18,9 -18,19 v 145 l -32,-12 c -2,-1 -5,-1 -7,-1 -11,0 -20,9 -20,20 v 60 c 0,8 5,16 13,19 l 46,16 V 51 L 27,40 C 25,39 22,39 20,39 9,39 0,48 0,59 Z M 179,95 96,65 V -95 l 83,30 z"
       fill="currentColor"
       id="path490" />
  </g>
  <a
     style="color:inherit"
     xlink:href="textedit:///Users/philippeperret/Programmes/ScoreSuite/ScoreImage/Manuel/images/scores/partition-12a15-untrimed.ly:28:139:140"
     id="a498"
     transform="translate(-21.191398,-12.381153)">
    <g
       transform="translate(99.2722,17.611)"
       id="g496">
      <path
         transform="scale(0.004,-0.004)"
         d="m 218,136 c 66,0 108,-36 108,-89 0,-89 -113,-183 -218,-183 -66,0 -108,36 -108,89 0,89 113,183 218,183 z"
         fill="currentColor"
         id="path494" />
    </g>
  </a>
  <g
     transform="translate(79.320002,4.2298465)"
     id="g502">
    <rect
       x="-0.064999998"
       y="-1.8036"
       width="0.13"
       height="2.6175001"
       ry="0.039999999"
       fill="currentColor"
       id="rect500" />
  </g>
  <a
     style="color:inherit"
     xlink:href="textedit:///Users/philippeperret/Programmes/ScoreSuite/ScoreImage/Manuel/images/scores/partition-12a15-untrimed.ly:28:141:142"
     id="a508"
     transform="translate(-21.191398,-12.381153)">
    <g
       transform="translate(101.6264,18.111)"
       id="g506">
      <path
         transform="scale(0.004,-0.004)"
         d="m 218,136 c 66,0 108,-36 108,-89 0,-89 -113,-183 -218,-183 -66,0 -108,36 -108,89 0,89 113,183 218,183 z"
         fill="currentColor"
         id="path504" />
    </g>
  </a>
  <g
     transform="translate(81.674202,4.2298465)"
     id="g512">
    <rect
       x="-0.064999998"
       y="-2"
       width="0.13"
       height="3.3139"
       ry="0.039999999"
       fill="currentColor"
       id="rect510" />
  </g>
</svg>
