<?xml version="1.0" encoding="UTF-8" standalone="no"?>
<svg
   version="1.2"
   width="63.911385mm"
   height="11.591145mm"
   viewBox="0 0 36.369099 6.5960008"
   id="svg204"
   xmlns="http://www.w3.org/2000/svg"
   xmlns:svg="http://www.w3.org/2000/svg">
  <defs
     id="defs208" />
  <style
     type="text/css"
     id="style2"><![CDATA[
tspan { white-space: pre; }
]]></style>
  <g
     transform="translate(0,5.052)"
     id="g6">
    <rect
       x="33.538898"
       y="-0.1"
       width="1.9563"
       height="0.2"
       ry="0.1"
       fill="currentColor"
       id="rect4" />
  </g>
  <g
     transform="translate(0,5.052)"
     id="g10">
    <rect
       x="31.034599"
       y="-0.1"
       width="1.9563"
       height="0.2"
       ry="0.1"
       fill="currentColor"
       id="rect8" />
  </g>
  <g
     transform="translate(0,5.052)"
     id="g14">
    <rect
       x="28.530399"
       y="-0.1"
       width="1.9563"
       height="0.2"
       ry="0.1"
       fill="currentColor"
       id="rect12" />
  </g>
  <g
     transform="translate(0,6.052)"
     id="g18">
    <rect
       x="28.530399"
       y="-0.1"
       width="1.9563"
       height="0.2"
       ry="0.1"
       fill="currentColor"
       id="rect16" />
  </g>
  <g
     transform="translate(0,5.052)"
     id="g22">
    <rect
       x="26.276199"
       y="-0.1"
       width="1.9563"
       height="0.2"
       ry="0.1"
       fill="currentColor"
       id="rect20" />
  </g>
  <g
     transform="translate(0,5.052)"
     id="g26">
    <rect
       x="22.503401"
       y="-0.1"
       width="1.9563"
       height="0.2"
       ry="0.1"
       fill="currentColor"
       id="rect24" />
  </g>
  <g
     transform="translate(0,5.052)"
     id="g30">
    <rect
       x="19.999201"
       y="-0.1"
       width="1.9563"
       height="0.2"
       ry="0.1"
       fill="currentColor"
       id="rect28" />
  </g>
  <g
     transform="translate(0,6.052)"
     id="g34">
    <rect
       x="19.999201"
       y="-0.1"
       width="1.9563"
       height="0.2"
       ry="0.1"
       fill="currentColor"
       id="rect32" />
  </g>
  <g
     transform="translate(0,5.052)"
     id="g38">
    <rect
       x="17.745001"
       y="-0.1"
       width="1.9563"
       height="0.2"
       ry="0.1"
       fill="currentColor"
       id="rect36" />
  </g>
  <g
     transform="translate(0,5.052)"
     id="g42">
    <rect
       x="15.2408"
       y="-0.1"
       width="1.9563"
       height="0.2"
       ry="0.1"
       fill="currentColor"
       id="rect40" />
  </g>
  <g
     transform="translate(0,5.052)"
     id="g46">
    <rect
       x="12.7366"
       y="-0.1"
       width="1.9563"
       height="0.2"
       ry="0.1"
       fill="currentColor"
       id="rect44" />
  </g>
  <g
     transform="translate(0,6.052)"
     id="g50">
    <rect
       x="12.7366"
       y="-0.1"
       width="1.9563"
       height="0.2"
       ry="0.1"
       fill="currentColor"
       id="rect48" />
  </g>
  <g
     transform="translate(0,5.052)"
     id="g54">
    <rect
       x="10.4824"
       y="-0.1"
       width="1.9563"
       height="0.2"
       ry="0.1"
       fill="currentColor"
       id="rect52" />
  </g>
  <g
     transform="translate(0,5.052)"
     id="g58">
    <rect
       x="7.9782"
       y="-0.1"
       width="1.9563"
       height="0.2"
       ry="0.1"
       fill="currentColor"
       id="rect56" />
  </g>
  <g
     transform="translate(0,5.052)"
     id="g62">
    <rect
       x="5.4738998"
       y="-0.1"
       width="1.9563"
       height="0.2"
       ry="0.1"
       fill="currentColor"
       id="rect60" />
  </g>
  <g
     transform="translate(0,6.052)"
     id="g66">
    <rect
       x="5.4738998"
       y="-0.1"
       width="1.9563"
       height="0.2"
       ry="0.1"
       fill="currentColor"
       id="rect64" />
  </g>
  <g
     transform="translate(0,4.052)"
     id="g70">
    <line
       stroke-linejoin="round"
       stroke-linecap="round"
       stroke-width="0.1"
       stroke="currentColor"
       x1="0.050000001"
       y1="0"
       x2="36.319099"
       y2="0"
       id="line68" />
  </g>
  <g
     transform="translate(0,3.052)"
     id="g74">
    <line
       stroke-linejoin="round"
       stroke-linecap="round"
       stroke-width="0.1"
       stroke="currentColor"
       x1="0.050000001"
       y1="0"
       x2="36.319099"
       y2="0"
       id="line72" />
  </g>
  <g
     transform="translate(0,2.052)"
     id="g78">
    <line
       stroke-linejoin="round"
       stroke-linecap="round"
       stroke-width="0.1"
       stroke="currentColor"
       x1="0.050000001"
       y1="0"
       x2="36.319099"
       y2="0"
       id="line76" />
  </g>
  <g
     transform="translate(0,1.052)"
     id="g82">
    <line
       stroke-linejoin="round"
       stroke-linecap="round"
       stroke-width="0.1"
       stroke="currentColor"
       x1="0.050000001"
       y1="0"
       x2="36.319099"
       y2="0"
       id="line80" />
  </g>
  <g
     transform="translate(0,0.052)"
     id="g86">
    <line
       stroke-linejoin="round"
       stroke-linecap="round"
       stroke-width="0.1"
       stroke="currentColor"
       x1="0.050000001"
       y1="0"
       x2="36.319099"
       y2="0"
       id="line84" />
  </g>
  <g
     transform="translate(25.5123,2.052)"
     id="g90">
    <rect
       x="0"
       y="-2"
       width="0.19"
       height="4"
       ry="0.0000"
       fill="currentColor"
       id="rect88" />
  </g>
  <g
     transform="translate(16.7411,2.052)"
     id="g94">
    <polygon
       stroke-linejoin="round"
       stroke-linecap="round"
       stroke-width="0.08"
       fill="currentColor"
       stroke="currentColor"
       points="0.04,0.2 0.04,-0.2 7.3526,-0.2 7.3526,0.2 "
       id="polygon92" />
  </g>
  <g
     transform="translate(6.9742,2.052)"
     id="g98">
    <polygon
       stroke-linejoin="round"
       stroke-linecap="round"
       stroke-width="0.08"
       fill="currentColor"
       stroke="currentColor"
       points="0.04,0.2 0.04,-0.2 7.3526,-0.2 7.3526,0.2 "
       id="polygon96" />
  </g>
  <g
     transform="translate(5.8,6.052)"
     id="g102">
    <path
       transform="scale(0.004,-0.004)"
       d="m 218,136 c 66,0 108,-36 108,-89 0,-89 -113,-183 -218,-183 -66,0 -108,36 -108,89 0,89 113,183 218,183 z"
       fill="currentColor"
       id="path100" />
  </g>
  <g
     transform="translate(0.8,1.052)"
     id="g106">
    <path
       transform="scale(0.004,-0.004)"
       d="m 557,-125 c 0,28 23,51 51,51 28,0 51,-23 51,-51 0,-28 -23,-51 -51,-51 -28,0 -51,23 -51,51 z m 0,250 c 0,28 23,51 51,51 28,0 51,-23 51,-51 0,-28 -23,-51 -51,-51 -28,0 -51,23 -51,51 z M 232,263 c 172,0 293,-88 293,-251 0,-263 -263,-414 -516,-521 -3,-3 -6,-4 -9,-4 -7,0 -13,6 -13,13 0,3 1,6 4,9 202,118 412,265 412,493 0,120 -63,235 -171,235 -74,0 -129,-54 -154,-126 11,5 22,8 34,8 C 167,119 212,74 212,19 212,-39 168,-87 112,-87 52,-87 0,-40 0,19 0,152 102,263 232,263 Z"
       fill="currentColor"
       id="path104" />
  </g>
  <g
     transform="translate(7.0392,2.052)"
     id="g110">
    <rect
       x="-0.064999998"
       y="0"
       width="0.13"
       height="3.8139"
       ry="0.039999999"
       fill="currentColor"
       id="rect108" />
  </g>
  <g
     transform="translate(8.3042,5.552)"
     id="g114">
    <path
       transform="scale(0.004,-0.004)"
       d="m 218,136 c 66,0 108,-36 108,-89 0,-89 -113,-183 -218,-183 -66,0 -108,36 -108,89 0,89 113,183 218,183 z"
       fill="currentColor"
       id="path112" />
  </g>
  <g
     transform="translate(9.5434,2.052)"
     id="g118">
    <rect
       x="-0.064999998"
       y="0"
       width="0.13"
       height="3.3139"
       ry="0.039999999"
       fill="currentColor"
       id="rect116" />
  </g>
  <g
     transform="translate(10.8084,5.052)"
     id="g122">
    <path
       transform="scale(0.004,-0.004)"
       d="m 218,136 c 66,0 108,-36 108,-89 0,-89 -113,-183 -218,-183 -66,0 -108,36 -108,89 0,89 113,183 218,183 z"
       fill="currentColor"
       id="path120" />
  </g>
  <g
     transform="translate(12.0476,2.052)"
     id="g126">
    <rect
       x="-0.064999998"
       y="0"
       width="0.13"
       height="2.8139"
       ry="0.039999999"
       fill="currentColor"
       id="rect124" />
  </g>
  <g
     transform="translate(13.0626,6.052)"
     id="g130">
    <path
       transform="scale(0.004,-0.004)"
       d="m 218,136 c 66,0 108,-36 108,-89 0,-89 -113,-183 -218,-183 -66,0 -108,36 -108,89 0,89 113,183 218,183 z"
       fill="currentColor"
       id="path128" />
  </g>
  <g
     transform="translate(14.3019,2.052)"
     id="g134">
    <rect
       x="-0.064999998"
       y="0"
       width="0.13"
       height="3.8139"
       ry="0.039999999"
       fill="currentColor"
       id="rect132" />
  </g>
  <g
     transform="translate(15.5669,5.552)"
     id="g138">
    <path
       transform="scale(0.004,-0.004)"
       d="m 218,136 c 66,0 108,-36 108,-89 0,-89 -113,-183 -218,-183 -66,0 -108,36 -108,89 0,89 113,183 218,183 z"
       fill="currentColor"
       id="path136" />
  </g>
  <g
     transform="translate(16.8061,2.052)"
     id="g142">
    <rect
       x="-0.064999998"
       y="0"
       width="0.13"
       height="3.3139"
       ry="0.039999999"
       fill="currentColor"
       id="rect140" />
  </g>
  <g
     transform="translate(35.1041,2.052)"
     id="g146">
    <rect
       x="-0.064999998"
       y="0"
       width="0.13"
       height="2.8139"
       ry="0.039999999"
       fill="currentColor"
       id="rect144" />
  </g>
  <g
     transform="translate(18.0711,5.052)"
     id="g150">
    <path
       transform="scale(0.004,-0.004)"
       d="m 218,136 c 66,0 108,-36 108,-89 0,-89 -113,-183 -218,-183 -66,0 -108,36 -108,89 0,89 113,183 218,183 z"
       fill="currentColor"
       id="path148" />
  </g>
  <g
     transform="translate(19.3103,2.052)"
     id="g154">
    <rect
       x="-0.064999998"
       y="0"
       width="0.13"
       height="2.8139"
       ry="0.039999999"
       fill="currentColor"
       id="rect152" />
  </g>
  <g
     transform="translate(27.7765,2.052)"
     id="g158">
    <polygon
       stroke-linejoin="round"
       stroke-linecap="round"
       stroke-width="0.08"
       fill="currentColor"
       stroke="currentColor"
       points="0.04,0.2 0.04,-0.2 7.3526,-0.2 7.3526,0.2 "
       id="polygon156" />
  </g>
  <g
     transform="translate(20.3253,6.052)"
     id="g162">
    <path
       transform="scale(0.004,-0.004)"
       d="m 218,136 c 66,0 108,-36 108,-89 0,-89 -113,-183 -218,-183 -66,0 -108,36 -108,89 0,89 113,183 218,183 z"
       fill="currentColor"
       id="path160" />
  </g>
  <g
     transform="translate(21.5645,2.052)"
     id="g166">
    <rect
       x="-0.064999998"
       y="0"
       width="0.13"
       height="3.8139"
       ry="0.039999999"
       fill="currentColor"
       id="rect164" />
  </g>
  <g
     transform="translate(33.8649,5.052)"
     id="g170">
    <path
       transform="scale(0.004,-0.004)"
       d="m 218,136 c 66,0 108,-36 108,-89 0,-89 -113,-183 -218,-183 -66,0 -108,36 -108,89 0,89 113,183 218,183 z"
       fill="currentColor"
       id="path168" />
  </g>
  <g
     transform="translate(22.8295,5.552)"
     id="g174">
    <path
       transform="scale(0.004,-0.004)"
       d="m 218,136 c 66,0 108,-36 108,-89 0,-89 -113,-183 -218,-183 -66,0 -108,36 -108,89 0,89 113,183 218,183 z"
       fill="currentColor"
       id="path172" />
  </g>
  <g
     transform="translate(24.0687,2.052)"
     id="g178">
    <rect
       x="-0.064999998"
       y="0"
       width="0.13"
       height="3.3139"
       ry="0.039999999"
       fill="currentColor"
       id="rect176" />
  </g>
  <g
     transform="translate(26.6023,5.052)"
     id="g182">
    <path
       transform="scale(0.004,-0.004)"
       d="m 218,136 c 66,0 108,-36 108,-89 0,-89 -113,-183 -218,-183 -66,0 -108,36 -108,89 0,89 113,183 218,183 z"
       fill="currentColor"
       id="path180" />
  </g>
  <g
     transform="translate(27.8415,2.052)"
     id="g186">
    <rect
       x="-0.064999998"
       y="0"
       width="0.13"
       height="2.8139"
       ry="0.039999999"
       fill="currentColor"
       id="rect184" />
  </g>
  <g
     transform="translate(28.8565,6.052)"
     id="g190">
    <path
       transform="scale(0.004,-0.004)"
       d="m 218,136 c 66,0 108,-36 108,-89 0,-89 -113,-183 -218,-183 -66,0 -108,36 -108,89 0,89 113,183 218,183 z"
       fill="currentColor"
       id="path188" />
  </g>
  <g
     transform="translate(30.0957,2.052)"
     id="g194">
    <rect
       x="-0.064999998"
       y="0"
       width="0.13"
       height="3.8139"
       ry="0.039999999"
       fill="currentColor"
       id="rect192" />
  </g>
  <g
     transform="translate(31.3607,5.552)"
     id="g198">
    <path
       transform="scale(0.004,-0.004)"
       d="m 218,136 c 66,0 108,-36 108,-89 0,-89 -113,-183 -218,-183 -66,0 -108,36 -108,89 0,89 113,183 218,183 z"
       fill="currentColor"
       id="path196" />
  </g>
  <g
     transform="translate(32.5999,2.052)"
     id="g202">
    <rect
       x="-0.064999998"
       y="0"
       width="0.13"
       height="3.3139"
       ry="0.039999999"
       fill="currentColor"
       id="rect200" />
  </g>
</svg>
