<?xml version="1.0" encoding="UTF-8" standalone="no"?>
<svg
   version="1.2"
   width="53.470917mm"
   height="11.591145mm"
   viewBox="0 0 30.427897 6.5960008"
   id="svg152"
   xmlns="http://www.w3.org/2000/svg"
   xmlns:svg="http://www.w3.org/2000/svg">
  <defs
     id="defs156" />
  <style
     type="text/css"
     id="style2"><![CDATA[
tspan { white-space: pre; }
]]></style>
  <g
     transform="translate(0,5.052)"
     id="g6">
    <rect
       x="23.753401"
       y="-0.1"
       width="1.9563"
       height="0.2"
       ry="0.1"
       fill="currentColor"
       id="rect4" />
  </g>
  <g
     transform="translate(0,5.052)"
     id="g10">
    <rect
       x="20.999201"
       y="-0.1"
       width="1.9563"
       height="0.2"
       ry="0.1"
       fill="currentColor"
       id="rect8" />
  </g>
  <g
     transform="translate(0,6.052)"
     id="g14">
    <rect
       x="20.999201"
       y="-0.1"
       width="1.9563"
       height="0.2"
       ry="0.1"
       fill="currentColor"
       id="rect12" />
  </g>
  <g
     transform="translate(0,5.052)"
     id="g18">
    <rect
       x="15.9908"
       y="-0.1"
       width="1.9563"
       height="0.2"
       ry="0.1"
       fill="currentColor"
       id="rect16" />
  </g>
  <g
     transform="translate(0,5.052)"
     id="g22">
    <rect
       x="13.2366"
       y="-0.1"
       width="1.9563"
       height="0.2"
       ry="0.1"
       fill="currentColor"
       id="rect20" />
  </g>
  <g
     transform="translate(0,6.052)"
     id="g26">
    <rect
       x="13.2366"
       y="-0.1"
       width="1.9563"
       height="0.2"
       ry="0.1"
       fill="currentColor"
       id="rect24" />
  </g>
  <g
     transform="translate(0,5.052)"
     id="g30">
    <rect
       x="8.2282"
       y="-0.1"
       width="1.9563"
       height="0.2"
       ry="0.1"
       fill="currentColor"
       id="rect28" />
  </g>
  <g
     transform="translate(0,5.052)"
     id="g34">
    <rect
       x="5.4738998"
       y="-0.1"
       width="1.9563"
       height="0.2"
       ry="0.1"
       fill="currentColor"
       id="rect32" />
  </g>
  <g
     transform="translate(0,6.052)"
     id="g38">
    <rect
       x="5.4738998"
       y="-0.1"
       width="1.9563"
       height="0.2"
       ry="0.1"
       fill="currentColor"
       id="rect36" />
  </g>
  <g
     transform="translate(0,4.052)"
     id="g42">
    <line
       stroke-linejoin="round"
       stroke-linecap="round"
       stroke-width="0.1"
       stroke="currentColor"
       x1="0.050000001"
       y1="0"
       x2="30.377899"
       y2="0"
       id="line40" />
  </g>
  <g
     transform="translate(0,3.052)"
     id="g46">
    <line
       stroke-linejoin="round"
       stroke-linecap="round"
       stroke-width="0.1"
       stroke="currentColor"
       x1="0.050000001"
       y1="0"
       x2="30.377899"
       y2="0"
       id="line44" />
  </g>
  <g
     transform="translate(0,2.052)"
     id="g50">
    <line
       stroke-linejoin="round"
       stroke-linecap="round"
       stroke-width="0.1"
       stroke="currentColor"
       x1="0.050000001"
       y1="0"
       x2="30.377899"
       y2="0"
       id="line48" />
  </g>
  <g
     transform="translate(0,1.052)"
     id="g54">
    <line
       stroke-linejoin="round"
       stroke-linecap="round"
       stroke-width="0.1"
       stroke="currentColor"
       x1="0.050000001"
       y1="0"
       x2="30.377899"
       y2="0"
       id="line52" />
  </g>
  <g
     transform="translate(0,0.052)"
     id="g58">
    <line
       stroke-linejoin="round"
       stroke-linecap="round"
       stroke-width="0.1"
       stroke="currentColor"
       x1="0.050000001"
       y1="0"
       x2="30.377899"
       y2="0"
       id="line56" />
  </g>
  <g
     transform="translate(26.8337,2.052)"
     id="g62">
    <rect
       x="0"
       y="-2"
       width="0.19"
       height="4"
       ry="0.0000"
       fill="currentColor"
       id="rect60" />
  </g>
  <g
     transform="translate(17.4911,1.242)"
     id="g66">
    <polygon
       stroke-linejoin="round"
       stroke-linecap="round"
       stroke-width="0.08"
       fill="currentColor"
       stroke="currentColor"
       points="0.04,0.2 0.04,-0.2 7.8526,-0.2 7.8526,0.2 "
       id="polygon64" />
  </g>
  <g
     transform="translate(6.9742,1.242)"
     id="g70">
    <polygon
       stroke-linejoin="round"
       stroke-linecap="round"
       stroke-width="0.08"
       fill="currentColor"
       stroke="currentColor"
       points="0.04,0.2 0.04,-0.2 7.8526,-0.2 7.8526,0.2 "
       id="polygon68" />
  </g>
  <g
     transform="translate(5.8,6.052)"
     id="g74">
    <path
       transform="scale(0.004,-0.004)"
       d="m 218,136 c 66,0 108,-36 108,-89 0,-89 -113,-183 -218,-183 -66,0 -108,36 -108,89 0,89 113,183 218,183 z"
       fill="currentColor"
       id="path72" />
  </g>
  <g
     transform="translate(0.8,1.052)"
     id="g78">
    <path
       transform="scale(0.004,-0.004)"
       d="m 557,-125 c 0,28 23,51 51,51 28,0 51,-23 51,-51 0,-28 -23,-51 -51,-51 -28,0 -51,23 -51,51 z m 0,250 c 0,28 23,51 51,51 28,0 51,-23 51,-51 0,-28 -23,-51 -51,-51 -28,0 -51,23 -51,51 z M 232,263 c 172,0 293,-88 293,-251 0,-263 -263,-414 -516,-521 -3,-3 -6,-4 -9,-4 -7,0 -13,6 -13,13 0,3 1,6 4,9 202,118 412,265 412,493 0,120 -63,235 -171,235 -74,0 -129,-54 -154,-126 11,5 22,8 34,8 C 167,119 212,74 212,19 212,-39 168,-87 112,-87 52,-87 0,-40 0,19 0,152 102,263 232,263 Z"
       fill="currentColor"
       id="path76" />
  </g>
  <g
     transform="translate(7.0392,2.052)"
     id="g82">
    <rect
       x="-0.064999998"
       y="-0.81"
       width="0.13"
       height="4.6238999"
       ry="0.039999999"
       fill="currentColor"
       id="rect80" />
  </g>
  <g
     transform="translate(8.5542,5.052)"
     id="g86">
    <path
       transform="scale(0.004,-0.004)"
       d="m 218,136 c 66,0 108,-36 108,-89 0,-89 -113,-183 -218,-183 -66,0 -108,36 -108,89 0,89 113,183 218,183 z"
       fill="currentColor"
       id="path84" />
  </g>
  <g
     transform="translate(9.7934,2.052)"
     id="g90">
    <rect
       x="-0.064999998"
       y="-0.81"
       width="0.13"
       height="3.6238999"
       ry="0.039999999"
       fill="currentColor"
       id="rect88" />
  </g>
  <g
     transform="translate(11.3084,4.052)"
     id="g94">
    <path
       transform="scale(0.004,-0.004)"
       d="m 218,136 c 66,0 108,-36 108,-89 0,-89 -113,-183 -218,-183 -66,0 -108,36 -108,89 0,89 113,183 218,183 z"
       fill="currentColor"
       id="path92" />
  </g>
  <g
     transform="translate(12.5476,2.052)"
     id="g98">
    <rect
       x="-0.064999998"
       y="-0.81"
       width="0.13"
       height="2.6238999"
       ry="0.039999999"
       fill="currentColor"
       id="rect96" />
  </g>
  <g
     transform="translate(13.5626,6.052)"
     id="g102">
    <path
       transform="scale(0.004,-0.004)"
       d="m 218,136 c 66,0 108,-36 108,-89 0,-89 -113,-183 -218,-183 -66,0 -108,36 -108,89 0,89 113,183 218,183 z"
       fill="currentColor"
       id="path100" />
  </g>
  <g
     transform="translate(14.8019,2.052)"
     id="g106">
    <rect
       x="-0.064999998"
       y="-0.81"
       width="0.13"
       height="4.6238999"
       ry="0.039999999"
       fill="currentColor"
       id="rect104" />
  </g>
  <g
     transform="translate(16.3169,5.052)"
     id="g110">
    <path
       transform="scale(0.004,-0.004)"
       d="m 218,136 c 66,0 108,-36 108,-89 0,-89 -113,-183 -218,-183 -66,0 -108,36 -108,89 0,89 113,183 218,183 z"
       fill="currentColor"
       id="path108" />
  </g>
  <g
     transform="translate(17.5561,2.052)"
     id="g114">
    <rect
       x="-0.064999998"
       y="-0.81"
       width="0.13"
       height="3.6238999"
       ry="0.039999999"
       fill="currentColor"
       id="rect112" />
  </g>
  <g
     transform="translate(19.0711,4.052)"
     id="g118">
    <path
       transform="scale(0.004,-0.004)"
       d="m 218,136 c 66,0 108,-36 108,-89 0,-89 -113,-183 -218,-183 -66,0 -108,36 -108,89 0,89 113,183 218,183 z"
       fill="currentColor"
       id="path116" />
  </g>
  <g
     transform="translate(20.3103,2.052)"
     id="g122">
    <rect
       x="-0.064999998"
       y="-0.81"
       width="0.13"
       height="2.6238999"
       ry="0.039999999"
       fill="currentColor"
       id="rect120" />
  </g>
  <g
     transform="translate(21.3253,6.052)"
     id="g126">
    <path
       transform="scale(0.004,-0.004)"
       d="m 218,136 c 66,0 108,-36 108,-89 0,-89 -113,-183 -218,-183 -66,0 -108,36 -108,89 0,89 113,183 218,183 z"
       fill="currentColor"
       id="path124" />
  </g>
  <g
     transform="translate(22.5645,2.052)"
     id="g130">
    <rect
       x="-0.064999998"
       y="-0.81"
       width="0.13"
       height="4.6238999"
       ry="0.039999999"
       fill="currentColor"
       id="rect128" />
  </g>
  <g
     transform="translate(24.0795,5.052)"
     id="g134">
    <path
       transform="scale(0.004,-0.004)"
       d="m 218,136 c 66,0 108,-36 108,-89 0,-89 -113,-183 -218,-183 -66,0 -108,36 -108,89 0,89 113,183 218,183 z"
       fill="currentColor"
       id="path132" />
  </g>
  <g
     transform="translate(25.3187,2.052)"
     id="g138">
    <rect
       x="-0.064999998"
       y="-0.81"
       width="0.13"
       height="3.6238999"
       ry="0.039999999"
       fill="currentColor"
       id="rect136" />
  </g>
  <g
     transform="translate(27.9237,4.052)"
     id="g142">
    <path
       transform="scale(0.004,-0.004)"
       d="m 218,136 c 66,0 108,-36 108,-89 0,-89 -113,-183 -218,-183 -66,0 -108,36 -108,89 0,89 113,183 218,183 z"
       fill="currentColor"
       id="path140" />
  </g>
  <g
     transform="translate(29.1629,2.052)"
     id="g146">
    <rect
       x="-0.064999998"
       y="-1.5"
       width="0.13"
       height="3.3139"
       ry="0.039999999"
       fill="currentColor"
       id="rect144" />
  </g>
  <g
     transform="translate(29.2279,0.592)"
     id="g150">
    <path
       transform="scale(0.004,-0.004)"
       d="M 0,0 V -250 H -16 V 0 Z m 0,0 c 0,-197 207,-336 207,-533 0,-71 -15,-141 -41,-207 -5,-8 -13,-12 -20,-12 -13,0 -26,11 -23,27 26,61 42,126 42,192 0,103 -94,208 -165,283 z"
       fill="currentColor"
       id="path148" />
  </g>
</svg>
