<?xml version="1.0" encoding="UTF-8" standalone="no"?>
<svg
   version="1.2"
   width="43.46151mm"
   height="12.868698mm"
   viewBox="0 0 24.732 7.3229998"
   id="svg124"
   xmlns:xlink="http://www.w3.org/1999/xlink"
   xmlns="http://www.w3.org/2000/svg"
   xmlns:svg="http://www.w3.org/2000/svg">
  <defs
     id="defs128" />
  <style
     type="text/css"
     id="style2"><![CDATA[
tspan { white-space: pre; }
]]></style>
  <g
     transform="translate(0,6.779)"
     id="g6">
    <rect
       x="12.0584"
       y="-0.1"
       width="1.8042001"
       height="0.2"
       ry="0.1"
       fill="currentColor"
       id="rect4" />
  </g>
  <g
     transform="translate(0,6.779)"
     id="g10">
    <rect
       x="8.3739004"
       y="-0.1"
       width="1.8803"
       height="0.2"
       ry="0.1"
       fill="currentColor"
       id="rect8" />
  </g>
  <g
     transform="translate(0,5.779)"
     id="g14">
    <line
       stroke-linejoin="round"
       stroke-linecap="round"
       stroke-width="0.1"
       stroke="currentColor"
       x1="0.050000001"
       y1="0"
       x2="24.681999"
       y2="0"
       id="line12" />
  </g>
  <g
     transform="translate(0,4.779)"
     id="g18">
    <line
       stroke-linejoin="round"
       stroke-linecap="round"
       stroke-width="0.1"
       stroke="currentColor"
       x1="0.050000001"
       y1="0"
       x2="24.681999"
       y2="0"
       id="line16" />
  </g>
  <g
     transform="translate(0,3.779)"
     id="g22">
    <line
       stroke-linejoin="round"
       stroke-linecap="round"
       stroke-width="0.1"
       stroke="currentColor"
       x1="0.050000001"
       y1="0"
       x2="24.681999"
       y2="0"
       id="line20" />
  </g>
  <g
     transform="translate(0,2.779)"
     id="g26">
    <line
       stroke-linejoin="round"
       stroke-linecap="round"
       stroke-width="0.1"
       stroke="currentColor"
       x1="0.050000001"
       y1="0"
       x2="24.681999"
       y2="0"
       id="line24" />
  </g>
  <g
     transform="translate(0,1.779)"
     id="g30">
    <line
       stroke-linejoin="round"
       stroke-linecap="round"
       stroke-width="0.1"
       stroke="currentColor"
       x1="0.050000001"
       y1="0"
       x2="24.681999"
       y2="0"
       id="line28" />
  </g>
  <g
     transform="translate(24.5419,3.779)"
     id="g34">
    <rect
       x="0"
       y="-2"
       width="0.19"
       height="4"
       ry="0.0000"
       fill="currentColor"
       id="rect32" />
  </g>
  <g
     transform="translate(9.8742,2.969)"
     id="g38">
    <polygon
       stroke-linejoin="round"
       stroke-linecap="round"
       stroke-width="0.08"
       fill="currentColor"
       stroke="currentColor"
       points="0.04,0.2 0.04,-0.2 5.5026,-0.2 5.5026,0.2 "
       id="polygon36" />
  </g>
  <g
     transform="translate(9.8742,3.779)"
     id="g42">
    <polygon
       stroke-linejoin="round"
       stroke-linecap="round"
       stroke-width="0.08"
       fill="currentColor"
       stroke="currentColor"
       points="0.04,0.2 0.04,-0.2 5.5026,-0.2 5.5026,0.2 "
       id="polygon40" />
  </g>
  <a
     style="color:inherit"
     xlink:href="textedit:///Users/philippeperret/__Current_Work__/HANON/images/Chantier/exercice-46-train/exercice-46-train-untrimed.ly:32:23:24"
     id="a48"
     transform="translate(-5.6906,-3.8453)">
    <g
       transform="translate(14.3905,10.6243)"
       id="g46">
      <path
         transform="scale(0.004,-0.004)"
         d="m 218,136 c 66,0 108,-36 108,-89 0,-89 -113,-183 -218,-183 -66,0 -108,36 -108,89 0,89 113,183 218,183 z"
         fill="currentColor"
         id="path44" />
    </g>
  </a>
  <g
     transform="translate(0.8,4.779)"
     id="g52">
    <path
       transform="scale(0.004,-0.004)"
       d="m 266,-635 h -6 c -108,0 -195,88 -195,197 0,58 53,103 112,103 54,0 95,-47 95,-103 0,-52 -43,-95 -95,-95 -11,0 -21,2 -31,6 26,-39 68,-65 117,-65 h 4 z m 195,432 c 68,24 113,90 113,164 0,90 -66,179 -173,190 19,-89 48,-242 60,-354 z M 74,28 c 0,-145 141,-247 264,-247 1,0 47,0 82,6 -7,64 -29,203 -63,364 -79,-8 -124,-61 -124,-119 0,-44 25,-91 81,-123 5,-5 7,-10 7,-15 0,-11 -10,-22 -22,-22 -15,0 -126,62 -126,187 0,88 58,174 160,197 -14,58 -29,117 -46,175 C 180,310 74,188 74,28 Z m 176,525 c -29,96 -52,170 -52,346 0,115 55,224 149,292 6,5 14,5 20,0 68,-80 133,-245 133,-358 0,-143 -86,-255 -180,-364 21,-68 39,-138 56,-207 2,0 7,1 13,1 155,0 256,-128 256,-261 0,-113 -74,-212 -180,-246 3,-35 5,-70 5,-105 0,-19 -1,-39 -2,-58 -7,-119 -88,-225 -202,-228 l 1,43 c 93,2 153,92 159,191 1,18 2,37 2,55 0,31 -1,61 -4,92 -5,-1 -44,-8 -89,-8 C 142,-262 2,-82 2,112 2,289 133,418 250,553 Z m 178,363 c 0,34 1,66 -20,129 -99,-48 -162,-149 -162,-259 0,-52 12,-115 36,-194 80,97 146,198 146,324 z"
       fill="currentColor"
       id="path50" />
  </g>
  <a
     style="color:inherit"
     xlink:href="textedit:///Users/philippeperret/__Current_Work__/HANON/images/Chantier/exercice-46-train/exercice-46-train-untrimed.ly:30:2:3"
     id="a54"
     transform="translate(-5.6906,-3.8453)" />
  <g
     transform="translate(5,3.779)"
     id="g58">
    <path
       transform="scale(0.004,-0.004)"
       d="m 250,262 c 116,0 176,-106 176,-163 0,-40 -30,-72 -67,-72 -31,0 -75,25 -75,75 0,38 27,77 72,77 4,0 9,0 14,-1 -28,37 -72,59 -120,59 C 144,237 137,164 137,51 V 0 -51 c 0,-113 7,-187 113,-187 80,0 139,70 158,151 2,7 7,10 12,10 6,0 13,-4 13,-12 0,-22 -50,-174 -183,-174 C 191,-263 0,-244 0,0 0,62 18,262 250,262 Z"
       fill="currentColor"
       id="path56" />
  </g>
  <g
     transform="translate(9.9392,3.779)"
     id="g62">
    <rect
       x="-0.064999998"
       y="-0.81"
       width="0.13"
       height="3.6238999"
       ry="0.039999999"
       fill="currentColor"
       id="rect60" />
  </g>
  <a
     style="color:inherit"
     xlink:href="textedit:///Users/philippeperret/__Current_Work__/HANON/images/Chantier/exercice-46-train/exercice-46-train-untrimed.ly:32:27:28"
     id="a68"
     transform="translate(-5.6906,-3.8453)">
    <g
       transform="translate(16.1948,10.1243)"
       id="g66">
      <path
         transform="scale(0.004,-0.004)"
         d="m 218,136 c 66,0 108,-36 108,-89 0,-89 -113,-183 -218,-183 -66,0 -108,36 -108,89 0,89 113,183 218,183 z"
         fill="currentColor"
         id="path64" />
    </g>
  </a>
  <g
     transform="translate(11.7434,3.779)"
     id="g72">
    <rect
       x="-0.064999998"
       y="-0.81"
       width="0.13"
       height="3.1238999"
       ry="0.039999999"
       fill="currentColor"
       id="rect70" />
  </g>
  <a
     style="color:inherit"
     xlink:href="textedit:///Users/philippeperret/__Current_Work__/HANON/images/Chantier/exercice-46-train/exercice-46-train-untrimed.ly:32:29:30"
     id="a78"
     transform="translate(-5.6906,-3.8453)">
    <g
       transform="translate(17.999,10.6243)"
       id="g76">
      <path
         transform="scale(0.004,-0.004)"
         d="m 218,136 c 66,0 108,-36 108,-89 0,-89 -113,-183 -218,-183 -66,0 -108,36 -108,89 0,89 113,183 218,183 z"
         fill="currentColor"
         id="path74" />
    </g>
  </a>
  <g
     transform="translate(13.5476,3.779)"
     id="g82">
    <rect
       x="-0.064999998"
       y="-0.81"
       width="0.13"
       height="3.6238999"
       ry="0.039999999"
       fill="currentColor"
       id="rect80" />
  </g>
  <a
     style="color:inherit"
     xlink:href="textedit:///Users/philippeperret/__Current_Work__/HANON/images/Chantier/exercice-46-train/exercice-46-train-untrimed.ly:32:31:32"
     id="a88"
     transform="translate(-5.6906,-3.8453)">
    <g
       transform="translate(19.8032,10.1243)"
       id="g86">
      <path
         transform="scale(0.004,-0.004)"
         d="m 218,136 c 66,0 108,-36 108,-89 0,-89 -113,-183 -218,-183 -66,0 -108,36 -108,89 0,89 113,183 218,183 z"
         fill="currentColor"
         id="path84" />
    </g>
  </a>
  <g
     transform="translate(15.3518,3.779)"
     id="g92">
    <rect
       x="-0.064999998"
       y="-0.81"
       width="0.13"
       height="3.1238999"
       ry="0.039999999"
       fill="currentColor"
       id="rect90" />
  </g>
  <a
     style="color:inherit"
     xlink:href="textedit:///Users/philippeperret/__Current_Work__/HANON/images/Chantier/exercice-46-train/exercice-46-train-untrimed.ly:32:3:4"
     id="a102"
     transform="translate(-5.6906,-3.8453)">
    <g
       transform="translate(22.3658,8.6243)"
       id="g96">
      <path
         stroke-width="0"
         stroke-linejoin="round"
         stroke-linecap="round"
         stroke="currentColor"
         fill="currentColor"
         d="M 0,0 H 0.5569 L 1.7334,-2 H 1.1765 Z"
         id="path94" />
    </g>
    <g
       transform="translate(21.4824,8.6243)"
       id="g100">
      <path
         stroke-width="0"
         stroke-linejoin="round"
         stroke-linecap="round"
         stroke="currentColor"
         fill="currentColor"
         d="M 0,0 H 0.5569 L 1.7334,-2 H 1.1765 Z"
         id="path98" />
    </g>
  </a>
  <a
     style="color:inherit"
     xlink:href="textedit:///Users/philippeperret/__Current_Work__/HANON/images/Chantier/exercice-46-train/exercice-46-train-untrimed.ly:32:3:4"
     id="a112"
     transform="translate(-5.6906,-3.8453)">
    <g
       transform="translate(25.2825,8.6243)"
       id="g106">
      <path
         stroke-width="0"
         stroke-linejoin="round"
         stroke-linecap="round"
         stroke="currentColor"
         fill="currentColor"
         d="M 0,0 H 0.5569 L 1.7334,-2 H 1.1765 Z"
         id="path104" />
    </g>
    <g
       transform="translate(24.3991,8.6243)"
       id="g110">
      <path
         stroke-width="0"
         stroke-linejoin="round"
         stroke-linecap="round"
         stroke="currentColor"
         fill="currentColor"
         d="M 0,0 H 0.5569 L 1.7334,-2 H 1.1765 Z"
         id="path108" />
    </g>
  </a>
  <a
     style="color:inherit"
     xlink:href="textedit:///Users/philippeperret/__Current_Work__/HANON/images/Chantier/exercice-46-train/exercice-46-train-untrimed.ly:32:3:4"
     id="a122"
     transform="translate(-5.6906,-3.8453)">
    <g
       transform="translate(28.1992,8.6243)"
       id="g116">
      <path
         stroke-width="0"
         stroke-linejoin="round"
         stroke-linecap="round"
         stroke="currentColor"
         fill="currentColor"
         d="M 0,0 H 0.5569 L 1.7334,-2 H 1.1765 Z"
         id="path114" />
    </g>
    <g
       transform="translate(27.3158,8.6243)"
       id="g120">
      <path
         stroke-width="0"
         stroke-linejoin="round"
         stroke-linecap="round"
         stroke="currentColor"
         fill="currentColor"
         d="M 0,0 H 0.5569 L 1.7334,-2 H 1.1765 Z"
         id="path118" />
    </g>
  </a>
</svg>
