<?xml version="1.0" encoding="UTF-8" standalone="no"?>
<svg
   version="1.2"
   width="49.431942mm"
   height="14.618971mm"
   viewBox="0 0 28.129498 8.319001"
   id="svg108"
   xmlns="http://www.w3.org/2000/svg"
   xmlns:svg="http://www.w3.org/2000/svg">
  <defs
     id="defs112" />
  <style
     type="text/css"
     id="style2"><![CDATA[
tspan { white-space: pre; }
]]></style>
  <g
     transform="translate(0,5.779)"
     id="g6">
    <line
       stroke-linejoin="round"
       stroke-linecap="round"
       stroke-width="0.1"
       stroke="currentColor"
       x1="0.050000001"
       y1="0"
       x2="28.0795"
       y2="0"
       id="line4" />
  </g>
  <g
     transform="translate(0,4.779)"
     id="g10">
    <line
       stroke-linejoin="round"
       stroke-linecap="round"
       stroke-width="0.1"
       stroke="currentColor"
       x1="0.050000001"
       y1="0"
       x2="28.0795"
       y2="0"
       id="line8" />
  </g>
  <g
     transform="translate(0,3.779)"
     id="g14">
    <line
       stroke-linejoin="round"
       stroke-linecap="round"
       stroke-width="0.1"
       stroke="currentColor"
       x1="0.050000001"
       y1="0"
       x2="28.0795"
       y2="0"
       id="line12" />
  </g>
  <g
     transform="translate(0,2.779)"
     id="g18">
    <line
       stroke-linejoin="round"
       stroke-linecap="round"
       stroke-width="0.1"
       stroke="currentColor"
       x1="0.050000001"
       y1="0"
       x2="28.0795"
       y2="0"
       id="line16" />
  </g>
  <g
     transform="translate(0,1.779)"
     id="g22">
    <line
       stroke-linejoin="round"
       stroke-linecap="round"
       stroke-width="0.1"
       stroke="currentColor"
       x1="0.050000001"
       y1="0"
       x2="28.0795"
       y2="0"
       id="line20" />
  </g>
  <g
     transform="translate(15.7126,6.779)"
     id="g26">
    <polygon
       stroke-linejoin="round"
       stroke-linecap="round"
       stroke-width="0.08"
       fill="currentColor"
       stroke="currentColor"
       points="0.04,0.2 0.04,-0.2 7.6026,-1.01 7.6026,-0.61 "
       id="polygon24" />
  </g>
  <g
     transform="translate(15.7126,7.589)"
     id="g30">
    <polygon
       stroke-linejoin="round"
       stroke-linecap="round"
       stroke-width="0.08"
       fill="currentColor"
       stroke="currentColor"
       points="0.04,0.2 0.04,-0.2 7.6026,-1.01 7.6026,-0.61 "
       id="polygon28" />
  </g>
  <g
     transform="translate(6.9742,1.969)"
     id="g34">
    <polygon
       stroke-linejoin="round"
       stroke-linecap="round"
       stroke-width="0.08"
       fill="currentColor"
       stroke="currentColor"
       points="0.04,0.2 0.04,-0.2 5.0984,0.61 5.0984,1.01 "
       id="polygon32" />
  </g>
  <g
     transform="translate(6.9742,2.779)"
     id="g38">
    <polygon
       stroke-linejoin="round"
       stroke-linecap="round"
       stroke-width="0.08"
       fill="currentColor"
       stroke="currentColor"
       points="0.04,0.2 0.04,-0.2 5.0984,0.61 5.0984,1.01 "
       id="polygon36" />
  </g>
  <g
     transform="translate(5.8,5.279)"
     id="g42">
    <path
       transform="scale(0.004,-0.004)"
       d="m 218,136 c 66,0 108,-36 108,-89 0,-89 -113,-183 -218,-183 -66,0 -108,36 -108,89 0,89 113,183 218,183 z"
       fill="currentColor"
       id="path40" />
  </g>
  <g
     transform="translate(0.8,4.779)"
     id="g46">
    <path
       transform="scale(0.004,-0.004)"
       d="m 266,-635 h -6 c -108,0 -195,88 -195,197 0,58 53,103 112,103 54,0 95,-47 95,-103 0,-52 -43,-95 -95,-95 -11,0 -21,2 -31,6 26,-39 68,-65 117,-65 h 4 z m 195,432 c 68,24 113,90 113,164 0,90 -66,179 -173,190 19,-89 48,-242 60,-354 z M 74,28 c 0,-145 141,-247 264,-247 1,0 47,0 82,6 -7,64 -29,203 -63,364 -79,-8 -124,-61 -124,-119 0,-44 25,-91 81,-123 5,-5 7,-10 7,-15 0,-11 -10,-22 -22,-22 -15,0 -126,62 -126,187 0,88 58,174 160,197 -14,58 -29,117 -46,175 C 180,310 74,188 74,28 Z m 176,525 c -29,96 -52,170 -52,346 0,115 55,224 149,292 6,5 14,5 20,0 68,-80 133,-245 133,-358 0,-143 -86,-255 -180,-364 21,-68 39,-138 56,-207 2,0 7,1 13,1 155,0 256,-128 256,-261 0,-113 -74,-212 -180,-246 3,-35 5,-70 5,-105 0,-19 -1,-39 -2,-58 -7,-119 -88,-225 -202,-228 l 1,43 c 93,2 153,92 159,191 1,18 2,37 2,55 0,31 -1,61 -4,92 -5,-1 -44,-8 -89,-8 C 142,-262 2,-82 2,112 2,289 133,418 250,553 Z m 178,363 c 0,34 1,66 -20,129 -99,-48 -162,-149 -162,-259 0,-52 12,-115 36,-194 80,97 146,198 146,324 z"
       fill="currentColor"
       id="path44" />
  </g>
  <g
     transform="translate(7.0392,3.779)"
     id="g50">
    <rect
       x="-0.064999998"
       y="-1.7998"
       width="0.13"
       height="3.1136"
       ry="0.039999999"
       fill="currentColor"
       id="rect48" />
  </g>
  <g
     transform="translate(8.3042,5.779)"
     id="g54">
    <path
       transform="scale(0.004,-0.004)"
       d="m 218,136 c 66,0 108,-36 108,-89 0,-89 -113,-183 -218,-183 -66,0 -108,36 -108,89 0,89 113,183 218,183 z"
       fill="currentColor"
       id="path52" />
  </g>
  <g
     transform="translate(9.5434,3.779)"
     id="g58">
    <rect
       x="-0.064999998"
       y="-1.405"
       width="0.13"
       height="3.2189"
       ry="0.039999999"
       fill="currentColor"
       id="rect56" />
  </g>
  <g
     transform="translate(10.8084,6.279)"
     id="g62">
    <path
       transform="scale(0.004,-0.004)"
       d="m 218,136 c 66,0 108,-36 108,-89 0,-89 -113,-183 -218,-183 -66,0 -108,36 -108,89 0,89 113,183 218,183 z"
       fill="currentColor"
       id="path60" />
  </g>
  <g
     transform="translate(12.0476,3.779)"
     id="g66">
    <rect
       x="-0.064999998"
       y="-1.0102"
       width="0.13"
       height="3.3241"
       ry="0.039999999"
       fill="currentColor"
       id="rect64" />
  </g>
  <g
     transform="translate(13.3126,6.279)"
     id="g70">
    <path
       transform="scale(0.004,-0.004)"
       d="m 125,205 c 79,0 45,-98 90,-98 15,0 50,49 57,63 6,12 23,12 28,0 L 121,-500 c -8,-7 -17,-10 -27,-10 -10,0 -20,3 -28,10 l 101,327 c -34,-12 -70,-23 -106,-23 -47,0 -87,34 -87,79 0,40 32,72 72,72 79,0 46,-98 91,-98 16,0 55,51 60,68 L 243,76 C 209,64 175,54 139,54 92,54 52,88 52,133 c 0,40 33,72 73,72 z"
       fill="currentColor"
       id="path68" />
  </g>
  <g
     transform="translate(15.7126,4.279)"
     id="g74">
    <path
       transform="scale(0.004,-0.004)"
       d="m 218,136 c 66,0 108,-36 108,-89 0,-89 -113,-183 -218,-183 -66,0 -108,36 -108,89 0,89 113,183 218,183 z"
       fill="currentColor"
       id="path72" />
  </g>
  <g
     transform="translate(15.7776,3.779)"
     id="g78">
    <rect
       x="-0.064999998"
       y="0.68610001"
       width="0.13"
       height="3.1170001"
       ry="0.039999999"
       fill="currentColor"
       id="rect76" />
  </g>
  <g
     transform="translate(25.7295,2.779)"
     id="g82">
    <path
       transform="scale(0.004,-0.004)"
       d="m 125,205 c 79,0 45,-98 90,-98 15,0 50,49 57,63 6,12 23,12 28,0 L 121,-500 c -8,-7 -17,-10 -27,-10 -10,0 -20,3 -28,10 l 101,327 c -34,-12 -70,-23 -106,-23 -47,0 -87,34 -87,79 0,40 32,72 72,72 79,0 46,-98 91,-98 16,0 55,51 60,68 L 243,76 C 209,64 175,54 139,54 92,54 52,88 52,133 c 0,40 33,72 73,72 z"
       fill="currentColor"
       id="path80" />
  </g>
  <g
     transform="translate(18.2168,3.779)"
     id="g86">
    <path
       transform="scale(0.004,-0.004)"
       d="m 218,136 c 66,0 108,-36 108,-89 0,-89 -113,-183 -218,-183 -66,0 -108,36 -108,89 0,89 113,183 218,183 z"
       fill="currentColor"
       id="path84" />
  </g>
  <g
     transform="translate(18.2818,3.779)"
     id="g90">
    <rect
       x="-0.064999998"
       y="0.18610001"
       width="0.13"
       height="3.3515999"
       ry="0.039999999"
       fill="currentColor"
       id="rect88" />
  </g>
  <g
     transform="translate(20.7211,3.279)"
     id="g94">
    <path
       transform="scale(0.004,-0.004)"
       d="m 218,136 c 66,0 108,-36 108,-89 0,-89 -113,-183 -218,-183 -66,0 -108,36 -108,89 0,89 113,183 218,183 z"
       fill="currentColor"
       id="path92" />
  </g>
  <g
     transform="translate(20.7861,3.779)"
     id="g98">
    <rect
       x="-0.064999998"
       y="-0.31389999"
       width="0.13"
       height="3.5862"
       ry="0.039999999"
       fill="currentColor"
       id="rect96" />
  </g>
  <g
     transform="translate(23.2253,2.779)"
     id="g102">
    <path
       transform="scale(0.004,-0.004)"
       d="m 218,136 c 66,0 108,-36 108,-89 0,-89 -113,-183 -218,-183 -66,0 -108,36 -108,89 0,89 113,183 218,183 z"
       fill="currentColor"
       id="path100" />
  </g>
  <g
     transform="translate(23.2903,3.779)"
     id="g106">
    <rect
       x="-0.064999998"
       y="-0.81389999"
       width="0.13"
       height="3.8208001"
       ry="0.039999999"
       fill="currentColor"
       id="rect104" />
  </g>
</svg>
