<?xml version="1.0" encoding="UTF-8" standalone="no"?>
<svg
   version="1.2"
   width="54.841965mm"
   height="19.484932mm"
   viewBox="0 0 31.208099 11.088001"
   id="svg144"
   xmlns="http://www.w3.org/2000/svg"
   xmlns:svg="http://www.w3.org/2000/svg">
  <defs
     id="defs148" />
  <style
     type="text/css"
     id="style2"><![CDATA[
tspan { white-space: pre; }
]]></style>
  <g
     transform="translate(0,9.044)"
     id="g6">
    <rect
       x="27.1779"
       y="-0.1"
       width="1.9563"
       height="0.2"
       ry="0.1"
       fill="currentColor"
       id="rect4" />
  </g>
  <g
     transform="translate(0,9.044)"
     id="g10">
    <rect
       x="23.4736"
       y="-0.1"
       width="1.9563"
       height="0.2"
       ry="0.1"
       fill="currentColor"
       id="rect8" />
  </g>
  <g
     transform="translate(0,10.044)"
     id="g14">
    <rect
       x="23.4736"
       y="-0.1"
       width="1.9563"
       height="0.2"
       ry="0.1"
       fill="currentColor"
       id="rect12" />
  </g>
  <g
     transform="translate(0,9.044)"
     id="g18">
    <rect
       x="18.5366"
       y="-0.1"
       width="1.9563"
       height="0.2"
       ry="0.1"
       fill="currentColor"
       id="rect16" />
  </g>
  <g
     transform="translate(0,10.044)"
     id="g22">
    <rect
       x="18.5366"
       y="-0.1"
       width="1.9563"
       height="0.2"
       ry="0.1"
       fill="currentColor"
       id="rect20" />
  </g>
  <g
     transform="translate(0,2.044)"
     id="g26">
    <rect
       x="12.6824"
       y="-0.1"
       width="1.9563"
       height="0.2"
       ry="0.1"
       fill="currentColor"
       id="rect24" />
  </g>
  <g
     transform="translate(0,3.044)"
     id="g30">
    <rect
       x="12.6824"
       y="-0.1"
       width="1.9563"
       height="0.2"
       ry="0.1"
       fill="currentColor"
       id="rect28" />
  </g>
  <g
     transform="translate(0,1.044)"
     id="g34">
    <rect
       x="10.1782"
       y="-0.1"
       width="1.9563"
       height="0.2"
       ry="0.1"
       fill="currentColor"
       id="rect32" />
  </g>
  <g
     transform="translate(0,2.044)"
     id="g38">
    <rect
       x="10.1782"
       y="-0.1"
       width="1.9563"
       height="0.2"
       ry="0.1"
       fill="currentColor"
       id="rect36" />
  </g>
  <g
     transform="translate(0,3.044)"
     id="g42">
    <rect
       x="10.1782"
       y="-0.1"
       width="1.9563"
       height="0.2"
       ry="0.1"
       fill="currentColor"
       id="rect40" />
  </g>
  <g
     transform="translate(0,1.044)"
     id="g46">
    <rect
       x="7.6739001"
       y="-0.1"
       width="1.9563"
       height="0.2"
       ry="0.1"
       fill="currentColor"
       id="rect44" />
  </g>
  <g
     transform="translate(0,2.044)"
     id="g50">
    <rect
       x="7.6739001"
       y="-0.1"
       width="1.9563"
       height="0.2"
       ry="0.1"
       fill="currentColor"
       id="rect48" />
  </g>
  <g
     transform="translate(0,3.044)"
     id="g54">
    <rect
       x="7.6739001"
       y="-0.1"
       width="1.9563"
       height="0.2"
       ry="0.1"
       fill="currentColor"
       id="rect52" />
  </g>
  <g
     transform="translate(0,8.044)"
     id="g58">
    <line
       stroke-linejoin="round"
       stroke-linecap="round"
       stroke-width="0.1"
       stroke="currentColor"
       x1="0.050000001"
       y1="0"
       x2="31.1581"
       y2="0"
       id="line56" />
  </g>
  <g
     transform="translate(0,7.044)"
     id="g62">
    <line
       stroke-linejoin="round"
       stroke-linecap="round"
       stroke-width="0.1"
       stroke="currentColor"
       x1="0.050000001"
       y1="0"
       x2="31.1581"
       y2="0"
       id="line60" />
  </g>
  <g
     transform="translate(0,6.044)"
     id="g66">
    <line
       stroke-linejoin="round"
       stroke-linecap="round"
       stroke-width="0.1"
       stroke="currentColor"
       x1="0.050000001"
       y1="0"
       x2="31.1581"
       y2="0"
       id="line64" />
  </g>
  <g
     transform="translate(0,5.044)"
     id="g70">
    <line
       stroke-linejoin="round"
       stroke-linecap="round"
       stroke-width="0.1"
       stroke="currentColor"
       x1="0.050000001"
       y1="0"
       x2="31.1581"
       y2="0"
       id="line68" />
  </g>
  <g
     transform="translate(0,4.044)"
     id="g74">
    <line
       stroke-linejoin="round"
       stroke-linecap="round"
       stroke-width="0.1"
       stroke="currentColor"
       x1="0.050000001"
       y1="0"
       x2="31.1581"
       y2="0"
       id="line72" />
  </g>
  <g
     transform="translate(22.7097,6.044)"
     id="g78">
    <rect
       x="0"
       y="-2"
       width="0.19"
       height="4"
       ry="0.0000"
       fill="currentColor"
       id="rect76" />
  </g>
  <g
     transform="translate(5.8,2.044)"
     id="g82">
    <path
       transform="scale(0.004,-0.004)"
       d="m 70,205 c 79,0 46,-98 91,-98 16,0 54,48 61,63 6,12 23,12 28,0 L 127,-250 c -8,-7 -17,-10 -27,-10 -10,0 -20,3 -28,10 L 189,76 C 155,64 120,54 84,54 37,54 -3,88 -3,133 c 0,40 33,72 73,72 z"
       fill="currentColor"
       id="path80" />
  </g>
  <g
     transform="translate(0.8,7.044)"
     id="g86">
    <path
       transform="scale(0.004,-0.004)"
       d="m 266,-635 h -6 c -108,0 -195,88 -195,197 0,58 53,103 112,103 54,0 95,-47 95,-103 0,-52 -43,-95 -95,-95 -11,0 -21,2 -31,6 26,-39 68,-65 117,-65 h 4 z m 195,432 c 68,24 113,90 113,164 0,90 -66,179 -173,190 19,-89 48,-242 60,-354 z M 74,28 c 0,-145 141,-247 264,-247 1,0 47,0 82,6 -7,64 -29,203 -63,364 -79,-8 -124,-61 -124,-119 0,-44 25,-91 81,-123 5,-5 7,-10 7,-15 0,-11 -10,-22 -22,-22 -15,0 -126,62 -126,187 0,88 58,174 160,197 -14,58 -29,117 -46,175 C 180,310 74,188 74,28 Z m 176,525 c -29,96 -52,170 -52,346 0,115 55,224 149,292 6,5 14,5 20,0 68,-80 133,-245 133,-358 0,-143 -86,-255 -180,-364 21,-68 39,-138 56,-207 2,0 7,1 13,1 155,0 256,-128 256,-261 0,-113 -74,-212 -180,-246 3,-35 5,-70 5,-105 0,-19 -1,-39 -2,-58 -7,-119 -88,-225 -202,-228 l 1,43 c 93,2 153,92 159,191 1,18 2,37 2,55 0,31 -1,61 -4,92 -5,-1 -44,-8 -89,-8 C 142,-262 2,-82 2,112 2,289 133,418 250,553 Z m 178,363 c 0,34 1,66 -20,129 -99,-48 -162,-149 -162,-259 0,-52 12,-115 36,-194 80,97 146,198 146,324 z"
       fill="currentColor"
       id="path84" />
  </g>
  <g
     transform="translate(8,0.544)"
     id="g90">
    <path
       transform="scale(0.004,-0.004)"
       d="m 218,136 c 66,0 108,-36 108,-89 0,-89 -113,-183 -218,-183 -66,0 -108,36 -108,89 0,89 113,183 218,183 z"
       fill="currentColor"
       id="path88" />
  </g>
  <g
     transform="translate(8.065,6.044)"
     id="g94">
    <rect
       x="-0.064999998"
       y="-5.3139"
       width="0.13"
       height="5.3139"
       ry="0.039999999"
       fill="currentColor"
       id="rect92" />
  </g>
  <g
     transform="translate(28.7431,6.044)"
     id="g98">
    <rect
       x="-0.064999998"
       y="0"
       width="0.13"
       height="3.3139"
       ry="0.039999999"
       fill="currentColor"
       id="rect96" />
  </g>
  <g
     transform="translate(10.5042,1.044)"
     id="g102">
    <path
       transform="scale(0.004,-0.004)"
       d="m 218,136 c 66,0 108,-36 108,-89 0,-89 -113,-183 -218,-183 -66,0 -108,36 -108,89 0,89 113,183 218,183 z"
       fill="currentColor"
       id="path100" />
  </g>
  <g
     transform="translate(10.5692,6.044)"
     id="g106">
    <rect
       x="-0.064999998"
       y="-4.8139"
       width="0.13"
       height="4.8139"
       ry="0.039999999"
       fill="currentColor"
       id="rect104" />
  </g>
  <g
     transform="translate(27.5039,9.544)"
     id="g110">
    <path
       transform="scale(0.004,-0.004)"
       d="m 218,136 c 66,0 108,-36 108,-89 0,-89 -113,-183 -218,-183 -66,0 -108,36 -108,89 0,89 113,183 218,183 z"
       fill="currentColor"
       id="path108" />
  </g>
  <g
     transform="translate(13.0084,1.544)"
     id="g114">
    <path
       transform="scale(0.004,-0.004)"
       d="m 218,136 c 66,0 108,-36 108,-89 0,-89 -113,-183 -218,-183 -66,0 -108,36 -108,89 0,89 113,183 218,183 z"
       fill="currentColor"
       id="path112" />
  </g>
  <g
     transform="translate(13.0734,6.044)"
     id="g118">
    <rect
       x="-0.064999998"
       y="-4.3139"
       width="0.13"
       height="4.3139"
       ry="0.039999999"
       fill="currentColor"
       id="rect116" />
  </g>
  <g
     transform="translate(15.5126,9.044)"
     id="g122">
    <path
       transform="scale(0.004,-0.004)"
       d="m -6,78 c 0,59 124,83 124,182 0,24 -8,49 -25,69 l -35,42 c -3,3 -4,7 -4,10 0,9 9,15 17,15 4,0 8,-1 11,-5 L 233,211 c 7,-9 10,-17 10,-25 0,-59 -124,-83 -124,-182 0,-24 7,-49 24,-69 l 84,-99 c 3,-3 4,-7 4,-10 0,-9 -8,-16 -16,-16 -8,0 -45,44 -109,44 -16,0 -53,0 -53,-67 0,-35 11,-74 28,-94 7,-8 -5,-19 -12,-11 -45,54 -92,148 -92,202 0,41 27,42 40,42 33,0 78,-13 119,-31 L 4,53 C -3,62 -6,70 -6,78 Z"
       fill="currentColor"
       id="path120" />
  </g>
  <g
     transform="translate(18.8626,10.544)"
     id="g126">
    <path
       transform="scale(0.004,-0.004)"
       d="m 218,136 c 66,0 108,-36 108,-89 0,-89 -113,-183 -218,-183 -66,0 -108,36 -108,89 0,89 113,183 218,183 z"
       fill="currentColor"
       id="path124" />
  </g>
  <g
     transform="translate(20.1018,6.044)"
     id="g130">
    <rect
       x="-0.064999998"
       y="0"
       width="0.13"
       height="4.3139"
       ry="0.039999999"
       fill="currentColor"
       id="rect128" />
  </g>
  <g
     transform="translate(23.7997,10.044)"
     id="g134">
    <path
       transform="scale(0.004,-0.004)"
       d="m 218,136 c 66,0 108,-36 108,-89 0,-89 -113,-183 -218,-183 -66,0 -108,36 -108,89 0,89 113,183 218,183 z"
       fill="currentColor"
       id="path132" />
  </g>
  <g
     transform="translate(25.0389,6.044)"
     id="g138">
    <rect
       x="-0.064999998"
       y="0"
       width="0.13"
       height="3.8139"
       ry="0.039999999"
       fill="currentColor"
       id="rect136" />
  </g>
  <g
     transform="translate(8,6.044)"
     id="g142">
    <polygon
       stroke-linejoin="round"
       stroke-linecap="round"
       stroke-width="0.08"
       fill="currentColor"
       stroke="currentColor"
       points="0.04,0.2 0.04,-0.2 5.0984,-0.2 5.0984,0.2 "
       id="polygon140" />
  </g>
</svg>
