<?xml version="1.0" encoding="UTF-8" standalone="no"?>
<svg
   version="1.2"
   width="48.019779mm"
   height="12.861671mm"
   viewBox="0 0 27.3259 7.3190007"
   id="svg72"
   xmlns="http://www.w3.org/2000/svg"
   xmlns:svg="http://www.w3.org/2000/svg">
  <defs
     id="defs76" />
  <style
     type="text/css"
     id="style2"><![CDATA[
tspan { white-space: pre; }
]]></style>
  <g
     transform="translate(0,5.779)"
     id="g6">
    <line
       stroke-linejoin="round"
       stroke-linecap="round"
       stroke-width="0.1"
       stroke="currentColor"
       x1="0.050000001"
       y1="0"
       x2="27.2759"
       y2="0"
       id="line4" />
  </g>
  <g
     transform="translate(0,4.779)"
     id="g10">
    <line
       stroke-linejoin="round"
       stroke-linecap="round"
       stroke-width="0.1"
       stroke="currentColor"
       x1="0.050000001"
       y1="0"
       x2="27.2759"
       y2="0"
       id="line8" />
  </g>
  <g
     transform="translate(0,3.779)"
     id="g14">
    <line
       stroke-linejoin="round"
       stroke-linecap="round"
       stroke-width="0.1"
       stroke="currentColor"
       x1="0.050000001"
       y1="0"
       x2="27.2759"
       y2="0"
       id="line12" />
  </g>
  <g
     transform="translate(0,2.779)"
     id="g18">
    <line
       stroke-linejoin="round"
       stroke-linecap="round"
       stroke-width="0.1"
       stroke="currentColor"
       x1="0.050000001"
       y1="0"
       x2="27.2759"
       y2="0"
       id="line16" />
  </g>
  <g
     transform="translate(0,1.779)"
     id="g22">
    <line
       stroke-linejoin="round"
       stroke-linecap="round"
       stroke-width="0.1"
       stroke="currentColor"
       x1="0.050000001"
       y1="0"
       x2="27.2759"
       y2="0"
       id="line20" />
  </g>
  <g
     transform="translate(5.8,4.279)"
     id="g26">
    <path
       transform="scale(0.004,-0.004)"
       d="m 218,136 c 66,0 108,-36 108,-89 0,-89 -113,-183 -218,-183 -66,0 -108,36 -108,89 0,89 113,183 218,183 z"
       fill="currentColor"
       id="path24" />
  </g>
  <g
     transform="translate(0.8,4.779)"
     id="g30">
    <path
       transform="scale(0.004,-0.004)"
       d="m 266,-635 h -6 c -108,0 -195,88 -195,197 0,58 53,103 112,103 54,0 95,-47 95,-103 0,-52 -43,-95 -95,-95 -11,0 -21,2 -31,6 26,-39 68,-65 117,-65 h 4 z m 195,432 c 68,24 113,90 113,164 0,90 -66,179 -173,190 19,-89 48,-242 60,-354 z M 74,28 c 0,-145 141,-247 264,-247 1,0 47,0 82,6 -7,64 -29,203 -63,364 -79,-8 -124,-61 -124,-119 0,-44 25,-91 81,-123 5,-5 7,-10 7,-15 0,-11 -10,-22 -22,-22 -15,0 -126,62 -126,187 0,88 58,174 160,197 -14,58 -29,117 -46,175 C 180,310 74,188 74,28 Z m 176,525 c -29,96 -52,170 -52,346 0,115 55,224 149,292 6,5 14,5 20,0 68,-80 133,-245 133,-358 0,-143 -86,-255 -180,-364 21,-68 39,-138 56,-207 2,0 7,1 13,1 155,0 256,-128 256,-261 0,-113 -74,-212 -180,-246 3,-35 5,-70 5,-105 0,-19 -1,-39 -2,-58 -7,-119 -88,-225 -202,-228 l 1,43 c 93,2 153,92 159,191 1,18 2,37 2,55 0,31 -1,61 -4,92 -5,-1 -44,-8 -89,-8 C 142,-262 2,-82 2,112 2,289 133,418 250,553 Z m 178,363 c 0,34 1,66 -20,129 -99,-48 -162,-149 -162,-259 0,-52 12,-115 36,-194 80,97 146,198 146,324 z"
       fill="currentColor"
       id="path28" />
  </g>
  <g
     transform="translate(7.0392,3.779)"
     id="g34">
    <rect
       x="-0.064999998"
       y="-3"
       width="0.13"
       height="3.3139"
       ry="0.039999999"
       fill="currentColor"
       id="rect32" />
  </g>
  <g
     transform="translate(10.7042,3.779)"
     id="g38">
    <path
       transform="scale(0.004,-0.004)"
       d="m -6,78 c 0,59 124,83 124,182 0,24 -8,49 -25,69 l -35,42 c -3,3 -4,7 -4,10 0,9 9,15 17,15 4,0 8,-1 11,-5 L 233,211 c 7,-9 10,-17 10,-25 0,-59 -124,-83 -124,-182 0,-24 7,-49 24,-69 l 84,-99 c 3,-3 4,-7 4,-10 0,-9 -8,-16 -16,-16 -8,0 -45,44 -109,44 -16,0 -53,0 -53,-67 0,-35 11,-74 28,-94 7,-8 -5,-19 -12,-11 -45,54 -92,148 -92,202 0,41 27,42 40,42 33,0 78,-13 119,-31 L 4,53 C -3,62 -6,70 -6,78 Z"
       fill="currentColor"
       id="path36" />
  </g>
  <g
     transform="translate(15.2542,4.279)"
     id="g42">
    <path
       transform="scale(0.004,-0.004)"
       d="m 218,136 c 66,0 108,-36 108,-89 0,-89 -113,-183 -218,-183 -66,0 -108,36 -108,89 0,89 113,183 218,183 z"
       fill="currentColor"
       id="path40" />
  </g>
  <g
     transform="translate(16.4934,3.779)"
     id="g46">
    <rect
       x="-0.064999998"
       y="-3"
       width="0.13"
       height="3.3139"
       ry="0.039999999"
       fill="currentColor"
       id="rect44" />
  </g>
  <g
     transform="translate(16.5584,0.819)"
     id="g50">
    <path
       transform="scale(0.004,-0.004)"
       d="M 0,0 V -250 H -16 V 0 Z m 0,0 c 0,-197 207,-336 207,-533 0,-71 -15,-141 -41,-207 -5,-8 -13,-12 -20,-12 -13,0 -26,11 -23,27 26,61 42,126 42,192 0,103 -94,208 -165,283 z"
       fill="currentColor"
       id="path48" />
  </g>
  <g
     transform="translate(18.9584,3.779)"
     id="g54">
    <path
       transform="scale(0.004,-0.004)"
       d="m 70,205 c 79,0 46,-98 91,-98 16,0 54,48 61,63 6,12 23,12 28,0 L 127,-250 c -8,-7 -17,-10 -27,-10 -10,0 -20,3 -28,10 L 189,76 C 155,64 120,54 84,54 37,54 -3,88 -3,133 c 0,40 33,72 73,72 z"
       fill="currentColor"
       id="path52" />
  </g>
  <g
     transform="translate(24.9259,3.779)"
     id="g58">
    <path
       transform="scale(0.004,-0.004)"
       d="m 125,205 c 79,0 45,-98 90,-98 15,0 50,49 57,63 6,12 23,12 28,0 L 121,-500 c -8,-7 -17,-10 -27,-10 -10,0 -20,3 -28,10 l 101,327 c -34,-12 -70,-23 -106,-23 -47,0 -87,34 -87,79 0,40 32,72 72,72 79,0 46,-98 91,-98 16,0 55,51 60,68 L 243,76 C 209,64 175,54 139,54 92,54 52,88 52,133 c 0,40 33,72 73,72 z"
       fill="currentColor"
       id="path56" />
  </g>
  <g
     transform="translate(22.3584,4.279)"
     id="g62">
    <path
       transform="scale(0.004,-0.004)"
       d="m 218,136 c 66,0 108,-36 108,-89 0,-89 -113,-183 -218,-183 -66,0 -108,36 -108,89 0,89 113,183 218,183 z"
       fill="currentColor"
       id="path60" />
  </g>
  <g
     transform="translate(23.5976,3.779)"
     id="g66">
    <rect
       x="-0.064999998"
       y="-3"
       width="0.13"
       height="3.3139"
       ry="0.039999999"
       fill="currentColor"
       id="rect64" />
  </g>
  <g
     transform="translate(23.6626,0.819)"
     id="g70">
    <path
       transform="scale(0.004,-0.004)"
       d="m 0,0 c 0,-177 201,-293 201,-470 0,-33 -9,-65 -23,-95 18,-37 29,-75 29,-117 0,-63 -15,-125 -41,-183 -5,-8 -13,-12 -20,-12 -13,0 -26,11 -23,27 26,52 42,110 42,168 0,97 -94,190 -165,257 v -75 H -16 V 0 Z m 151,-517 c 5,15 8,31 8,47 0,96 -91,190 -159,257 0,-118 90,-206 151,-304 z"
       fill="currentColor"
       id="path68" />
  </g>
</svg>
