<?xml version="1.0" encoding="UTF-8" standalone="no"?>
<svg
   version="1.2"
   width="39.231701mm"
   height="14.6441mm"
   viewBox="0 0 22.324999 8.333301"
   id="svg112"
   xmlns="http://www.w3.org/2000/svg"
   xmlns:svg="http://www.w3.org/2000/svg">
  <defs
     id="defs116" />
  <style
     type="text/css"
     id="style2"><![CDATA[
tspan { white-space: pre; }
]]></style>
  <g
     transform="translate(0,6.3333001)"
     id="g6">
    <line
       stroke-linejoin="round"
       stroke-linecap="round"
       stroke-width="0.1"
       stroke="currentColor"
       x1="0.050000001"
       y1="0"
       x2="22.275"
       y2="0"
       id="line4" />
  </g>
  <g
     transform="translate(0,5.3333001)"
     id="g10">
    <line
       stroke-linejoin="round"
       stroke-linecap="round"
       stroke-width="0.1"
       stroke="currentColor"
       x1="0.050000001"
       y1="0"
       x2="22.275"
       y2="0"
       id="line8" />
  </g>
  <g
     transform="translate(0,4.3333001)"
     id="g14">
    <line
       stroke-linejoin="round"
       stroke-linecap="round"
       stroke-width="0.1"
       stroke="currentColor"
       x1="0.050000001"
       y1="0"
       x2="22.275"
       y2="0"
       id="line12" />
  </g>
  <g
     transform="translate(0,3.3333001)"
     id="g18">
    <line
       stroke-linejoin="round"
       stroke-linecap="round"
       stroke-width="0.1"
       stroke="currentColor"
       x1="0.050000001"
       y1="0"
       x2="22.275"
       y2="0"
       id="line16" />
  </g>
  <g
     transform="translate(0,2.3333001)"
     id="g22">
    <line
       stroke-linejoin="round"
       stroke-linecap="round"
       stroke-width="0.1"
       stroke="currentColor"
       x1="0.050000001"
       y1="0"
       x2="22.275"
       y2="0"
       id="line20" />
  </g>
  <g
     transform="translate(22.135,4.3333001)"
     id="g26">
    <rect
       x="0"
       y="-2"
       width="0.19"
       height="4"
       ry="0.0000"
       fill="currentColor"
       id="rect24" />
  </g>
  <g
     transform="translate(9.6424,1.5233001)"
     id="g30">
    <polygon
       stroke-linejoin="round"
       stroke-linecap="round"
       stroke-width="0.08"
       fill="currentColor"
       stroke="currentColor"
       points="0.04,0.2 0.04,-0.2 5.3484,-1.2 5.3484,-0.8 "
       id="polygon28" />
  </g>
  <g
     transform="translate(11.2224,4.3333001)"
     id="g34">
    <path
       stroke-width="0.08"
       stroke-linejoin="round"
       stroke-linecap="round"
       stroke="currentColor"
       fill="currentColor"
       d="m 0.8521,0.225 c 0.7791,0.7734 3.1772,0.7734 3.9563,0 v 0 c -0.7791,0.6534 -3.1772,0.6534 -3.9563,0 z"
       id="path32" />
  </g>
  <g
     transform="translate(8.4682,5.3333001)"
     id="g38">
    <path
       transform="scale(0.004,-0.004)"
       d="m 218,136 c 66,0 108,-36 108,-89 0,-89 -113,-183 -218,-183 -66,0 -108,36 -108,89 0,89 113,183 218,183 z"
       fill="currentColor"
       id="path36" />
  </g>
  <g
     transform="translate(0.8,5.3333001)"
     id="g42">
    <path
       transform="scale(0.004,-0.004)"
       d="m 266,-635 h -6 c -108,0 -195,88 -195,197 0,58 53,103 112,103 54,0 95,-47 95,-103 0,-52 -43,-95 -95,-95 -11,0 -21,2 -31,6 26,-39 68,-65 117,-65 h 4 z m 195,432 c 68,24 113,90 113,164 0,90 -66,179 -173,190 19,-89 48,-242 60,-354 z M 74,28 c 0,-145 141,-247 264,-247 1,0 47,0 82,6 -7,64 -29,203 -63,364 -79,-8 -124,-61 -124,-119 0,-44 25,-91 81,-123 5,-5 7,-10 7,-15 0,-11 -10,-22 -22,-22 -15,0 -126,62 -126,187 0,88 58,174 160,197 -14,58 -29,117 -46,175 C 180,310 74,188 74,28 Z m 176,525 c -29,96 -52,170 -52,346 0,115 55,224 149,292 6,5 14,5 20,0 68,-80 133,-245 133,-358 0,-143 -86,-255 -180,-364 21,-68 39,-138 56,-207 2,0 7,1 13,1 155,0 256,-128 256,-261 0,-113 -74,-212 -180,-246 3,-35 5,-70 5,-105 0,-19 -1,-39 -2,-58 -7,-119 -88,-225 -202,-228 l 1,43 c 93,2 153,92 159,191 1,18 2,37 2,55 0,31 -1,61 -4,92 -5,-1 -44,-8 -89,-8 C 142,-262 2,-82 2,112 2,289 133,418 250,553 Z m 178,363 c 0,34 1,66 -20,129 -99,-48 -162,-149 -162,-259 0,-52 12,-115 36,-194 80,97 146,198 146,324 z"
       fill="currentColor"
       id="path40" />
  </g>
  <g
     transform="translate(5.0512,4.3333001)"
     id="g46">
    <path
       transform="scale(0.004,-0.004)"
       d="m 170,259 c -51,0 -53,-43 -53,-100 v -18 -18 c 0,-57 2,-100 53,-100 57,0 61,51 61,118 0,67 -4,118 -61,118 z m -53,7 c 15,10 33,16 53,16 101,0 170,-46 170,-141 C 340,46 271,0 170,0 58,0 0,124 0,250 c 0,128 72,250 190,250 70,0 136,-39 136,-103 0,-36 -29,-66 -65,-66 -36,0 -66,30 -66,66 0,24 40,25 40,49 0,20 -23,31 -45,31 -66,0 -75,-65 -75,-139 0,-24 2,-48 2,-72 z"
       fill="currentColor"
       id="path44" />
  </g>
  <g
     transform="translate(5,6.3334001)"
     id="g50">
    <path
       transform="scale(0.004,-0.004)"
       d="m 261,287 c 25,30 44,64 44,103 0,54 -55,87 -114,87 -46,0 -73,-36 -73,-71 0,-21 10,-42 31,-54 z m 31,-18 C 315,256 372,215 372,144 372,71 306,0 183,0 89,0 0,54 0,140 c 0,50 36,87 72,123 -37,28 -55,66 -55,103 0,68 60,134 174,134 80,0 157,-39 157,-110 0,-46 -25,-86 -56,-121 z M 103,244 C 72,214 44,183 44,140 44,71 110,23 183,23 c 54,0 86,42 86,83 0,24 -10,48 -35,62 z"
       fill="currentColor"
       id="path48" />
  </g>
  <g
     transform="translate(9.7074,4.3333001)"
     id="g54">
    <rect
       x="-0.064999998"
       y="-2.8220999"
       width="0.13"
       height="3.6359999"
       ry="0.039999999"
       fill="currentColor"
       id="rect52" />
  </g>
  <g
     transform="translate(10.2224,5.8333001)"
     id="g58">
    <path
       transform="scale(0.004,-0.004)"
       d="M 0,0 C 0,31 25,56 56,56 87,56 112,31 112,0 112,-31 87,-56 56,-56 25,-56 0,-31 0,0 Z"
       fill="currentColor"
       id="path56" />
  </g>
  <g
     transform="translate(8.5332,4.3333001)"
     id="g62">
    <rect
       x="-0.064999998"
       y="1.1861"
       width="0.13"
       height="2.8139"
       ry="0.039999999"
       fill="currentColor"
       id="rect60" />
  </g>
  <g
     transform="translate(8.4682,4.3333001)"
     id="g66">
    <path
       stroke-width="0.08"
       stroke-linejoin="round"
       stroke-linecap="round"
       stroke="currentColor"
       fill="currentColor"
       d="m 0.8521,1.75 c 1.0857,0.8983 6.2769,0.8983 7.3626,0 v 0 C 7.129,2.5283 1.9378,2.5283 0.8521,1.75 Z"
       id="path64" />
  </g>
  <g
     transform="translate(11.2224,3.8333001)"
     id="g70">
    <path
       transform="scale(0.004,-0.004)"
       d="m 218,136 c 66,0 108,-36 108,-89 0,-89 -113,-183 -218,-183 -66,0 -108,36 -108,89 0,89 113,183 218,183 z"
       fill="currentColor"
       id="path68" />
  </g>
  <g
     transform="translate(11.2224,3.8333001)"
     id="g74">
    <path
       transform="scale(0.004,-0.004)"
       d="m 218,136 c 66,0 108,-36 108,-89 0,-89 -113,-183 -218,-183 -66,0 -108,36 -108,89 0,89 113,183 218,183 z"
       fill="currentColor"
       id="path72" />
  </g>
  <g
     transform="translate(12.4616,4.3333001)"
     id="g78">
    <rect
       x="-0.064999998"
       y="-3.3332"
       width="0.13"
       height="2.6471"
       ry="0.039999999"
       fill="currentColor"
       id="rect76" />
  </g>
  <g
     transform="translate(11.2874,4.3333001)"
     id="g82">
    <rect
       x="-0.064999998"
       y="-0.31389999"
       width="0.13"
       height="3.3139"
       ry="0.039999999"
       fill="currentColor"
       id="rect80" />
  </g>
  <g
     transform="translate(13.7266,3.3333001)"
     id="g86">
    <path
       transform="scale(0.004,-0.004)"
       d="m 218,136 c 66,0 108,-36 108,-89 0,-89 -113,-183 -218,-183 -66,0 -108,36 -108,89 0,89 113,183 218,183 z"
       fill="currentColor"
       id="path84" />
  </g>
  <g
     transform="translate(14.9658,4.3333001)"
     id="g90">
    <rect
       x="-0.064999998"
       y="-3.7979"
       width="0.13"
       height="2.6118"
       ry="0.039999999"
       fill="currentColor"
       id="rect88" />
  </g>
  <g
     transform="translate(16.2308,5.3333001)"
     id="g94">
    <path
       transform="scale(0.004,-0.004)"
       d="m 218,136 c 66,0 108,-36 108,-89 0,-89 -113,-183 -218,-183 -66,0 -108,36 -108,89 0,89 113,183 218,183 z"
       fill="currentColor"
       id="path92" />
  </g>
  <g
     transform="translate(16.2308,3.8333001)"
     id="g98">
    <path
       transform="scale(0.004,-0.004)"
       d="m 218,136 c 66,0 108,-36 108,-89 0,-89 -113,-183 -218,-183 -66,0 -108,36 -108,89 0,89 113,183 218,183 z"
       fill="currentColor"
       id="path96" />
  </g>
  <g
     transform="translate(16.2308,2.8333001)"
     id="g102">
    <path
       transform="scale(0.004,-0.004)"
       d="m 218,136 c 66,0 108,-36 108,-89 0,-89 -113,-183 -218,-183 -66,0 -108,36 -108,89 0,89 113,183 218,183 z"
       fill="currentColor"
       id="path100" />
  </g>
  <g
     transform="translate(17.47,4.3333001)"
     id="g106">
    <rect
       x="-0.064999998"
       y="-4.3333001"
       width="0.13"
       height="5.1472001"
       ry="0.039999999"
       fill="currentColor"
       id="rect104" />
  </g>
  <g
     transform="translate(19.935,4.3333001)"
     id="g110">
    <path
       transform="scale(0.004,-0.004)"
       d="m 70,205 c 79,0 46,-98 91,-98 16,0 54,48 61,63 6,12 23,12 28,0 L 127,-250 c -8,-7 -17,-10 -27,-10 -10,0 -20,3 -28,10 L 189,76 C 155,64 120,54 84,54 37,54 -3,88 -3,133 c 0,40 33,72 73,72 z"
       fill="currentColor"
       id="path108" />
  </g>
</svg>
