<?xml version="1.0" encoding="UTF-8" standalone="no"?>
<svg
   version="1.2"
   width="45.502975mm"
   height="46.716038mm"
   viewBox="0 0 25.8937 26.584003"
   id="svg228"
   xmlns="http://www.w3.org/2000/svg"
   xmlns:svg="http://www.w3.org/2000/svg">
  <defs
     id="defs232" />
  <style
     type="text/css"
     id="style2"><![CDATA[
tspan { white-space: pre; }
]]></style>
  <g
     transform="translate(0.06,1.044)"
     id="g6">
    <rect
       x="20.499201"
       y="-0.1"
       width="1.9563"
       height="0.2"
       ry="0.1"
       fill="currentColor"
       id="rect4" />
  </g>
  <g
     transform="translate(0.06,2.044)"
     id="g10">
    <rect
       x="20.499201"
       y="-0.1"
       width="1.9563"
       height="0.2"
       ry="0.1"
       fill="currentColor"
       id="rect8" />
  </g>
  <g
     transform="translate(0.06,1.044)"
     id="g14">
    <rect
       x="15.4908"
       y="-0.1"
       width="1.9563"
       height="0.2"
       ry="0.1"
       fill="currentColor"
       id="rect12" />
  </g>
  <g
     transform="translate(0.06,2.044)"
     id="g18">
    <rect
       x="15.4908"
       y="-0.1"
       width="1.9563"
       height="0.2"
       ry="0.1"
       fill="currentColor"
       id="rect16" />
  </g>
  <g
     transform="translate(0.06,2.044)"
     id="g22">
    <rect
       x="10.4824"
       y="-0.1"
       width="1.9563"
       height="0.2"
       ry="0.1"
       fill="currentColor"
       id="rect20" />
  </g>
  <g
     transform="translate(0.06,2.044)"
     id="g26">
    <rect
       x="5.4738998"
       y="-0.1"
       width="1.9563"
       height="0.2"
       ry="0.1"
       fill="currentColor"
       id="rect24" />
  </g>
  <g
     transform="translate(0.06,7.044)"
     id="g30">
    <line
       stroke-linejoin="round"
       stroke-linecap="round"
       stroke-width="0.1"
       stroke="currentColor"
       x1="0.050000001"
       y1="0"
       x2="25.783701"
       y2="0"
       id="line28" />
  </g>
  <g
     transform="translate(0.06,6.044)"
     id="g34">
    <line
       stroke-linejoin="round"
       stroke-linecap="round"
       stroke-width="0.1"
       stroke="currentColor"
       x1="0.050000001"
       y1="0"
       x2="25.783701"
       y2="0"
       id="line32" />
  </g>
  <g
     transform="translate(0.06,5.044)"
     id="g38">
    <line
       stroke-linejoin="round"
       stroke-linecap="round"
       stroke-width="0.1"
       stroke="currentColor"
       x1="0.050000001"
       y1="0"
       x2="25.783701"
       y2="0"
       id="line36" />
  </g>
  <g
     transform="translate(0.06,4.044)"
     id="g42">
    <line
       stroke-linejoin="round"
       stroke-linecap="round"
       stroke-width="0.1"
       stroke="currentColor"
       x1="0.050000001"
       y1="0"
       x2="25.783701"
       y2="0"
       id="line40" />
  </g>
  <g
     transform="translate(0.06,3.044)"
     id="g46">
    <line
       stroke-linejoin="round"
       stroke-linecap="round"
       stroke-width="0.1"
       stroke="currentColor"
       x1="0.050000001"
       y1="0"
       x2="25.783701"
       y2="0"
       id="line44" />
  </g>
  <g
     transform="translate(0.06,25.044)"
     id="g50">
    <line
       stroke-linejoin="round"
       stroke-linecap="round"
       stroke-width="0.1"
       stroke="currentColor"
       x1="0.050000001"
       y1="0"
       x2="25.783701"
       y2="0"
       id="line48" />
  </g>
  <g
     transform="translate(0.06,24.044)"
     id="g54">
    <line
       stroke-linejoin="round"
       stroke-linecap="round"
       stroke-width="0.1"
       stroke="currentColor"
       x1="0.050000001"
       y1="0"
       x2="25.783701"
       y2="0"
       id="line52" />
  </g>
  <g
     transform="translate(0.06,23.044)"
     id="g58">
    <line
       stroke-linejoin="round"
       stroke-linecap="round"
       stroke-width="0.1"
       stroke="currentColor"
       x1="0.050000001"
       y1="0"
       x2="25.783701"
       y2="0"
       id="line56" />
  </g>
  <g
     transform="translate(0.06,22.044)"
     id="g62">
    <line
       stroke-linejoin="round"
       stroke-linecap="round"
       stroke-width="0.1"
       stroke="currentColor"
       x1="0.050000001"
       y1="0"
       x2="25.783701"
       y2="0"
       id="line60" />
  </g>
  <g
     transform="translate(0.06,21.044)"
     id="g66">
    <line
       stroke-linejoin="round"
       stroke-linecap="round"
       stroke-width="0.1"
       stroke="currentColor"
       x1="0.050000001"
       y1="0"
       x2="25.783701"
       y2="0"
       id="line64" />
  </g>
  <g
     transform="translate(0.06,11.044)"
     id="g70">
    <rect
       x="15.4725"
       y="-0.1"
       width="2.066"
       height="0.2"
       ry="0.1"
       fill="currentColor"
       id="rect68" />
  </g>
  <g
     transform="translate(0.06,16.044)"
     id="g74">
    <line
       stroke-linejoin="round"
       stroke-linecap="round"
       stroke-width="0.1"
       stroke="currentColor"
       x1="0.050000001"
       y1="0"
       x2="25.783701"
       y2="0"
       id="line72" />
  </g>
  <g
     transform="translate(0.06,15.044)"
     id="g78">
    <line
       stroke-linejoin="round"
       stroke-linecap="round"
       stroke-width="0.1"
       stroke="currentColor"
       x1="0.050000001"
       y1="0"
       x2="25.783701"
       y2="0"
       id="line76" />
  </g>
  <g
     transform="translate(0.06,14.044)"
     id="g82">
    <line
       stroke-linejoin="round"
       stroke-linecap="round"
       stroke-width="0.1"
       stroke="currentColor"
       x1="0.050000001"
       y1="0"
       x2="25.783701"
       y2="0"
       id="line80" />
  </g>
  <g
     transform="translate(0.06,13.044)"
     id="g86">
    <line
       stroke-linejoin="round"
       stroke-linecap="round"
       stroke-width="0.1"
       stroke="currentColor"
       x1="0.050000001"
       y1="0"
       x2="25.783701"
       y2="0"
       id="line84" />
  </g>
  <g
     transform="translate(0.06,12.044)"
     id="g90">
    <line
       stroke-linejoin="round"
       stroke-linecap="round"
       stroke-width="0.1"
       stroke="currentColor"
       x1="0.050000001"
       y1="0"
       x2="25.783701"
       y2="0"
       id="line88" />
  </g>
  <g
     transform="translate(0,14.044)"
     id="g94">
    <rect
       x="0"
       y="-11.05"
       width="0.16"
       height="22.1"
       ry="0.050000001"
       fill="currentColor"
       id="rect92" />
  </g>
  <g
     transform="translate(15.8769,25.044)"
     id="g98">
    <polygon
       stroke-linejoin="round"
       stroke-linecap="round"
       stroke-width="0.08"
       fill="currentColor"
       stroke="currentColor"
       points="0.04,0.2 0.04,-0.2 7.6026,-0.2 7.6026,0.2 "
       id="polygon96" />
  </g>
  <g
     transform="translate(5.86,25.044)"
     id="g102">
    <polygon
       stroke-linejoin="round"
       stroke-linecap="round"
       stroke-width="0.08"
       fill="currentColor"
       stroke="currentColor"
       points="0.04,0.2 0.04,-0.2 7.6026,-0.2 7.6026,0.2 "
       id="polygon100" />
  </g>
  <g
     transform="translate(5.86,2.044)"
     id="g106">
    <path
       transform="scale(0.004,-0.004)"
       d="m 218,136 c 66,0 108,-36 108,-89 0,-89 -113,-183 -218,-183 -66,0 -108,36 -108,89 0,89 113,183 218,183 z"
       fill="currentColor"
       id="path104" />
  </g>
  <g
     transform="translate(0.86,6.044)"
     id="g110">
    <path
       transform="scale(0.004,-0.004)"
       d="m 266,-635 h -6 c -108,0 -195,88 -195,197 0,58 53,103 112,103 54,0 95,-47 95,-103 0,-52 -43,-95 -95,-95 -11,0 -21,2 -31,6 26,-39 68,-65 117,-65 h 4 z m 195,432 c 68,24 113,90 113,164 0,90 -66,179 -173,190 19,-89 48,-242 60,-354 z M 74,28 c 0,-145 141,-247 264,-247 1,0 47,0 82,6 -7,64 -29,203 -63,364 -79,-8 -124,-61 -124,-119 0,-44 25,-91 81,-123 5,-5 7,-10 7,-15 0,-11 -10,-22 -22,-22 -15,0 -126,62 -126,187 0,88 58,174 160,197 -14,58 -29,117 -46,175 C 180,310 74,188 74,28 Z m 176,525 c -29,96 -52,170 -52,346 0,115 55,224 149,292 6,5 14,5 20,0 68,-80 133,-245 133,-358 0,-143 -86,-255 -180,-364 21,-68 39,-138 56,-207 2,0 7,1 13,1 155,0 256,-128 256,-261 0,-113 -74,-212 -180,-246 3,-35 5,-70 5,-105 0,-19 -1,-39 -2,-58 -7,-119 -88,-225 -202,-228 l 1,43 c 93,2 153,92 159,191 1,18 2,37 2,55 0,31 -1,61 -4,92 -5,-1 -44,-8 -89,-8 C 142,-262 2,-82 2,112 2,289 133,418 250,553 Z m 178,363 c 0,34 1,66 -20,129 -99,-48 -162,-149 -162,-259 0,-52 12,-115 36,-194 80,97 146,198 146,324 z"
       fill="currentColor"
       id="path108" />
  </g>
  <g
     transform="translate(5.86,14.544)"
     id="g114">
    <path
       transform="scale(0.004,-0.004)"
       d="m 314,65 c 0,23 -19,41 -42,41 C 233,106 68,-4 41,-37 34,-45 31,-55 31,-65 c 0,-23 19,-41 42,-41 39,0 203,110 230,143 7,8 11,18 11,28 z m -52,71 c 41,0 82,-14 82,-71 0,-26 -16,-112 -74,-151 -25,-17 -87,-50 -187,-50 -41,0 -83,14 -83,71 0,26 16,112 74,151 25,17 88,50 188,50 z"
       fill="currentColor"
       id="path112" />
  </g>
  <g
     transform="translate(0.86,15.044)"
     id="g118">
    <path
       transform="scale(0.004,-0.004)"
       d="m 266,-635 h -6 c -108,0 -195,88 -195,197 0,58 53,103 112,103 54,0 95,-47 95,-103 0,-52 -43,-95 -95,-95 -11,0 -21,2 -31,6 26,-39 68,-65 117,-65 h 4 z m 195,432 c 68,24 113,90 113,164 0,90 -66,179 -173,190 19,-89 48,-242 60,-354 z M 74,28 c 0,-145 141,-247 264,-247 1,0 47,0 82,6 -7,64 -29,203 -63,364 -79,-8 -124,-61 -124,-119 0,-44 25,-91 81,-123 5,-5 7,-10 7,-15 0,-11 -10,-22 -22,-22 -15,0 -126,62 -126,187 0,88 58,174 160,197 -14,58 -29,117 -46,175 C 180,310 74,188 74,28 Z m 176,525 c -29,96 -52,170 -52,346 0,115 55,224 149,292 6,5 14,5 20,0 68,-80 133,-245 133,-358 0,-143 -86,-255 -180,-364 21,-68 39,-138 56,-207 2,0 7,1 13,1 155,0 256,-128 256,-261 0,-113 -74,-212 -180,-246 3,-35 5,-70 5,-105 0,-19 -1,-39 -2,-58 -7,-119 -88,-225 -202,-228 l 1,43 c 93,2 153,92 159,191 1,18 2,37 2,55 0,31 -1,61 -4,92 -5,-1 -44,-8 -89,-8 C 142,-262 2,-82 2,112 2,289 133,418 250,553 Z m 178,363 c 0,34 1,66 -20,129 -99,-48 -162,-149 -162,-259 0,-52 12,-115 36,-194 80,97 146,198 146,324 z"
       fill="currentColor"
       id="path116" />
  </g>
  <g
     transform="translate(5.86,22.044)"
     id="g122">
    <path
       transform="scale(0.004,-0.004)"
       d="m 218,136 c 66,0 108,-36 108,-89 0,-89 -113,-183 -218,-183 -66,0 -108,36 -108,89 0,89 113,183 218,183 z"
       fill="currentColor"
       id="path120" />
  </g>
  <g
     transform="translate(0.86,24.044)"
     id="g126">
    <path
       transform="scale(0.004,-0.004)"
       d="m 266,-635 h -6 c -108,0 -195,88 -195,197 0,58 53,103 112,103 54,0 95,-47 95,-103 0,-52 -43,-95 -95,-95 -11,0 -21,2 -31,6 26,-39 68,-65 117,-65 h 4 z m 195,432 c 68,24 113,90 113,164 0,90 -66,179 -173,190 19,-89 48,-242 60,-354 z M 74,28 c 0,-145 141,-247 264,-247 1,0 47,0 82,6 -7,64 -29,203 -63,364 -79,-8 -124,-61 -124,-119 0,-44 25,-91 81,-123 5,-5 7,-10 7,-15 0,-11 -10,-22 -22,-22 -15,0 -126,62 -126,187 0,88 58,174 160,197 -14,58 -29,117 -46,175 C 180,310 74,188 74,28 Z m 176,525 c -29,96 -52,170 -52,346 0,115 55,224 149,292 6,5 14,5 20,0 68,-80 133,-245 133,-358 0,-143 -86,-255 -180,-364 21,-68 39,-138 56,-207 2,0 7,1 13,1 155,0 256,-128 256,-261 0,-113 -74,-212 -180,-246 3,-35 5,-70 5,-105 0,-19 -1,-39 -2,-58 -7,-119 -88,-225 -202,-228 l 1,43 c 93,2 153,92 159,191 1,18 2,37 2,55 0,31 -1,61 -4,92 -5,-1 -44,-8 -89,-8 C 142,-262 2,-82 2,112 2,289 133,418 250,553 Z m 178,363 c 0,34 1,66 -20,129 -99,-48 -162,-149 -162,-259 0,-52 12,-115 36,-194 80,97 146,198 146,324 z"
       fill="currentColor"
       id="path124" />
  </g>
  <g
     transform="translate(5.925,5.044)"
     id="g130">
    <rect
       x="-0.064999998"
       y="-2.8139"
       width="0.13"
       height="3.3139"
       ry="0.039999999"
       fill="currentColor"
       id="rect128" />
  </g>
  <g
     transform="translate(7.1724,14.044)"
     id="g134">
    <rect
       x="-0.064999998"
       y="-3"
       width="0.13"
       height="3.2409999"
       ry="0.039999999"
       fill="currentColor"
       id="rect132" />
  </g>
  <g
     transform="translate(5.925,23.044)"
     id="g138">
    <rect
       x="-0.064999998"
       y="-0.81389999"
       width="0.13"
       height="2.8139"
       ry="0.039999999"
       fill="currentColor"
       id="rect136" />
  </g>
  <g
     transform="translate(8.3642,22.044)"
     id="g142">
    <path
       transform="scale(0.004,-0.004)"
       d="m 218,136 c 66,0 108,-36 108,-89 0,-89 -113,-183 -218,-183 -66,0 -108,36 -108,89 0,89 113,183 218,183 z"
       fill="currentColor"
       id="path140" />
  </g>
  <g
     transform="translate(8.4292,23.044)"
     id="g146">
    <rect
       x="-0.064999998"
       y="-0.81389999"
       width="0.13"
       height="2.8139"
       ry="0.039999999"
       fill="currentColor"
       id="rect144" />
  </g>
  <g
     transform="translate(10.8684,1.544)"
     id="g150">
    <path
       transform="scale(0.004,-0.004)"
       d="m 218,136 c 66,0 108,-36 108,-89 0,-89 -113,-183 -218,-183 -66,0 -108,36 -108,89 0,89 113,183 218,183 z"
       fill="currentColor"
       id="path148" />
  </g>
  <g
     transform="translate(10.8684,22.044)"
     id="g154">
    <path
       transform="scale(0.004,-0.004)"
       d="m 218,136 c 66,0 108,-36 108,-89 0,-89 -113,-183 -218,-183 -66,0 -108,36 -108,89 0,89 113,183 218,183 z"
       fill="currentColor"
       id="path152" />
  </g>
  <g
     transform="translate(10.9334,5.044)"
     id="g158">
    <rect
       x="-0.064999998"
       y="-3.3139"
       width="0.13"
       height="3.3139"
       ry="0.039999999"
       fill="currentColor"
       id="rect156" />
  </g>
  <g
     transform="translate(10.9334,23.044)"
     id="g162">
    <rect
       x="-0.064999998"
       y="-0.81389999"
       width="0.13"
       height="2.8139"
       ry="0.039999999"
       fill="currentColor"
       id="rect160" />
  </g>
  <g
     transform="translate(13.3726,22.044)"
     id="g166">
    <path
       transform="scale(0.004,-0.004)"
       d="m 218,136 c 66,0 108,-36 108,-89 0,-89 -113,-183 -218,-183 -66,0 -108,36 -108,89 0,89 113,183 218,183 z"
       fill="currentColor"
       id="path164" />
  </g>
  <g
     transform="translate(13.4376,23.044)"
     id="g170">
    <rect
       x="-0.064999998"
       y="-0.81389999"
       width="0.13"
       height="2.8139"
       ry="0.039999999"
       fill="currentColor"
       id="rect168" />
  </g>
  <g
     transform="translate(15.8769,1.044)"
     id="g174">
    <path
       transform="scale(0.004,-0.004)"
       d="m 218,136 c 66,0 108,-36 108,-89 0,-89 -113,-183 -218,-183 -66,0 -108,36 -108,89 0,89 113,183 218,183 z"
       fill="currentColor"
       id="path172" />
  </g>
  <g
     transform="translate(15.8769,11.044)"
     id="g178">
    <path
       transform="scale(0.004,-0.004)"
       d="m 314,65 c 0,23 -19,41 -42,41 C 233,106 68,-4 41,-37 34,-45 31,-55 31,-65 c 0,-23 19,-41 42,-41 39,0 203,110 230,143 7,8 11,18 11,28 z m -52,71 c 41,0 82,-14 82,-71 0,-26 -16,-112 -74,-151 -25,-17 -87,-50 -187,-50 -41,0 -83,14 -83,71 0,26 16,112 74,151 25,17 88,50 188,50 z"
       fill="currentColor"
       id="path176" />
  </g>
  <g
     transform="translate(15.8769,22.044)"
     id="g182">
    <path
       transform="scale(0.004,-0.004)"
       d="m 218,136 c 66,0 108,-36 108,-89 0,-89 -113,-183 -218,-183 -66,0 -108,36 -108,89 0,89 113,183 218,183 z"
       fill="currentColor"
       id="path180" />
  </g>
  <g
     transform="translate(15.9419,5.044)"
     id="g186">
    <rect
       x="-0.064999998"
       y="-3.8139"
       width="0.13"
       height="3.8139"
       ry="0.039999999"
       fill="currentColor"
       id="rect184" />
  </g>
  <g
     transform="translate(15.9419,14.044)"
     id="g190">
    <rect
       x="-0.064999998"
       y="-2.7409999"
       width="0.13"
       height="3.2409999"
       ry="0.039999999"
       fill="currentColor"
       id="rect188" />
  </g>
  <g
     transform="translate(15.9419,23.044)"
     id="g194">
    <rect
       x="-0.064999998"
       y="-0.81389999"
       width="0.13"
       height="2.8139"
       ry="0.039999999"
       fill="currentColor"
       id="rect192" />
  </g>
  <g
     transform="translate(18.3811,22.044)"
     id="g198">
    <path
       transform="scale(0.004,-0.004)"
       d="m 218,136 c 66,0 108,-36 108,-89 0,-89 -113,-183 -218,-183 -66,0 -108,36 -108,89 0,89 113,183 218,183 z"
       fill="currentColor"
       id="path196" />
  </g>
  <g
     transform="translate(18.4461,23.044)"
     id="g202">
    <rect
       x="-0.064999998"
       y="-0.81389999"
       width="0.13"
       height="2.8139"
       ry="0.039999999"
       fill="currentColor"
       id="rect200" />
  </g>
  <g
     transform="translate(20.8853,0.544)"
     id="g206">
    <path
       transform="scale(0.004,-0.004)"
       d="m 218,136 c 66,0 108,-36 108,-89 0,-89 -113,-183 -218,-183 -66,0 -108,36 -108,89 0,89 113,183 218,183 z"
       fill="currentColor"
       id="path204" />
  </g>
  <g
     transform="translate(20.8853,22.044)"
     id="g210">
    <path
       transform="scale(0.004,-0.004)"
       d="m 218,136 c 66,0 108,-36 108,-89 0,-89 -113,-183 -218,-183 -66,0 -108,36 -108,89 0,89 113,183 218,183 z"
       fill="currentColor"
       id="path208" />
  </g>
  <g
     transform="translate(20.9503,5.044)"
     id="g214">
    <rect
       x="-0.064999998"
       y="-4.3139"
       width="0.13"
       height="4.3139"
       ry="0.039999999"
       fill="currentColor"
       id="rect212" />
  </g>
  <g
     transform="translate(20.9503,23.044)"
     id="g218">
    <rect
       x="-0.064999998"
       y="-0.81389999"
       width="0.13"
       height="2.8139"
       ry="0.039999999"
       fill="currentColor"
       id="rect216" />
  </g>
  <g
     transform="translate(23.3895,22.044)"
     id="g222">
    <path
       transform="scale(0.004,-0.004)"
       d="m 218,136 c 66,0 108,-36 108,-89 0,-89 -113,-183 -218,-183 -66,0 -108,36 -108,89 0,89 113,183 218,183 z"
       fill="currentColor"
       id="path220" />
  </g>
  <g
     transform="translate(23.4545,23.044)"
     id="g226">
    <rect
       x="-0.064999998"
       y="-0.81389999"
       width="0.13"
       height="2.8139"
       ry="0.039999999"
       fill="currentColor"
       id="rect224" />
  </g>
</svg>
