<?xml version="1.0" encoding="UTF-8" standalone="no"?>
<svg
   version="1.2"
   width="175.63588mm"
   height="17.261948mm"
   viewBox="0 0 99.946491 9.8230006"
   id="svg524"
   xmlns="http://www.w3.org/2000/svg"
   xmlns:svg="http://www.w3.org/2000/svg">
  <defs
     id="defs528" />
  <style
     type="text/css"
     id="style2"><![CDATA[
tspan { white-space: pre; }
]]></style>
  <g
     transform="translate(0,6.779)"
     id="g6">
    <rect
       x="97.116203"
       y="-0.1"
       width="1.9563"
       height="0.2"
       ry="0.1"
       fill="currentColor"
       id="rect4" />
  </g>
  <g
     transform="translate(0,7.779)"
     id="g10">
    <rect
       x="97.116203"
       y="-0.1"
       width="1.9563"
       height="0.2"
       ry="0.1"
       fill="currentColor"
       id="rect8" />
  </g>
  <g
     transform="translate(0,8.779)"
     id="g14">
    <rect
       x="97.116203"
       y="-0.1"
       width="1.9563"
       height="0.2"
       ry="0.1"
       fill="currentColor"
       id="rect12" />
  </g>
  <g
     transform="translate(0,6.779)"
     id="g18">
    <rect
       x="94.612"
       y="-0.1"
       width="1.9563"
       height="0.2"
       ry="0.1"
       fill="currentColor"
       id="rect16" />
  </g>
  <g
     transform="translate(0,7.779)"
     id="g22">
    <rect
       x="94.612"
       y="-0.1"
       width="1.9563"
       height="0.2"
       ry="0.1"
       fill="currentColor"
       id="rect20" />
  </g>
  <g
     transform="translate(0,8.779)"
     id="g26">
    <rect
       x="94.612"
       y="-0.1"
       width="1.9563"
       height="0.2"
       ry="0.1"
       fill="currentColor"
       id="rect24" />
  </g>
  <g
     transform="translate(0,6.779)"
     id="g30">
    <rect
       x="92.107803"
       y="-0.1"
       width="1.9563"
       height="0.2"
       ry="0.1"
       fill="currentColor"
       id="rect28" />
  </g>
  <g
     transform="translate(0,7.779)"
     id="g34">
    <rect
       x="92.107803"
       y="-0.1"
       width="1.9563"
       height="0.2"
       ry="0.1"
       fill="currentColor"
       id="rect32" />
  </g>
  <g
     transform="translate(0,8.779)"
     id="g38">
    <rect
       x="92.107803"
       y="-0.1"
       width="1.9563"
       height="0.2"
       ry="0.1"
       fill="currentColor"
       id="rect36" />
  </g>
  <g
     transform="translate(0,6.779)"
     id="g42">
    <rect
       x="89.6036"
       y="-0.1"
       width="1.9563"
       height="0.2"
       ry="0.1"
       fill="currentColor"
       id="rect40" />
  </g>
  <g
     transform="translate(0,7.779)"
     id="g46">
    <rect
       x="89.6036"
       y="-0.1"
       width="1.9563"
       height="0.2"
       ry="0.1"
       fill="currentColor"
       id="rect44" />
  </g>
  <g
     transform="translate(0,8.779)"
     id="g50">
    <rect
       x="89.6036"
       y="-0.1"
       width="1.9563"
       height="0.2"
       ry="0.1"
       fill="currentColor"
       id="rect48" />
  </g>
  <g
     transform="translate(0,6.779)"
     id="g54">
    <rect
       x="87.099403"
       y="-0.1"
       width="1.9563"
       height="0.2"
       ry="0.1"
       fill="currentColor"
       id="rect52" />
  </g>
  <g
     transform="translate(0,7.779)"
     id="g58">
    <rect
       x="87.099403"
       y="-0.1"
       width="1.9563"
       height="0.2"
       ry="0.1"
       fill="currentColor"
       id="rect56" />
  </g>
  <g
     transform="translate(0,8.779)"
     id="g62">
    <rect
       x="87.099403"
       y="-0.1"
       width="1.9563"
       height="0.2"
       ry="0.1"
       fill="currentColor"
       id="rect60" />
  </g>
  <g
     transform="translate(0,6.779)"
     id="g66">
    <rect
       x="84.5952"
       y="-0.1"
       width="1.9563"
       height="0.2"
       ry="0.1"
       fill="currentColor"
       id="rect64" />
  </g>
  <g
     transform="translate(0,7.779)"
     id="g70">
    <rect
       x="84.5952"
       y="-0.1"
       width="1.9563"
       height="0.2"
       ry="0.1"
       fill="currentColor"
       id="rect68" />
  </g>
  <g
     transform="translate(0,8.779)"
     id="g74">
    <rect
       x="84.5952"
       y="-0.1"
       width="1.9563"
       height="0.2"
       ry="0.1"
       fill="currentColor"
       id="rect72" />
  </g>
  <g
     transform="translate(0,6.779)"
     id="g78">
    <rect
       x="82.091003"
       y="-0.1"
       width="1.9563"
       height="0.2"
       ry="0.1"
       fill="currentColor"
       id="rect76" />
  </g>
  <g
     transform="translate(0,7.779)"
     id="g82">
    <rect
       x="82.091003"
       y="-0.1"
       width="1.9563"
       height="0.2"
       ry="0.1"
       fill="currentColor"
       id="rect80" />
  </g>
  <g
     transform="translate(0,8.779)"
     id="g86">
    <rect
       x="82.091003"
       y="-0.1"
       width="1.9563"
       height="0.2"
       ry="0.1"
       fill="currentColor"
       id="rect84" />
  </g>
  <g
     transform="translate(0,6.779)"
     id="g90">
    <rect
       x="79.5868"
       y="-0.1"
       width="1.9563"
       height="0.2"
       ry="0.1"
       fill="currentColor"
       id="rect88" />
  </g>
  <g
     transform="translate(0,7.779)"
     id="g94">
    <rect
       x="79.5868"
       y="-0.1"
       width="1.9563"
       height="0.2"
       ry="0.1"
       fill="currentColor"
       id="rect92" />
  </g>
  <g
     transform="translate(0,8.779)"
     id="g98">
    <rect
       x="79.5868"
       y="-0.1"
       width="1.9563"
       height="0.2"
       ry="0.1"
       fill="currentColor"
       id="rect96" />
  </g>
  <g
     transform="translate(0,6.779)"
     id="g102">
    <rect
       x="77.082497"
       y="-0.1"
       width="1.9563"
       height="0.2"
       ry="0.1"
       fill="currentColor"
       id="rect100" />
  </g>
  <g
     transform="translate(0,7.779)"
     id="g106">
    <rect
       x="77.082497"
       y="-0.1"
       width="1.9563"
       height="0.2"
       ry="0.1"
       fill="currentColor"
       id="rect104" />
  </g>
  <g
     transform="translate(0,8.779)"
     id="g110">
    <rect
       x="77.082497"
       y="-0.1"
       width="1.9563"
       height="0.2"
       ry="0.1"
       fill="currentColor"
       id="rect108" />
  </g>
  <g
     transform="translate(0,6.779)"
     id="g114">
    <rect
       x="74.5783"
       y="-0.1"
       width="1.9563"
       height="0.2"
       ry="0.1"
       fill="currentColor"
       id="rect112" />
  </g>
  <g
     transform="translate(0,7.779)"
     id="g118">
    <rect
       x="74.5783"
       y="-0.1"
       width="1.9563"
       height="0.2"
       ry="0.1"
       fill="currentColor"
       id="rect116" />
  </g>
  <g
     transform="translate(0,8.779)"
     id="g122">
    <rect
       x="74.5783"
       y="-0.1"
       width="1.9563"
       height="0.2"
       ry="0.1"
       fill="currentColor"
       id="rect120" />
  </g>
  <g
     transform="translate(0,6.779)"
     id="g126">
    <rect
       x="72.074097"
       y="-0.1"
       width="1.9563"
       height="0.2"
       ry="0.1"
       fill="currentColor"
       id="rect124" />
  </g>
  <g
     transform="translate(0,7.779)"
     id="g130">
    <rect
       x="72.074097"
       y="-0.1"
       width="1.9563"
       height="0.2"
       ry="0.1"
       fill="currentColor"
       id="rect128" />
  </g>
  <g
     transform="translate(0,8.779)"
     id="g134">
    <rect
       x="72.074097"
       y="-0.1"
       width="1.9563"
       height="0.2"
       ry="0.1"
       fill="currentColor"
       id="rect132" />
  </g>
  <g
     transform="translate(0,6.779)"
     id="g138">
    <rect
       x="69.569901"
       y="-0.1"
       width="1.9563"
       height="0.2"
       ry="0.1"
       fill="currentColor"
       id="rect136" />
  </g>
  <g
     transform="translate(0,7.779)"
     id="g142">
    <rect
       x="69.569901"
       y="-0.1"
       width="1.9563"
       height="0.2"
       ry="0.1"
       fill="currentColor"
       id="rect140" />
  </g>
  <g
     transform="translate(0,8.779)"
     id="g146">
    <rect
       x="69.569901"
       y="-0.1"
       width="1.9563"
       height="0.2"
       ry="0.1"
       fill="currentColor"
       id="rect144" />
  </g>
  <g
     transform="translate(0,5.779)"
     id="g150">
    <line
       stroke-linejoin="round"
       stroke-linecap="round"
       stroke-width="0.1"
       stroke="currentColor"
       x1="0.050000001"
       y1="0"
       x2="99.8965"
       y2="0"
       id="line148" />
  </g>
  <g
     transform="translate(0,4.779)"
     id="g154">
    <line
       stroke-linejoin="round"
       stroke-linecap="round"
       stroke-width="0.1"
       stroke="currentColor"
       x1="0.050000001"
       y1="0"
       x2="99.8965"
       y2="0"
       id="line152" />
  </g>
  <g
     transform="translate(0,3.779)"
     id="g158">
    <line
       stroke-linejoin="round"
       stroke-linecap="round"
       stroke-width="0.1"
       stroke="currentColor"
       x1="0.050000001"
       y1="0"
       x2="99.8965"
       y2="0"
       id="line156" />
  </g>
  <g
     transform="translate(0,2.779)"
     id="g162">
    <line
       stroke-linejoin="round"
       stroke-linecap="round"
       stroke-width="0.1"
       stroke="currentColor"
       x1="0.050000001"
       y1="0"
       x2="99.8965"
       y2="0"
       id="line160" />
  </g>
  <g
     transform="translate(0,1.779)"
     id="g166">
    <line
       stroke-linejoin="round"
       stroke-linecap="round"
       stroke-width="0.1"
       stroke="currentColor"
       x1="0.050000001"
       y1="0"
       x2="99.8965"
       y2="0"
       id="line164" />
  </g>
  <g
     transform="translate(68.806,3.779)"
     id="g170">
    <rect
       x="0"
       y="-2"
       width="0.19"
       height="4"
       ry="0.0000"
       fill="currentColor"
       id="rect168" />
  </g>
  <g
     transform="translate(71.0702,2.969)"
     id="g174">
    <polygon
       stroke-linejoin="round"
       stroke-linecap="round"
       stroke-width="0.08"
       fill="currentColor"
       stroke="currentColor"
       points="0.04,0.2 0.04,-0.2 27.6363,-0.2 27.6363,0.2 "
       id="polygon172" />
  </g>
  <g
     transform="translate(71.0702,3.779)"
     id="g178">
    <polygon
       stroke-linejoin="round"
       stroke-linecap="round"
       stroke-width="0.08"
       fill="currentColor"
       stroke="currentColor"
       points="0.04,0.2 0.04,-0.2 27.6363,-0.2 27.6363,0.2 "
       id="polygon176" />
  </g>
  <g
     transform="translate(71.0702,4.589)"
     id="g182">
    <polygon
       stroke-linejoin="round"
       stroke-linecap="round"
       stroke-width="0.08"
       fill="currentColor"
       stroke="currentColor"
       points="0.04,0.2 0.04,-0.2 27.6363,-0.2 27.6363,0.2 "
       id="polygon180" />
  </g>
  <g
     transform="translate(39.6929,1.969)"
     id="g186">
    <polygon
       stroke-linejoin="round"
       stroke-linecap="round"
       stroke-width="0.08"
       fill="currentColor"
       stroke="currentColor"
       points="0.04,0.2 0.04,-0.2 27.6363,-0.2 27.6363,0.2 "
       id="polygon184" />
  </g>
  <g
     transform="translate(59.7266,2.779)"
     id="g190">
    <polygon
       stroke-linejoin="round"
       stroke-linecap="round"
       stroke-width="0.08"
       fill="currentColor"
       stroke="currentColor"
       points="0.04,0.2 0.04,-0.2 7.6026,-0.2 7.6026,0.2 "
       id="polygon188" />
  </g>
  <g
     transform="translate(49.7098,2.779)"
     id="g194">
    <polygon
       stroke-linejoin="round"
       stroke-linecap="round"
       stroke-width="0.08"
       fill="currentColor"
       stroke="currentColor"
       points="0.04,0.2 0.04,-0.2 7.6026,-0.2 7.6026,0.2 "
       id="polygon192" />
  </g>
  <g
     transform="translate(39.6929,2.779)"
     id="g198">
    <polygon
       stroke-linejoin="round"
       stroke-linecap="round"
       stroke-width="0.08"
       fill="currentColor"
       stroke="currentColor"
       points="0.04,0.2 0.04,-0.2 7.6026,-0.2 7.6026,0.2 "
       id="polygon196" />
  </g>
  <g
     transform="translate(59.7266,3.589)"
     id="g202">
    <polygon
       stroke-linejoin="round"
       stroke-linecap="round"
       stroke-width="0.08"
       fill="currentColor"
       stroke="currentColor"
       points="0.04,0.2 0.04,-0.2 7.6026,-0.2 7.6026,0.2 "
       id="polygon200" />
  </g>
  <g
     transform="translate(49.7098,3.589)"
     id="g206">
    <polygon
       stroke-linejoin="round"
       stroke-linecap="round"
       stroke-width="0.08"
       fill="currentColor"
       stroke="currentColor"
       points="0.04,0.2 0.04,-0.2 7.6026,-0.2 7.6026,0.2 "
       id="polygon204" />
  </g>
  <g
     transform="translate(39.6929,3.589)"
     id="g210">
    <polygon
       stroke-linejoin="round"
       stroke-linecap="round"
       stroke-width="0.08"
       fill="currentColor"
       stroke="currentColor"
       points="0.04,0.2 0.04,-0.2 7.6026,-0.2 7.6026,0.2 "
       id="polygon208" />
  </g>
  <g
     transform="translate(8.4682,5.779)"
     id="g214">
    <path
       transform="scale(0.004,-0.004)"
       d="m 218,136 c 66,0 108,-36 108,-89 0,-89 -113,-183 -218,-183 -66,0 -108,36 -108,89 0,89 113,183 218,183 z"
       fill="currentColor"
       id="path212" />
  </g>
  <g
     transform="translate(0.8,4.779)"
     id="g218">
    <path
       transform="scale(0.004,-0.004)"
       d="m 266,-635 h -6 c -108,0 -195,88 -195,197 0,58 53,103 112,103 54,0 95,-47 95,-103 0,-52 -43,-95 -95,-95 -11,0 -21,2 -31,6 26,-39 68,-65 117,-65 h 4 z m 195,432 c 68,24 113,90 113,164 0,90 -66,179 -173,190 19,-89 48,-242 60,-354 z M 74,28 c 0,-145 141,-247 264,-247 1,0 47,0 82,6 -7,64 -29,203 -63,364 -79,-8 -124,-61 -124,-119 0,-44 25,-91 81,-123 5,-5 7,-10 7,-15 0,-11 -10,-22 -22,-22 -15,0 -126,62 -126,187 0,88 58,174 160,197 -14,58 -29,117 -46,175 C 180,310 74,188 74,28 Z m 176,525 c -29,96 -52,170 -52,346 0,115 55,224 149,292 6,5 14,5 20,0 68,-80 133,-245 133,-358 0,-143 -86,-255 -180,-364 21,-68 39,-138 56,-207 2,0 7,1 13,1 155,0 256,-128 256,-261 0,-113 -74,-212 -180,-246 3,-35 5,-70 5,-105 0,-19 -1,-39 -2,-58 -7,-119 -88,-225 -202,-228 l 1,43 c 93,2 153,92 159,191 1,18 2,37 2,55 0,31 -1,61 -4,92 -5,-1 -44,-8 -89,-8 C 142,-262 2,-82 2,112 2,289 133,418 250,553 Z m 178,363 c 0,34 1,66 -20,129 -99,-48 -162,-149 -162,-259 0,-52 12,-115 36,-194 80,97 146,198 146,324 z"
       fill="currentColor"
       id="path216" />
  </g>
  <g
     transform="translate(5.0512,3.779)"
     id="g222">
    <path
       transform="scale(0.004,-0.004)"
       d="m 170,259 c -51,0 -53,-43 -53,-100 v -18 -18 c 0,-57 2,-100 53,-100 57,0 61,51 61,118 0,67 -4,118 -61,118 z m -53,7 c 15,10 33,16 53,16 101,0 170,-46 170,-141 C 340,46 271,0 170,0 58,0 0,124 0,250 c 0,128 72,250 190,250 70,0 136,-39 136,-103 0,-36 -29,-66 -65,-66 -36,0 -66,30 -66,66 0,24 40,25 40,49 0,20 -23,31 -45,31 -66,0 -75,-65 -75,-139 0,-24 2,-48 2,-72 z"
       fill="currentColor"
       id="path220" />
  </g>
  <g
     transform="translate(5,5.779)"
     id="g226">
    <path
       transform="scale(0.004,-0.004)"
       d="m 261,287 c 25,30 44,64 44,103 0,54 -55,87 -114,87 -46,0 -73,-36 -73,-71 0,-21 10,-42 31,-54 z m 31,-18 C 315,256 372,215 372,144 372,71 306,0 183,0 89,0 0,54 0,140 c 0,50 36,87 72,123 -37,28 -55,66 -55,103 0,68 60,134 174,134 80,0 157,-39 157,-110 0,-46 -25,-86 -56,-121 z M 103,244 C 72,214 44,183 44,140 44,71 110,23 183,23 c 54,0 86,42 86,83 0,24 -10,48 -35,62 z"
       fill="currentColor"
       id="path224" />
  </g>
  <g
     transform="translate(9.7074,3.779)"
     id="g230">
    <rect
       x="-0.064999998"
       y="-1.8099999"
       width="0.13"
       height="3.6238999"
       ry="0.039999999"
       fill="currentColor"
       id="rect228" />
  </g>
  <g
     transform="translate(10.9724,5.279)"
     id="g234">
    <path
       transform="scale(0.004,-0.004)"
       d="m 218,136 c 66,0 108,-36 108,-89 0,-89 -113,-183 -218,-183 -66,0 -108,36 -108,89 0,89 113,183 218,183 z"
       fill="currentColor"
       id="path232" />
  </g>
  <g
     transform="translate(12.2116,3.779)"
     id="g238">
    <rect
       x="-0.064999998"
       y="-1.8099999"
       width="0.13"
       height="3.1238999"
       ry="0.039999999"
       fill="currentColor"
       id="rect236" />
  </g>
  <g
     transform="translate(13.4766,5.779)"
     id="g242">
    <path
       transform="scale(0.004,-0.004)"
       d="m 218,136 c 66,0 108,-36 108,-89 0,-89 -113,-183 -218,-183 -66,0 -108,36 -108,89 0,89 113,183 218,183 z"
       fill="currentColor"
       id="path240" />
  </g>
  <g
     transform="translate(14.7158,3.779)"
     id="g246">
    <rect
       x="-0.064999998"
       y="-1.8099999"
       width="0.13"
       height="3.6238999"
       ry="0.039999999"
       fill="currentColor"
       id="rect244" />
  </g>
  <g
     transform="translate(15.9808,5.279)"
     id="g250">
    <path
       transform="scale(0.004,-0.004)"
       d="m 218,136 c 66,0 108,-36 108,-89 0,-89 -113,-183 -218,-183 -66,0 -108,36 -108,89 0,89 113,183 218,183 z"
       fill="currentColor"
       id="path248" />
  </g>
  <g
     transform="translate(17.22,3.779)"
     id="g254">
    <rect
       x="-0.064999998"
       y="-1.8099999"
       width="0.13"
       height="3.1238999"
       ry="0.039999999"
       fill="currentColor"
       id="rect252" />
  </g>
  <g
     transform="translate(18.485,5.779)"
     id="g258">
    <path
       transform="scale(0.004,-0.004)"
       d="m 218,136 c 66,0 108,-36 108,-89 0,-89 -113,-183 -218,-183 -66,0 -108,36 -108,89 0,89 113,183 218,183 z"
       fill="currentColor"
       id="path256" />
  </g>
  <g
     transform="translate(19.7242,3.779)"
     id="g262">
    <rect
       x="-0.064999998"
       y="-1.8099999"
       width="0.13"
       height="3.6238999"
       ry="0.039999999"
       fill="currentColor"
       id="rect260" />
  </g>
  <g
     transform="translate(98.6815,3.779)"
     id="g266">
    <rect
       x="-0.064999998"
       y="-0.81"
       width="0.13"
       height="5.6238999"
       ry="0.039999999"
       fill="currentColor"
       id="rect264" />
  </g>
  <g
     transform="translate(20.9892,5.279)"
     id="g270">
    <path
       transform="scale(0.004,-0.004)"
       d="m 218,136 c 66,0 108,-36 108,-89 0,-89 -113,-183 -218,-183 -66,0 -108,36 -108,89 0,89 113,183 218,183 z"
       fill="currentColor"
       id="path268" />
  </g>
  <g
     transform="translate(22.2284,3.779)"
     id="g274">
    <rect
       x="-0.064999998"
       y="-1.8099999"
       width="0.13"
       height="3.1238999"
       ry="0.039999999"
       fill="currentColor"
       id="rect272" />
  </g>
  <g
     transform="translate(97.4423,8.779)"
     id="g278">
    <path
       transform="scale(0.004,-0.004)"
       d="m 218,136 c 66,0 108,-36 108,-89 0,-89 -113,-183 -218,-183 -66,0 -108,36 -108,89 0,89 113,183 218,183 z"
       fill="currentColor"
       id="path276" />
  </g>
  <g
     transform="translate(23.4934,5.779)"
     id="g282">
    <path
       transform="scale(0.004,-0.004)"
       d="m 218,136 c 66,0 108,-36 108,-89 0,-89 -113,-183 -218,-183 -66,0 -108,36 -108,89 0,89 113,183 218,183 z"
       fill="currentColor"
       id="path280" />
  </g>
  <g
     transform="translate(24.7327,3.779)"
     id="g286">
    <rect
       x="-0.064999998"
       y="-1.8099999"
       width="0.13"
       height="3.6238999"
       ry="0.039999999"
       fill="currentColor"
       id="rect284" />
  </g>
  <g
     transform="translate(25.9977,5.279)"
     id="g290">
    <path
       transform="scale(0.004,-0.004)"
       d="m 218,136 c 66,0 108,-36 108,-89 0,-89 -113,-183 -218,-183 -66,0 -108,36 -108,89 0,89 113,183 218,183 z"
       fill="currentColor"
       id="path288" />
  </g>
  <g
     transform="translate(27.2369,3.779)"
     id="g294">
    <rect
       x="-0.064999998"
       y="-1.8099999"
       width="0.13"
       height="3.1238999"
       ry="0.039999999"
       fill="currentColor"
       id="rect292" />
  </g>
  <g
     transform="translate(28.5019,5.779)"
     id="g298">
    <path
       transform="scale(0.004,-0.004)"
       d="m 218,136 c 66,0 108,-36 108,-89 0,-89 -113,-183 -218,-183 -66,0 -108,36 -108,89 0,89 113,183 218,183 z"
       fill="currentColor"
       id="path296" />
  </g>
  <g
     transform="translate(29.7411,3.779)"
     id="g302">
    <rect
       x="-0.064999998"
       y="-1.8099999"
       width="0.13"
       height="3.6238999"
       ry="0.039999999"
       fill="currentColor"
       id="rect300" />
  </g>
  <g
     transform="translate(31.0061,5.279)"
     id="g306">
    <path
       transform="scale(0.004,-0.004)"
       d="m 218,136 c 66,0 108,-36 108,-89 0,-89 -113,-183 -218,-183 -66,0 -108,36 -108,89 0,89 113,183 218,183 z"
       fill="currentColor"
       id="path304" />
  </g>
  <g
     transform="translate(32.2453,3.779)"
     id="g310">
    <rect
       x="-0.064999998"
       y="-1.8099999"
       width="0.13"
       height="3.1238999"
       ry="0.039999999"
       fill="currentColor"
       id="rect308" />
  </g>
  <g
     transform="translate(33.5103,5.779)"
     id="g314">
    <path
       transform="scale(0.004,-0.004)"
       d="m 218,136 c 66,0 108,-36 108,-89 0,-89 -113,-183 -218,-183 -66,0 -108,36 -108,89 0,89 113,183 218,183 z"
       fill="currentColor"
       id="path312" />
  </g>
  <g
     transform="translate(34.7495,3.779)"
     id="g318">
    <rect
       x="-0.064999998"
       y="-1.8099999"
       width="0.13"
       height="3.6238999"
       ry="0.039999999"
       fill="currentColor"
       id="rect316" />
  </g>
  <g
     transform="translate(96.1773,3.779)"
     id="g322">
    <rect
       x="-0.064999998"
       y="-0.81"
       width="0.13"
       height="6.1238999"
       ry="0.039999999"
       fill="currentColor"
       id="rect320" />
  </g>
  <g
     transform="translate(36.0145,5.279)"
     id="g326">
    <path
       transform="scale(0.004,-0.004)"
       d="m 218,136 c 66,0 108,-36 108,-89 0,-89 -113,-183 -218,-183 -66,0 -108,36 -108,89 0,89 113,183 218,183 z"
       fill="currentColor"
       id="path324" />
  </g>
  <g
     transform="translate(37.2537,3.779)"
     id="g330">
    <rect
       x="-0.064999998"
       y="-1.8099999"
       width="0.13"
       height="3.1238999"
       ry="0.039999999"
       fill="currentColor"
       id="rect328" />
  </g>
  <g
     transform="translate(94.9381,9.279)"
     id="g334">
    <path
       transform="scale(0.004,-0.004)"
       d="m 218,136 c 66,0 108,-36 108,-89 0,-89 -113,-183 -218,-183 -66,0 -108,36 -108,89 0,89 113,183 218,183 z"
       fill="currentColor"
       id="path332" />
  </g>
  <g
     transform="translate(38.5187,5.779)"
     id="g338">
    <path
       transform="scale(0.004,-0.004)"
       d="m 218,136 c 66,0 108,-36 108,-89 0,-89 -113,-183 -218,-183 -66,0 -108,36 -108,89 0,89 113,183 218,183 z"
       fill="currentColor"
       id="path336" />
  </g>
  <g
     transform="translate(39.7579,3.779)"
     id="g342">
    <rect
       x="-0.064999998"
       y="-1.8099999"
       width="0.13"
       height="3.6238999"
       ry="0.039999999"
       fill="currentColor"
       id="rect340" />
  </g>
  <g
     transform="translate(41.0229,5.279)"
     id="g346">
    <path
       transform="scale(0.004,-0.004)"
       d="m 218,136 c 66,0 108,-36 108,-89 0,-89 -113,-183 -218,-183 -66,0 -108,36 -108,89 0,89 113,183 218,183 z"
       fill="currentColor"
       id="path344" />
  </g>
  <g
     transform="translate(42.2621,3.779)"
     id="g350">
    <rect
       x="-0.064999998"
       y="-1.8099999"
       width="0.13"
       height="3.1238999"
       ry="0.039999999"
       fill="currentColor"
       id="rect348" />
  </g>
  <g
     transform="translate(43.5271,5.779)"
     id="g354">
    <path
       transform="scale(0.004,-0.004)"
       d="m 218,136 c 66,0 108,-36 108,-89 0,-89 -113,-183 -218,-183 -66,0 -108,36 -108,89 0,89 113,183 218,183 z"
       fill="currentColor"
       id="path352" />
  </g>
  <g
     transform="translate(44.7663,3.779)"
     id="g358">
    <rect
       x="-0.064999998"
       y="-1.8099999"
       width="0.13"
       height="3.6238999"
       ry="0.039999999"
       fill="currentColor"
       id="rect356" />
  </g>
  <g
     transform="translate(46.0313,5.279)"
     id="g362">
    <path
       transform="scale(0.004,-0.004)"
       d="m 218,136 c 66,0 108,-36 108,-89 0,-89 -113,-183 -218,-183 -66,0 -108,36 -108,89 0,89 113,183 218,183 z"
       fill="currentColor"
       id="path360" />
  </g>
  <g
     transform="translate(47.2706,3.779)"
     id="g366">
    <rect
       x="-0.064999998"
       y="-1.8099999"
       width="0.13"
       height="3.1238999"
       ry="0.039999999"
       fill="currentColor"
       id="rect364" />
  </g>
  <g
     transform="translate(48.5356,5.779)"
     id="g370">
    <path
       transform="scale(0.004,-0.004)"
       d="m 218,136 c 66,0 108,-36 108,-89 0,-89 -113,-183 -218,-183 -66,0 -108,36 -108,89 0,89 113,183 218,183 z"
       fill="currentColor"
       id="path368" />
  </g>
  <g
     transform="translate(49.7748,3.779)"
     id="g374">
    <rect
       x="-0.064999998"
       y="-1.8099999"
       width="0.13"
       height="3.6238999"
       ry="0.039999999"
       fill="currentColor"
       id="rect372" />
  </g>
  <g
     transform="translate(93.6731,3.779)"
     id="g378">
    <rect
       x="-0.064999998"
       y="-0.81"
       width="0.13"
       height="5.6238999"
       ry="0.039999999"
       fill="currentColor"
       id="rect376" />
  </g>
  <g
     transform="translate(51.0398,5.279)"
     id="g382">
    <path
       transform="scale(0.004,-0.004)"
       d="m 218,136 c 66,0 108,-36 108,-89 0,-89 -113,-183 -218,-183 -66,0 -108,36 -108,89 0,89 113,183 218,183 z"
       fill="currentColor"
       id="path380" />
  </g>
  <g
     transform="translate(52.279,3.779)"
     id="g386">
    <rect
       x="-0.064999998"
       y="-1.8099999"
       width="0.13"
       height="3.1238999"
       ry="0.039999999"
       fill="currentColor"
       id="rect384" />
  </g>
  <g
     transform="translate(53.544,5.779)"
     id="g390">
    <path
       transform="scale(0.004,-0.004)"
       d="m 218,136 c 66,0 108,-36 108,-89 0,-89 -113,-183 -218,-183 -66,0 -108,36 -108,89 0,89 113,183 218,183 z"
       fill="currentColor"
       id="path388" />
  </g>
  <g
     transform="translate(9.6424,1.969)"
     id="g394">
    <polygon
       stroke-linejoin="round"
       stroke-linecap="round"
       stroke-width="0.08"
       fill="currentColor"
       stroke="currentColor"
       points="0.04,0.2 0.04,-0.2 27.6363,-0.2 27.6363,0.2 "
       id="polygon392" />
  </g>
  <g
     transform="translate(9.6424,2.779)"
     id="g398">
    <polygon
       stroke-linejoin="round"
       stroke-linecap="round"
       stroke-width="0.08"
       fill="currentColor"
       stroke="currentColor"
       points="0.04,0.2 0.04,-0.2 27.6363,-0.2 27.6363,0.2 "
       id="polygon396" />
  </g>
  <g
     transform="translate(9.6424,3.589)"
     id="g402">
    <polygon
       stroke-linejoin="round"
       stroke-linecap="round"
       stroke-width="0.08"
       fill="currentColor"
       stroke="currentColor"
       points="0.04,0.2 0.04,-0.2 27.6363,-0.2 27.6363,0.2 "
       id="polygon400" />
  </g>
  <g
     transform="translate(92.4339,8.779)"
     id="g406">
    <path
       transform="scale(0.004,-0.004)"
       d="m 218,136 c 66,0 108,-36 108,-89 0,-89 -113,-183 -218,-183 -66,0 -108,36 -108,89 0,89 113,183 218,183 z"
       fill="currentColor"
       id="path404" />
  </g>
  <g
     transform="translate(56.0482,5.279)"
     id="g410">
    <path
       transform="scale(0.004,-0.004)"
       d="m 218,136 c 66,0 108,-36 108,-89 0,-89 -113,-183 -218,-183 -66,0 -108,36 -108,89 0,89 113,183 218,183 z"
       fill="currentColor"
       id="path408" />
  </g>
  <g
     transform="translate(57.2874,3.779)"
     id="g414">
    <rect
       x="-0.064999998"
       y="-1.8099999"
       width="0.13"
       height="3.1238999"
       ry="0.039999999"
       fill="currentColor"
       id="rect412" />
  </g>
  <g
     transform="translate(58.5524,5.779)"
     id="g418">
    <path
       transform="scale(0.004,-0.004)"
       d="m 218,136 c 66,0 108,-36 108,-89 0,-89 -113,-183 -218,-183 -66,0 -108,36 -108,89 0,89 113,183 218,183 z"
       fill="currentColor"
       id="path416" />
  </g>
  <g
     transform="translate(59.7916,3.779)"
     id="g422">
    <rect
       x="-0.064999998"
       y="-1.8099999"
       width="0.13"
       height="3.6238999"
       ry="0.039999999"
       fill="currentColor"
       id="rect420" />
  </g>
  <g
     transform="translate(61.0566,5.279)"
     id="g426">
    <path
       transform="scale(0.004,-0.004)"
       d="m 218,136 c 66,0 108,-36 108,-89 0,-89 -113,-183 -218,-183 -66,0 -108,36 -108,89 0,89 113,183 218,183 z"
       fill="currentColor"
       id="path424" />
  </g>
  <g
     transform="translate(62.2958,3.779)"
     id="g430">
    <rect
       x="-0.064999998"
       y="-1.8099999"
       width="0.13"
       height="3.1238999"
       ry="0.039999999"
       fill="currentColor"
       id="rect428" />
  </g>
  <g
     transform="translate(63.5608,5.779)"
     id="g434">
    <path
       transform="scale(0.004,-0.004)"
       d="m 218,136 c 66,0 108,-36 108,-89 0,-89 -113,-183 -218,-183 -66,0 -108,36 -108,89 0,89 113,183 218,183 z"
       fill="currentColor"
       id="path432" />
  </g>
  <g
     transform="translate(64.8,3.779)"
     id="g438">
    <rect
       x="-0.064999998"
       y="-1.8099999"
       width="0.13"
       height="3.6238999"
       ry="0.039999999"
       fill="currentColor"
       id="rect436" />
  </g>
  <g
     transform="translate(66.065,5.279)"
     id="g442">
    <path
       transform="scale(0.004,-0.004)"
       d="m 218,136 c 66,0 108,-36 108,-89 0,-89 -113,-183 -218,-183 -66,0 -108,36 -108,89 0,89 113,183 218,183 z"
       fill="currentColor"
       id="path440" />
  </g>
  <g
     transform="translate(67.3043,3.779)"
     id="g446">
    <rect
       x="-0.064999998"
       y="-1.8099999"
       width="0.13"
       height="3.1238999"
       ry="0.039999999"
       fill="currentColor"
       id="rect444" />
  </g>
  <g
     transform="translate(91.1689,3.779)"
     id="g450">
    <rect
       x="-0.064999998"
       y="-0.81"
       width="0.13"
       height="6.1238999"
       ry="0.039999999"
       fill="currentColor"
       id="rect448" />
  </g>
  <g
     transform="translate(89.9297,9.279)"
     id="g454">
    <path
       transform="scale(0.004,-0.004)"
       d="m 218,136 c 66,0 108,-36 108,-89 0,-89 -113,-183 -218,-183 -66,0 -108,36 -108,89 0,89 113,183 218,183 z"
       fill="currentColor"
       id="path452" />
  </g>
  <g
     transform="translate(69.896,9.279)"
     id="g458">
    <path
       transform="scale(0.004,-0.004)"
       d="m 218,136 c 66,0 108,-36 108,-89 0,-89 -113,-183 -218,-183 -66,0 -108,36 -108,89 0,89 113,183 218,183 z"
       fill="currentColor"
       id="path456" />
  </g>
  <g
     transform="translate(71.1352,3.779)"
     id="g462">
    <rect
       x="-0.064999998"
       y="-0.81"
       width="0.13"
       height="6.1238999"
       ry="0.039999999"
       fill="currentColor"
       id="rect460" />
  </g>
  <g
     transform="translate(72.4002,8.779)"
     id="g466">
    <path
       transform="scale(0.004,-0.004)"
       d="m 218,136 c 66,0 108,-36 108,-89 0,-89 -113,-183 -218,-183 -66,0 -108,36 -108,89 0,89 113,183 218,183 z"
       fill="currentColor"
       id="path464" />
  </g>
  <g
     transform="translate(73.6394,3.779)"
     id="g470">
    <rect
       x="-0.064999998"
       y="-0.81"
       width="0.13"
       height="5.6238999"
       ry="0.039999999"
       fill="currentColor"
       id="rect468" />
  </g>
  <g
     transform="translate(74.9044,9.279)"
     id="g474">
    <path
       transform="scale(0.004,-0.004)"
       d="m 218,136 c 66,0 108,-36 108,-89 0,-89 -113,-183 -218,-183 -66,0 -108,36 -108,89 0,89 113,183 218,183 z"
       fill="currentColor"
       id="path472" />
  </g>
  <g
     transform="translate(76.1436,3.779)"
     id="g478">
    <rect
       x="-0.064999998"
       y="-0.81"
       width="0.13"
       height="6.1238999"
       ry="0.039999999"
       fill="currentColor"
       id="rect476" />
  </g>
  <g
     transform="translate(77.4086,8.779)"
     id="g482">
    <path
       transform="scale(0.004,-0.004)"
       d="m 218,136 c 66,0 108,-36 108,-89 0,-89 -113,-183 -218,-183 -66,0 -108,36 -108,89 0,89 113,183 218,183 z"
       fill="currentColor"
       id="path480" />
  </g>
  <g
     transform="translate(78.6478,3.779)"
     id="g486">
    <rect
       x="-0.064999998"
       y="-0.81"
       width="0.13"
       height="5.6238999"
       ry="0.039999999"
       fill="currentColor"
       id="rect484" />
  </g>
  <g
     transform="translate(79.9128,9.279)"
     id="g490">
    <path
       transform="scale(0.004,-0.004)"
       d="m 218,136 c 66,0 108,-36 108,-89 0,-89 -113,-183 -218,-183 -66,0 -108,36 -108,89 0,89 113,183 218,183 z"
       fill="currentColor"
       id="path488" />
  </g>
  <g
     transform="translate(81.152,3.779)"
     id="g494">
    <rect
       x="-0.064999998"
       y="-0.81"
       width="0.13"
       height="6.1238999"
       ry="0.039999999"
       fill="currentColor"
       id="rect492" />
  </g>
  <g
     transform="translate(88.6647,3.779)"
     id="g498">
    <rect
       x="-0.064999998"
       y="-0.81"
       width="0.13"
       height="5.6238999"
       ry="0.039999999"
       fill="currentColor"
       id="rect496" />
  </g>
  <g
     transform="translate(82.417,8.779)"
     id="g502">
    <path
       transform="scale(0.004,-0.004)"
       d="m 218,136 c 66,0 108,-36 108,-89 0,-89 -113,-183 -218,-183 -66,0 -108,36 -108,89 0,89 113,183 218,183 z"
       fill="currentColor"
       id="path500" />
  </g>
  <g
     transform="translate(83.6562,3.779)"
     id="g506">
    <rect
       x="-0.064999998"
       y="-0.81"
       width="0.13"
       height="5.6238999"
       ry="0.039999999"
       fill="currentColor"
       id="rect504" />
  </g>
  <g
     transform="translate(87.4254,8.779)"
     id="g510">
    <path
       transform="scale(0.004,-0.004)"
       d="m 218,136 c 66,0 108,-36 108,-89 0,-89 -113,-183 -218,-183 -66,0 -108,36 -108,89 0,89 113,183 218,183 z"
       fill="currentColor"
       id="path508" />
  </g>
  <g
     transform="translate(84.9212,9.279)"
     id="g514">
    <path
       transform="scale(0.004,-0.004)"
       d="m 218,136 c 66,0 108,-36 108,-89 0,-89 -113,-183 -218,-183 -66,0 -108,36 -108,89 0,89 113,183 218,183 z"
       fill="currentColor"
       id="path512" />
  </g>
  <g
     transform="translate(86.1604,3.779)"
     id="g518">
    <rect
       x="-0.064999998"
       y="-0.81"
       width="0.13"
       height="6.1238999"
       ry="0.039999999"
       fill="currentColor"
       id="rect516" />
  </g>
  <g
     transform="translate(54.7832,3.779)"
     id="g522">
    <rect
       x="-0.064999998"
       y="-1.8099999"
       width="0.13"
       height="3.6238999"
       ry="0.039999999"
       fill="currentColor"
       id="rect520" />
  </g>
</svg>
