<?xml version="1.0" encoding="UTF-8" standalone="no"?>
<svg
   version="1.2"
   width="53.279724mm"
   height="12.861671mm"
   viewBox="0 0 30.319098 7.3190007"
   id="svg108"
   xmlns="http://www.w3.org/2000/svg"
   xmlns:svg="http://www.w3.org/2000/svg">
  <defs
     id="defs112" />
  <style
     type="text/css"
     id="style2"><![CDATA[
tspan { white-space: pre; }
]]></style>
  <g
     transform="translate(0,5.779)"
     id="g6">
    <line
       stroke-linejoin="round"
       stroke-linecap="round"
       stroke-width="0.1"
       stroke="currentColor"
       x1="0.050000001"
       y1="0"
       x2="30.2691"
       y2="0"
       id="line4" />
  </g>
  <g
     transform="translate(0,4.779)"
     id="g10">
    <line
       stroke-linejoin="round"
       stroke-linecap="round"
       stroke-width="0.1"
       stroke="currentColor"
       x1="0.050000001"
       y1="0"
       x2="30.2691"
       y2="0"
       id="line8" />
  </g>
  <g
     transform="translate(0,3.779)"
     id="g14">
    <line
       stroke-linejoin="round"
       stroke-linecap="round"
       stroke-width="0.1"
       stroke="currentColor"
       x1="0.050000001"
       y1="0"
       x2="30.2691"
       y2="0"
       id="line12" />
  </g>
  <g
     transform="translate(0,2.779)"
     id="g18">
    <line
       stroke-linejoin="round"
       stroke-linecap="round"
       stroke-width="0.1"
       stroke="currentColor"
       x1="0.050000001"
       y1="0"
       x2="30.2691"
       y2="0"
       id="line16" />
  </g>
  <g
     transform="translate(0,1.779)"
     id="g22">
    <line
       stroke-linejoin="round"
       stroke-linecap="round"
       stroke-width="0.1"
       stroke="currentColor"
       x1="0.050000001"
       y1="0"
       x2="30.2691"
       y2="0"
       id="line20" />
  </g>
  <g
     transform="translate(20.1004,3.779)"
     id="g26">
    <rect
       x="0"
       y="-2"
       width="0.19"
       height="4"
       ry="0.0000"
       fill="currentColor"
       id="rect24" />
  </g>
  <g
     transform="translate(5.8,4.279)"
     id="g30">
    <path
       transform="scale(0.004,-0.004)"
       d="m 218,136 c 66,0 108,-36 108,-89 0,-89 -113,-183 -218,-183 -66,0 -108,36 -108,89 0,89 113,183 218,183 z"
       fill="currentColor"
       id="path28" />
  </g>
  <g
     transform="translate(0.8,4.779)"
     id="g34">
    <path
       transform="scale(0.004,-0.004)"
       d="m 266,-635 h -6 c -108,0 -195,88 -195,197 0,58 53,103 112,103 54,0 95,-47 95,-103 0,-52 -43,-95 -95,-95 -11,0 -21,2 -31,6 26,-39 68,-65 117,-65 h 4 z m 195,432 c 68,24 113,90 113,164 0,90 -66,179 -173,190 19,-89 48,-242 60,-354 z M 74,28 c 0,-145 141,-247 264,-247 1,0 47,0 82,6 -7,64 -29,203 -63,364 -79,-8 -124,-61 -124,-119 0,-44 25,-91 81,-123 5,-5 7,-10 7,-15 0,-11 -10,-22 -22,-22 -15,0 -126,62 -126,187 0,88 58,174 160,197 -14,58 -29,117 -46,175 C 180,310 74,188 74,28 Z m 176,525 c -29,96 -52,170 -52,346 0,115 55,224 149,292 6,5 14,5 20,0 68,-80 133,-245 133,-358 0,-143 -86,-255 -180,-364 21,-68 39,-138 56,-207 2,0 7,1 13,1 155,0 256,-128 256,-261 0,-113 -74,-212 -180,-246 3,-35 5,-70 5,-105 0,-19 -1,-39 -2,-58 -7,-119 -88,-225 -202,-228 l 1,43 c 93,2 153,92 159,191 1,18 2,37 2,55 0,31 -1,61 -4,92 -5,-1 -44,-8 -89,-8 C 142,-262 2,-82 2,112 2,289 133,418 250,553 Z m 178,363 c 0,34 1,66 -20,129 -99,-48 -162,-149 -162,-259 0,-52 12,-115 36,-194 80,97 146,198 146,324 z"
       fill="currentColor"
       id="path32" />
  </g>
  <g
     transform="translate(7.0392,3.779)"
     id="g38">
    <rect
       x="-0.064999998"
       y="-3"
       width="0.13"
       height="3.3139"
       ry="0.039999999"
       fill="currentColor"
       id="rect36" />
  </g>
  <g
     transform="translate(8.8023,4.279)"
     id="g42">
    <path
       transform="scale(0.004,-0.004)"
       d="m 218,136 c 66,0 108,-36 108,-89 0,-89 -113,-183 -218,-183 -66,0 -108,36 -108,89 0,89 113,183 218,183 z"
       fill="currentColor"
       id="path40" />
  </g>
  <g
     transform="translate(10.0415,3.779)"
     id="g46">
    <rect
       x="-0.064999998"
       y="-3"
       width="0.13"
       height="3.3139"
       ry="0.039999999"
       fill="currentColor"
       id="rect44" />
  </g>
  <g
     transform="translate(8.7523,2.529)"
     id="g50">
    <path
       stroke-width="0.1"
       stroke-linejoin="round"
       stroke-linecap="round"
       stroke="currentColor"
       fill="none"
       d="m -1,0 v 3.5 h 0.5"
       id="path48" />
  </g>
  <g
     transform="translate(28.5561,3.779)"
     id="g54">
    <rect
       x="-0.064999998"
       y="-3"
       width="0.13"
       height="3.3139"
       ry="0.039999999"
       fill="currentColor"
       id="rect52" />
  </g>
  <g
     transform="translate(11.8045,4.279)"
     id="g58">
    <path
       transform="scale(0.004,-0.004)"
       d="m 218,136 c 66,0 108,-36 108,-89 0,-89 -113,-183 -218,-183 -66,0 -108,36 -108,89 0,89 113,183 218,183 z"
       fill="currentColor"
       id="path56" />
  </g>
  <g
     transform="translate(13.0437,3.779)"
     id="g62">
    <rect
       x="-0.064999998"
       y="-3"
       width="0.13"
       height="3.3139"
       ry="0.039999999"
       fill="currentColor"
       id="rect60" />
  </g>
  <g
     transform="translate(11.7545,6.029)"
     id="g66">
    <path
       stroke-width="0.1"
       stroke-linejoin="round"
       stroke-linecap="round"
       stroke="currentColor"
       fill="none"
       d="m -1,0 v -3.5 h 0.5"
       id="path64" />
  </g>
  <g
     transform="translate(27.3169,4.279)"
     id="g70">
    <path
       transform="scale(0.004,-0.004)"
       d="m 218,136 c 66,0 108,-36 108,-89 0,-89 -113,-183 -218,-183 -66,0 -108,36 -108,89 0,89 113,183 218,183 z"
       fill="currentColor"
       id="path68" />
  </g>
  <g
     transform="translate(16.9329,4.279)"
     id="g74">
    <path
       transform="scale(0.004,-0.004)"
       d="m 218,136 c 66,0 108,-36 108,-89 0,-89 -113,-183 -218,-183 -66,0 -108,36 -108,89 0,89 113,183 218,183 z"
       fill="currentColor"
       id="path72" />
  </g>
  <g
     transform="translate(18.1721,3.779)"
     id="g78">
    <rect
       x="-0.064999998"
       y="-3"
       width="0.13"
       height="3.3139"
       ry="0.039999999"
       fill="currentColor"
       id="rect76" />
  </g>
  <g
     transform="translate(13.4087,4.029)"
     id="g84">
    <text
       font-family="serif"
       font-style="italic"
       font-size="1.2348px"
       text-anchor="start"
       fill="currentColor"
       id="text82"><tspan
         id="tspan80">m.d. </tspan></text>
  </g>
  <g
     transform="translate(15.8829,4.029)"
     id="g88">
    <path
       stroke-width="0.1"
       stroke-linejoin="round"
       stroke-linecap="round"
       stroke="currentColor"
       fill="none"
       d="M 0,-1 V 1.5 H 0.5"
       id="path86" />
  </g>
  <g
     transform="translate(24.3146,4.279)"
     id="g92">
    <path
       transform="scale(0.004,-0.004)"
       d="m 218,136 c 66,0 108,-36 108,-89 0,-89 -113,-183 -218,-183 -66,0 -108,36 -108,89 0,89 113,183 218,183 z"
       fill="currentColor"
       id="path90" />
  </g>
  <g
     transform="translate(25.5538,3.779)"
     id="g96">
    <rect
       x="-0.064999998"
       y="-3"
       width="0.13"
       height="3.3139"
       ry="0.039999999"
       fill="currentColor"
       id="rect94" />
  </g>
  <g
     transform="translate(20.7904,5.029)"
     id="g102">
    <text
       font-family="serif"
       font-style="italic"
       font-size="1.2348px"
       text-anchor="start"
       fill="currentColor"
       id="text100"><tspan
         id="tspan98">m.g. </tspan></text>
  </g>
  <g
     transform="translate(23.2646,5.029)"
     id="g106">
    <path
       stroke-width="0.1"
       stroke-linejoin="round"
       stroke-linecap="round"
       stroke="currentColor"
       fill="none"
       d="M 0,0.5 V -2 h 0.5"
       id="path104" />
  </g>
</svg>
