<?xml version="1.0" encoding="UTF-8" standalone="no"?>
<svg
   version="1.2"
   width="38.718571mm"
   height="14.497717mm"
   viewBox="0 0 22.033 8.2500008"
   id="svg94"
   xmlns="http://www.w3.org/2000/svg"
   xmlns:svg="http://www.w3.org/2000/svg">
  <defs
     id="defs98" />
  <style
     type="text/css"
     id="style2"><![CDATA[
tspan { white-space: pre; }
]]></style>
  <g
     transform="translate(0,6.71)"
     id="g6">
    <line
       stroke-linejoin="round"
       stroke-linecap="round"
       stroke-width="0.1"
       stroke="currentColor"
       x1="0.050000001"
       y1="0"
       x2="21.983"
       y2="0"
       id="line4" />
  </g>
  <g
     transform="translate(0,5.71)"
     id="g10">
    <line
       stroke-linejoin="round"
       stroke-linecap="round"
       stroke-width="0.1"
       stroke="currentColor"
       x1="0.050000001"
       y1="0"
       x2="21.983"
       y2="0"
       id="line8" />
  </g>
  <g
     transform="translate(0,4.71)"
     id="g14">
    <line
       stroke-linejoin="round"
       stroke-linecap="round"
       stroke-width="0.1"
       stroke="currentColor"
       x1="0.050000001"
       y1="0"
       x2="21.983"
       y2="0"
       id="line12" />
  </g>
  <g
     transform="translate(0,3.71)"
     id="g18">
    <line
       stroke-linejoin="round"
       stroke-linecap="round"
       stroke-width="0.1"
       stroke="currentColor"
       x1="0.050000001"
       y1="0"
       x2="21.983"
       y2="0"
       id="line16" />
  </g>
  <g
     transform="translate(0,2.71)"
     id="g22">
    <line
       stroke-linejoin="round"
       stroke-linecap="round"
       stroke-width="0.1"
       stroke="currentColor"
       x1="0.050000001"
       y1="0"
       x2="21.983"
       y2="0"
       id="line20" />
  </g>
  <g
     transform="translate(21.843,4.71)"
     id="g26">
    <rect
       x="0"
       y="-2"
       width="0.19"
       height="4"
       ry="0.0000"
       fill="currentColor"
       id="rect24" />
  </g>
  <g
     transform="translate(13.6929,4.71)"
     id="g30">
    <rect
       x="0"
       y="-2"
       width="0.19"
       height="4"
       ry="0.0000"
       fill="currentColor"
       id="rect28" />
  </g>
  <g
     transform="translate(9.5884,4.71)"
     id="g34">
    <path
       stroke-width="0.08"
       stroke-linejoin="round"
       stroke-linecap="round"
       stroke="currentColor"
       fill="currentColor"
       d="m 0.5557,1.8045 c 0.5693,0.0619 1.211,-0.152 1.5,-0.5 v 0 c -0.3269,0.2342 -0.9686,0.4481 -1.5,0.5 z"
       id="path32" />
  </g>
  <g
     transform="translate(10.3763,2.852)"
     id="g38">
    <polygon
       stroke-linejoin="round"
       stroke-linecap="round"
       stroke-width="0.08"
       fill="currentColor"
       stroke="currentColor"
       points="0.04,0.152 0.04,-0.152 1.59,-0.436 1.59,-0.132 "
       id="polygon36" />
  </g>
  <g
     transform="translate(10.3763,3.5)"
     id="g42">
    <polygon
       stroke-linejoin="round"
       stroke-linecap="round"
       stroke-width="0.08"
       fill="currentColor"
       stroke="currentColor"
       points="0.04,0.152 0.04,-0.152 1.59,-0.436 1.59,-0.132 "
       id="polygon40" />
  </g>
  <g
     transform="translate(5.8,5.21)"
     id="g46">
    <path
       transform="scale(0.004,-0.004)"
       d="m 213,112 c -45,0 -69,-34 -69,-88 0,-102 89,-136 134,-136 45,0 69,34 69,88 0,102 -89,136 -134,136 z m 32,24 C 389,136 491,71 491,0 491,-71 389,-136 245,-136 101,-136 0,-71 0,0 0,71 101,136 245,136 Z"
       fill="currentColor"
       id="path44" />
  </g>
  <g
     transform="translate(0.8,5.71)"
     id="g50">
    <path
       transform="scale(0.004,-0.004)"
       d="m 266,-635 h -6 c -108,0 -195,88 -195,197 0,58 53,103 112,103 54,0 95,-47 95,-103 0,-52 -43,-95 -95,-95 -11,0 -21,2 -31,6 26,-39 68,-65 117,-65 h 4 z m 195,432 c 68,24 113,90 113,164 0,90 -66,179 -173,190 19,-89 48,-242 60,-354 z M 74,28 c 0,-145 141,-247 264,-247 1,0 47,0 82,6 -7,64 -29,203 -63,364 -79,-8 -124,-61 -124,-119 0,-44 25,-91 81,-123 5,-5 7,-10 7,-15 0,-11 -10,-22 -22,-22 -15,0 -126,62 -126,187 0,88 58,174 160,197 -14,58 -29,117 -46,175 C 180,310 74,188 74,28 Z m 176,525 c -29,96 -52,170 -52,346 0,115 55,224 149,292 6,5 14,5 20,0 68,-80 133,-245 133,-358 0,-143 -86,-255 -180,-364 21,-68 39,-138 56,-207 2,0 7,1 13,1 155,0 256,-128 256,-261 0,-113 -74,-212 -180,-246 3,-35 5,-70 5,-105 0,-19 -1,-39 -2,-58 -7,-119 -88,-225 -202,-228 l 1,43 c 93,2 153,92 159,191 1,18 2,37 2,55 0,31 -1,61 -4,92 -5,-1 -44,-8 -89,-8 C 142,-262 2,-82 2,112 2,289 133,418 250,553 Z m 178,363 c 0,34 1,66 -20,129 -99,-48 -162,-149 -162,-259 0,-52 12,-115 36,-194 80,97 146,198 146,324 z"
       fill="currentColor"
       id="path48" />
  </g>
  <g
     id="g60"
     transform="translate(-22.7622,-12.3211)">
    <g
       transform="translate(31.8752,13.8811)"
       id="g54">
      <path
         transform="scale(0.004,-0.004)"
         d="M 175,-1 C 133,-1 110,90 44,90 27,90 11,85 -3,73 L -28,42 c -3,-4 -8,-6 -12,-6 -8,0 -16,7 -16,16 0,3 1,7 4,10 L 55,190 c 6,8 13,11 20,11 42,0 65,-91 131,-91 17,0 33,5 47,17 l 25,31 c 3,4 8,6 12,6 8,0 16,-7 16,-16 0,-3 -1,-7 -4,-10 L 195,10 C 189,2 182,-1 175,-1 Z"
         fill="currentColor"
         id="path52" />
    </g>
    <g
       transform="translate(30.8752,13.8811)"
       id="g58">
      <path
         transform="scale(0.004,-0.004)"
         d="M 175,-1 C 133,-1 110,90 44,90 27,90 11,85 -3,73 L -28,42 c -3,-4 -8,-6 -12,-6 -8,0 -16,7 -16,16 0,3 1,7 4,10 L 55,190 c 6,8 13,11 20,11 42,0 65,-91 131,-91 17,0 33,5 47,17 l 25,31 c 3,4 8,6 12,6 8,0 16,-7 16,-16 0,-3 -1,-7 -4,-10 L 195,10 C 189,2 182,-1 175,-1 Z"
         fill="currentColor"
         id="path56" />
    </g>
  </g>
  <g
     transform="translate(6.781,2.16)"
     id="g64">
    <path
       transform="scale(0.004,-0.004)"
       d="m -297,227 c 0,-15 8,-30 39,-30 10,0 46,2 103,28 l 5,24 c -23,17 -50,29 -81,29 -51,0 -66,-31 -66,-51 z M -26,104 c 0,-61 -47,-115 -98,-115 -39,0 -56,44 -56,91 0,14 1,28 4,41 l 15,76 c -20,-8 -63,-25 -101,-25 -19,0 -60,6 -60,51 0,38 32,80 96,80 31,0 58,-10 82,-25 l 46,232 c 6,-3 13,-5 20,-5 22,0 48,16 68,35 L -63,274 1,310 c 26,14 51,20 74,20 29,0 53,-10 64,-28 18,20 44,30 69,30 36,0 69,-22 69,-69 0,-49 -31,-90 -65,-90 -25,0 -38,22 -38,48 0,50 37,64 60,64 h 3 c -8,14 -23,20 -38,20 -24,0 -50,-16 -55,-43 L 90,-8 C 79,-1 66,3 52,3 38,3 23,-1 9,-8 l 54,270 v 7 c 0,16 -12,26 -29,26 -7,0 -16,-3 -24,-7 l -79,-44 -7,-31 c 27,-31 50,-67 50,-109 z M -86,39 c 23,0 35,34 35,61 0,30 -14,55 -32,78 l -5,-27 c -4,-18 -13,-56 -13,-83 0,-17 4,-29 15,-29 z"
       fill="currentColor"
       id="path62" />
  </g>
  <g
     transform="translate(9.5884,5.71)"
     id="g68">
    <path
       transform="scale(0.0028,-0.0028)"
       d="M 208,139 C 277,139 325,99 325,40 325,-51 218,-139 116,-139 47,-139 0,-99 0,-40 0,51 106,139 208,139 Z"
       fill="currentColor"
       id="path66" />
  </g>
  <g
     transform="translate(10.4413,4.71)"
     id="g72">
    <rect
       x="-0.064999998"
       y="-1.8693"
       width="0.13"
       height="2.7549"
       ry="0.039999999"
       fill="currentColor"
       id="rect70" />
  </g>
  <g
     transform="translate(8.5455,5.71)"
     id="g76">
    <path
       transform="scale(0.0025,-0.0025)"
       d="m 0,112 c 0,13 8,25 20,30 l 34,13 v 148 c 0,13 10,24 23,24 13,0 24,-11 24,-24 V 174 l 73,29 v 148 c 0,13 11,24 24,24 13,0 23,-11 23,-24 V 222 l 10,4 c 4,2 8,2 12,2 17,0 32,-14 32,-32 v -46 c 0,-13 -8,-24 -20,-29 L 221,107 V -41 l 10,4 c 4,2 8,3 12,3 17,0 32,-14 32,-32 v -46 c 0,-13 -8,-25 -20,-30 l -34,-13 v -148 c 0,-13 -10,-24 -23,-24 -13,0 -24,11 -24,24 v 129 l -73,-29 v -148 c 0,-13 -11,-24 -24,-24 -13,0 -23,11 -23,24 v 129 l -10,-4 c -4,-2 -8,-2 -12,-2 -17,0 -32,14 -32,32 v 46 c 0,13 8,24 20,29 l 34,14 V 41 L 44,37 C 40,35 36,34 32,34 15,34 0,48 0,66 Z M 174,89 101,59 V -89 l 73,30 z"
       fill="currentColor"
       id="path74" />
  </g>
  <g
     transform="translate(11.0884,5.21)"
     id="g80">
    <path
       transform="scale(0.0028,-0.0028)"
       d="M 208,139 C 277,139 325,99 325,40 325,-51 218,-139 116,-139 47,-139 0,-99 0,-40 0,51 106,139 208,139 Z"
       fill="currentColor"
       id="path78" />
  </g>
  <g
     transform="translate(11.9413,4.71)"
     id="g84">
    <rect
       x="-0.064999998"
       y="-2.1307001"
       width="0.13"
       height="2.5163"
       ry="0.039999999"
       fill="currentColor"
       id="rect82" />
  </g>
  <g
     transform="translate(15.7829,4.71)"
     id="g88">
    <path
       transform="scale(0.004,-0.004)"
       d="m 213,112 c -45,0 -69,-34 -69,-88 0,-102 89,-136 134,-136 45,0 69,34 69,88 0,102 -89,136 -134,136 z m 32,24 C 389,136 491,71 491,0 491,-71 389,-136 245,-136 101,-136 0,-71 0,0 0,71 101,136 245,136 Z"
       fill="currentColor"
       id="path86" />
  </g>
  <g
     transform="translate(14.6329,4.71)"
     id="g92">
    <path
       transform="scale(0.004,-0.004)"
       d="m 27,41 -1,-66 v -11 c 0,-22 1,-44 4,-66 45,38 93,80 93,139 0,33 -14,67 -43,67 C 49,104 28,74 27,41 Z m -42,-179 -12,595 c 8,5 18,8 27,8 9,0 19,-3 27,-8 L 20,112 c 25,21 58,34 91,34 52,0 89,-48 89,-102 0,-80 -86,-117 -147,-169 -15,-13 -24,-38 -45,-38 -13,0 -23,11 -23,25 z"
       fill="currentColor"
       id="path90" />
  </g>
</svg>
