<?xml version="1.0" encoding="UTF-8" standalone="no"?>
<!DOCTYPE svg PUBLIC "-//W3C//DTD SVG 1.1//EN" "http://www.w3.org/Graphics/SVG/1.1/DTD/svg11.dtd">
<svg width="100%" height="100%" viewBox="0 0 37 23" version="1.1" xmlns="http://www.w3.org/2000/svg" xmlns:xlink="http://www.w3.org/1999/xlink" xml:space="preserve" xmlns:serif="http://www.serif.com/" style="fill-rule:evenodd;clip-rule:evenodd;stroke-linecap:round;stroke-linejoin:round;">
    <g transform="matrix(1,0,0,1,-3.94486,-14.1751)">
        <g transform="matrix(0.822564,0,0,1,3.96894,1.157)">
            <g id="line4">
                <path d="M0.249,34.172L43.598,34.172" style="fill:none;fill-rule:nonzero;stroke:black;stroke-width:0.5px;"/>
            </g>
        </g>
        <g transform="matrix(0.822564,0,0,1,3.96894,1.157)">
            <g id="line6">
                <path d="M0.249,29.191L43.598,29.191" style="fill:none;fill-rule:nonzero;stroke:black;stroke-width:0.5px;"/>
            </g>
        </g>
        <g transform="matrix(0.822564,0,0,1,3.96894,1.157)">
            <g id="line8">
                <path d="M0.249,24.209L43.598,24.209" style="fill:none;fill-rule:nonzero;stroke:black;stroke-width:0.5px;"/>
            </g>
        </g>
        <g transform="matrix(0.822564,0,0,1,3.96894,1.157)">
            <g id="line10">
                <path d="M0.249,19.228L43.598,19.228" style="fill:none;fill-rule:nonzero;stroke:black;stroke-width:0.5px;"/>
            </g>
        </g>
        <g transform="matrix(0.822564,0,0,1,3.96894,1.157)">
            <g>
                <g id="line12">
                    <path d="M0.249,14.247L43.598,14.247" style="fill:none;fill-rule:nonzero;stroke:black;stroke-width:0.5px;"/>
                </g>
            </g>
        </g>
        <g transform="matrix(0.004,0,0,-0.004,30.8105,27.8494)">
            <g>
                <g id="path28">
                    <path d="M1085.93,677.459C1359.9,677.459 1623.91,537.983 1623.91,234.122C1623.91,-119.552 1349.94,-368.618 1115.82,-508.095C941.469,-612.702 742.217,-677.459 537.983,-677.459C264.01,-677.459 0,-537.983 0,-234.122C0,119.552 273.973,368.618 508.095,508.095C682.441,612.702 881.694,677.459 1085.93,677.459Z" style="fill-rule:nonzero;"/>
                </g>
            </g>
        </g>
        <g transform="matrix(0.004,0,0,-0.004,24.5864,17.9091)">
            <g>
                <g id="path281" serif:id="path28">
                    <path d="M1085.93,677.459C1359.9,677.459 1623.91,537.983 1623.91,234.122C1623.91,-119.552 1349.94,-368.618 1115.82,-508.095C941.469,-612.702 742.217,-677.459 537.983,-677.459C264.01,-677.459 0,-537.983 0,-234.122C0,119.552 273.973,368.618 508.095,508.095C682.441,612.702 881.694,677.459 1085.93,677.459Z" style="fill-rule:nonzero;"/>
                </g>
            </g>
        </g>
        <g transform="matrix(0.004,0,0,-0.004,19.9387,30.5484)">
            <g>
                <g id="path282" serif:id="path28">
                    <path d="M1085.93,677.459C1359.9,677.459 1623.91,537.983 1623.91,234.122C1623.91,-119.552 1349.94,-368.618 1115.82,-508.095C941.469,-612.702 742.217,-677.459 537.983,-677.459C264.01,-677.459 0,-537.983 0,-234.122C0,119.552 273.973,368.618 508.095,508.095C682.441,612.702 881.694,677.459 1085.93,677.459Z" style="fill-rule:nonzero;"/>
                </g>
            </g>
        </g>
        <g id="path34" transform="matrix(0.630863,0,0,0.630863,5.09227,10.7779)">
            <path d="M9.285,41.843L9.166,41.843C7.014,41.843 5.28,40.09 5.28,37.918C5.28,36.762 6.336,35.866 7.512,35.866C8.588,35.866 9.405,36.802 9.405,37.918C9.405,38.954 8.548,39.811 7.512,39.811C7.293,39.811 7.093,39.771 6.894,39.691C7.412,40.468 8.249,40.986 9.225,40.986L9.305,40.986L9.285,41.843ZM13.171,33.235C14.526,32.757 15.422,31.342 15.422,29.968C15.422,28.174 14.107,26.401 11.975,26.182C12.453,28.493 12.892,30.785 13.171,33.235ZM5.46,28.633C5.46,31.323 8.03,33.554 10.72,33.554C11.278,33.554 11.816,33.514 12.354,33.435C12.075,30.904 11.616,28.553 11.098,26.182C9.524,26.341 8.628,27.397 8.628,28.553C8.628,29.43 9.126,30.366 10.242,31.004C10.341,31.103 10.381,31.203 10.381,31.303C10.381,31.522 10.182,31.741 9.943,31.741C9.883,31.741 9.823,31.721 9.763,31.701C8.169,30.844 7.432,29.41 7.432,28.015C7.432,26.262 8.588,24.548 10.62,24.09C10.341,22.934 10.042,21.758 9.704,20.603C7.572,23.014 5.46,25.445 5.46,28.633ZM10.66,34.411C6.914,34.411 4.025,30.984 4.025,26.959C4.025,23.432 6.635,20.862 8.966,18.172C8.588,16.936 8.229,15.681 8.07,14.386C7.95,13.35 7.93,12.314 7.93,11.278C7.93,8.986 9.026,6.814 10.899,5.46C11.019,5.36 11.178,5.36 11.298,5.46C12.712,7.133 13.948,10.341 13.948,12.593C13.948,15.442 12.234,17.674 10.361,19.846C10.78,21.2 11.138,22.595 11.477,23.97C11.557,23.97 11.656,23.95 11.736,23.95C14.824,23.95 16.837,26.501 16.837,29.151C16.837,30.665 16.179,32.219 14.705,33.335C14.267,33.674 13.768,33.893 13.25,34.052C13.31,34.75 13.35,35.447 13.35,36.144C13.35,36.523 13.33,36.922 13.31,37.3C13.171,39.671 11.557,41.783 9.285,41.843L9.305,40.986C11.158,40.946 12.354,39.153 12.473,37.181C12.493,36.822 12.513,36.443 12.513,36.085C12.513,35.467 12.493,34.869 12.433,34.252C11.856,34.351 11.278,34.411 10.66,34.411ZM12.513,10.939C12.513,9.843 12.433,9.365 12.115,8.369C10.142,9.325 8.887,11.337 8.887,13.529C8.887,15.004 9.245,16.179 9.604,17.395C11.198,15.462 12.513,13.45 12.513,10.939Z" style="fill-rule:nonzero;"/>
        </g>
    </g>
</svg>
