<?xml version="1.0" encoding="UTF-8" standalone="no"?>
<svg
   version="1.2"
   width="52.090034mm"
   height="26.238232mm"
   viewBox="0 0 29.642099 14.931001"
   id="svg230"
   xmlns:xlink="http://www.w3.org/1999/xlink"
   xmlns="http://www.w3.org/2000/svg"
   xmlns:svg="http://www.w3.org/2000/svg">
  <defs
     id="defs234" />
  <style
     type="text/css"
     id="style2"><![CDATA[
tspan { white-space: pre; }
]]></style>
  <g
     transform="translate(1.212,6.779)"
     id="g6">
    <rect
       x="11.4887"
       y="-0.1"
       width="1.9563"
       height="0.2"
       ry="0.1"
       fill="currentColor"
       id="rect4" />
  </g>
  <g
     transform="translate(1.212,5.779)"
     id="g10">
    <line
       stroke-linejoin="round"
       stroke-linecap="round"
       stroke-width="0.1"
       stroke="currentColor"
       x1="0.050000001"
       y1="0"
       x2="28.379999"
       y2="0"
       id="line8" />
  </g>
  <g
     transform="translate(1.212,4.779)"
     id="g14">
    <line
       stroke-linejoin="round"
       stroke-linecap="round"
       stroke-width="0.1"
       stroke="currentColor"
       x1="0.050000001"
       y1="0"
       x2="28.379999"
       y2="0"
       id="line12" />
  </g>
  <g
     transform="translate(1.212,3.779)"
     id="g18">
    <line
       stroke-linejoin="round"
       stroke-linecap="round"
       stroke-width="0.1"
       stroke="currentColor"
       x1="0.050000001"
       y1="0"
       x2="28.379999"
       y2="0"
       id="line16" />
  </g>
  <g
     transform="translate(1.212,2.779)"
     id="g22">
    <line
       stroke-linejoin="round"
       stroke-linecap="round"
       stroke-width="0.1"
       stroke="currentColor"
       x1="0.050000001"
       y1="0"
       x2="28.379999"
       y2="0"
       id="line20" />
  </g>
  <g
     transform="translate(1.212,1.779)"
     id="g26">
    <line
       stroke-linejoin="round"
       stroke-linecap="round"
       stroke-width="0.1"
       stroke="currentColor"
       x1="0.050000001"
       y1="0"
       x2="28.379999"
       y2="0"
       id="line24" />
  </g>
  <g
     transform="translate(29.0421)"
     id="g30">
    <rect
       x="0"
       y="5.829"
       width="0.60000002"
       height="4.9499998"
       ry="0.0000"
       fill="currentColor"
       id="rect28" />
  </g>
  <g
     transform="translate(28.5521)"
     id="g34">
    <rect
       x="0"
       y="5.829"
       width="0.19"
       height="4.9499998"
       ry="0.0000"
       fill="currentColor"
       id="rect32" />
  </g>
  <g
     transform="translate(1.212,14.779)"
     id="g38">
    <line
       stroke-linejoin="round"
       stroke-linecap="round"
       stroke-width="0.1"
       stroke="currentColor"
       x1="0.050000001"
       y1="0"
       x2="28.379999"
       y2="0"
       id="line36" />
  </g>
  <g
     transform="translate(1.212,13.779)"
     id="g42">
    <line
       stroke-linejoin="round"
       stroke-linecap="round"
       stroke-width="0.1"
       stroke="currentColor"
       x1="0.050000001"
       y1="0"
       x2="28.379999"
       y2="0"
       id="line40" />
  </g>
  <g
     transform="translate(1.212,12.779)"
     id="g46">
    <line
       stroke-linejoin="round"
       stroke-linecap="round"
       stroke-width="0.1"
       stroke="currentColor"
       x1="0.050000001"
       y1="0"
       x2="28.379999"
       y2="0"
       id="line44" />
  </g>
  <g
     transform="translate(1.212,11.779)"
     id="g50">
    <line
       stroke-linejoin="round"
       stroke-linecap="round"
       stroke-width="0.1"
       stroke="currentColor"
       x1="0.050000001"
       y1="0"
       x2="28.379999"
       y2="0"
       id="line48" />
  </g>
  <g
     transform="translate(1.212,10.779)"
     id="g54">
    <line
       stroke-linejoin="round"
       stroke-linecap="round"
       stroke-width="0.1"
       stroke="currentColor"
       x1="0.050000001"
       y1="0"
       x2="28.379999"
       y2="0"
       id="line52" />
  </g>
  <g
     transform="translate(27.8021,12.279)"
     id="g58">
    <path
       transform="scale(0.004,-0.004)"
       d="M 0,0 C 0,31 25,56 56,56 87,56 112,31 112,0 112,-31 87,-56 56,-56 25,-56 0,-31 0,0 Z"
       fill="currentColor"
       id="path56" />
  </g>
  <g
     transform="translate(27.8021,13.279)"
     id="g62">
    <path
       transform="scale(0.004,-0.004)"
       d="M 0,0 C 0,31 25,56 56,56 87,56 112,31 112,0 112,-31 87,-56 56,-56 25,-56 0,-31 0,0 Z"
       fill="currentColor"
       id="path60" />
  </g>
  <g
     transform="translate(29.0421,12.779)"
     id="g66">
    <rect
       x="0"
       y="-2.05"
       width="0.60000002"
       height="4.0500002"
       ry="0.0000"
       fill="currentColor"
       id="rect64" />
  </g>
  <g
     transform="translate(28.5521,12.779)"
     id="g70">
    <rect
       x="0"
       y="-2.05"
       width="0.19"
       height="4.0500002"
       ry="0.0000"
       fill="currentColor"
       id="rect68" />
  </g>
  <g
     transform="translate(27.8021,3.279)"
     id="g74">
    <path
       transform="scale(0.004,-0.004)"
       d="M 0,0 C 0,31 25,56 56,56 87,56 112,31 112,0 112,-31 87,-56 56,-56 25,-56 0,-31 0,0 Z"
       fill="currentColor"
       id="path72" />
  </g>
  <g
     transform="translate(27.8021,4.279)"
     id="g78">
    <path
       transform="scale(0.004,-0.004)"
       d="M 0,0 C 0,31 25,56 56,56 87,56 112,31 112,0 112,-31 87,-56 56,-56 25,-56 0,-31 0,0 Z"
       fill="currentColor"
       id="path76" />
  </g>
  <g
     transform="translate(29.0421,3.779)"
     id="g82">
    <rect
       x="0"
       y="-2"
       width="0.60000002"
       height="4.0500002"
       ry="0.0000"
       fill="currentColor"
       id="rect80" />
  </g>
  <g
     transform="translate(28.5521,3.779)"
     id="g86">
    <rect
       x="0"
       y="-2"
       width="0.19"
       height="4.0500002"
       ry="0.0000"
       fill="currentColor"
       id="rect84" />
  </g>
  <g
     transform="translate(0.852,8.279)"
     id="g90">
    <path
       transform="scale(0.004,-0.004)"
       d="m -81,-366 c 0,255 -132,363 -132,366 0,18 132,96 132,366 0,261 -108,489 -108,780 0,189 45,366 177,501 15,15 39,-9 24,-24 -99,-99 -129,-225 -129,-360 0,-255 102,-480 102,-765 0,-186 -45,-363 -174,-498 129,-135 174,-312 174,-498 0,-285 -102,-510 -102,-765 0,-135 30,-261 129,-360 15,-15 -9,-39 -24,-24 -132,135 -177,312 -177,501 0,291 108,519 108,780 z"
       fill="currentColor"
       id="path88" />
  </g>
  <g
     transform="translate(1.152,8.279)"
     id="g94">
    <rect
       x="0"
       y="-6.5500002"
       width="0.16"
       height="13.1"
       ry="0.050000001"
       fill="currentColor"
       id="rect92" />
  </g>
  <g
     transform="translate(14.201,2.589)"
     id="g98">
    <polygon
       stroke-linejoin="round"
       stroke-linecap="round"
       stroke-width="0.08"
       fill="currentColor"
       stroke="currentColor"
       points="0.04,0.2 0.04,-0.2 12.3611,-0.82 12.3611,-0.42 "
       id="polygon96" />
  </g>
  <a
     style="color:inherit"
     xlink:href="textedit:///Users/philippeperret/Programmes/ScoreSuite/ScoreBuilder/essais/multiple_staves/build_code/partition-untrimed.ly:35:7:8"
     id="a104"
     transform="translate(-21.5502,-12.3811)">
    <g
       transform="translate(34.577,19.1601)"
       id="g102">
      <path
         transform="scale(0.004,-0.004)"
         d="m 218,136 c 66,0 108,-36 108,-89 0,-89 -113,-183 -218,-183 -66,0 -108,36 -108,89 0,89 113,183 218,183 z"
         fill="currentColor"
         id="path100" />
    </g>
  </a>
  <g
     transform="translate(2.012,4.779)"
     id="g108">
    <path
       transform="scale(0.004,-0.004)"
       d="m 266,-635 h -6 c -108,0 -195,88 -195,197 0,58 53,103 112,103 54,0 95,-47 95,-103 0,-52 -43,-95 -95,-95 -11,0 -21,2 -31,6 26,-39 68,-65 117,-65 h 4 z m 195,432 c 68,24 113,90 113,164 0,90 -66,179 -173,190 19,-89 48,-242 60,-354 z M 74,28 c 0,-145 141,-247 264,-247 1,0 47,0 82,6 -7,64 -29,203 -63,364 -79,-8 -124,-61 -124,-119 0,-44 25,-91 81,-123 5,-5 7,-10 7,-15 0,-11 -10,-22 -22,-22 -15,0 -126,62 -126,187 0,88 58,174 160,197 -14,58 -29,117 -46,175 C 180,310 74,188 74,28 Z m 176,525 c -29,96 -52,170 -52,346 0,115 55,224 149,292 6,5 14,5 20,0 68,-80 133,-245 133,-358 0,-143 -86,-255 -180,-364 21,-68 39,-138 56,-207 2,0 7,1 13,1 155,0 256,-128 256,-261 0,-113 -74,-212 -180,-246 3,-35 5,-70 5,-105 0,-19 -1,-39 -2,-58 -7,-119 -88,-225 -202,-228 l 1,43 c 93,2 153,92 159,191 1,18 2,37 2,55 0,31 -1,61 -4,92 -5,-1 -44,-8 -89,-8 C 142,-262 2,-82 2,112 2,289 133,418 250,553 Z m 178,363 c 0,34 1,66 -20,129 -99,-48 -162,-149 -162,-259 0,-52 12,-115 36,-194 80,97 146,198 146,324 z"
       fill="currentColor"
       id="path106" />
  </g>
  <a
     style="color:inherit"
     xlink:href="textedit:///Users/philippeperret/Programmes/ScoreSuite/ScoreBuilder/essais/multiple_staves/build_code/partition-untrimed.ly:33:6:7"
     id="a122"
     transform="translate(-21.5502,-12.3811)">
    <g
       transform="translate(27.1822,16.1601)"
       id="g112">
      <path
         transform="scale(0.004,-0.004)"
         d="m 27,41 -1,-66 v -11 c 0,-22 1,-44 4,-66 45,38 93,80 93,139 0,33 -14,67 -43,67 C 49,104 28,74 27,41 Z m -42,-179 -12,595 c 8,5 18,8 27,8 9,0 19,-3 27,-8 L 20,112 c 25,21 58,34 91,34 52,0 89,-48 89,-102 0,-80 -86,-117 -147,-169 -15,-13 -24,-38 -45,-38 -13,0 -23,11 -23,25 z"
         fill="currentColor"
         id="path110" />
    </g>
    <g
       transform="translate(28.1022,14.6601)"
       id="g116">
      <path
         transform="scale(0.004,-0.004)"
         d="m 27,41 -1,-66 v -11 c 0,-22 1,-44 4,-66 45,38 93,80 93,139 0,33 -14,67 -43,67 C 49,104 28,74 27,41 Z m -42,-179 -12,595 c 8,5 18,8 27,8 9,0 19,-3 27,-8 L 20,112 c 25,21 58,34 91,34 52,0 89,-48 89,-102 0,-80 -86,-117 -147,-169 -15,-13 -24,-38 -45,-38 -13,0 -23,11 -23,25 z"
         fill="currentColor"
         id="path114" />
    </g>
    <g
       transform="translate(29.0222,16.6601)"
       id="g120">
      <path
         transform="scale(0.004,-0.004)"
         d="m 27,41 -1,-66 v -11 c 0,-22 1,-44 4,-66 45,38 93,80 93,139 0,33 -14,67 -43,67 C 49,104 28,74 27,41 Z m -42,-179 -12,595 c 8,5 18,8 27,8 9,0 19,-3 27,-8 L 20,112 c 25,21 58,34 91,34 52,0 89,-48 89,-102 0,-80 -86,-117 -147,-169 -15,-13 -24,-38 -45,-38 -13,0 -23,11 -23,25 z"
         fill="currentColor"
         id="path118" />
    </g>
  </a>
  <a
     style="color:inherit"
     xlink:href="textedit:///Users/philippeperret/Programmes/ScoreSuite/ScoreBuilder/essais/multiple_staves/build_code/partition-untrimed.ly:30:6:7"
     id="a132"
     transform="translate(-21.5502,-12.3811)">
    <g
       transform="translate(31.1088,16.1601)"
       id="g126">
      <path
         transform="scale(0.004,-0.004)"
         d="m 263,265 c 0,-33 70,-23 70,-125 C 333,48 254,0 154,0 75,0 0,42 0,113 c 0,36 30,66 66,66 36,0 65,-30 65,-66 0,-25 -40,-28 -40,-53 0,-27 32,-37 63,-37 49,0 63,61 63,117 v 16 c 0,54 -2,94 -50,94 H 87 c -10,0 -14,8 -14,15 0,7 4,14 14,14 h 80 c 49,0 50,43 50,99 v 8 c 0,54 -18,91 -67,91 -28,0 -57,-9 -57,-33 0,-22 35,-25 35,-47 0,-32 -25,-58 -57,-58 -32,0 -58,26 -58,58 0,64 67,103 137,103 91,0 169,-33 169,-114 0,-122 -56,-80 -56,-121 z"
         fill="currentColor"
         id="path124" />
    </g>
    <g
       transform="translate(30.9722,18.1761)"
       id="g130">
      <path
         transform="scale(0.004,-0.004)"
         d="m 196,117 h 117 c 0,-48 27,-94 72,-94 8,0 12,-5 12,-11 C 397,6 393,0 385,0 341,0 298,13 254,13 210,13 167,0 123,0 c -8,0 -12,6 -12,12 0,6 4,11 12,11 45,0 73,46 73,94 z M -2,148 c 0,12 140,143 140,336 0,10 7,19 16,16 23,-7 47,-13 71,-13 24,0 48,6 71,13 14,4 23,-9 17,-16 L 29,154 h 167 v 131 c 0,34 34,27 68,72 22,30 23,56 36,56 6,0 13,-5 13,-14 V 154 h 72 c 10,0 15,-7 15,-14 0,-7 -5,-15 -15,-15 h -72 v -8 H 196 v 8 H 29 c -23,0 -31,14 -31,23 z"
         fill="currentColor"
         id="path128" />
    </g>
  </a>
  <a
     style="color:inherit"
     xlink:href="textedit:///Users/philippeperret/Programmes/ScoreSuite/ScoreBuilder/essais/multiple_staves/build_code/partition-untrimed.ly:45:7:8"
     id="a138"
     transform="translate(-21.5502,-12.3811)">
    <g
       transform="translate(34.577,25.6601)"
       id="g136">
      <path
         transform="scale(0.004,-0.004)"
         d="m 314,65 c 0,23 -19,41 -42,41 C 233,106 68,-4 41,-37 34,-45 31,-55 31,-65 c 0,-23 19,-41 42,-41 39,0 203,110 230,143 7,8 11,18 11,28 z m -52,71 c 41,0 82,-14 82,-71 0,-26 -16,-112 -74,-151 -25,-17 -87,-50 -187,-50 -41,0 -83,14 -83,71 0,26 16,112 74,151 25,17 88,50 188,50 z"
         fill="currentColor"
         id="path134" />
    </g>
  </a>
  <g
     transform="translate(2.012,11.779)"
     id="g142">
    <path
       transform="scale(0.004,-0.004)"
       d="m 557,-125 c 0,28 23,51 51,51 28,0 51,-23 51,-51 0,-28 -23,-51 -51,-51 -28,0 -51,23 -51,51 z m 0,250 c 0,28 23,51 51,51 28,0 51,-23 51,-51 0,-28 -23,-51 -51,-51 -28,0 -51,23 -51,51 z M 232,263 c 172,0 293,-88 293,-251 0,-263 -263,-414 -516,-521 -3,-3 -6,-4 -9,-4 -7,0 -13,6 -13,13 0,3 1,6 4,9 202,118 412,265 412,493 0,120 -63,235 -171,235 -74,0 -129,-54 -154,-126 11,5 22,8 34,8 C 167,119 212,74 212,19 212,-39 168,-87 112,-87 52,-87 0,-40 0,19 0,152 102,263 232,263 Z"
       fill="currentColor"
       id="path140" />
  </g>
  <a
     style="color:inherit"
     xlink:href="textedit:///Users/philippeperret/Programmes/ScoreSuite/ScoreBuilder/essais/multiple_staves/build_code/partition-untrimed.ly:44:6:7"
     id="a156"
     transform="translate(-21.5502,-12.3811)">
    <g
       transform="translate(27.1822,26.1601)"
       id="g146">
      <path
         transform="scale(0.004,-0.004)"
         d="m 27,41 -1,-66 v -11 c 0,-22 1,-44 4,-66 45,38 93,80 93,139 0,33 -14,67 -43,67 C 49,104 28,74 27,41 Z m -42,-179 -12,595 c 8,5 18,8 27,8 9,0 19,-3 27,-8 L 20,112 c 25,21 58,34 91,34 52,0 89,-48 89,-102 0,-80 -86,-117 -147,-169 -15,-13 -24,-38 -45,-38 -13,0 -23,11 -23,25 z"
         fill="currentColor"
         id="path144" />
    </g>
    <g
       transform="translate(28.1022,24.6601)"
       id="g150">
      <path
         transform="scale(0.004,-0.004)"
         d="m 27,41 -1,-66 v -11 c 0,-22 1,-44 4,-66 45,38 93,80 93,139 0,33 -14,67 -43,67 C 49,104 28,74 27,41 Z m -42,-179 -12,595 c 8,5 18,8 27,8 9,0 19,-3 27,-8 L 20,112 c 25,21 58,34 91,34 52,0 89,-48 89,-102 0,-80 -86,-117 -147,-169 -15,-13 -24,-38 -45,-38 -13,0 -23,11 -23,25 z"
         fill="currentColor"
         id="path148" />
    </g>
    <g
       transform="translate(29.0222,26.6601)"
       id="g154">
      <path
         transform="scale(0.004,-0.004)"
         d="m 27,41 -1,-66 v -11 c 0,-22 1,-44 4,-66 45,38 93,80 93,139 0,33 -14,67 -43,67 C 49,104 28,74 27,41 Z m -42,-179 -12,595 c 8,5 18,8 27,8 9,0 19,-3 27,-8 L 20,112 c 25,21 58,34 91,34 52,0 89,-48 89,-102 0,-80 -86,-117 -147,-169 -15,-13 -24,-38 -45,-38 -13,0 -23,11 -23,25 z"
         fill="currentColor"
         id="path152" />
    </g>
  </a>
  <a
     style="color:inherit"
     xlink:href="textedit:///Users/philippeperret/Programmes/ScoreSuite/ScoreBuilder/essais/multiple_staves/build_code/partition-untrimed.ly:41:6:7"
     id="a166"
     transform="translate(-21.5502,-12.3811)">
    <g
       transform="translate(31.1088,25.1601)"
       id="g160">
      <path
         transform="scale(0.004,-0.004)"
         d="m 263,265 c 0,-33 70,-23 70,-125 C 333,48 254,0 154,0 75,0 0,42 0,113 c 0,36 30,66 66,66 36,0 65,-30 65,-66 0,-25 -40,-28 -40,-53 0,-27 32,-37 63,-37 49,0 63,61 63,117 v 16 c 0,54 -2,94 -50,94 H 87 c -10,0 -14,8 -14,15 0,7 4,14 14,14 h 80 c 49,0 50,43 50,99 v 8 c 0,54 -18,91 -67,91 -28,0 -57,-9 -57,-33 0,-22 35,-25 35,-47 0,-32 -25,-58 -57,-58 -32,0 -58,26 -58,58 0,64 67,103 137,103 91,0 169,-33 169,-114 0,-122 -56,-80 -56,-121 z"
         fill="currentColor"
         id="path158" />
    </g>
    <g
       transform="translate(30.9722,27.1761)"
       id="g164">
      <path
         transform="scale(0.004,-0.004)"
         d="m 196,117 h 117 c 0,-48 27,-94 72,-94 8,0 12,-5 12,-11 C 397,6 393,0 385,0 341,0 298,13 254,13 210,13 167,0 123,0 c -8,0 -12,6 -12,12 0,6 4,11 12,11 45,0 73,46 73,94 z M -2,148 c 0,12 140,143 140,336 0,10 7,19 16,16 23,-7 47,-13 71,-13 24,0 48,6 71,13 14,4 23,-9 17,-16 L 29,154 h 167 v 131 c 0,34 34,27 68,72 22,30 23,56 36,56 6,0 13,-5 13,-14 V 154 h 72 c 10,0 15,-7 15,-14 0,-7 -5,-15 -15,-15 h -72 v -8 H 196 v 8 H 29 c -23,0 -31,14 -31,23 z"
         fill="currentColor"
         id="path162" />
    </g>
  </a>
  <g
     transform="translate(14.266,3.779)"
     id="g170">
    <rect
       x="-0.064999998"
       y="-1.1932"
       width="0.13"
       height="4.0071001"
       ry="0.039999999"
       fill="currentColor"
       id="rect168" />
  </g>
  <g
     transform="translate(14.8541,13.279)"
     id="g174">
    <path
       transform="scale(0.004,-0.004)"
       d="M 0,0 C 0,31 25,56 56,56 87,56 112,31 112,0 112,-31 87,-56 56,-56 25,-56 0,-31 0,0 Z"
       fill="currentColor"
       id="path172" />
  </g>
  <g
     transform="translate(14.3391,12.779)"
     id="g178">
    <rect
       x="-0.064999998"
       y="-3"
       width="0.13"
       height="3.2409999"
       ry="0.039999999"
       fill="currentColor"
       id="rect176" />
  </g>
  <a
     style="color:inherit"
     xlink:href="textedit:///Users/philippeperret/Programmes/ScoreSuite/ScoreBuilder/essais/multiple_staves/build_code/partition-untrimed.ly:35:10:11"
     id="a184"
     transform="translate(-21.5502,-12.3811)">
    <g
       transform="translate(37.0812,18.6601)"
       id="g182">
      <path
         transform="scale(0.004,-0.004)"
         d="m 218,136 c 66,0 108,-36 108,-89 0,-89 -113,-183 -218,-183 -66,0 -108,36 -108,89 0,89 113,183 218,183 z"
         fill="currentColor"
         id="path180" />
    </g>
  </a>
  <g
     transform="translate(16.7702,3.779)"
     id="g188">
    <rect
       x="-0.064999998"
       y="-1.3184"
       width="0.13"
       height="3.6322999"
       ry="0.039999999"
       fill="currentColor"
       id="rect186" />
  </g>
  <a
     style="color:inherit"
     xlink:href="textedit:///Users/philippeperret/Programmes/ScoreSuite/ScoreBuilder/essais/multiple_staves/build_code/partition-untrimed.ly:35:12:13"
     id="a194"
     transform="translate(-21.5502,-12.3811)">
    <g
       transform="translate(39.5854,18.1601)"
       id="g192">
      <path
         transform="scale(0.004,-0.004)"
         d="m 218,136 c 66,0 108,-36 108,-89 0,-89 -113,-183 -218,-183 -66,0 -108,36 -108,89 0,89 113,183 218,183 z"
         fill="currentColor"
         id="path190" />
    </g>
  </a>
  <g
     transform="translate(19.2744,3.779)"
     id="g198">
    <rect
       x="-0.064999998"
       y="-1.4436001"
       width="0.13"
       height="3.2574999"
       ry="0.039999999"
       fill="currentColor"
       id="rect196" />
  </g>
  <a
     style="color:inherit"
     xlink:href="textedit:///Users/philippeperret/Programmes/ScoreSuite/ScoreBuilder/essais/multiple_staves/build_code/partition-untrimed.ly:35:16:17"
     id="a204"
     transform="translate(-21.5502,-12.3811)">
    <g
       transform="translate(42.0896,17.6601)"
       id="g202">
      <path
         transform="scale(0.004,-0.004)"
         d="m 218,136 c 66,0 108,-36 108,-89 0,-89 -113,-183 -218,-183 -66,0 -108,36 -108,89 0,89 113,183 218,183 z"
         fill="currentColor"
         id="path200" />
    </g>
  </a>
  <g
     transform="translate(21.7786,3.779)"
     id="g208">
    <rect
       x="-0.064999998"
       y="-1.5688"
       width="0.13"
       height="2.8827"
       ry="0.039999999"
       fill="currentColor"
       id="rect206" />
  </g>
  <a
     style="color:inherit"
     xlink:href="textedit:///Users/philippeperret/Programmes/ScoreSuite/ScoreBuilder/essais/multiple_staves/build_code/partition-untrimed.ly:35:18:19"
     id="a214"
     transform="translate(-21.5502,-12.3811)">
    <g
       transform="translate(44.5938,17.1601)"
       id="g212">
      <path
         transform="scale(0.004,-0.004)"
         d="m 218,136 c 66,0 108,-36 108,-89 0,-89 -113,-183 -218,-183 -66,0 -108,36 -108,89 0,89 113,183 218,183 z"
         fill="currentColor"
         id="path210" />
    </g>
  </a>
  <g
     transform="translate(24.2828,3.779)"
     id="g218">
    <rect
       x="-0.064999998"
       y="-1.694"
       width="0.13"
       height="2.5079"
       ry="0.039999999"
       fill="currentColor"
       id="rect216" />
  </g>
  <a
     style="color:inherit"
     xlink:href="textedit:///Users/philippeperret/Programmes/ScoreSuite/ScoreBuilder/essais/multiple_staves/build_code/partition-untrimed.ly:35:20:21"
     id="a224"
     transform="translate(-21.5502,-12.3811)">
    <g
       transform="translate(46.848,18.1601)"
       id="g222">
      <path
         transform="scale(0.004,-0.004)"
         d="m 218,136 c 66,0 108,-36 108,-89 0,-89 -113,-183 -218,-183 -66,0 -108,36 -108,89 0,89 113,183 218,183 z"
         fill="currentColor"
         id="path220" />
    </g>
  </a>
  <g
     transform="translate(26.5371,3.779)"
     id="g228">
    <rect
       x="-0.064999998"
       y="-1.8068"
       width="0.13"
       height="3.6206"
       ry="0.039999999"
       fill="currentColor"
       id="rect226" />
  </g>
</svg>
