<?xml version="1.0" encoding="UTF-8" standalone="no"?>
<svg
   version="1.2"
   width="33.425587mm"
   height="26.304379mm"
   viewBox="0 0 19.021 14.968643"
   id="svg90"
   xmlns:xlink="http://www.w3.org/1999/xlink"
   xmlns="http://www.w3.org/2000/svg"
   xmlns:svg="http://www.w3.org/2000/svg">
  <defs
     id="defs94" />
  <style
     text="style/css"
     id="style2"><![CDATA[
tspan { white-space: pre; }
]]></style>
  <!-- Page: 1/1 -->
  <line
     stroke-linejoin="round"
     stroke-linecap="round"
     stroke-width="0.1"
     stroke="currentColor"
     x1="1.262"
     y1="5.7789998"
     x2="18.971001"
     y2="5.7789998"
     id="line4" />
  <line
     stroke-linejoin="round"
     stroke-linecap="round"
     stroke-width="0.1"
     stroke="currentColor"
     x1="1.262"
     y1="4.7789998"
     x2="18.971001"
     y2="4.7789998"
     id="line6" />
  <line
     stroke-linejoin="round"
     stroke-linecap="round"
     stroke-width="0.1"
     stroke="currentColor"
     x1="1.262"
     y1="3.779"
     x2="18.971001"
     y2="3.779"
     id="line8" />
  <line
     stroke-linejoin="round"
     stroke-linecap="round"
     stroke-width="0.1"
     stroke="currentColor"
     x1="1.262"
     y1="2.779"
     x2="18.971001"
     y2="2.779"
     id="line10" />
  <line
     stroke-linejoin="round"
     stroke-linecap="round"
     stroke-width="0.1"
     stroke="currentColor"
     x1="1.262"
     y1="1.779"
     x2="18.971001"
     y2="1.779"
     id="line12" />
  <rect
     x="12.6905"
     y="6.6789999"
     width="1.9563"
     height="0.2"
     ry="0.1"
     fill="currentColor"
     id="rect14" />
  <rect
     x="9.6882"
     y="6.6789999"
     width="1.9563"
     height="0.2"
     ry="0.1"
     fill="currentColor"
     id="rect16" />
  <rect
     x="6.6858997"
     y="6.6789999"
     width="1.9563"
     height="0.2"
     ry="0.1"
     fill="currentColor"
     id="rect18" />
  <rect
     x="6.6858997"
     y="7.6789999"
     width="1.9563"
     height="0.2"
     ry="0.1"
     fill="currentColor"
     id="rect20" />
  <rect
     x="6.6858997"
     y="9.7690001"
     width="1.9563"
     height="0.2"
     ry="0.1"
     fill="currentColor"
     id="rect22" />
  <line
     stroke-linejoin="round"
     stroke-linecap="round"
     stroke-width="0.1"
     stroke="currentColor"
     x1="1.262"
     y1="14.869"
     x2="18.971001"
     y2="14.869"
     id="line24" />
  <line
     stroke-linejoin="round"
     stroke-linecap="round"
     stroke-width="0.1"
     stroke="currentColor"
     x1="1.262"
     y1="13.869"
     x2="18.971001"
     y2="13.869"
     id="line26" />
  <line
     stroke-linejoin="round"
     stroke-linecap="round"
     stroke-width="0.1"
     stroke="currentColor"
     x1="1.262"
     y1="12.869"
     x2="18.971001"
     y2="12.869"
     id="line28" />
  <line
     stroke-linejoin="round"
     stroke-linecap="round"
     stroke-width="0.1"
     stroke="currentColor"
     x1="1.262"
     y1="11.869"
     x2="18.971001"
     y2="11.869"
     id="line30" />
  <line
     stroke-linejoin="round"
     stroke-linecap="round"
     stroke-width="0.1"
     stroke="currentColor"
     x1="1.262"
     y1="10.869"
     x2="18.971001"
     y2="10.869"
     id="line32" />
  <rect
     x="10.0143"
     y="10.5551"
     width="0.13"
     height="3.3139"
     ry="0.039999999"
     fill="currentColor"
     id="rect34" />
  <rect
     x="11.1885"
     y="3.779"
     width="0.13"
     height="3.3139"
     ry="0.039999999"
     fill="currentColor"
     id="rect36" />
  <a
     style="color:inherit"
     xlink:href="textedit:///Users/philippeperret/Sites/MusicScoreWriter/essais/essai/essai_variables-untrimed.ly:40:24:25"
     id="a40"
     transform="translate(-21.5502,-12.3661)">
    <path
       transform="matrix(0.004,0,0,-0.004,31.5645,22.7351)"
       d="m 218,136 c 55,0 108,-28 108,-89 0,-71 -55,-121 -102,-149 -35,-21 -75,-34 -116,-34 -55,0 -108,28 -108,89 0,71 55,121 102,149 35,21 75,34 116,34 z"
       fill="currentColor"
       id="path38" />
  </a>
  <a
     style="color:inherit"
     xlink:href="textedit:///Users/philippeperret/Sites/MusicScoreWriter/essais/essai/essai_variables-untrimed.ly:30:24:25"
     id="a44"
     transform="translate(-21.5502,-12.3661)">
    <path
       transform="matrix(0.004,0,0,-0.004,31.5645,19.6451)"
       d="m 218,136 c 55,0 108,-28 108,-89 0,-71 -55,-121 -102,-149 -35,-21 -75,-34 -116,-34 -55,0 -108,28 -108,89 0,71 55,121 102,149 35,21 75,34 116,34 z"
       fill="currentColor"
       id="path42" />
  </a>
  <rect
     x="16.018801"
     y="11.5551"
     width="0.13"
     height="3.3139"
     ry="0.039999999"
     fill="currentColor"
     id="rect46" />
  <rect
     x="17.193001"
     y="2.779"
     width="0.13"
     height="3.3139"
     ry="0.039999999"
     fill="currentColor"
     id="rect48" />
  <a
     style="color:inherit"
     xlink:href="textedit:///Users/philippeperret/Sites/MusicScoreWriter/essais/essai/essai_variables-untrimed.ly:40:28:29"
     id="a52"
     transform="translate(-21.5502,-12.3661)">
    <path
       transform="matrix(0.004,0,0,-0.004,37.569,23.7351)"
       d="m 218,136 c 55,0 108,-28 108,-89 0,-71 -55,-121 -102,-149 -35,-21 -75,-34 -116,-34 -55,0 -108,28 -108,89 0,71 55,121 102,149 35,21 75,34 116,34 z"
       fill="currentColor"
       id="path50" />
  </a>
  <a
     style="color:inherit"
     xlink:href="textedit:///Users/philippeperret/Sites/MusicScoreWriter/essais/essai/essai_variables-untrimed.ly:30:28:29"
     id="a56"
     transform="translate(-21.5502,-12.3661)">
    <path
       transform="matrix(0.004,0,0,-0.004,37.569,18.6451)"
       d="m 218,136 c 55,0 108,-28 108,-89 0,-71 -55,-121 -102,-149 -35,-21 -75,-34 -116,-34 -55,0 -108,28 -108,89 0,71 55,121 102,149 35,21 75,34 116,34 z"
       fill="currentColor"
       id="path54" />
  </a>
  <a
     style="color:inherit"
     xlink:href="textedit:///Users/philippeperret/Sites/MusicScoreWriter/essais/essai/essai_variables-untrimed.ly:30:26:27"
     id="a60"
     transform="translate(-21.5502,-12.3661)">
    <path
       transform="matrix(0.004,0,0,-0.004,34.5667,19.1451)"
       d="m 218,136 c 55,0 108,-28 108,-89 0,-71 -55,-121 -102,-149 -35,-21 -75,-34 -116,-34 -55,0 -108,28 -108,89 0,71 55,121 102,149 35,21 75,34 116,34 z"
       fill="currentColor"
       id="path58" />
  </a>
  <rect
     x="13.0165"
     y="11.0551"
     width="0.13"
     height="3.3139"
     ry="0.039999999"
     fill="currentColor"
     id="rect62" />
  <rect
     x="14.1907"
     y="3.279"
     width="0.13"
     height="3.3139"
     ry="0.039999999"
     fill="currentColor"
     id="rect64" />
  <a
     style="color:inherit"
     xlink:href="textedit:///Users/philippeperret/Sites/MusicScoreWriter/essais/essai/essai_variables-untrimed.ly:40:26:27"
     id="a68"
     transform="translate(-21.5502,-12.3661)">
    <path
       transform="matrix(0.004,0,0,-0.004,34.5667,23.2351)"
       d="m 218,136 c 55,0 108,-28 108,-89 0,-71 -55,-121 -102,-149 -35,-21 -75,-34 -116,-34 -55,0 -108,28 -108,89 0,71 55,121 102,149 35,21 75,34 116,34 z"
       fill="currentColor"
       id="path66" />
  </a>
  <a
     style="color:inherit"
     xlink:href="textedit:///Users/philippeperret/Sites/MusicScoreWriter/essais/essai/essai_variables-untrimed.ly:30:22:23"
     id="a72"
     transform="translate(-21.5502,-12.3661)">
    <path
       transform="matrix(0.004,0,0,-0.004,28.5622,20.1451)"
       d="m 218,136 c 55,0 108,-28 108,-89 0,-71 -55,-121 -102,-149 -35,-21 -75,-34 -116,-34 -55,0 -108,28 -108,89 0,71 55,121 102,149 35,21 75,34 116,34 z"
       fill="currentColor"
       id="path70" />
  </a>
  <rect
     x="8.1862001"
     y="3.779"
     width="0.13"
     height="3.8139"
     ry="0.039999999"
     fill="currentColor"
     id="rect74" />
  <path
     d="m 4.24,12.369 c 0,-0.112 0.092,-0.204 0.204,-0.204 0.112,0 0.204,0.092 0.204,0.204 0,0.112 -0.092,0.204 -0.204,0.204 -0.112,0 -0.204,-0.092 -0.204,-0.204 z m 0,-1 c 0,-0.112 0.092,-0.204 0.204,-0.204 0.112,0 0.204,0.092 0.204,0.204 0,0.112 -0.092,0.204 -0.204,0.204 -0.112,0 -0.204,-0.092 -0.204,-0.204 z m -1.3,-0.552 c 0.688,0 1.172,0.352 1.172,1.004 0,1.052 -1.052,1.656 -2.064,2.084 -0.012,0.012 -0.024,0.016 -0.036,0.016 -0.028,0 -0.052,-0.024 -0.052,-0.052 0,-0.012 0.004,-0.024 0.016,-0.036 0.808,-0.472 1.648,-1.06 1.648,-1.972 0,-0.48 -0.252,-0.94 -0.684,-0.94 -0.296,0 -0.516,0.216 -0.616,0.504 0.044,-0.02 0.088,-0.032 0.136,-0.032 0.22,0 0.4,0.18 0.4,0.4 0,0.232 -0.176,0.424 -0.4,0.424 -0.24,0 -0.448,-0.188 -0.448,-0.424 0,-0.532 0.408,-0.976 0.928,-0.976 z"
     fill="currentColor"
     id="path76"
     style="stroke-width:0.004" />
  <a
     style="color:inherit"
     xlink:href="textedit:///Users/philippeperret/Sites/MusicScoreWriter/essais/essai/essai_variables-untrimed.ly:40:22:23"
     id="a80"
     transform="translate(-21.5502,-12.3661)">
    <path
       transform="matrix(0.004,0,0,-0.004,28.5622,22.2351)"
       d="m 218,136 c 55,0 108,-28 108,-89 0,-71 -55,-121 -102,-149 -35,-21 -75,-34 -116,-34 -55,0 -108,28 -108,89 0,71 55,121 102,149 35,21 75,34 116,34 z"
       fill="currentColor"
       id="path78" />
  </a>
  <path
     d="M 3.076,7.319 H 3.052 c -0.432,0 -0.78,-0.352 -0.78,-0.788 0,-0.232 0.212,-0.412 0.448,-0.412 0.216,0 0.38,0.188 0.38,0.412 0,0.208 -0.172,0.38 -0.38,0.38 -0.044,0 -0.084,-0.008 -0.124,-0.024 0.104,0.156 0.272,0.26 0.468,0.26 H 3.08 Z M 3.856,5.591 C 4.128,5.495 4.308,5.211 4.308,4.935 4.308,4.575 4.044,4.219 3.616,4.175 3.712,4.639 3.8,5.099 3.856,5.591 Z M 2.308,4.667 c 0,0.54 0.516,0.988 1.056,0.988 0.112,0 0.22,-0.008 0.328,-0.024 C 3.636,5.123 3.544,4.651 3.44,4.175 3.124,4.207 2.944,4.419 2.944,4.651 c 0,0.176 0.1,0.364 0.324,0.492 0.02,0.02 0.028,0.04 0.028,0.06 0,0.044 -0.04,0.088 -0.088,0.088 C 3.196,5.291 3.184,5.287 3.172,5.283 2.852,5.111 2.704,4.823 2.704,4.543 2.704,4.191 2.936,3.847 3.344,3.755 3.288,3.523 3.228,3.287 3.16,3.055 2.732,3.539 2.308,4.027 2.308,4.667 Z m 1.044,1.16 C 2.6,5.827 2.02,5.139 2.02,4.331 2.02,3.623 2.544,3.107 3.012,2.567 2.936,2.319 2.864,2.067 2.832,1.807 2.808,1.599 2.804,1.391 2.804,1.183 c 0,-0.46 0.22,-0.896 0.596,-1.168 0.024,-0.02 0.056,-0.02 0.08,0 0.284,0.336 0.532,0.98 0.532,1.432 0,0.572 -0.344,1.02 -0.72,1.456 0.084,0.272 0.156,0.552 0.224,0.828 0.016,0 0.036,-0.004 0.052,-0.004 0.62,0 1.024,0.512 1.024,1.044 0,0.304 -0.132,0.616 -0.428,0.84 -0.088,0.068 -0.188,0.112 -0.292,0.144 0.012,0.14 0.02,0.28 0.02,0.42 0,0.076 -0.004,0.156 -0.008,0.232 -0.028,0.476 -0.352,0.9 -0.808,0.912 L 3.08,7.147 C 3.452,7.139 3.692,6.779 3.716,6.383 3.72,6.311 3.724,6.235 3.724,6.163 3.724,6.039 3.72,5.919 3.708,5.795 3.592,5.815 3.476,5.827 3.352,5.827 Z M 3.724,1.115 C 3.724,0.895 3.708,0.799 3.644,0.599 3.248,0.791 2.996,1.195 2.996,1.635 2.996,1.931 3.068,2.167 3.14,2.411 3.46,2.023 3.724,1.619 3.724,1.115 Z"
     fill="currentColor"
     id="path82"
     style="stroke-width:0.004" />
  <rect
     x="1.152"
     y="1.7290002"
     width="0.16"
     height="13.19"
     ry="0.050000001"
     fill="currentColor"
     id="rect84" />
  <path
     d="m 0.792,10.328 c 0,1.056 -0.42,2.088 -0.42,3.084 0,0.54 0.132,1.056 0.528,1.452 0.06,0.06 -0.036,0.144 -0.096,0.084 C 0.276,14.408 0.096,13.7 0.096,12.944 0.096,11.864 0.528,10.808 0.528,9.788 0.528,9.248 0.408,8.756 0.012,8.36 0,8.348 0,8.336 0,8.324 0,8.312 0,8.3 0.012,8.288 0.408,7.892 0.528,7.4 0.528,6.86 0.528,5.84 0.096,4.784 0.096,3.704 0.096,2.948 0.276,2.24 0.804,1.7 0.864,1.64 0.96,1.724 0.9,1.784 0.504,2.18 0.372,2.696 0.372,3.236 c 0,0.996 0.42,2.028 0.42,3.084 0,0.744 -0.18,1.464 -0.696,2.004 0.516,0.54 0.696,1.26 0.696,2.004 z"
     fill="currentColor"
     id="path86"
     style="stroke-width:0.004" />
  <rect
     x="7.0120001"
     y="10.0551"
     width="0.13"
     height="3.3139"
     ry="0.039999999"
     fill="currentColor"
     id="rect88" />
</svg>
