<?xml version="1.0" encoding="UTF-8" standalone="no"?>
<svg
   version="1.2"
   width="20.20068mm"
   height="17.003801mm"
   viewBox="0 0 11.4953 9.6761011"
   id="svg62"
   xmlns:xlink="http://www.w3.org/1999/xlink"
   xmlns="http://www.w3.org/2000/svg"
   xmlns:svg="http://www.w3.org/2000/svg">
  <defs
     id="defs66" />
  <style
     type="text/css"
     id="style2"><![CDATA[
tspan { white-space: pre; }
]]></style>
  <g
     transform="translate(0,6.779)"
     id="g6">
    <rect
       x="8.2786999"
       y="-0.1"
       width="1.9563"
       height="0.2"
       ry="0.1"
       fill="currentColor"
       id="rect4" />
  </g>
  <g
     transform="translate(0,5.779)"
     id="g10">
    <line
       stroke-linejoin="round"
       stroke-linecap="round"
       stroke-width="0.1"
       stroke="currentColor"
       x1="0.050000001"
       y1="0"
       x2="11.4453"
       y2="0"
       id="line8" />
  </g>
  <g
     transform="translate(0,4.779)"
     id="g14">
    <line
       stroke-linejoin="round"
       stroke-linecap="round"
       stroke-width="0.1"
       stroke="currentColor"
       x1="0.050000001"
       y1="0"
       x2="11.4453"
       y2="0"
       id="line12" />
  </g>
  <g
     transform="translate(0,3.779)"
     id="g18">
    <line
       stroke-linejoin="round"
       stroke-linecap="round"
       stroke-width="0.1"
       stroke="currentColor"
       x1="0.050000001"
       y1="0"
       x2="11.4453"
       y2="0"
       id="line16" />
  </g>
  <g
     transform="translate(0,2.779)"
     id="g22">
    <line
       stroke-linejoin="round"
       stroke-linecap="round"
       stroke-width="0.1"
       stroke="currentColor"
       x1="0.050000001"
       y1="0"
       x2="11.4453"
       y2="0"
       id="line20" />
  </g>
  <g
     transform="translate(0,1.779)"
     id="g26">
    <line
       stroke-linejoin="round"
       stroke-linecap="round"
       stroke-width="0.1"
       stroke="currentColor"
       x1="0.050000001"
       y1="0"
       x2="11.4453"
       y2="0"
       id="line24" />
  </g>
  <a
     style="color:inherit"
     xlink:href="textedit:///Users/philippeperret/__Current_Work__/HANON/images/materiel/Building-exercice/c-piano-untrimed.ly:32:3:4"
     id="a32"
     transform="translate(-22.7622,-12.3811)">
    <g
       transform="translate(31.3669,19.1601)"
       id="g30">
      <path
         transform="scale(0.004,-0.004)"
         d="m 218,136 c 66,0 108,-36 108,-89 0,-89 -113,-183 -218,-183 -66,0 -108,36 -108,89 0,89 113,183 218,183 z"
         fill="currentColor"
         id="path28" />
    </g>
  </a>
  <a
     style="color:inherit"
     xlink:href="textedit:///Users/philippeperret/__Current_Work__/HANON/images/materiel/Building-exercice/c-piano-untrimed.ly:32:4:5"
     id="a42"
     transform="translate(-22.7622,-12.3811)">
    <g
       transform="translate(30.5509,21.4732)"
       id="g40">
      <g
         id="g38">
        <path
           transform="scale(0.004,-0.004)"
           d="m 161,32 c 78,0 97,176 97,178 0,18 -7,33 -25,33 -61,0 -102,-124 -102,-173 0,-22 8,-38 30,-38 z M -53,141 c 0,2 51,151 134,151 35,0 59,-21 66,-52 29,31 67,52 103,52 69,0 107,-49 107,-114 C 357,60 252,-8 198,-8 145,-8 128,12 114,12 107,12 100,9 98,3 L 69,-83 c -1,-2 -1,-5 -1,-7 0,-37 57,-18 57,-42 0,-7 -4,-14 -13,-14 -3,0 -50,5 -116,5 -66,0 -112,-5 -115,-5 -9,0 -14,7 -14,14 0,31 87,-1 102,41 L 71,209 c 2,7 4,14 4,20 0,8 -2,14 -11,14 -33,0 -63,-60 -79,-97 -5,-12 -15,-17 -24,-17 -8,0 -14,4 -14,12 z"
           fill="currentColor"
           id="path34" />
        <path
           transform="matrix(0.004,0,0,-0.004,1.4682,0)"
           d="m 161,32 c 78,0 97,176 97,178 0,18 -7,33 -25,33 -61,0 -102,-124 -102,-173 0,-22 8,-38 30,-38 z M -53,141 c 0,2 51,151 134,151 35,0 59,-21 66,-52 29,31 67,52 103,52 69,0 107,-49 107,-114 C 357,60 252,-8 198,-8 145,-8 128,12 114,12 107,12 100,9 98,3 L 69,-83 c -1,-2 -1,-5 -1,-7 0,-37 57,-18 57,-42 0,-7 -4,-14 -13,-14 -3,0 -50,5 -116,5 -66,0 -112,-5 -115,-5 -9,0 -14,7 -14,14 0,31 87,-1 102,41 L 71,209 c 2,7 4,14 4,20 0,8 -2,14 -11,14 -33,0 -63,-60 -79,-97 -5,-12 -15,-17 -24,-17 -8,0 -14,4 -14,12 z"
           fill="currentColor"
           id="path36" />
      </g>
    </g>
  </a>
  <g
     transform="translate(0.8,4.779)"
     id="g46">
    <path
       transform="scale(0.004,-0.004)"
       d="m 266,-635 h -6 c -108,0 -195,88 -195,197 0,58 53,103 112,103 54,0 95,-47 95,-103 0,-52 -43,-95 -95,-95 -11,0 -21,2 -31,6 26,-39 68,-65 117,-65 h 4 z m 195,432 c 68,24 113,90 113,164 0,90 -66,179 -173,190 19,-89 48,-242 60,-354 z M 74,28 c 0,-145 141,-247 264,-247 1,0 47,0 82,6 -7,64 -29,203 -63,364 -79,-8 -124,-61 -124,-119 0,-44 25,-91 81,-123 5,-5 7,-10 7,-15 0,-11 -10,-22 -22,-22 -15,0 -126,62 -126,187 0,88 58,174 160,197 -14,58 -29,117 -46,175 C 180,310 74,188 74,28 Z m 176,525 c -29,96 -52,170 -52,346 0,115 55,224 149,292 6,5 14,5 20,0 68,-80 133,-245 133,-358 0,-143 -86,-255 -180,-364 21,-68 39,-138 56,-207 2,0 7,1 13,1 155,0 256,-128 256,-261 0,-113 -74,-212 -180,-246 3,-35 5,-70 5,-105 0,-19 -1,-39 -2,-58 -7,-119 -88,-225 -202,-228 l 1,43 c 93,2 153,92 159,191 1,18 2,37 2,55 0,31 -1,61 -4,92 -5,-1 -44,-8 -89,-8 C 142,-262 2,-82 2,112 2,289 133,418 250,553 Z m 178,363 c 0,34 1,66 -20,129 -99,-48 -162,-149 -162,-259 0,-52 12,-115 36,-194 80,97 146,198 146,324 z"
       fill="currentColor"
       id="path44" />
  </g>
  <a
     style="color:inherit"
     xlink:href="textedit:///Users/philippeperret/__Current_Work__/HANON/images/materiel/Building-exercice/c-piano-untrimed.ly:30:2:3"
     id="a48"
     transform="translate(-22.7622,-12.3811)" />
  <g
     transform="translate(5.0683,3.779)"
     id="g52">
    <path
       transform="scale(0.004,-0.004)"
       d="M 229,0 C 141,0 139,66 85,66 55,66 26,46 23,11 22,4 17,0 12,0 6,0 0,4 0,11 c 0,154 232,170 232,344 0,59 -16,122 -67,122 -25,0 -49,-14 -49,-37 0,-27 35,-41 35,-68 0,-38 -31,-69 -69,-69 -38,0 -69,31 -69,69 0,76 72,128 152,128 95,0 183,-57 183,-145 0,-151 -150,-159 -246,-220 9,2 18,3 27,3 83,0 111,-59 171,-59 48,0 38,38 55,38 6,0 12,-5 12,-12 C 367,83 323,0 229,0 Z"
       fill="currentColor"
       id="path50" />
  </g>
  <g
     transform="translate(5,5.795)"
     id="g56">
    <path
       transform="scale(0.004,-0.004)"
       d="m 196,117 h 117 c 0,-48 27,-94 72,-94 8,0 12,-5 12,-11 C 397,6 393,0 385,0 341,0 298,13 254,13 210,13 167,0 123,0 c -8,0 -12,6 -12,12 0,6 4,11 12,11 45,0 73,46 73,94 z M -2,148 c 0,12 140,143 140,336 0,10 7,19 16,16 23,-7 47,-13 71,-13 24,0 48,6 71,13 14,4 23,-9 17,-16 L 29,154 h 167 v 131 c 0,34 34,27 68,72 22,30 23,56 36,56 6,0 13,-5 13,-14 V 154 h 72 c 10,0 15,-7 15,-14 0,-7 -5,-15 -15,-15 h -72 v -8 H 196 v 8 H 29 c -23,0 -31,14 -31,23 z"
       fill="currentColor"
       id="path54" />
  </g>
  <g
     transform="translate(9.844,3.779)"
     id="g60">
    <rect
       x="-0.064999998"
       y="-0.5"
       width="0.13"
       height="3.3139"
       ry="0.039999999"
       fill="currentColor"
       id="rect58" />
  </g>
</svg>
