<?xml version="1.0" encoding="UTF-8" standalone="no"?>
<svg
   version="1.2"
   width="51.705009mm"
   height="18.472902mm"
   viewBox="0 0 29.422999 10.512101"
   id="svg138"
   xmlns:xlink="http://www.w3.org/1999/xlink"
   xmlns="http://www.w3.org/2000/svg"
   xmlns:svg="http://www.w3.org/2000/svg">
  <defs
     id="defs142" />
  <style
     type="text/css"
     id="style2"><![CDATA[
tspan { white-space: pre; }
]]></style>
  <g
     transform="translate(0,6.779)"
     id="g6">
    <rect
       x="24.915001"
       y="-0.1"
       width="2.066"
       height="0.2"
       ry="0.1"
       fill="currentColor"
       id="rect4" />
  </g>
  <g
     transform="translate(0,6.779)"
     id="g10">
    <rect
       x="20.7514"
       y="-0.1"
       width="2.066"
       height="0.2"
       ry="0.1"
       fill="currentColor"
       id="rect8" />
  </g>
  <g
     transform="translate(0,6.779)"
     id="g14">
    <rect
       x="16.5877"
       y="-0.1"
       width="2.066"
       height="0.2"
       ry="0.1"
       fill="currentColor"
       id="rect12" />
  </g>
  <g
     transform="translate(0,6.779)"
     id="g18">
    <rect
       x="12.4241"
       y="-0.1"
       width="2.066"
       height="0.2"
       ry="0.1"
       fill="currentColor"
       id="rect16" />
  </g>
  <g
     transform="translate(0,6.779)"
     id="g22">
    <rect
       x="8.2603998"
       y="-0.1"
       width="2.066"
       height="0.2"
       ry="0.1"
       fill="currentColor"
       id="rect20" />
  </g>
  <g
     transform="translate(0,5.779)"
     id="g26">
    <line
       stroke-linejoin="round"
       stroke-linecap="round"
       stroke-width="0.1"
       stroke="currentColor"
       x1="0.050000001"
       y1="0"
       x2="29.372999"
       y2="0"
       id="line24" />
  </g>
  <g
     transform="translate(0,4.779)"
     id="g30">
    <line
       stroke-linejoin="round"
       stroke-linecap="round"
       stroke-width="0.1"
       stroke="currentColor"
       x1="0.050000001"
       y1="0"
       x2="29.372999"
       y2="0"
       id="line28" />
  </g>
  <g
     transform="translate(0,3.779)"
     id="g34">
    <line
       stroke-linejoin="round"
       stroke-linecap="round"
       stroke-width="0.1"
       stroke="currentColor"
       x1="0.050000001"
       y1="0"
       x2="29.372999"
       y2="0"
       id="line32" />
  </g>
  <g
     transform="translate(0,2.779)"
     id="g38">
    <line
       stroke-linejoin="round"
       stroke-linecap="round"
       stroke-width="0.1"
       stroke="currentColor"
       x1="0.050000001"
       y1="0"
       x2="29.372999"
       y2="0"
       id="line36" />
  </g>
  <g
     transform="translate(0,1.779)"
     id="g42">
    <line
       stroke-linejoin="round"
       stroke-linecap="round"
       stroke-width="0.1"
       stroke="currentColor"
       x1="0.050000001"
       y1="0"
       x2="29.372999"
       y2="0"
       id="line40" />
  </g>
  <a
     style="color:inherit"
     xlink:href="textedit:///Users/philippeperret/__Current_Work__/HANON/images/materiel/Building-exercice/cresc-decresc-untrimed.ly:32:3:4"
     id="a48"
     transform="translate(-22.7622,-12.3811)">
    <g
       transform="translate(31.3669,19.1601)"
       id="g46">
      <path
         transform="scale(0.004,-0.004)"
         d="m 314,65 c 0,23 -19,41 -42,41 C 233,106 68,-4 41,-37 34,-45 31,-55 31,-65 c 0,-23 19,-41 42,-41 39,0 203,110 230,143 7,8 11,18 11,28 z m -52,71 c 41,0 82,-14 82,-71 0,-26 -16,-112 -74,-151 -25,-17 -87,-50 -187,-50 -41,0 -83,14 -83,71 0,26 16,112 74,151 25,17 88,50 188,50 z"
         fill="currentColor"
         id="path44" />
    </g>
  </a>
  <g
     transform="translate(0.8,4.779)"
     id="g52">
    <path
       transform="scale(0.004,-0.004)"
       d="m 266,-635 h -6 c -108,0 -195,88 -195,197 0,58 53,103 112,103 54,0 95,-47 95,-103 0,-52 -43,-95 -95,-95 -11,0 -21,2 -31,6 26,-39 68,-65 117,-65 h 4 z m 195,432 c 68,24 113,90 113,164 0,90 -66,179 -173,190 19,-89 48,-242 60,-354 z M 74,28 c 0,-145 141,-247 264,-247 1,0 47,0 82,6 -7,64 -29,203 -63,364 -79,-8 -124,-61 -124,-119 0,-44 25,-91 81,-123 5,-5 7,-10 7,-15 0,-11 -10,-22 -22,-22 -15,0 -126,62 -126,187 0,88 58,174 160,197 -14,58 -29,117 -46,175 C 180,310 74,188 74,28 Z m 176,525 c -29,96 -52,170 -52,346 0,115 55,224 149,292 6,5 14,5 20,0 68,-80 133,-245 133,-358 0,-143 -86,-255 -180,-364 21,-68 39,-138 56,-207 2,0 7,1 13,1 155,0 256,-128 256,-261 0,-113 -74,-212 -180,-246 3,-35 5,-70 5,-105 0,-19 -1,-39 -2,-58 -7,-119 -88,-225 -202,-228 l 1,43 c 93,2 153,92 159,191 1,18 2,37 2,55 0,31 -1,61 -4,92 -5,-1 -44,-8 -89,-8 C 142,-262 2,-82 2,112 2,289 133,418 250,553 Z m 178,363 c 0,34 1,66 -20,129 -99,-48 -162,-149 -162,-259 0,-52 12,-115 36,-194 80,97 146,198 146,324 z"
       fill="currentColor"
       id="path50" />
  </g>
  <a
     style="color:inherit"
     xlink:href="textedit:///Users/philippeperret/__Current_Work__/HANON/images/materiel/Building-exercice/cresc-decresc-untrimed.ly:30:2:3"
     id="a54"
     transform="translate(-22.7622,-12.3811)" />
  <g
     transform="translate(5.0683,3.779)"
     id="g58">
    <path
       transform="scale(0.004,-0.004)"
       d="M 229,0 C 141,0 139,66 85,66 55,66 26,46 23,11 22,4 17,0 12,0 6,0 0,4 0,11 c 0,154 232,170 232,344 0,59 -16,122 -67,122 -25,0 -49,-14 -49,-37 0,-27 35,-41 35,-68 0,-38 -31,-69 -69,-69 -38,0 -69,31 -69,69 0,76 72,128 152,128 95,0 183,-57 183,-145 0,-151 -150,-159 -246,-220 9,2 18,3 27,3 83,0 111,-59 171,-59 48,0 38,38 55,38 6,0 12,-5 12,-12 C 367,83 323,0 229,0 Z"
       fill="currentColor"
       id="path56" />
  </g>
  <g
     transform="translate(5,5.795)"
     id="g62">
    <path
       transform="scale(0.004,-0.004)"
       d="m 196,117 h 117 c 0,-48 27,-94 72,-94 8,0 12,-5 12,-11 C 397,6 393,0 385,0 341,0 298,13 254,13 210,13 167,0 123,0 c -8,0 -12,6 -12,12 0,6 4,11 12,11 45,0 73,46 73,94 z M -2,148 c 0,12 140,143 140,336 0,10 7,19 16,16 23,-7 47,-13 71,-13 24,0 48,6 71,13 14,4 23,-9 17,-16 L 29,154 h 167 v 131 c 0,34 34,27 68,72 22,30 23,56 36,56 6,0 13,-5 13,-14 V 154 h 72 c 10,0 15,-7 15,-14 0,-7 -5,-15 -15,-15 h -72 v -8 H 196 v 8 H 29 c -23,0 -31,14 -31,23 z"
       fill="currentColor"
       id="path60" />
  </g>
  <g
     transform="translate(9.9171,3.779)"
     id="g66">
    <rect
       x="-0.064999998"
       y="-0.5"
       width="0.13"
       height="3.2409999"
       ry="0.039999999"
       fill="currentColor"
       id="rect64" />
  </g>
  <a
     style="color:inherit"
     xlink:href="textedit:///Users/philippeperret/__Current_Work__/HANON/images/materiel/Building-exercice/cresc-decresc-untrimed.ly:32:14:15"
     id="a76"
     transform="translate(-22.7622,-12.3811)">
    <g
       transform="translate(42.5779,21.6012)"
       id="g70">
      <line
         stroke-linejoin="round"
         stroke-linecap="round"
         stroke-width="0.1"
         stroke="currentColor"
         x1="0"
         y1="0.66659999"
         x2="3.9435999"
         y2="0"
         id="line68" />
    </g>
    <g
       transform="translate(42.5779,21.6012)"
       id="g74">
      <line
         stroke-linejoin="round"
         stroke-linecap="round"
         stroke-width="0.1"
         stroke="currentColor"
         x1="0"
         y1="-0.66659999"
         x2="3.9435999"
         y2="0"
         id="line72" />
    </g>
  </a>
  <a
     style="color:inherit"
     xlink:href="textedit:///Users/philippeperret/__Current_Work__/HANON/images/materiel/Building-exercice/cresc-decresc-untrimed.ly:32:5:6"
     id="a86"
     transform="translate(-22.7622,-12.3811)">
    <g
       transform="translate(31.3669,21.6012)"
       id="g80">
      <line
         stroke-linejoin="round"
         stroke-linecap="round"
         stroke-width="0.1"
         stroke="currentColor"
         x1="0"
         y1="0"
         x2="6.8273001"
         y2="0.66659999"
         id="line78" />
    </g>
    <g
       transform="translate(31.3669,21.6012)"
       id="g84">
      <line
         stroke-linejoin="round"
         stroke-linecap="round"
         stroke-width="0.1"
         stroke="currentColor"
         x1="0"
         y1="0"
         x2="6.8273001"
         y2="-0.66659999"
         id="line82" />
    </g>
  </a>
  <a
     style="color:inherit"
     xlink:href="textedit:///Users/philippeperret/__Current_Work__/HANON/images/materiel/Building-exercice/cresc-decresc-untrimed.ly:32:8:9"
     id="a92"
     transform="translate(-22.7622,-12.3811)">
    <g
       transform="translate(35.5306,19.1601)"
       id="g90">
      <path
         transform="scale(0.004,-0.004)"
         d="m 314,65 c 0,23 -19,41 -42,41 C 233,106 68,-4 41,-37 34,-45 31,-55 31,-65 c 0,-23 19,-41 42,-41 39,0 203,110 230,143 7,8 11,18 11,28 z m -52,71 c 41,0 82,-14 82,-71 0,-26 -16,-112 -74,-151 -25,-17 -87,-50 -187,-50 -41,0 -83,14 -83,71 0,26 16,112 74,151 25,17 88,50 188,50 z"
         fill="currentColor"
         id="path88" />
    </g>
  </a>
  <g
     transform="translate(14.0807,3.779)"
     id="g96">
    <rect
       x="-0.064999998"
       y="-0.5"
       width="0.13"
       height="3.2409999"
       ry="0.039999999"
       fill="currentColor"
       id="rect94" />
  </g>
  <a
     style="color:inherit"
     xlink:href="textedit:///Users/philippeperret/__Current_Work__/HANON/images/materiel/Building-exercice/cresc-decresc-untrimed.ly:32:10:11"
     id="a102"
     transform="translate(-22.7622,-12.3811)">
    <g
       transform="translate(39.6943,19.1601)"
       id="g100">
      <path
         transform="scale(0.004,-0.004)"
         d="m 314,65 c 0,23 -19,41 -42,41 C 233,106 68,-4 41,-37 34,-45 31,-55 31,-65 c 0,-23 19,-41 42,-41 39,0 203,110 230,143 7,8 11,18 11,28 z m -52,71 c 41,0 82,-14 82,-71 0,-26 -16,-112 -74,-151 -25,-17 -87,-50 -187,-50 -41,0 -83,14 -83,71 0,26 16,112 74,151 25,17 88,50 188,50 z"
         fill="currentColor"
         id="path98" />
    </g>
  </a>
  <a
     style="color:inherit"
     xlink:href="textedit:///Users/philippeperret/__Current_Work__/HANON/images/materiel/Building-exercice/cresc-decresc-untrimed.ly:32:11:12"
     id="a112"
     transform="translate(-22.7622,-12.3811)">
    <g
       transform="translate(39.1879,22.2012)"
       id="g110">
      <g
         id="g108">
        <path
           transform="scale(0.004,-0.004)"
           d="M 253,245 203,82 C 173,-17 82,-173 -15,-173 c -45,0 -87,27 -87,69 0,39 17,77 52,77 24,0 44,-20 44,-44 0,-30 -38,-24 -38,-54 0,-10 11,-11 23,-11 h 6 c 48,0 61,58 73,108 l 68,273 H 77 c -11,0 -19,8 -19,19 0,11 8,19 19,19 h 60 c 32,96 118,191 213,191 45,0 87,-27 87,-69 0,-39 -17,-77 -52,-77 -24,0 -44,19 -44,43 0,30 38,25 38,55 0,10 -10,11 -22,11 h -7 c -62,0 -70,-88 -86,-154 h 55 c 11,0 19,-8 19,-19 0,-11 -8,-19 -19,-19 z"
           fill="currentColor"
           id="path104" />
        <path
           transform="matrix(0.004,0,0,-0.004,1.1267,0)"
           d="M 253,245 203,82 C 173,-17 82,-173 -15,-173 c -45,0 -87,27 -87,69 0,39 17,77 52,77 24,0 44,-20 44,-44 0,-30 -38,-24 -38,-54 0,-10 11,-11 23,-11 h 6 c 48,0 61,58 73,108 l 68,273 H 77 c -11,0 -19,8 -19,19 0,11 8,19 19,19 h 60 c 32,96 118,191 213,191 45,0 87,-27 87,-69 0,-39 -17,-77 -52,-77 -24,0 -44,19 -44,43 0,30 38,25 38,55 0,10 -10,11 -22,11 h -7 c -62,0 -70,-88 -86,-154 h 55 c 11,0 19,-8 19,-19 0,-11 -8,-19 -19,-19 z"
           fill="currentColor"
           id="path106" />
      </g>
    </g>
  </a>
  <g
     transform="translate(18.2444,3.779)"
     id="g116">
    <rect
       x="-0.064999998"
       y="-0.5"
       width="0.13"
       height="3.2409999"
       ry="0.039999999"
       fill="currentColor"
       id="rect114" />
  </g>
  <a
     style="color:inherit"
     xlink:href="textedit:///Users/philippeperret/__Current_Work__/HANON/images/materiel/Building-exercice/cresc-decresc-untrimed.ly:32:17:18"
     id="a122"
     transform="translate(-22.7622,-12.3811)">
    <g
       transform="translate(43.8579,19.1601)"
       id="g120">
      <path
         transform="scale(0.004,-0.004)"
         d="m 314,65 c 0,23 -19,41 -42,41 C 233,106 68,-4 41,-37 34,-45 31,-55 31,-65 c 0,-23 19,-41 42,-41 39,0 203,110 230,143 7,8 11,18 11,28 z m -52,71 c 41,0 82,-14 82,-71 0,-26 -16,-112 -74,-151 -25,-17 -87,-50 -187,-50 -41,0 -83,14 -83,71 0,26 16,112 74,151 25,17 88,50 188,50 z"
         fill="currentColor"
         id="path118" />
    </g>
  </a>
  <g
     transform="translate(22.4081,3.779)"
     id="g126">
    <rect
       x="-0.064999998"
       y="-0.5"
       width="0.13"
       height="3.2409999"
       ry="0.039999999"
       fill="currentColor"
       id="rect124" />
  </g>
  <a
     style="color:inherit"
     xlink:href="textedit:///Users/philippeperret/__Current_Work__/HANON/images/materiel/Building-exercice/cresc-decresc-untrimed.ly:32:19:20"
     id="a132"
     transform="translate(-22.7622,-12.3811)">
    <g
       transform="translate(48.0216,19.1601)"
       id="g130">
      <path
         transform="scale(0.004,-0.004)"
         d="m 314,65 c 0,23 -19,41 -42,41 C 233,106 68,-4 41,-37 34,-45 31,-55 31,-65 c 0,-23 19,-41 42,-41 39,0 203,110 230,143 7,8 11,18 11,28 z m -52,71 c 41,0 82,-14 82,-71 0,-26 -16,-112 -74,-151 -25,-17 -87,-50 -187,-50 -41,0 -83,14 -83,71 0,26 16,112 74,151 25,17 88,50 188,50 z"
         fill="currentColor"
         id="path128" />
    </g>
  </a>
  <g
     transform="translate(26.5717,3.779)"
     id="g136">
    <rect
       x="-0.064999998"
       y="-0.5"
       width="0.13"
       height="3.2409999"
       ry="0.039999999"
       fill="currentColor"
       id="rect134" />
  </g>
</svg>
