<?xml version="1.0" encoding="UTF-8" standalone="no"?><!DOCTYPE svg PUBLIC "-//W3C//DTD SVG 1.1//EN" "http://www.w3.org/Graphics/SVG/1.1/DTD/svg11.dtd"><svg width="100%" height="100%" viewBox="0 0 300 187" version="1.1" xmlns="http://www.w3.org/2000/svg" xmlns:xlink="http://www.w3.org/1999/xlink" xml:space="preserve" xmlns:serif="http://www.serif.com/" style="fill-rule:evenodd;clip-rule:evenodd;stroke-linecap:round;stroke-linejoin:round;"><path id="line4" d="M0,154.711l299.15,0" style="fill:none;fill-rule:nonzero;stroke:#000;stroke-width:1.67px;"/><path id="line6" d="M0,133.956l299.15,-0" style="fill:none;fill-rule:nonzero;stroke:#000;stroke-width:1.67px;"/><path id="line8" d="M0,113.2l299.15,0" style="fill:none;fill-rule:nonzero;stroke:#000;stroke-width:1.67px;"/><path id="line10" d="M0,92.445l299.15,-0" style="fill:none;fill-rule:nonzero;stroke:#000;stroke-width:1.67px;"/><path id="line12" d="M0,71.689l299.15,0" style="fill:none;fill-rule:nonzero;stroke:#000;stroke-width:1.67px;"/><rect id="rect16" x="240.955" y="117.063" width="2.698" height="65.322"/><g id="a24"></g><g id="a28"><path id="path26" d="M125.544,145.884c21.775,22.563 69.724,22.563 91.499,0c-21.775,20.073 -69.724,20.073 -91.499,0Z" style="fill-rule:nonzero;stroke:#000;stroke-width:1.66px;"/></g><rect id="rect30" x="136.38" y="54.878" width="2.698" height="64.838"/><path id="polygon32" d="M137.211,59.029l-0,-8.303l92.536,0l-0,8.303l-92.536,-0Z" style="fill-rule:nonzero;stroke:#000;stroke-width:1.66px;"/><path id="polygon34" d="M191.262,75.841l0,-8.303l38.485,0l-0,8.303l-38.485,-0Z" style="fill-rule:nonzero;stroke:#000;stroke-width:1.66px;"/><path id="polygon36" d="M191.262,92.653l0,-8.303l38.485,0l-0,8.303l-38.485,-0Z" style="fill-rule:nonzero;stroke:#000;stroke-width:1.66px;"/><rect id="rect38" x="190.432" y="54.878" width="2.698" height="75.216"/><g id="a42"><path id="path40" d="M184.16,122.665c4.566,-0 8.966,2.325 8.966,7.389c-0,5.894 -4.566,10.046 -8.468,12.37c-2.906,1.744 -6.227,2.823 -9.631,2.823c-4.566,-0 -8.966,-2.325 -8.966,-7.389c-0,-5.895 4.566,-10.046 8.468,-12.37c2.906,-1.744 6.227,-2.823 9.631,-2.823Z" style="fill-rule:nonzero;"/></g><path id="path44" d="M148.419,123.578c-0,-2.573 2.075,-4.649 4.649,-4.649c2.574,-0 4.649,2.076 4.649,4.649c0,2.574 -2.075,4.649 -4.649,4.649c-2.574,0 -4.649,-2.075 -4.649,-4.649Z" style="fill-rule:nonzero;"/><g id="a48"><path id="path46" d="M100.886,25.986c0,1.826 1.412,2.491 3.238,2.491c3.238,-0 5.978,-1.163 8.552,-2.325l0.415,-1.993c-1.91,-1.411 -4.151,-2.407 -6.725,-2.407c-2.657,-0 -5.48,1.328 -5.48,4.234Zm22.499,10.212c0,5.064 -3.902,9.547 -8.136,9.547c-3.238,0 -4.649,-3.653 -4.649,-7.555c0,-1.162 0.083,-2.325 0.332,-3.404l1.245,-6.309c-2.573,1.079 -5.147,2.075 -8.385,2.075c-2.906,0 -4.981,-1.494 -4.981,-4.234c-0,-4.234 4.068,-6.642 7.97,-6.642c2.574,0 4.815,0.83 6.808,2.076l3.819,-19.261c0.498,0.249 1.079,0.415 1.66,0.415c1.827,-0 3.985,-1.329 5.646,-2.906l-4.4,22.084l5.313,-2.989c2.159,-1.162 4.234,-1.66 6.144,-1.66c2.407,-0 4.4,0.83 5.313,2.324c1.494,-1.66 3.653,-2.49 5.729,-2.49c2.988,-0 5.728,1.826 5.728,5.728c0,3.736 -2.241,7.472 -5.396,7.472c-2.076,0 -3.155,-1.826 -3.155,-3.985c-0,-3.404 2.407,-5.313 4.981,-5.313l0.249,-0c-0.664,-1.163 -1.909,-1.661 -3.155,-1.661c-1.992,0 -4.151,1.329 -4.566,3.57l-4.483,22.416c-0.913,-0.581 -1.993,-0.913 -3.155,-0.913c-1.162,-0 -2.407,0.332 -3.57,0.913l4.483,-22.416l0,-0.581c0,-1.328 -0.996,-2.159 -2.407,-2.159c-0.581,0 -1.329,0.249 -1.993,0.582l-6.558,3.653l-0.582,2.573c2.242,2.574 4.151,5.563 4.151,9.05Zm-4.981,5.396c1.91,0 2.906,-2.823 2.906,-5.064c-0,-2.491 -1.162,-4.567 -2.657,-6.476l-0.415,2.242c-0.332,1.494 -1.079,4.649 -1.079,6.89c-0,1.412 0.332,2.408 1.245,2.408Z" style="fill-rule:nonzero;"/></g><g id="a52"><path id="path50" d="M130.108,112.287c4.566,0 8.967,2.325 8.967,7.389c-0,5.895 -4.567,10.046 -8.469,12.37c-2.905,1.744 -6.226,2.823 -9.63,2.823c-4.566,0 -8.967,-2.324 -8.967,-7.389c0,-5.894 4.567,-10.045 8.469,-12.37c2.905,-1.743 6.226,-2.823 9.63,-2.823Z" style="fill-rule:nonzero;"/></g><g id="a60"><path id="path58" d="M259.054,101.909c4.566,0 8.966,2.325 8.966,7.389c0,5.895 -4.566,10.046 -8.468,12.371c-2.906,1.743 -6.227,2.822 -9.631,2.822c-4.566,0 -8.966,-2.324 -8.966,-7.388c-0,-5.895 4.566,-10.046 8.468,-12.371c2.906,-1.743 6.227,-2.823 9.631,-2.823Z" style="fill-rule:nonzero;"/></g><g id="a70"></g><path id="path72" d="M37.65,186.675l-0.498,-0c-8.966,-0 -16.189,-7.306 -16.189,-16.355c0,-4.816 4.4,-8.552 9.299,-8.552c4.483,0 7.887,3.902 7.887,8.552c-0,4.317 -3.57,7.887 -7.887,7.887c-0.914,-0 -1.744,-0.166 -2.574,-0.498c2.158,3.237 5.645,5.396 9.713,5.396l0.332,-0l-0.083,3.57Zm16.19,-35.866c5.645,-1.992 9.381,-7.887 9.381,-13.615c0,-7.472 -5.479,-14.861 -14.363,-15.774c1.993,9.63 3.819,19.178 4.982,29.389Zm-32.13,-19.178c0,11.208 10.71,20.507 21.918,20.507c2.325,-0 4.566,-0.166 6.808,-0.498c-1.162,-10.544 -3.072,-20.341 -5.231,-30.22c-6.558,0.664 -10.294,5.064 -10.294,9.879c-0,3.653 2.075,7.555 6.725,10.212c0.415,0.415 0.581,0.83 0.581,1.245c-0,0.914 -0.831,1.827 -1.827,1.827c-0.249,-0 -0.498,-0.083 -0.747,-0.166c-6.642,-3.57 -9.714,-9.548 -9.714,-15.359c0,-7.306 4.816,-14.446 13.284,-16.356c-1.162,-4.815 -2.408,-9.713 -3.819,-14.529c-8.883,10.046 -17.684,20.175 -17.684,33.458Zm21.669,24.077c-15.608,-0 -27.646,-14.28 -27.646,-31.05c-0,-14.695 10.876,-25.405 20.589,-36.613c-1.577,-5.148 -3.072,-10.378 -3.736,-15.774c-0.498,-4.318 -0.581,-8.635 -0.581,-12.952c-0,-9.547 4.566,-18.597 12.37,-24.242c0.498,-0.415 1.163,-0.415 1.661,-0c5.894,6.974 11.042,20.34 11.042,29.722c-0,11.872 -7.14,21.17 -14.944,30.22c1.743,5.645 3.238,11.457 4.649,17.185c0.332,0 0.747,-0.083 1.079,-0.083c12.869,0 21.254,10.627 21.254,21.669c-0,6.31 -2.74,12.785 -8.884,17.435c-1.826,1.411 -3.902,2.324 -6.06,2.988c0.249,2.906 0.415,5.812 0.415,8.718c-0,1.577 -0.083,3.237 -0.166,4.815c-0.581,9.88 -7.306,18.68 -16.771,18.929l0.083,-3.57c7.722,-0.166 12.703,-7.638 13.201,-15.857c0.083,-1.495 0.166,-3.072 0.166,-4.566c0,-2.574 -0.083,-5.065 -0.332,-7.638c-2.408,0.415 -4.815,0.664 -7.389,0.664Zm7.721,-97.8c0,-4.566 -0.332,-6.559 -1.66,-10.71c-8.22,3.985 -13.45,12.37 -13.45,21.503c0,6.143 1.494,11.042 2.989,16.106c6.642,-8.053 12.121,-16.438 12.121,-26.899Z" style="fill-rule:nonzero;"/><g id="a76"></g><rect id="rect78" x="227.879" y="54.878" width="2.698" height="64.838"/><g id="a82"><path id="path80" d="M221.607,112.287c4.566,0 8.966,2.325 8.966,7.389c0,5.895 -4.566,10.046 -8.468,12.37c-2.906,1.744 -6.227,2.823 -9.631,2.823c-4.566,0 -8.966,-2.324 -8.966,-7.389c-0,-5.894 4.566,-10.045 8.468,-12.37c2.906,-1.743 6.227,-2.823 9.631,-2.823Z" style="fill-rule:nonzero;"/></g></svg>