<?xml version="1.0" encoding="UTF-8" standalone="no"?>
<!DOCTYPE svg PUBLIC "-//W3C//DTD SVG 1.1//EN" "http://www.w3.org/Graphics/SVG/1.1/DTD/svg11.dtd">
<svg width="100%" height="100%" viewBox="0 0 37 23" version="1.1" xmlns="http://www.w3.org/2000/svg" xmlns:xlink="http://www.w3.org/1999/xlink" xml:space="preserve" xmlns:serif="http://www.serif.com/" style="fill-rule:evenodd;clip-rule:evenodd;stroke-linecap:round;stroke-linejoin:round;">
    <g transform="matrix(1,0,0,1,-3.94486,-14.1751)">
        <g transform="matrix(0.822564,0,0,1,3.96894,1.157)">
            <g id="line4">
                <path d="M0.249,34.172L43.598,34.172" style="fill:none;fill-rule:nonzero;stroke:black;stroke-width:0.5px;"/>
            </g>
        </g>
        <g transform="matrix(0.822564,0,0,1,3.96894,1.157)">
            <g id="line6">
                <path d="M0.249,29.191L43.598,29.191" style="fill:none;fill-rule:nonzero;stroke:black;stroke-width:0.5px;"/>
            </g>
        </g>
        <g transform="matrix(0.822564,0,0,1,3.96894,1.157)">
            <g id="line8">
                <path d="M0.249,24.209L43.598,24.209" style="fill:none;fill-rule:nonzero;stroke:black;stroke-width:0.5px;"/>
            </g>
        </g>
        <g transform="matrix(0.822564,0,0,1,3.96894,1.157)">
            <g id="line10">
                <path d="M0.249,19.228L43.598,19.228" style="fill:none;fill-rule:nonzero;stroke:black;stroke-width:0.5px;"/>
            </g>
        </g>
        <g transform="matrix(0.822564,0,0,1,3.96894,1.157)">
            <g>
                <g id="line12">
                    <path d="M0.249,14.247L43.598,14.247" style="fill:none;fill-rule:nonzero;stroke:black;stroke-width:0.5px;"/>
                </g>
            </g>
        </g>
        <g transform="matrix(0.004,0,0,-0.004,28.642,27.8713)">
            <g>
                <g id="path28">
                    <path d="M1085.93,677.459C1359.9,677.459 1623.91,537.983 1623.91,234.122C1623.91,-119.552 1349.94,-368.618 1115.82,-508.095C941.469,-612.702 742.217,-677.459 537.983,-677.459C264.01,-677.459 0,-537.983 0,-234.122C0,119.552 273.973,368.618 508.095,508.095C682.441,612.702 881.694,677.459 1085.93,677.459Z" style="fill-rule:nonzero;"/>
                </g>
            </g>
        </g>
        <g transform="matrix(8.11369,0,0,8.11369,8.6924,35.9544)">
            <g>
                <text x="0px" y="0px" style="font-family:'BodoniSvtyTwoITCTT-Book', 'Bodoni 72';font-size:5.785px;">a</text>
            </g>
        </g>
    </g>
</svg>
